<svg xmlns="http://www.w3.org/2000/svg" width="116.999" height="115" viewBox="0 0 116.999 115">
  <g id="Grupo_1016332" data-name="Grupo 1016332" transform="translate(-425.438 -7498.47)">
    <g id="Grupo_1015374" data-name="Grupo 1015374" transform="translate(425.927 7498.205)">
      <g id="Grupo_1015448" data-name="Grupo 1015448" transform="translate(0 0)">
        <g id="Grupo_1014855" data-name="Grupo 1014855" transform="translate(0 0)">
          <path id="Unión_12" data-name="Unión 12" d="M58.5,0C90.809,0,117,25.744,117,57.5S90.809,115,58.5,115,0,89.256,0,57.5,26.192,0,58.5,0Z" transform="translate(-0.49 0.265)" fill="#6fefc4"/>
          <ellipse id="Elipse_4842" data-name="Elipse 4842" cx="49" cy="49.5" rx="49" ry="49.5" transform="translate(9.51 7.265)" fill="#fff"/>
        </g>
      </g>
    </g>
    <g id="small-business" transform="translate(451.486 7523.711)">
      <path id="Trazado_717291" data-name="Trazado 717291" d="M127.381,170.047a7.656,7.656,0,0,1-6.411-3.478l-.654-.015a7.649,7.649,0,0,1-13.032-.307l-.262-.006a7.652,7.652,0,0,1-13.357-.227,7.689,7.689,0,0,1-4.8,3.782v13.966a.915.915,0,0,0,.914.914H112.1a13.243,13.243,0,0,1,17.452-4.293V169.731A7.631,7.631,0,0,1,127.381,170.047Z" transform="translate(-75.365 -147.188)" fill="#fff"/>
      <path id="Trazado_717292" data-name="Trazado 717292" d="M55.324,232.482H84.272a13.25,13.25,0,0,1-5.357-16.915H57.61a2.746,2.746,0,0,1-2.743-2.743V199.106l-.114,0a7.632,7.632,0,0,1-2.172-.315v30.946a2.746,2.746,0,0,0,2.743,2.743Z" transform="translate(-43.196 -176.25)" fill="#bbe8ff"/>
      <g id="Grupo_1017068" data-name="Grupo 1017068" transform="translate(5.727 1.829)">
        <path id="Trazado_717293" data-name="Trazado 717293" d="M44.868,23.441H82.883l-8.412-7.315H42.238l-8.412,7.315Z" transform="translate(-32.295 -16.126)" fill="#60b4ff"/>
        <path id="Trazado_717294" data-name="Trazado 717294" d="M26.158,106.814a5.836,5.836,0,0,0,5.829-5.829V96.756H20.329v4.229A5.836,5.836,0,0,0,26.158,106.814Z" transform="translate(-20.329 -87.613)" fill="#60b4ff"/>
        <path id="Trazado_717295" data-name="Trazado 717295" d="M145.087,106.814a5.836,5.836,0,0,0,5.829-5.829V96.756H139.258v4.229A5.836,5.836,0,0,0,145.087,106.814Z" transform="translate(-125.771 -87.613)" fill="#60b4ff"/>
        <path id="Trazado_717296" data-name="Trazado 717296" d="M264.016,106.814a5.836,5.836,0,0,0,5.829-5.829V96.756H258.187v4.229A5.836,5.836,0,0,0,264.016,106.814Z" transform="translate(-231.214 -87.613)" fill="#60b4ff"/>
        <path id="Trazado_717297" data-name="Trazado 717297" d="M388.775,100.985V96.756H377.117v4.229a5.829,5.829,0,1,0,11.658,0Z" transform="translate(-336.657 -87.613)" fill="#60b4ff"/>
      </g>
      <path id="Trazado_717298" data-name="Trazado 717298" d="M301.869,294.3A11.429,11.429,0,1,0,313.3,305.728,11.442,11.442,0,0,0,301.869,294.3Zm5.029,7.772a.914.914,0,0,1-1.829,0v-.914a.915.915,0,0,0-.914-.914h-4.572a.915.915,0,0,0-.914.914v2.286a1.373,1.373,0,0,0,1.371,1.371H303.7a3.2,3.2,0,0,1,3.2,3.2V310.3a2.746,2.746,0,0,1-2.743,2.743h-1.371v1.371a.914.914,0,0,1-1.829,0v-1.371h-1.371a2.746,2.746,0,0,1-2.743-2.743v-.914a.914.914,0,0,1,1.829,0v.914a.915.915,0,0,0,.914.914h4.572a.915.915,0,0,0,.914-.914v-2.286a1.373,1.373,0,0,0-1.371-1.371h-3.657a3.2,3.2,0,0,1-3.2-3.2v-2.286a2.746,2.746,0,0,1,2.743-2.743h1.371v-1.371a.914.914,0,0,1,1.829,0v1.371h1.371a2.746,2.746,0,0,1,2.743,2.743v.914Z" transform="translate(-254.082 -260.926)" fill="#ffc550"/>
      <path id="Trazado_717299" data-name="Trazado 717299" d="M56.016,34.415V21.728A7.659,7.659,0,0,0,59.673,15.2V10.619a1.559,1.559,0,0,0-.493-1.406C59.032,9.085,49.039.394,48.844.224a.914.914,0,0,0-.6-.224H15.328a.915.915,0,0,0-.6.224L5.036,8.652c-.463.4-1.107.8-1.14,1.464-.083,1.684,0,3.4,0,5.084a7.66,7.66,0,0,0,3.657,6.527V53.489a4.577,4.577,0,0,0,4.572,4.572H48.547a.913.913,0,0,0,.26-.039,13.253,13.253,0,0,0,7.209-23.607ZM9.385,22.543a7.631,7.631,0,0,0,2.172.315l.114,0V36.574a2.746,2.746,0,0,0,2.743,2.743h21.3a13.25,13.25,0,0,0,5.357,16.915H12.128a2.746,2.746,0,0,1-2.743-2.743ZM47.9,1.829l8.412,7.315H7.258L15.67,1.829ZM19.214,10.972H30.872V15.2a5.829,5.829,0,1,1-11.658,0V10.972Zm13.487,0H44.358V15.2a5.829,5.829,0,0,1-11.658,0V10.972ZM47.787,31.545a13.256,13.256,0,0,0-11.052,5.943H14.413a.915.915,0,0,1-.914-.914V22.608a7.69,7.69,0,0,0,4.8-3.782,7.652,7.652,0,0,0,13.358.227l.262.006a7.649,7.649,0,0,0,13.032.307l.654.015a7.645,7.645,0,0,0,8.583,3.162V33.2a13.176,13.176,0,0,0-6.4-1.651ZM52.016,21.03A5.836,5.836,0,0,1,46.187,15.2V10.972H57.845V15.2a5.836,5.836,0,0,1-5.829,5.829ZM5.727,10.972H17.385V15.2a5.829,5.829,0,1,1-11.658,0Zm42.06,45.26A11.429,11.429,0,1,1,59.216,44.8,11.442,11.442,0,0,1,47.787,56.232Z" fill="#005284"/>
      <path id="Trazado_717300" data-name="Trazado 717300" d="M354.195,312.712h-1.371V311.34a.914.914,0,0,0-1.829,0v1.371h-1.371a2.746,2.746,0,0,0-2.743,2.743v2.286a3.2,3.2,0,0,0,3.2,3.2h3.657a1.373,1.373,0,0,1,1.371,1.371V324.6a.915.915,0,0,1-.914.914h-4.572a.915.915,0,0,1-.914-.914v-.914a.914.914,0,1,0-1.829,0v.914a2.746,2.746,0,0,0,2.743,2.743h1.371v1.371a.914.914,0,0,0,1.829,0v-1.371h1.371a2.746,2.746,0,0,0,2.743-2.743v-2.286a3.2,3.2,0,0,0-3.2-3.2H350.08a1.373,1.373,0,0,1-1.371-1.371v-2.286a.915.915,0,0,1,.914-.914h4.572a.915.915,0,0,1,.914.914v.914a.914.914,0,0,0,1.829,0v-.914A2.746,2.746,0,0,0,354.195,312.712Z" transform="translate(-304.122 -275.224)" fill="#005284"/>
    </g>
  </g>
</svg>
