<svg xmlns="http://www.w3.org/2000/svg" xmlns:xlink="http://www.w3.org/1999/xlink" width="116.999" height="115" viewBox="0 0 116.999 115">
  <defs>
    <clipPath id="clip-path">
      <path id="path3347" d="M0-682.665H56.874v56.874H0Z" transform="translate(0 682.665)"/>
    </clipPath>
  </defs>
  <g id="Grupo_1016362" data-name="Grupo 1016362" transform="translate(-425.438 -7498.47)">
    <g id="Grupo_1015374" data-name="Grupo 1015374" transform="translate(425.927 7498.205)">
      <g id="Grupo_1015448" data-name="Grupo 1015448" transform="translate(0 0)">
        <g id="Grupo_1014855" data-name="Grupo 1014855" transform="translate(0 0)">
          <path id="Unión_12" data-name="Unión 12" d="M58.5,0C90.809,0,117,25.744,117,57.5S90.809,115,58.5,115,0,89.256,0,57.5,26.192,0,58.5,0Z" transform="translate(-0.49 0.265)" fill="#6fefc4"/>
          <path id="Trazado_608322" data-name="Trazado 608322" d="M49,0C76.062,0,98,22.162,98,49.5S76.062,99,49,99,0,76.838,0,49.5,21.938,0,49,0Z" transform="translate(9.51 7.265)" fill="#fff"/>
        </g>
      </g>
    </g>
    <g id="g3333" transform="translate(455.5 8205.136)">
      <g id="g3335" transform="translate(40.338 -669.161)">
        <path id="path3337" d="M-91.161-84.182l-.246-2.444.245-.381-.409-4.385-.711-.442h-4.8l-.583.442-.409,4.385h0l.256.284-.256,2.666-.3.241-1.07,11.471.528.392h8.664l.461-.392-1.07-11.471Z" transform="translate(99.446 91.833)" fill="#dbedff"/>
      </g>
      <g id="g3339" transform="translate(40.338 -669.161)">
        <path id="path3341" d="M-48.853-88.207l.3-.241.256-2.666-.256-.284h0l.409-4.385.583-.441h-3.37l-.583.441-.409,4.385h0l.256.284-.256,2.666-.3.241-1.07,11.471.528.392h3.37l-.528-.392Z" transform="translate(53.293 96.224)" fill="#b5dcff"/>
      </g>
      <g id="g3343" transform="translate(0 -682.665)">
        <g id="g3345" clip-path="url(#clip-path)">
          <g id="g3351" transform="translate(35.663 32.992)">
            <path id="path3353" d="M-192.767,0h-16.655l-.864.84v19.18H-192.4l.255-.228V.62a.62.62,0,0,0-.619-.62" transform="translate(210.286)" fill="#8479c2"/>
          </g>
          <g id="g3355" transform="translate(35.663 32.992)">
            <path id="path3357" d="M-51.437-6.816a.62.62,0,0,1,.62-.62h-4.431l-.864.84v19.18h4.929l-.255-.228Z" transform="translate(56.112 7.436)" fill="#6e60b8"/>
          </g>
          <g id="g3359" transform="translate(41.203 10.755)">
            <path id="path3361" d="M-80.811,0h-6.765a.579.579,0,0,0-.58.579V2.611a.579.579,0,0,0,.58.579h6.765a.579.579,0,0,0,.58-.579V.579A.579.579,0,0,0-80.811,0" transform="translate(88.156)" fill="#b5dcff"/>
          </g>
          <g id="g3363" transform="translate(41.203 10.755)">
            <path id="path3365" d="M-35.852-28.73v-2.032a.579.579,0,0,1,.579-.579h-3.258a.579.579,0,0,0-.579.579v2.032a.579.579,0,0,0,.579.579h3.258a.579.579,0,0,1-.579-.579" transform="translate(39.111 31.341)" fill="#8bcaff"/>
          </g>
          <g id="g3367" transform="translate(27.347 0.833)">
            <path id="path3369" d="M-185.111-22.6a.5.5,0,0,1-.548-.272,3.257,3.257,0,0,0-5.1-.927.494.494,0,0,1-.667,0,3.251,3.251,0,0,0-4.392,0,.493.493,0,0,1-.668,0,3.256,3.256,0,0,0-5.449,2.4,3.256,3.256,0,0,0,5.449,2.4.493.493,0,0,1,.668,0,3.251,3.251,0,0,0,4.393,0,.494.494,0,0,1,.667,0,3.251,3.251,0,0,0,4.046.28.5.5,0,0,1,.615.026,2.254,2.254,0,0,0,3.724-1.7,2.252,2.252,0,0,0-2.738-2.2" transform="translate(201.934 24.653)" fill="#dbedff"/>
          </g>
          <g id="g3371" transform="translate(27.347 2.82)">
            <path id="path3373" d="M-174.256-15.813a.5.5,0,0,0-.615-.026,3.251,3.251,0,0,1-4.045-.28.494.494,0,0,0-.667,0,3.251,3.251,0,0,1-4.393,0,.493.493,0,0,0-.668,0,3.274,3.274,0,0,1-5.2-1.133,3.287,3.287,0,0,0-.245,1.263,3.256,3.256,0,0,0,5.448,2.4.493.493,0,0,1,.668,0,3.251,3.251,0,0,0,4.393,0,.494.494,0,0,1,.667,0,3.251,3.251,0,0,0,4.045.28.5.5,0,0,1,.615.026,2.253,2.253,0,0,0,3.724-1.7,2.223,2.223,0,0,0-.383-1.257,2.271,2.271,0,0,1-3.341.43" transform="translate(190.093 17.251)" fill="#b5dcff"/>
          </g>
          <g id="g3375" transform="translate(41.409 18.331)">
            <path id="path3377" d="M0-35.105H7.512l-.3-3.191H.3Z" transform="translate(0 38.296)" fill="#f27182"/>
          </g>
          <g id="g3379" transform="translate(41.409 18.33)">
            <path id="path3381" d="M-3.278,0l-.3,3.19h3.37L.091,0Z" transform="translate(3.576)" fill="#ed5469"/>
          </g>
          <path id="path3383" d="M482.4-84.09h9.951v-3.34H482.4Z" transform="translate(-442.207 137.019)" fill="#00d2fc"/>
          <path id="path3385" d="M482.4-84.09h4.681v-3.34H482.4Z" transform="translate(-442.207 137.019)" fill="#00c2fb"/>
          <path id="path3387" d="M482.4-157.308h9.951v-3.34H482.4Z" transform="translate(-442.207 204.138)" fill="#00d2fc"/>
          <path id="path3389" d="M482.4-157.308h4.681v-3.34H482.4Z" transform="translate(-442.207 204.138)" fill="#00c2fb"/>
          <g id="g3391" transform="translate(25 27.382)">
            <path id="path3393" d="M-116.044-.805l-9.8,4.932a.677.677,0,0,0-.373.6l-.376.392V24.752h11.071l.457-.228V-.2a.677.677,0,0,0-.981-.6" transform="translate(126.59 0.879)" fill="#ffc365"/>
          </g>
          <path id="path3395" d="M482.4-119.251h9.951v-3.05H482.4Z" transform="translate(-442.207 168.986)" fill="#62ddfc"/>
          <path id="path3397" d="M482.4-119.251h4.681v-3.05H482.4Z" transform="translate(-442.207 168.986)" fill="#00d2fc"/>
          <g id="g3399" transform="translate(40.189 40.247)">
            <path id="path3401" d="M-107.852-.265h-9.653a.523.523,0,0,1-.149-.024V3.1h9.951V-.289a.524.524,0,0,1-.149.024" transform="translate(117.654 0.289)" fill="#62ddfc"/>
          </g>
          <g id="g3403" transform="translate(40.189 40.247)">
            <path id="path3405" d="M-50.733-.265h-4.541a.133.133,0,0,1-.07-.024V3.1h4.681V-.289a.133.133,0,0,1-.07.024" transform="translate(55.344 0.289)" fill="#00d2fc"/>
          </g>
          <g id="g3407" transform="translate(39.759 37.416)">
            <path id="path3409" d="M-112.59,0h-9.653a.579.579,0,0,0-.58.579V2.611a.579.579,0,0,0,.58.579h9.653a.579.579,0,0,0,.58-.579V.579A.579.579,0,0,0-112.59,0" transform="translate(122.822)" fill="#dbedff"/>
          </g>
          <g id="g3411" transform="translate(39.759 37.416)">
            <path id="path3413" d="M-49.865-28.73v-2.032a.579.579,0,0,1,.579-.579h-4.532a.579.579,0,0,0-.579.579v2.032a.579.579,0,0,0,.579.579h4.532a.579.579,0,0,1-.579-.579" transform="translate(54.397 31.341)" fill="#b5dcff"/>
          </g>
          <g id="g3415" transform="translate(25.376 27.382)">
            <path id="path3417" d="M-34.341-73.6a.677.677,0,0,1,.373-.6l7.658-3.855v-1.551a.677.677,0,0,0-.981-.6l-9.8,4.932a.677.677,0,0,0-.373.6v19.793h3.121Z" transform="translate(37.463 80.289)" fill="#ffa90f"/>
          </g>
          <g id="g3419" transform="translate(13.743 27.382)">
            <path id="path3421" d="M-117.2-.805l-9.8,4.932a.677.677,0,0,0-.373.6l-.481.392V25.048h10.775l.858-.524V-.2a.677.677,0,0,0-.981-.6" transform="translate(127.846 0.879)" fill="#ffc365"/>
          </g>
          <g id="g3423" transform="translate(14.224 27.382)">
            <path id="path3425" d="M-34.343-73.6a.677.677,0,0,1,.373-.6l7.658-3.855v-1.551a.677.677,0,0,0-.981-.6l-9.8,4.932a.677.677,0,0,0-.373.6v19.793h3.121Z" transform="translate(37.464 80.289)" fill="#ffa90f"/>
          </g>
          <g id="g3427" transform="translate(3.073 27.382)">
            <path id="path3429" d="M-111.9-.805l-9.8,4.932a.677.677,0,0,0-.373.6V24.524h11.152V-.2a.677.677,0,0,0-.981-.6" transform="translate(122.073 0.879)" fill="#ffc365"/>
          </g>
          <g id="g3431" transform="translate(3.073 27.382)">
            <path id="path3433" d="M-34.341-73.6a.677.677,0,0,1,.373-.6l7.658-3.855v-1.551a.677.677,0,0,0-.981-.6l-9.8,4.932a.677.677,0,0,0-.373.6v19.793h3.121Z" transform="translate(37.463 80.289)" fill="#ffa90f"/>
          </g>
          <g id="g3435" transform="translate(0.834 52.674)">
            <path id="path3437" d="M-598.6,0h-53.6A.805.805,0,0,0-653,.805V2.562a.805.805,0,0,0,.805.805h53.6a.805.805,0,0,0,.805-.805V.805A.805.805,0,0,0-598.6,0" transform="translate(653.002)" fill="#dbedff"/>
          </g>
          <g id="g3439" transform="translate(0.834 53.552)">
            <path id="path3441" d="M-598.6-8.86h-53.6A.805.805,0,0,1-653-9.665v1.684a.805.805,0,0,0,.805.805h53.6a.805.805,0,0,0,.805-.805V-9.665a.805.805,0,0,1-.805.805" transform="translate(653.002 9.665)" fill="#b5dcff"/>
          </g>
          <g id="g3443" transform="translate(28.386 35.475)">
            <path id="path3445" d="M-48.894,0h-3.756a.688.688,0,0,0-.688.688v4.2a.688.688,0,0,0,.688.688h3.756a.688.688,0,0,0,.688-.688V.688A.688.688,0,0,0-48.894,0" transform="translate(53.337)" fill="#00d2fc"/>
          </g>
          <g id="g3447" transform="translate(17.234 35.475)">
            <path id="path3449" d="M-48.892,0h-3.756a.688.688,0,0,0-.688.688v4.2a.688.688,0,0,0,.688.688h3.756a.688.688,0,0,0,.688-.688V.688A.688.688,0,0,0-48.892,0" transform="translate(53.336)" fill="#00d2fc"/>
          </g>
          <g id="g3451" transform="translate(6.083 35.475)">
            <path id="path3453" d="M-48.894,0h-3.756a.688.688,0,0,0-.688.688v4.2a.688.688,0,0,0,.688.688h3.756a.688.688,0,0,0,.688-.688V.688A.688.688,0,0,0-48.894,0" transform="translate(53.337)" fill="#00d2fc"/>
          </g>
          <g id="g3455" transform="translate(28.386 35.475)">
            <path id="path3457" d="M-28.231-53.781v-4.2a.688.688,0,0,1,.688-.688h-2.566a.688.688,0,0,0-.688.688v4.2a.688.688,0,0,0,.688.688h2.566a.688.688,0,0,1-.688-.688" transform="translate(30.797 58.669)" fill="#00c2fb"/>
          </g>
          <g id="g3459" transform="translate(17.234 35.475)">
            <path id="path3461" d="M-28.231-53.781v-4.2a.688.688,0,0,1,.688-.688h-2.566a.688.688,0,0,0-.688.688v4.2a.688.688,0,0,0,.688.688h2.566a.688.688,0,0,1-.688-.688" transform="translate(30.797 58.669)" fill="#00c2fb"/>
          </g>
          <g id="g3463" transform="translate(6.083 35.475)">
            <path id="path3465" d="M-28.231-53.781v-4.2a.688.688,0,0,1,.688-.688h-2.566a.688.688,0,0,0-.688.688v4.2a.688.688,0,0,0,.688.688h2.566a.688.688,0,0,1-.688-.688" transform="translate(30.797 58.669)" fill="#00c2fb"/>
          </g>
          <g id="g3467" transform="translate(13.391 26.549)">
            <path id="path3469" d="M-120.766-10.879h0a1.512,1.512,0,0,1,1.51,1.511V15.358a.833.833,0,0,1-.833.833H-131.24a.833.833,0,0,1-.833-.833V-4.435a1.5,1.5,0,0,1,.831-1.349l9.8-4.932A1.5,1.5,0,0,1-120.766-10.879Zm-.156,25.4V-9.114l-9.485,4.775V14.525Z" transform="translate(132.073 10.879)"/>
          </g>
          <g id="g3471" transform="translate(5.249 34.642)">
            <path id="path3473" d="M-61.816-10h3.756A1.523,1.523,0,0,1-56.54-8.479v4.2A1.523,1.523,0,0,1-58.06-2.758h-3.756a1.523,1.523,0,0,1-1.521-1.521v-4.2A1.523,1.523,0,0,1-61.816-10Zm3.61,1.666h-3.465v3.91h3.465Z" transform="translate(63.337 10)"/>
          </g>
          <g id="g3475" transform="translate(2.239 26.549)">
            <path id="path3477" d="M-120.766-10.879h0a1.512,1.512,0,0,1,1.51,1.511V15.358a.833.833,0,0,1-.833.833H-131.24a.833.833,0,0,1-.833-.833V-4.435a1.5,1.5,0,0,1,.831-1.349l9.8-4.932A1.5,1.5,0,0,1-120.766-10.879Zm-.156,25.4V-9.114l-9.485,4.775V14.525Z" transform="translate(132.073 10.879)"/>
          </g>
          <g id="g3479" transform="translate(16.401 34.642)">
            <path id="path3481" d="M-61.815-10h3.756a1.523,1.523,0,0,1,1.521,1.521v4.2a1.523,1.523,0,0,1-1.521,1.521h-3.756a1.523,1.523,0,0,1-1.521-1.521v-4.2A1.523,1.523,0,0,1-61.815-10ZM-58.2-8.334H-61.67v3.91H-58.2Z" transform="translate(63.336 10)"/>
          </g>
          <g id="g3483" transform="translate(24.542 26.549)">
            <path id="path3485" d="M-120.766-10.879h0a1.512,1.512,0,0,1,1.51,1.511V15.358a.833.833,0,0,1-.833.833H-131.24a.833.833,0,0,1-.833-.833V-4.435a1.5,1.5,0,0,1,.831-1.349l9.8-4.932A1.5,1.5,0,0,1-120.766-10.879Zm-.156,25.4V-9.114l-9.485,4.775V14.525Z" transform="translate(132.073 10.879)"/>
          </g>
          <g id="g3487" transform="translate(27.552 34.642)">
            <path id="path3489" d="M-61.816-10h3.756A1.523,1.523,0,0,1-56.54-8.479v4.2A1.523,1.523,0,0,1-58.06-2.758h-3.756a1.523,1.523,0,0,1-1.521-1.521v-4.2A1.523,1.523,0,0,1-61.816-10Zm3.61,1.666h-3.465v3.91h3.465Z" transform="translate(63.337 10)"/>
          </g>
          <g id="g3491" transform="translate(35.694 32.159)">
            <path id="path3493" d="M-209.082-10h16.655a1.454,1.454,0,0,1,1.453,1.453V10.626a.833.833,0,0,1-.833.833h-17.275a.833.833,0,0,1-.833-.833V-9.167A.833.833,0,0,1-209.082-10Zm16.442,1.666h-15.609V9.793h15.609Z" transform="translate(209.915 10)"/>
          </g>
          <g id="g3495" transform="translate(38.925 36.583)">
            <path id="path3497" d="M-131.41-10h9.653a1.414,1.414,0,0,1,1.413,1.413v2.032a1.414,1.414,0,0,1-1.413,1.413h-9.653a1.414,1.414,0,0,1-1.413-1.413V-8.587A1.414,1.414,0,0,1-131.41-10Zm9.4,1.666h-9.146v1.524h9.146Z" transform="translate(132.822 10)"/>
          </g>
          <g id="g3499" transform="translate(40.369 9.922)">
            <path id="path3501" d="M-96.743-10h6.765a1.414,1.414,0,0,1,1.413,1.413v2.032a1.414,1.414,0,0,1-1.413,1.413h-6.765a1.414,1.414,0,0,1-1.413-1.413V-8.587A1.414,1.414,0,0,1-96.743-10Zm6.511,1.666H-96.49v1.524h6.258Z" transform="translate(98.156 10)"/>
          </g>
          <path id="path3503" d="M483.174-90.976h-9.951a.833.833,0,0,1-.833-.833v-3.05a.833.833,0,0,1,.833-.833h9.951a.833.833,0,0,1,.833.833v3.05A.833.833,0,0,1,483.174-90.976Zm-9.118-1.666h8.285v-1.384h-8.285Z" transform="translate(-433.034 144.594)"/>
          <g id="g3505" transform="translate(39.356 39.746)">
            <path id="path3507" d="M-116.816-10.331a.787.787,0,0,1,.485.175.81.81,0,0,1,.293.664v3.05a.833.833,0,0,1-.833.833h-9.951a.833.833,0,0,1-.833-.833v-3.05a.835.835,0,0,1,.327-.657.842.842,0,0,1,.694-.155h9.614A.791.791,0,0,1-116.816-10.331Zm-.888,1.694h-8.285v1.362h8.285Z" transform="translate(127.656 10.331)"/>
          </g>
          <path id="path3509" d="M483.174-164.194h-9.951a.833.833,0,0,1-.833-.833v-3.05a.833.833,0,0,1,.833-.833h9.951a.833.833,0,0,1,.833.833v3.05A.833.833,0,0,1,483.174-164.194Zm-9.118-1.666h8.285v-1.384h-8.285Z" transform="translate(-433.034 211.712)"/>
          <path id="path3511" d="M483.174-127.585h-9.951a.833.833,0,0,1-.833-.833v-3.05a.833.833,0,0,1,.833-.833h9.951a.833.833,0,0,1,.833.833v3.05A.833.833,0,0,1,483.174-127.585Zm-9.118-1.666h8.285v-1.384h-8.285Z" transform="translate(-433.034 178.153)"/>
          <g id="g3513" transform="translate(40.575 17.497)">
            <path id="path3515" d="M-1.655-43.439H-9.167a.833.833,0,0,1-.616-.272A.833.833,0,0,1-10-44.35l.3-3.191a.833.833,0,0,1,.83-.756h6.917a.833.833,0,0,1,.83.756l.3,3.191a.833.833,0,0,1-.214.638A.833.833,0,0,1-1.655-43.439Zm-6.6-1.666h5.683l-.142-1.524h-5.4Z" transform="translate(10 48.296)"/>
          </g>
          <g id="g3517" transform="translate(26.514 0)">
            <path id="path3519" d="M-202.788-34.653a4.065,4.065,0,0,1,2.53.877,4.039,4.039,0,0,1,2.52-.876,4.061,4.061,0,0,1,3.542,2.026,2.932,2.932,0,0,1,.406-.028,3.088,3.088,0,0,1,3.084,3.085,3.064,3.064,0,0,1-3.1,3.081,3.026,3.026,0,0,1-1.8-.59,4.053,4.053,0,0,1-2.116.591,4.071,4.071,0,0,1-2.533-.878,4.064,4.064,0,0,1-2.531.878,4.065,4.065,0,0,1-2.529-.876,3.993,3.993,0,0,1-2.5.875,4.061,4.061,0,0,1-4.117-4.082,4.061,4.061,0,0,1,4.117-4.082,3.992,3.992,0,0,1,2.5.875A4.065,4.065,0,0,1-202.788-34.653ZM-200.256-32a1.323,1.323,0,0,1-.9-.35,2.4,2.4,0,0,0-1.632-.634,2.4,2.4,0,0,0-1.631.634,1.324,1.324,0,0,1-.9.35,1.316,1.316,0,0,1-.9-.354,2.3,2.3,0,0,0-1.6-.629,2.411,2.411,0,0,0-2.45,2.416,2.411,2.411,0,0,0,2.45,2.416,2.3,2.3,0,0,0,1.6-.629,1.316,1.316,0,0,1,.9-.354,1.324,1.324,0,0,1,.9.35,2.4,2.4,0,0,0,1.632.633,2.4,2.4,0,0,0,1.633-.635,1.322,1.322,0,0,1,.9-.35,1.321,1.321,0,0,1,.9.349,2.407,2.407,0,0,0,1.636.636,2.4,2.4,0,0,0,1.371-.427,1.346,1.346,0,0,1,.77-.242,1.314,1.314,0,0,1,.871.328,1.343,1.343,0,0,0,.9.339,1.414,1.414,0,0,0,1.439-1.415,1.421,1.421,0,0,0-1.418-1.418,1.405,1.405,0,0,0-.3.034,1.3,1.3,0,0,1-.286.032,1.346,1.346,0,0,1-1.191-.744,2.4,2.4,0,0,0-2.168-1.32,2.375,2.375,0,0,0-1.62.631A1.319,1.319,0,0,1-200.256-32Z" transform="translate(211.933 34.653)"/>
          </g>
          <g id="g3521" transform="translate(0 51.952)">
            <path id="path3523" d="M-309.431-44.161h-24.855a.833.833,0,0,1-.833-.833.833.833,0,0,1,.833-.833h24.855l-.028-1.618-53.57.028L-363-45.8l24.827-.028a.833.833,0,0,1,.833.833.833.833,0,0,1-.833.833h-24.855a1.64,1.64,0,0,1-1.638-1.638v-1.646a1.64,1.64,0,0,1,1.638-1.638h53.6a1.64,1.64,0,0,1,1.638,1.638V-45.8A1.64,1.64,0,0,1-309.431-44.161Z" transform="translate(364.667 49.084)"/>
          </g>
          <g id="g3525" transform="translate(39.505 13.113)">
            <path id="path3527" d="M-106.215-119.673h-9.653a.833.833,0,0,1-.616-.272.833.833,0,0,1-.214-.638l1.777-19.046a.833.833,0,0,1,.83-.756h6.1a.833.833,0,0,1,.83.756l1.014,10.863a.833.833,0,0,1-.752.907.833.833,0,0,1-.907-.752l-.943-10.107h-4.58l-1.622,17.38h7.824l-.316-3.385a.833.833,0,0,1,.752-.907.833.833,0,0,1,.907.752l.4,4.3a.833.833,0,0,1-.214.638A.833.833,0,0,1-106.215-119.673Z" transform="translate(116.701 140.385)"/>
          </g>
        </g>
      </g>
    </g>
  </g>
</svg>
