<svg xmlns="http://www.w3.org/2000/svg" xmlns:xlink="http://www.w3.org/1999/xlink" width="116.999" height="115" viewBox="0 0 116.999 115">
  <defs>
    <clipPath id="clip-path">
      <path id="path165" d="M0-682.665H64.587v64.587H0Z" transform="translate(0 682.665)"/>
    </clipPath>
  </defs>
  <g id="Grupo_1067964" data-name="Grupo 1067964" transform="translate(-425.438 -7498.47)">
    <g id="Grupo_1015374" data-name="Grupo 1015374" transform="translate(425.927 7498.205)">
      <g id="Grupo_1015448" data-name="Grupo 1015448" transform="translate(0 0)">
        <g id="Grupo_1014855" data-name="Grupo 1014855" transform="translate(0 0)">
          <path id="Unión_12" data-name="Unión 12" d="M58.5,0C90.809,0,117,25.744,117,57.5S90.809,115,58.5,115,0,89.256,0,57.5,26.192,0,58.5,0Z" transform="translate(-0.49 0.265)" fill="#6fefc4"/>
          <path id="Trazado_608322" data-name="Trazado 608322" d="M49,0C76.062,0,98,22.162,98,49.5S76.062,99,49,99,0,76.838,0,49.5,21.938,0,49,0Z" transform="translate(9.51 7.265)" fill="#fff"/>
        </g>
      </g>
    </g>
    <g id="g159" transform="translate(449.863 8203.285)">
      <g id="g161" transform="translate(0 -682.665)">
        <g id="g163" clip-path="url(#clip-path)">
          <g id="g169" transform="translate(41.532 0.946)">
            <path id="path171" d="M-148.091-140.231a14.654,14.654,0,0,0-14.654-14.654h-.821a6.41,6.41,0,0,1,6.41,6.41v.962a1.693,1.693,0,0,0,1.693,1.693h.962a6.41,6.41,0,0,1,6.41,6.41Z" transform="translate(163.566 154.885)" fill="#e2dfe2"/>
          </g>
          <g id="g173" transform="translate(7.58 7.884)">
            <path id="path175" d="M-166.063,0h-14.794a2.559,2.559,0,0,0-2.559,2.559v9.478a2.559,2.559,0,0,1,2.559-2.559h14.794A2.559,2.559,0,0,0-163.5,6.919V2.559A2.559,2.559,0,0,0-166.063,0" transform="translate(183.416)" fill="#a2f4c1"/>
          </g>
          <g id="g177" transform="translate(11.922 0.946)">
            <path id="path179" d="M-370.107-86.751h-.962a1.693,1.693,0,0,1-1.693-1.693v-.962a6.41,6.41,0,0,0-6.41-6.41h-27.917a1.693,1.693,0,0,0-1.693,1.693v5.245h13.011a2.559,2.559,0,0,1,2.559,2.559v4.36A2.559,2.559,0,0,1-395.77-79.4h-13.011v44.585a1.693,1.693,0,0,0,1.693,1.693h41.7a1.693,1.693,0,0,0,1.693-1.693V-80.341a6.41,6.41,0,0,0-6.41-6.41" transform="translate(408.782 95.816)" fill="#f9f6f9"/>
          </g>
          <g id="g181" transform="translate(11.922 10.011)">
            <path id="path183" d="M-370.6,0a6.382,6.382,0,0,1,1.312,3.887V38.506a12.6,12.6,0,0,1-12.6,12.6h-27.439v.83a1.693,1.693,0,0,0,1.693,1.693h41.7a1.693,1.693,0,0,0,1.693-1.693V6.41A6.41,6.41,0,0,0-370.6,0" transform="translate(409.328)" fill="#efecef"/>
          </g>
          <g id="g185" transform="translate(7.58 17.363)">
            <path id="path187" d="M-41.549-48.974h-1.783a2.559,2.559,0,0,1-2.559-2.559,2.559,2.559,0,0,1,2.559-2.559h1.783Z" transform="translate(45.891 54.092)" fill="#86f1a7"/>
          </g>
          <g id="g189" transform="translate(23.193 23.602)">
            <path id="path191" d="M-275.3-59.575v-4.964a1.261,1.261,0,0,0-1.261-1.261h-27.506v6.225Z" transform="translate(304.067 65.8)" fill="#80e29d"/>
          </g>
          <g id="g193" transform="translate(16.968 23.602)">
            <path id="path195" d="M-59.575,0h-4.964A1.261,1.261,0,0,0-65.8,1.261V6.225h6.225Z" transform="translate(65.8)" fill="#78d090"/>
          </g>
          <g id="g197" transform="translate(16.968 29.827)">
            <path id="path199" d="M0,0V27.506a1.261,1.261,0,0,0,1.261,1.261H6.225V0Z" fill="#80e29d"/>
          </g>
          <g id="g201" transform="translate(23.193 29.827)">
            <path id="path203" d="M0,0V28.768H27.506a1.261,1.261,0,0,0,1.261-1.261V0Z" fill="#a2f4c1"/>
          </g>
          <g id="g205" transform="translate(46.925 48.522)">
            <path id="path207" d="M-36.115-96.394a1.261,1.261,0,0,0,1.261-1.261v-8.811a12.581,12.581,0,0,1-5.035,10.073Z" transform="translate(39.889 106.466)" fill="#86f1a7"/>
          </g>
          <g id="g209" transform="translate(40.586 0)">
            <path id="path211" d="M-157.145-147.518a.946.946,0,0,1-.946-.946,5.47,5.47,0,0,0-5.464-5.464h-.962a2.642,2.642,0,0,1-2.639-2.639v-.962a5.47,5.47,0,0,0-5.464-5.464.946.946,0,0,1-.946-.946.946.946,0,0,1,.946-.946h.821a15.617,15.617,0,0,1,15.6,15.6v.821A.946.946,0,0,1-157.145-147.518Zm-9.685-14.543a7.319,7.319,0,0,1,1.566,4.532v.962a.748.748,0,0,0,.747.747h.962a7.319,7.319,0,0,1,4.532,1.566A13.783,13.783,0,0,0-166.83-162.061Z" transform="translate(173.566 164.885)"/>
          </g>
          <g id="g213" transform="translate(6.634 6.938)">
            <path id="path215" d="M-154.944-96.255a.946.946,0,0,1-.946-.946v-9.478a3.509,3.509,0,0,1,3.505-3.505h14.794a3.509,3.509,0,0,1,3.505,3.505v4.36a3.509,3.509,0,0,1-3.505,3.505h-3.55a.946.946,0,0,1-.946-.946.946.946,0,0,1,.946-.946h3.55a1.615,1.615,0,0,0,1.613-1.613v-4.36a1.615,1.615,0,0,0-1.613-1.613h-14.794A1.615,1.615,0,0,0-154-106.68v6.367a3.483,3.483,0,0,1,1.613-.394h6.829a.946.946,0,0,1,.946.946.946.946,0,0,1-.946.946h-6.829A1.615,1.615,0,0,0-154-97.2.946.946,0,0,1-154.944-96.255Z" transform="translate(155.89 110.185)"/>
          </g>
          <g id="g217" transform="translate(10.976 0)">
            <path id="path219" d="M-322.021-1.17a.946.946,0,0,1-.946-.946V-7.361A2.642,2.642,0,0,1-320.328-10h27.917a.946.946,0,0,1,.946.946.946.946,0,0,1-.946.946h-27.917a.748.748,0,0,0-.747.747v5.245A.946.946,0,0,1-322.021-1.17Z" transform="translate(322.967 10)"/>
          </g>
          <g id="g221" transform="translate(56.061 15.475)">
            <path id="path223" d="M-9.054-297.472a.946.946,0,0,1-.946-.946v-30.237a.946.946,0,0,1,.946-.946.946.946,0,0,1,.946.946v30.237A.946.946,0,0,1-9.054-297.472Z" transform="translate(10 329.602)"/>
          </g>
          <g id="g225" transform="translate(10.976 16.417)">
            <path id="path227" d="M34.338,38.17h-41.7A2.642,2.642,0,0,1-10,35.531V-9.054A.946.946,0,0,1-9.054-10a.946.946,0,0,1,.946.946V35.531a.748.748,0,0,0,.747.747h41.7a.748.748,0,0,0,.747-.747V24.657a.946.946,0,0,1,1.892,0V35.531A2.642,2.642,0,0,1,34.338,38.17Z" transform="translate(10 10)"/>
          </g>
          <g id="g229" transform="translate(6.634 18.975)">
            <path id="path231" d="M-50.6-32.6h-1.783a3.509,3.509,0,0,1-3.5-3.5.946.946,0,0,1,.946-.946A.946.946,0,0,1-54-36.1a1.615,1.615,0,0,0,1.613,1.613H-50.6a.946.946,0,0,1,.946.946A.946.946,0,0,1-50.6-32.6Z" transform="translate(55.891 37.047)"/>
          </g>
          <g id="g233" transform="translate(22.247 22.656)">
            <path id="path235" d="M-284.353-67.682a.946.946,0,0,1-.946-.946v-4.964a.316.316,0,0,0-.315-.315h-26.56v5.279a.946.946,0,0,1-.946.946.946.946,0,0,1-.946-.946v-6.225a.946.946,0,0,1,.946-.946h27.506a2.21,2.21,0,0,1,2.208,2.208v4.964A.946.946,0,0,1-284.353-67.682Z" transform="translate(314.067 75.8)"/>
          </g>
          <g id="g237" transform="translate(16.022 22.656)">
            <path id="path239" d="M-73.592-10h4.964a.946.946,0,0,1,.946.946v6.225a.946.946,0,0,1-.946.946h-6.225a.946.946,0,0,1-.946-.946V-7.792A2.21,2.21,0,0,1-73.592-10Zm4.018,1.892h-4.018a.316.316,0,0,0-.315.315v4.018h4.333Z" transform="translate(75.8 10)"/>
          </g>
          <g id="g241" transform="translate(16.022 28.881)">
            <path id="path243" d="M-2.829,20.66H-7.792A2.21,2.21,0,0,1-10,18.452V-9.054A.946.946,0,0,1-9.054-10a.946.946,0,0,1,.946.946V18.452a.316.316,0,0,0,.315.315h4.964a.946.946,0,0,1,.946.946A.946.946,0,0,1-2.829,20.66Z" transform="translate(10 10)"/>
          </g>
          <g id="g245" transform="translate(22.247 28.881)">
            <path id="path247" d="M-99.637,20.66h-27.506a.946.946,0,0,1-.946-.946V-9.054a.946.946,0,0,1,.946-.946h11.172a.946.946,0,0,1,.946.946.946.946,0,0,1-.946.946H-126.2V18.768h26.56a.316.316,0,0,0,.315-.315V-8.108h-12.234a.946.946,0,0,1-.946-.946.946.946,0,0,1,.946-.946h13.18a.946.946,0,0,1,.946.946V18.452A2.21,2.21,0,0,1-99.637,20.66Z" transform="translate(128.089 10)"/>
          </g>
          <g id="g249" transform="translate(31.836 22.656)">
            <path id="path251" d="M-9.054,26.885A.946.946,0,0,1-10,25.939V-9.054A.946.946,0,0,1-9.054-10a.946.946,0,0,1,.946.946V25.939A.946.946,0,0,1-9.054,26.885Z" transform="translate(10 10)"/>
          </g>
          <g id="g253" transform="translate(41.425 22.656)">
            <path id="path255" d="M-9.054,26.885A.946.946,0,0,1-10,25.939V-9.054A.946.946,0,0,1-9.054-10a.946.946,0,0,1,.946.946V25.939A.946.946,0,0,1-9.054,26.885Z" transform="translate(10 10)"/>
          </g>
          <g id="g257" transform="translate(16.022 34.635)">
            <path id="path259" d="M25.939-8.108H-9.054A.946.946,0,0,1-10-9.054.946.946,0,0,1-9.054-10H25.939a.946.946,0,0,1,.946.946A.946.946,0,0,1,25.939-8.108Z" transform="translate(10 10)"/>
          </g>
          <g id="g261" transform="translate(16.022 40.388)">
            <path id="path263" d="M25.939-8.108H-9.054A.946.946,0,0,1-10-9.054.946.946,0,0,1-9.054-10H25.939a.946.946,0,0,1,.946.946A.946.946,0,0,1,25.939-8.108Z" transform="translate(10 10)"/>
          </g>
          <g id="g265" transform="translate(16.022 46.142)">
            <path id="path267" d="M25.939-8.108H-9.054A.946.946,0,0,1-10-9.054.946.946,0,0,1-9.054-10H25.939a.946.946,0,0,1,.946.946A.946.946,0,0,1,25.939-8.108Z" transform="translate(10 10)"/>
          </g>
          <g id="g269" transform="translate(16.022 51.895)">
            <path id="path271" d="M25.939-8.108H-9.054A.946.946,0,0,1-10-9.054.946.946,0,0,1-9.054-10H25.939a.946.946,0,0,1,.946.946A.946.946,0,0,1,25.939-8.108Z" transform="translate(10 10)"/>
          </g>
        </g>
      </g>
    </g>
  </g>
</svg>
