<svg xmlns="http://www.w3.org/2000/svg" width="116.999" height="115" viewBox="0 0 116.999 115">
  <g id="Grupo_1067963" data-name="Grupo 1067963" transform="translate(-425.438 -7498.47)">
    <g id="Grupo_1015374" data-name="Grupo 1015374" transform="translate(425.927 7498.205)">
      <g id="Grupo_1015448" data-name="Grupo 1015448" transform="translate(0 0)">
        <g id="Grupo_1014855" data-name="Grupo 1014855" transform="translate(0 0)">
          <path id="Unión_12" data-name="Unión 12" d="M58.5,0C90.809,0,117,25.744,117,57.5S90.809,115,58.5,115,0,89.256,0,57.5,26.192,0,58.5,0Z" transform="translate(-0.49 0.265)" fill="#6fefc4"/>
          <ellipse id="Elipse_4842" data-name="Elipse 4842" cx="49" cy="49.5" rx="49" ry="49.5" transform="translate(9.51 7.265)" fill="#fff"/>
        </g>
      </g>
    </g>
    <g id="hoja-de-calculo" transform="translate(451.914 7523.943)">
      <g id="Grupo_1067990" data-name="Grupo 1067990" transform="translate(0.938 0.942)">
        <g id="Grupo_1067987" data-name="Grupo 1067987">
          <path id="Trazado_718603" data-name="Trazado 718603" d="M62.685,65.6h-48.2A6.986,6.986,0,0,1,7.5,58.616V14.487A6.986,6.986,0,0,1,14.486,7.5h48.2a6.986,6.986,0,0,1,6.986,6.986V58.616A6.986,6.986,0,0,1,62.685,65.6Z" transform="translate(-7.5 -7.5)" fill="#9dc6fb"/>
          <path id="Trazado_718604" data-name="Trazado 718604" d="M17.107,65.6H14.486A6.985,6.985,0,0,1,7.5,58.61V14.481A6.986,6.986,0,0,1,14.486,7.5h2.621a6.986,6.986,0,0,0-6.986,6.986V58.61A6.985,6.985,0,0,0,17.107,65.6Z" transform="translate(-7.5 -7.495)" fill="#80b4fb"/>
          <path id="Trazado_718605" data-name="Trazado 718605" d="M92.165,101.244V137.17a3.232,3.232,0,0,1-3.232,3.232h-48.2A3.232,3.232,0,0,1,37.5,137.17V101.244a3.958,3.958,0,0,1,3.958-3.958H88.207A3.958,3.958,0,0,1,92.165,101.244Z" transform="translate(-33.747 -86.054)" fill="#f1f4f6"/>
          <path id="Trazado_718606" data-name="Trazado 718606" d="M44.808,140.407H40.732a3.233,3.233,0,0,1-3.232-3.232V101.248a3.959,3.959,0,0,1,3.958-3.958h4.075a3.958,3.958,0,0,0-3.958,3.958v35.926A3.233,3.233,0,0,0,44.808,140.407Z" transform="translate(-33.747 -86.057)" fill="#dddaec"/>
          <g id="Grupo_1067986" data-name="Grupo 1067986" transform="translate(3.753 3.453)">
            <circle id="Elipse_5912" data-name="Elipse 5912" cx="2.288" cy="2.288" r="2.288" fill="#dd636e"/>
            <circle id="Elipse_5913" data-name="Elipse 5913" cx="2.288" cy="2.288" r="2.288" transform="translate(7.274)" fill="#dd636e"/>
            <circle id="Elipse_5914" data-name="Elipse 5914" cx="2.288" cy="2.288" r="2.288" transform="translate(14.547)" fill="#dd636e"/>
          </g>
        </g>
        <path id="Trazado_718607" data-name="Trazado 718607" d="M101.215,140.532v18.256a3.246,3.246,0,0,1-3.246,3.246H75.426a3.246,3.246,0,0,1-3.246-3.246V140.532a3.247,3.247,0,0,1,3.246-3.247H97.969A3.247,3.247,0,0,1,101.215,140.532Z" transform="translate(-64.089 -121.049)" fill="#c8ea73"/>
        <path id="Trazado_718608" data-name="Trazado 718608" d="M93.907,285.231v6.242H75.425a3.246,3.246,0,0,1-3.246-3.246v-3Z" transform="translate(-64.088 -250.488)" fill="#dd636e"/>
        <path id="Trazado_718609" data-name="Trazado 718609" d="M72.179,236.211H93.907v6.132H72.179Z" transform="translate(-64.088 -207.6)" fill="#f5de7d"/>
        <path id="Trazado_718610" data-name="Trazado 718610" d="M253.182,285.231v3a3.246,3.246,0,0,1-3.246,3.246h-4.062v-6.242Z" transform="translate(-216.055 -250.488)" fill="#f5de7d"/>
        <path id="Trazado_718611" data-name="Trazado 718611" d="M93.907,137.289v6.242H72.179v-3a3.246,3.246,0,0,1,3.246-3.246Z" transform="translate(-64.088 -121.053)" fill="#dd636e"/>
        <path id="Trazado_718612" data-name="Trazado 718612" d="M245.874,187.192h7.308v6.132h-7.308Z" transform="translate(-216.055 -164.713)" fill="#dd636e"/>
        <g id="Grupo_1067988" data-name="Grupo 1067988" transform="translate(21.995 39.744)">
          <path id="Trazado_718613" data-name="Trazado 718613" d="M188.944,365.91h-3.494a2.122,2.122,0,0,0-2.122,2.122v15.214h7.737V368.032A2.122,2.122,0,0,0,188.944,365.91Z" transform="translate(-183.329 -360.819)" fill="#c8ea73"/>
          <path id="Trazado_718614" data-name="Trazado 718614" d="M187.732,365.91a2.121,2.121,0,0,0-2.122,2.122v15.214h-2.282V368.032a2.121,2.121,0,0,1,2.122-2.122Z" transform="translate(-183.329 -360.819)" fill="#aad880"/>
          <path id="Trazado_718615" data-name="Trazado 718615" d="M287.428,396.138h-3.494a2.122,2.122,0,0,0-2.122,2.122v11.433h7.737V398.26A2.122,2.122,0,0,0,287.428,396.138Z" transform="translate(-269.493 -387.265)" fill="#dd636e"/>
          <path id="Trazado_718616" data-name="Trazado 718616" d="M286.212,396.13a2.123,2.123,0,0,0-2.122,2.122v11.433h-2.282V398.252a2.123,2.123,0,0,1,2.122-2.122Z" transform="translate(-269.49 -387.258)" fill="#da4a54"/>
          <path id="Trazado_718617" data-name="Trazado 718617" d="M385.913,325.213H382.42a2.122,2.122,0,0,0-2.122,2.122V347.64h7.737V327.335a2.122,2.122,0,0,0-2.122-2.122Z" transform="translate(-355.659 -325.213)" fill="#f5de7d"/>
          <path id="Trazado_718618" data-name="Trazado 718618" d="M384.7,325.21a2.121,2.121,0,0,0-2.122,2.122v20.3H380.3v-20.3a2.121,2.121,0,0,1,2.122-2.122Z" transform="translate(-355.66 -325.21)" fill="#f1ce64"/>
        </g>
        <g id="Grupo_1067989" data-name="Grupo 1067989" transform="translate(33.292 32.79)">
          <path id="Trazado_718619" data-name="Trazado 718619" d="M284.33,273.455l-8.992-3.735a1.227,1.227,0,0,0-1.6,1.6l3.735,8.992a1.227,1.227,0,0,0,2.32-.159l.729-2.777a1.227,1.227,0,0,1,.875-.875l2.777-.729a1.227,1.227,0,0,0,.159-2.319Z" transform="translate(-273.637 -269.623)" fill="#365e7d"/>
        </g>
      </g>
      <g id="Grupo_1067991" data-name="Grupo 1067991" transform="translate(0 0.005)">
        <path id="Trazado_718620" data-name="Trazado 718620" d="M56.124,0H7.923A7.932,7.932,0,0,0,0,7.928V52.057a7.933,7.933,0,0,0,7.923,7.925H21.995v2.193H20.552a.938.938,0,1,0,0,1.876h38.8a.938.938,0,1,0,0-1.876H56.248v-2.2a7.932,7.932,0,0,0,7.8-7.921V7.928A7.932,7.932,0,0,0,56.124.005ZM23.871,62.174V47.9a1.185,1.185,0,0,1,1.183-1.183h3.494A1.185,1.185,0,0,1,29.732,47.9V62.174Zm7.737-5.946h2.706v1.876H31.608Zm0,3.753h2.706v2.193H31.608Zm4.583,2.193V51.68A1.185,1.185,0,0,1,37.374,50.5h3.494a1.185,1.185,0,0,1,1.183,1.183V62.174Zm7.737-5.946h2.707v1.876H43.928Zm0,3.753h2.707v2.193H43.928Zm4.583,2.193V42.808a1.185,1.185,0,0,1,1.183-1.183h3.494a1.185,1.185,0,0,1,1.183,1.183v3.4a.938.938,0,0,0,1.876,0v-3.4a3.063,3.063,0,0,0-3.06-3.06H49.694a3.063,3.063,0,0,0-3.06,3.06V54.352H43.928V51.68a3.063,3.063,0,0,0-3.06-3.06H37.374a3.063,3.063,0,0,0-3.06,3.06v2.673H31.608V47.9a3.063,3.063,0,0,0-3.06-3.06H25.054a3.063,3.063,0,0,0-3.06,3.06v6.454H7.923a2.3,2.3,0,0,1-2.294-2.294V16.132a3.023,3.023,0,0,1,3.02-3.02H55.4a3.023,3.023,0,0,1,3.02,3.02V52.058a2.3,2.3,0,0,1-2.17,2.288V49.964a.938.938,0,1,0-1.876,0v12.21Zm13.66-10.117A6.053,6.053,0,0,1,56.248,58.1V56.226a4.175,4.175,0,0,0,4.047-4.167V16.132a4.9,4.9,0,0,0-4.9-4.9H8.649a4.9,4.9,0,0,0-4.9,4.9V52.058a4.175,4.175,0,0,0,4.171,4.171H21.995v1.876H7.923a6.054,6.054,0,0,1-6.047-6.048V7.928A6.054,6.054,0,0,1,7.923,1.881h48.2a6.054,6.054,0,0,1,6.047,6.047Z" transform="translate(0 -0.005)"/>
        <path id="Trazado_718621" data-name="Trazado 718621" d="M33.226,27.6a3.226,3.226,0,1,0,3.226,3.226A3.23,3.23,0,0,0,33.226,27.6Zm0,4.576a1.35,1.35,0,1,1,1.35-1.35A1.351,1.351,0,0,1,33.226,32.178Z" transform="translate(-26.247 -24.15)"/>
        <path id="Trazado_718622" data-name="Trazado 718622" d="M91.373,27.6A3.226,3.226,0,1,0,94.6,30.828,3.23,3.23,0,0,0,91.373,27.6Zm0,4.576a1.35,1.35,0,1,1,1.35-1.35A1.351,1.351,0,0,1,91.373,32.178Z" transform="translate(-77.121 -24.15)"/>
        <path id="Trazado_718623" data-name="Trazado 718623" d="M149.52,27.6a3.226,3.226,0,1,0,3.226,3.226A3.23,3.23,0,0,0,149.52,27.6Zm0,4.576a1.35,1.35,0,1,1,1.35-1.35A1.351,1.351,0,0,1,149.52,32.178Z" transform="translate(-127.994 -24.15)"/>
        <path id="Trazado_718624" data-name="Trazado 718624" d="M361.757,149.3a11.436,11.436,0,0,1-2.927-1.366,1.166,1.166,0,0,1-.3-1.132,1.6,1.6,0,0,1,.741-1.088v1.346a.938.938,0,1,0,1.876,0v-1.471a2.3,2.3,0,0,1,.741.384.938.938,0,1,0,1.2-1.442,4.338,4.338,0,0,0-1.942-.871V143a.938.938,0,1,0-1.876,0v.721c-.086.021-.173.044-.262.071a3.389,3.389,0,0,0-2.323,2.658,3,3,0,0,0,.988,2.956,12.088,12.088,0,0,0,3.46,1.658,1.728,1.728,0,0,1,1.229,2,2.222,2.222,0,0,1-1.215,1.627v-2.373a.938.938,0,1,0-1.876,0v2.552a3.165,3.165,0,0,1-1.526-.617.938.938,0,1,0-1.027,1.57,4.916,4.916,0,0,0,2.553.931v.732a.938.938,0,1,0,1.876,0v-.818a4.107,4.107,0,0,0,3.066-3.292A3.567,3.567,0,0,0,361.757,149.3Z" transform="translate(-311.721 -124.294)"/>
        <path id="Trazado_718625" data-name="Trazado 718625" d="M101.871,150.244l-6.28-2.609V133.971a4.19,4.19,0,0,0-4.184-4.186H75.458a.938.938,0,1,0,0,1.876H86.407v4.367H66.556v-2.057a2.311,2.311,0,0,1,2.308-2.309h2.841a.938.938,0,1,0,0-1.876H68.864a4.19,4.19,0,0,0-4.184,4.186v18.256a4.189,4.189,0,0,0,4.184,4.184H91.407a4.165,4.165,0,0,0,1.469-.268l.909,2.187a2.133,2.133,0,0,0,1.991,1.335q.078,0,.157-.005a2.137,2.137,0,0,0,1.946-1.611l.728-2.777a.289.289,0,0,1,.206-.206l2.777-.729a2.165,2.165,0,0,0,.281-4.094Zm-8.992-3.735a2.165,2.165,0,0,0-2.985,1.783H88.284v-4.255h5.431v2.819Zm-26.323-2.472H86.407v4.255H66.556Zm27.159-1.876H88.284V137.9h5.431Zm-5.431-10.5h3.124a2.311,2.311,0,0,1,2.308,2.309v2.057H88.284ZM86.407,137.9v4.256H66.556V137.9ZM66.556,152.226v-2.059H86.407v4.367H68.864A2.311,2.311,0,0,1,66.556,152.226Zm24.851,2.308H88.284v-4.367h2.111l1.762,4.242A2.3,2.3,0,0,1,91.407,154.534Zm9.921-2.272a.269.269,0,0,1-.215.259l-2.777.729a2.168,2.168,0,0,0-1.545,1.545l-.728,2.777a.285.285,0,0,1-.546.038l-3.735-8.992a.286.286,0,0,1,.377-.377l8.992,3.735A.269.269,0,0,1,101.329,152.263Z" transform="translate(-56.589 -113.551)"/>
      </g>
    </g>
  </g>
</svg>
