<svg xmlns="http://www.w3.org/2000/svg" width="1030" height="484.157" viewBox="0 0 1030 484.157">
  <g id="Grupo_1068008" data-name="Grupo 1068008" transform="translate(-285 -3491.119)">
    <g id="OBJECTS_2_" data-name="OBJECTS (2)" transform="translate(581.701 3645.017)">
      <path id="Trazado_717487" data-name="Trazado 717487" d="M436.5,204.78c0-112.554-91.243-203.8-203.8-203.8S28.91,92.228,28.91,204.78A202.914,202.914,0,0,0,71.984,330.09H393.428A202.914,202.914,0,0,0,436.5,204.78Z" transform="translate(-9.263 -0.984)" fill="#f5e6ef"/>
      <path id="Trazado_717488" data-name="Trazado 717488" d="M126.043,312.278l.112-21.389-11.663-.594-.13,23.015,11.249.072Z" transform="translate(-6.527 8.276)" fill="#e6b99a"/>
      <path id="Trazado_717489" data-name="Trazado 717489" d="M113.787,308.17s9.212,3.789,13.539-2.184l22.38,11.522-38.776-.228Z" transform="translate(-6.637 8.779)" fill="#17203d"/>
      <path id="Trazado_717490" data-name="Trazado 717490" d="M149.684,320.414l-38.775-.228.023-3.256,38.776.228Z" transform="translate(-6.638 9.129)" fill="#fff"/>
      <path id="Trazado_717491" data-name="Trazado 717491" d="M62.656,312.278l4.116-21.389,11.662-.594-4.1,23.015-11.248.072Z" transform="translate(-8.182 8.276)" fill="#e6b99a"/>
      <path id="Trazado_717492" data-name="Trazado 717492" d="M77.118,308.17s-9.212,3.789-13.539-2.184L41.2,317.508l38.776-.228Z" transform="translate(-8.869 8.779)" fill="#17203d"/>
      <path id="Trazado_717493" data-name="Trazado 717493" d="M41.222,320.414,80,320.186l-.023-3.256-38.776.228Z" transform="translate(-8.869 9.129)" fill="#fff"/>
      <path id="Trazado_717494" data-name="Trazado 717494" d="M132.277,156.732l-1.444,143.392-20.877.885-1.826-113.3-3.067-.056L82.571,301.008,62.7,299.448s14.95-105.4,17.054-113.64l4.977-29.077h47.547Z" transform="translate(-8.181 4.001)" fill="#9f0f6a"/>
      <path id="Trazado_717495" data-name="Trazado 717495" d="M129.587,286.174l-21.2.413" transform="translate(-6.719 8.144)" fill="none" stroke="#323166" stroke-miterlimit="10" stroke-width="0.955"/>
      <path id="Trazado_717496" data-name="Trazado 717496" d="M84.918,286.632l-20.757-1.871" transform="translate(-8.134 8.099)" fill="none" stroke="#323166" stroke-miterlimit="10" stroke-width="0.955"/>
      <path id="Trazado_717497" data-name="Trazado 717497" d="M94.847,186.716h15.212" transform="translate(-7.152 4.961)" fill="none" stroke="#323166" stroke-miterlimit="10" stroke-width="0.955"/>
      <path id="Trazado_717498" data-name="Trazado 717498" d="M73.029,126.008l-5.1,30.142a8,8,0,0,0,15.734,2.877l6.376-28.854Z" transform="translate(-8.016 3.018)" fill="#e6b99a"/>
      <path id="Trazado_717499" data-name="Trazado 717499" d="M66.847,132.557l4.285-18.184c.847-6.087,7.244-10.481,13.375-10.06,6.559.451,10.948,6.014,10.333,12.56l-2.455,17.847Z" transform="translate(-8.048 2.322)" fill="#fff"/>
      <path id="Trazado_717500" data-name="Trazado 717500" d="M82.9,151.583a7.564,7.564,0,0,1-1.443,11.678l-28.376,21.7-9.084-4.891,28.5-30.487C75.481,147.269,80.268,148.87,82.9,151.583Z" transform="translate(-8.78 3.737)" fill="#e6b99a"/>
      <path id="Trazado_717501" data-name="Trazado 717501" d="M57.173,186.92a9.422,9.422,0,1,0-12.059,5.667A9.422,9.422,0,0,0,57.173,186.92Z" transform="translate(-8.943 4.563)" fill="#e6b99a"/>
      <path id="Trazado_717502" data-name="Trazado 717502" d="M39.766,187.514s-4.291-.2-2.975-4.967,5.649-10.193,14.792-7.683Z" transform="translate(-9.018 4.561)" fill="#e6b99a"/>
      <path id="Trazado_717503" data-name="Trazado 717503" d="M91.307,100.731l-11.757,4.291.568,69.418,52.543.12,4.969-57.254-6.049-13.134-15.256-5.31Z" transform="translate(-7.642 2.149)" fill="#fff"/>
      <path id="Trazado_717504" data-name="Trazado 717504" d="M111,154.969a7.406,7.406,0,0,1-11.6-.691l-29.048-28.4L76.5,118.5l34.424,22.352C113.447,143.666,113.513,152.153,111,154.969Z" transform="translate(-7.936 2.777)" fill="#e6b99a"/>
      <path id="Trazado_717505" data-name="Trazado 717505" d="M66.583,112.194s1.512-5.065,6.359-4.1,8.954,5.672,7.11,14.971Z" transform="translate(-8.057 2.44)" fill="#e6b99a"/>
      <path id="Trazado_717506" data-name="Trazado 717506" d="M53.343,97.486c1.368,5.022,5.3,19.7,6.448,24a1.471,1.471,0,0,0,1.56,1.085L73.9,121.422a1.477,1.477,0,0,0,1.283-1.885L68.177,95.589a1.477,1.477,0,0,0-1.553-1.056l-11.988,1.1A1.471,1.471,0,0,0,53.343,97.486Z" transform="translate(-8.482 2.01)" fill="#332c30"/>
      <path id="Trazado_717507" data-name="Trazado 717507" d="M68.134,128.384c5.009,1.409,10.7-.4,12.1-5.407a9.421,9.421,0,0,0-6.52-11.619c-5.009-1.409-11.24-.151-12.648,4.858S63.124,126.975,68.134,128.384Z" transform="translate(-8.243 2.531)" fill="#e6b99a"/>
      <path id="Trazado_717508" data-name="Trazado 717508" d="M112.1,119.866l-13.291,25.4a8,8,0,0,0,12.625,9.821l16.029-23.63Z" transform="translate(-7.073 2.821)" fill="#e6b99a"/>
      <path id="Trazado_717509" data-name="Trazado 717509" d="M106.07,124.185,117.7,108.449a11.7,11.7,0,0,1,15.636-3.2c5.61,3.43,5.991,13.732,1.362,20.142l-6.235,13.181Z" transform="translate(-6.793 2.298)" fill="#fff"/>
      <path id="Trazado_717510" data-name="Trazado 717510" d="M108.668,125.662l7.4-14.439" transform="translate(-6.71 2.544)" fill="none" stroke="#323166" stroke-miterlimit="10" stroke-width="0.955"/>
      <path id="Trazado_717511" data-name="Trazado 717511" d="M123.888,135.229l4,2.57,5.586-10.082" transform="translate(-6.222 3.072)" fill="none" stroke="#323166" stroke-miterlimit="10" stroke-width="0.955"/>
      <path id="Trazado_717512" data-name="Trazado 717512" d="M97.182,86.531l-.489,12.417c-.181,4.36,2.326,6.788,6.485,6.909,3.55.1,7.515-1.464,7.511-5.313l-.141-19.572Z" transform="translate(-7.093 1.576)" fill="#e6b99a"/>
      <path id="Trazado_717513" data-name="Trazado 717513" d="M96.806,97.035l12.242-8.092-11.934-.936Z" transform="translate(-7.089 1.801)" fill="#d1987b"/>
      <path id="Trazado_717514" data-name="Trazado 717514" d="M94.66,75.2a5.15,5.15,0,0,1-4.895,5.358,5.093,5.093,0,0,1-5.177-5.04,5.149,5.149,0,0,1,4.895-5.358A5.094,5.094,0,0,1,94.66,75.2Z" transform="translate(-7.48 1.23)" fill="#d1987b"/>
      <path id="Trazado_717515" data-name="Trazado 717515" d="M101.032,91.2c-7.091-.263-12.715-6.264-12.687-12.252l.127-12.524a13.753,13.753,0,0,1,13.1-13.87c7.438-.234,14.938,5.759,15.147,13.437l-.218,9.759A15.609,15.609,0,0,1,101.032,91.2Z" transform="translate(-7.36 0.666)" fill="#e6b99a"/>
      <path id="Trazado_717516" data-name="Trazado 717516" d="M121.817,75.2A5.1,5.1,0,0,1,116.97,80.5a5.044,5.044,0,0,1-5.126-4.991,5.1,5.1,0,0,1,4.847-5.306A5.044,5.044,0,0,1,121.817,75.2Z" transform="translate(-6.608 1.231)" fill="#e6b99a"/>
      <path id="Trazado_717517" data-name="Trazado 717517" d="M114.643,76.55s1.563-4.162,4.941-3.309" transform="translate(-6.518 1.325)" fill="none" stroke="#332c30" stroke-linecap="round" stroke-linejoin="round" stroke-miterlimit="10" stroke-width="0.709"/>
      <path id="Trazado_717518" data-name="Trazado 717518" d="M88.374,75.787s.114,4.468,2.553,5.146,3.384-.5,6.7-.731c3.73-.259,5.624.35,9.556,2.249,3.288,1.588,7.244-8.664,8.587-11.382.263-.531.817-.142.817-.142l-.865,8.72s-1.5,12.419-15.6,12.013S88.374,75.787,88.374,75.787Z" transform="translate(-7.364 1.25)" fill="#332c30"/>
      <path id="Trazado_717519" data-name="Trazado 717519" d="M88.347,64.113h28.7V62.97c0-7.531-6.425-13.636-14.351-13.636S88.347,55.44,88.347,62.97Z" transform="translate(-7.36 0.563)" fill="#ae819e"/>
      <path id="Trazado_717520" data-name="Trazado 717520" d="M117.3,63.033s-15.672-8.582-30.7-6.649S88.748,63.9,88.748,63.9H117.3Z" transform="translate(-7.613 0.78)" fill="#934576"/>
      <path id="Trazado_717521" data-name="Trazado 717521" d="M116.255,63.654l-.46,7.5-.569,2.636-2.1-10.135Z" transform="translate(-6.567 1.022)" fill="#332c30"/>
      <path id="Trazado_717522" data-name="Trazado 717522" d="M88.43,70.364l-.085-6.758,1.283.05Z" transform="translate(-7.36 1.02)" fill="#332c30"/>
      <path id="Trazado_717523" data-name="Trazado 717523" d="M97.318,75.771l-.184,2.723,2.418-.005" transform="translate(-7.079 1.409)" fill="none" stroke="#332c30" stroke-linecap="round" stroke-linejoin="round" stroke-miterlimit="10" stroke-width="0.709"/>
      <path id="Trazado_717524" data-name="Trazado 717524" d="M94.4,73.81a1.221,1.221,0,1,1-1.21-1.267A1.244,1.244,0,0,1,94.4,73.81Z" transform="translate(-7.245 1.306)" fill="#332c30"/>
      <path id="Trazado_717525" data-name="Trazado 717525" d="M105.694,73.872a1.221,1.221,0,1,1-1.21-1.267A1.244,1.244,0,0,1,105.694,73.872Z" transform="translate(-6.883 1.308)" fill="#332c30"/>
      <path id="Trazado_717526" data-name="Trazado 717526" d="M95.831,68.564s.219,1.227-1.422,1.194a12.98,12.98,0,0,0-2.762.093.923.923,0,0,1-1.013-.466.712.712,0,0,1,.144-.839,4.08,4.08,0,0,1,2.934-1.108C95.66,67.452,95.831,68.564,95.831,68.564Z" transform="translate(-7.289 1.143)" fill="#332c30"/>
      <path id="Trazado_717527" data-name="Trazado 717527" d="M102.28,68.564s-.249,1.23,1.527,1.182a15.146,15.146,0,0,1,2.987.066,1.048,1.048,0,0,0,1.1-.477.671.671,0,0,0-.148-.839,4.528,4.528,0,0,0-3.163-1.081C102.476,67.449,102.28,68.564,102.28,68.564Z" transform="translate(-6.914 1.142)" fill="#332c30"/>
      <path id="Trazado_717528" data-name="Trazado 717528" d="M96.127,82.39a5.755,5.755,0,0,0,5.88-.389" transform="translate(-7.111 1.609)" fill="none" stroke="#fff" stroke-linecap="round" stroke-linejoin="round" stroke-miterlimit="10" stroke-width="0.709"/>
      <path id="Trazado_717529" data-name="Trazado 717529" d="M99.845,97.594l-8.894,3.233s-3.024,6.689,10.741,6.738c14.282.05,14.278-8.606,14.278-8.606L107.3,95.84Z" transform="translate(-7.286 2.052)" fill="#e6b99a"/>
      <path id="Trazado_717530" data-name="Trazado 717530" d="M172.886,329.409H287.55a26.5,26.5,0,0,0,26.5-26.5V62.451a26.5,26.5,0,0,0-26.5-26.5H172.886a26.5,26.5,0,0,0-26.5,26.5V302.908A26.5,26.5,0,0,0,172.886,329.409Z" transform="translate(-5.502 0.135)" fill="#4e7c7b"/>
      <path id="Trazado_717531" data-name="Trazado 717531" d="M172.478,321.08H287.457A18.244,18.244,0,0,0,305.7,302.836V63.6a18.244,18.244,0,0,0-18.244-18.244H172.478A18.244,18.244,0,0,0,154.234,63.6V302.834A18.244,18.244,0,0,0,172.478,321.08Z" transform="translate(-5.251 0.436)" fill="#fdfcff"/>
      <path id="Trazado_717532" data-name="Trazado 717532" d="M200.535,54.441h54.972a4.928,4.928,0,0,0,4.928-4.928V41.476H195.607v8.037A4.928,4.928,0,0,0,200.535,54.441Z" transform="translate(-3.927 0.312)" fill="#4e7c7b"/>
      <path id="Trazado_717533" data-name="Trazado 717533" d="M277.71,129.07H174.319a6.274,6.274,0,0,1-6.275-6.275V91.739a6.274,6.274,0,0,1,6.275-6.275H277.71a6.274,6.274,0,0,1,6.275,6.275v31.056A6.274,6.274,0,0,1,277.71,129.07Z" transform="translate(-4.809 1.72)" fill="#ae819e"/>
      <path id="Trazado_717534" data-name="Trazado 717534" d="M258.126,119.068v16.078l16.97-16.307Z" transform="translate(-1.926 2.788)" fill="#ae819e"/>
      <path id="Trazado_717535" data-name="Trazado 717535" d="M182.638,99.273H264.87" transform="translate(-4.342 2.162)" fill="none" stroke="#271545" stroke-miterlimit="10" stroke-width="0.932"/>
      <path id="Trazado_717536" data-name="Trazado 717536" d="M182.638,107.2H264.87" transform="translate(-4.342 2.416)" fill="none" stroke="#271545" stroke-miterlimit="10" stroke-width="0.932"/>
      <path id="Trazado_717537" data-name="Trazado 717537" d="M182.638,115.13h27.11" transform="translate(-4.342 2.669)" fill="none" stroke="#271545" stroke-miterlimit="10" stroke-width="0.932"/>
      <path id="Trazado_717538" data-name="Trazado 717538" d="M277.71,259.879H174.319a6.274,6.274,0,0,1-6.275-6.275V222.548a6.274,6.274,0,0,1,6.275-6.275H277.71a6.274,6.274,0,0,1,6.275,6.275V253.6A6.274,6.274,0,0,1,277.71,259.879Z" transform="translate(-4.809 5.907)" fill="#ae819e"/>
      <path id="Trazado_717539" data-name="Trazado 717539" d="M258.126,249.878v16.077l16.97-16.306Z" transform="translate(-1.926 6.975)" fill="#ae819e"/>
      <path id="Trazado_717540" data-name="Trazado 717540" d="M182.638,230.083H264.87" transform="translate(-4.342 6.349)" fill="none" stroke="#271545" stroke-miterlimit="10" stroke-width="0.932"/>
      <path id="Trazado_717541" data-name="Trazado 717541" d="M182.638,238.011H264.87" transform="translate(-4.342 6.603)" fill="none" stroke="#271545" stroke-miterlimit="10" stroke-width="0.932"/>
      <path id="Trazado_717542" data-name="Trazado 717542" d="M182.638,245.94h27.11" transform="translate(-4.342 6.857)" fill="none" stroke="#271545" stroke-miterlimit="10" stroke-width="0.932"/>
      <path id="Trazado_717543" data-name="Trazado 717543" d="M174.319,195.593H277.71a6.274,6.274,0,0,0,6.275-6.275V158.262a6.274,6.274,0,0,0-6.275-6.275H174.319a6.274,6.274,0,0,0-6.275,6.275v31.056A6.274,6.274,0,0,0,174.319,195.593Z" transform="translate(-4.809 3.849)" fill="#68a5a4"/>
      <path id="Trazado_717544" data-name="Trazado 717544" d="M189.834,185.591v16.078l-16.969-16.307Z" transform="translate(-4.655 4.917)" fill="#68a5a4"/>
      <path id="Trazado_717545" data-name="Trazado 717545" d="M182.638,164.422H231.5" transform="translate(-4.342 4.247)" fill="none" stroke="#271545" stroke-miterlimit="10" stroke-width="0.932"/>
      <path id="Trazado_717546" data-name="Trazado 717546" d="M182.638,172.349H264.87" transform="translate(-4.342 4.501)" fill="none" stroke="#271545" stroke-miterlimit="10" stroke-width="0.932"/>
      <path id="Trazado_717547" data-name="Trazado 717547" d="M182.638,180.278h16.526" transform="translate(-4.342 4.755)" fill="none" stroke="#271545" stroke-miterlimit="10" stroke-width="0.932"/>
      <path id="Trazado_717548" data-name="Trazado 717548" d="M373.851,314.137l6.357,3.136a1.584,1.584,0,0,1,.873,1.815c-.165.57-.7,1.095-2.119,1.121-3.142.056-17.052-2.111-17.052-2.111v1.459l-6.454-.73s-.451-7.38,1.514-8.46Z" transform="translate(1.189 8.919)" fill="#332c30"/>
      <path id="Trazado_717549" data-name="Trazado 717549" d="M363.556,306.887l10.247,7.387s-1.1,2.816-5.948.938-10.932-4.708-10.932-4.708l.887-4.415Z" transform="translate(1.237 8.782)" fill="#e6b99a"/>
      <path id="Trazado_717550" data-name="Trazado 717550" d="M356.953,311.216l-1.012-27.367,10.234.972-1.457,25.421Z" transform="translate(1.205 8.07)" fill="#e6b99a"/>
      <path id="Trazado_717551" data-name="Trazado 717551" d="M328.946,314.137l-6.356,3.136a1.584,1.584,0,0,0-.873,1.815c.165.57.7,1.095,2.119,1.121,3.142.056,17.052-2.111,17.052-2.111v1.459l6.453-.73s.451-7.38-1.514-8.46Z" transform="translate(0.108 8.919)" fill="#332c30"/>
      <path id="Trazado_717552" data-name="Trazado 717552" d="M338.966,306.887l-10.247,7.387s1.1,2.816,5.949.938S345.6,310.5,345.6,310.5l-.886-4.415Z" transform="translate(0.334 8.782)" fill="#e6b99a"/>
      <path id="Trazado_717553" data-name="Trazado 717553" d="M345.363,311.216l1.012-27.367-10.234.972,1.457,25.421Z" transform="translate(0.572 8.07)" fill="#e6b99a"/>
      <path id="Trazado_717554" data-name="Trazado 717554" d="M364.562,149.115s7.881,4.136,10.035,23.327-4.008,129.41-4.008,129.41H355.431l-2.154-121.172-4.111,121.172h-15.7l-5.13-113.44s-2.018-27.26,8.684-38.656Z" transform="translate(0.317 3.757)" fill="#7c119b"/>
      <path id="Trazado_717555" data-name="Trazado 717555" d="M352.32,180.338l7.457-3.374" transform="translate(1.089 4.649)" fill="none" stroke="#323166" stroke-miterlimit="10" stroke-width="0.955"/>
      <path id="Trazado_717556" data-name="Trazado 717556" d="M370.12,290.857H354.469" transform="translate(1.158 8.294)" fill="none" stroke="#323166" stroke-miterlimit="10" stroke-width="0.955"/>
      <path id="Trazado_717557" data-name="Trazado 717557" d="M349.243,290.857H333" transform="translate(0.471 8.294)" fill="none" stroke="#323166" stroke-miterlimit="10" stroke-width="0.955"/>
      <path id="Trazado_717558" data-name="Trazado 717558" d="M375.674,120.823l7.576,27.846a5.589,5.589,0,0,1-4.424,6.917c-2.8.5-6.614-2.194-7.422-4.924l-7.018-22.238Z" transform="translate(1.476 2.852)" fill="#c88d6d"/>
      <path id="Trazado_717559" data-name="Trazado 717559" d="M367.2,106.289s7.649.257,11.711,13.208l2.978,13.939L359.9,137.152Z" transform="translate(1.332 2.386)" fill="#9f0f6a"/>
      <path id="Trazado_717560" data-name="Trazado 717560" d="M397.079,118.658,371.464,146.63c-1.96,2.448.379,6.026,2.861,7.942a5.607,5.607,0,0,0,8.159-1.429l19.149-28.2Z" transform="translate(1.679 2.782)" fill="#c88d6d"/>
      <path id="Trazado_717561" data-name="Trazado 717561" d="M400.97,94.977c-.9,5.127-3.474,20.1-4.226,24.493a1.473,1.473,0,0,1-1.455,1.223h-12.6a1.477,1.477,0,0,1-1.45-1.761l4.789-24.489a1.477,1.477,0,0,1,1.45-1.194h12.038A1.474,1.474,0,0,1,400.97,94.977Z" transform="translate(2.014 1.969)" fill="#332c30"/>
      <path id="Trazado_717562" data-name="Trazado 717562" d="M395,133.74l7.39-10.194a5.035,5.035,0,0,0,.967-3.061c-.084-3.964-.835-13.511-6.053-15.552-6.626-2.592-10.083,3.169-6.913,8.642s3.169,7.778,3.169,7.778l-4.358,5.762Z" transform="translate(2.27 2.322)" fill="#c88d6d"/>
      <path id="Trazado_717563" data-name="Trazado 717563" d="M356.331,103.991l11.918,2.4S373,118.641,370.3,130.6l-5.709,19.982-27.544.641-8.956-32.651-.87-10.324,17.25-5.093Z" transform="translate(0.286 2.286)" fill="#9f0f6a"/>
      <path id="Trazado_717564" data-name="Trazado 717564" d="M367.492,135.47s3.306-8.886.526-18.037" transform="translate(1.575 2.743)" fill="none" stroke="#323166" stroke-miterlimit="10" stroke-width="0.955"/>
      <path id="Trazado_717565" data-name="Trazado 717565" d="M336.625,122.868l-.486,26.059c-.239,3.252-4.465,8.041-7.686,7.545a5.588,5.588,0,0,1-4.734-5.754l-.232-24.306Z" transform="translate(0.167 2.917)" fill="#c88d6d"/>
      <path id="Trazado_717566" data-name="Trazado 717566" d="M327.472,108.094s-6.507,1.753-6.426,12.008l-1.609,18.035,17.921-1.848,3-19.049Z" transform="translate(0.037 2.444)" fill="#9f0f6a"/>
      <path id="Trazado_717567" data-name="Trazado 717567" d="M336.8,135.819l.927-13.038" transform="translate(0.593 2.914)" fill="none" stroke="#323166" stroke-miterlimit="10" stroke-width="0.955"/>
      <path id="Trazado_717568" data-name="Trazado 717568" d="M360.887,122.888l-33.31,19.2,4.53,13.076s17.636-13.954,32.88-27.283Z" transform="translate(0.298 2.918)" fill="#c88d6d"/>
      <path id="Trazado_717569" data-name="Trazado 717569" d="M372.8,124.891a7.689,7.689,0,1,0-9.245,5.722A7.688,7.688,0,0,0,372.8,124.891Z" transform="translate(1.259 2.679)" fill="#c88d6d"/>
      <path id="Trazado_717570" data-name="Trazado 717570" d="M362.766,115.825l11.376-4.132a1.153,1.153,0,0,1,1.037,2.041l-8.473,5.7Z" transform="translate(1.424 2.557)" fill="#c88d6d"/>
      <path id="Trazado_717571" data-name="Trazado 717571" d="M364.76,73.2c0,9.59-8.106,19.43-18.107,19.43S329.532,82.8,329.532,73.2s7.121-16.38,17.121-16.38S364.76,63.613,364.76,73.2Z" transform="translate(0.36 0.803)" fill="#332c30"/>
      <path id="Trazado_717572" data-name="Trazado 717572" d="M356.369,81.5a4.634,4.634,0,1,0,4.789-4.475A4.634,4.634,0,0,0,356.369,81.5Z" transform="translate(1.219 1.449)" fill="#a96448"/>
      <path id="Trazado_717573" data-name="Trazado 717573" d="M354.406,91.522l1.43,14.445-13.156-.6,1.006-13.849Z" transform="translate(0.781 1.914)" fill="#c88d6d"/>
      <path id="Trazado_717574" data-name="Trazado 717574" d="M355.245,100.675l-10.625-6.812c-.5-.338,2.2-2.77,2.8-2.823l7.139,2.488Z" transform="translate(0.841 1.898)" fill="#a96448"/>
      <path id="Trazado_717575" data-name="Trazado 717575" d="M351.247,96.747c6.557-.214,11.789-5.57,11.794-10.931l-.064-12.649a12.455,12.455,0,0,0-12.033-12.46c-6.875-.233-13.842,5.111-14.076,11.986l.162,10.173C337.155,90.732,343.382,96.48,351.247,96.747Z" transform="translate(0.595 0.927)" fill="#c88d6d"/>
      <path id="Trazado_717576" data-name="Trazado 717576" d="M355.343,84.121l.418,2.652-1.619.117" transform="translate(1.148 1.677)" fill="none" stroke="#1a2328" stroke-linecap="round" stroke-linejoin="round" stroke-miterlimit="10" stroke-width="0.707"/>
      <path id="Trazado_717577" data-name="Trazado 717577" d="M357.417,81.784a1.16,1.16,0,1,0,1.157-1.164A1.161,1.161,0,0,0,357.417,81.784Z" transform="translate(1.253 1.565)" fill="#1a2328"/>
      <path id="Trazado_717578" data-name="Trazado 717578" d="M347.711,81.8a1.16,1.16,0,1,0,1.157-1.163A1.161,1.161,0,0,0,347.711,81.8Z" transform="translate(0.942 1.565)" fill="#1a2328"/>
      <path id="Trazado_717579" data-name="Trazado 717579" d="M345.025,78.283s.04.988,1.926.486a23.387,23.387,0,0,1,3.207-.733,1.281,1.281,0,0,0,1.058-.646.579.579,0,0,0-.425-.684,6.682,6.682,0,0,0-3.589.114C344.957,77.4,345.025,78.283,345.025,78.283Z" transform="translate(0.856 1.433)" fill="#332c30"/>
      <path id="Trazado_717580" data-name="Trazado 717580" d="M360.919,77.616s-.13.92-1.5.6a12.856,12.856,0,0,0-2.342-.436.737.737,0,0,1-.732-.519.532.532,0,0,1,.336-.576,4.236,4.236,0,0,1,2.745-.261C361.059,76.787,360.919,77.616,360.919,77.616Z" transform="translate(1.218 1.427)" fill="#332c30"/>
      <path id="Trazado_717581" data-name="Trazado 717581" d="M356.358,88.627H349.65s.68,1.984,3.811,1.842S356.358,88.627,356.358,88.627Z" transform="translate(1.004 1.821)" fill="#fdfcff"/>
      <path id="Trazado_717582" data-name="Trazado 717582" d="M345.989,67.855s-2.443,5.454-5.809,8.2l-.46,5.487-7.379-5.827,1.385-6.976Z" transform="translate(0.45 1.156)" fill="#332c30"/>
      <path id="Trazado_717583" data-name="Trazado 717583" d="M331.131,82.451a4.634,4.634,0,1,0,4.789-4.475A4.634,4.634,0,0,0,331.131,82.451Z" transform="translate(0.411 1.48)" fill="#c88d6d"/>
      <path id="Trazado_717584" data-name="Trazado 717584" d="M337.713,83.327s-.6-3.514-4.11-1.925" transform="translate(0.49 1.576)" fill="none" stroke="#1a2328" stroke-linecap="round" stroke-linejoin="round" stroke-miterlimit="10" stroke-width="0.642"/>
      <path id="Trazado_717585" data-name="Trazado 717585" d="M339.491,104.516l15.12,8.705,3.408-8.807-4.21-.99-9.3-.354Z" transform="translate(0.679 2.283)" fill="#c88d6d"/>
      <path id="Trazado_717586" data-name="Trazado 717586" d="M361.727,66.123s-9.341,13.509-25.184,9.468l-2.86-6.623S349.294,52.132,361.727,66.123Z" transform="translate(0.493 0.923)" fill="#332c30"/>
      <path id="Trazado_717587" data-name="Trazado 717587" d="M355.072,66.165s5.663,1.687,7.482,8.777c0,0,1.764-13.225-12.188-14.747Z" transform="translate(1.027 0.911)" fill="#332c30"/>
      <path id="Trazado_717588" data-name="Trazado 717588" d="M333.805,64.659c-8.567,3.388-11.3-1.436-9.687-5.764A7.7,7.7,0,0,1,325.15,57s-5.9-1.931-4.306-6.745c0,0,1.067-3.667,6.552-1.69a5.284,5.284,0,0,1,1.215-5.293,4.778,4.778,0,0,1,4.982-.9,8.243,8.243,0,0,1,3.732,3.124s2.848-2.632,5.1.243c1.831,2.339-.274,5.665-.274,5.665s3.649-1.353,4.684.808-.433,5.071-5.348,8.163A64.532,64.532,0,0,1,333.805,64.659Z" transform="translate(0.073 0.329)" fill="#332c30"/>
      <path id="Trazado_717589" data-name="Trazado 717589" d="M9.872,320.307h436.6" transform="translate(-9.872 9.237)" fill="none" stroke="#d5a992" stroke-linecap="round" stroke-linejoin="round" stroke-miterlimit="10" stroke-width="1.432"/>
    </g>
    <path id="Trazado_721844" data-name="Trazado 721844" d="M19,0H421a19,19,0,0,1,19,19V46.609a19,19,0,0,1-19,19H19a19,19,0,0,1-19-19V19A19,19,0,0,1,19,0Z" transform="translate(580 3491.119)" fill="#eee1f2"/>
    <path id="Trazado_721845" data-name="Trazado 721845" d="M19,0H189.028a19,19,0,0,1,19,19V72.609a19,19,0,0,1-19,19H19a19,19,0,0,1-19-19V19A19,19,0,0,1,19,0Z" transform="translate(285.655 3879.03)" fill="#eee1f2"/>
    <path id="Trazado_721846" data-name="Trazado 721846" d="M19,0H189.028a19,19,0,0,1,19,19V72.609a19,19,0,0,1-19,19H19a19,19,0,0,1-19-19V19A19,19,0,0,1,19,0Z" transform="translate(1106.972 3879.03)" fill="#eee1f2"/>
    <path id="Trazado_721847" data-name="Trazado 721847" d="M3.258,3.625l3.719,9.281L10.7,3.625h1.945V15h-1.5V10.57l.141-4.781L7.547,15H6.4L2.672,5.813,2.82,10.57V15H1.32V3.625ZM18.57,15.156a3.693,3.693,0,0,1-2.8-1.129,4.19,4.19,0,0,1-1.078-3.02v-.266a5.073,5.073,0,0,1,.48-2.246A3.748,3.748,0,0,1,16.52,6.949a3.378,3.378,0,0,1,1.871-.559,3.166,3.166,0,0,1,2.563,1.086,4.7,4.7,0,0,1,.914,3.109v.6H16.141a3,3,0,0,0,.73,2.02,2.3,2.3,0,0,0,1.777.77,2.517,2.517,0,0,0,1.3-.312,3.259,3.259,0,0,0,.93-.828l.883.688A3.55,3.55,0,0,1,18.57,15.156Zm-.18-7.578a1.928,1.928,0,0,0-1.469.637A3.1,3.1,0,0,0,16.188,10h4.234V9.891a2.753,2.753,0,0,0-.594-1.707A1.815,1.815,0,0,0,18.391,7.578Zm6.516-1.031.047,1.063a3.08,3.08,0,0,1,2.531-1.219q2.68,0,2.7,3.023V15H28.742V9.406a1.946,1.946,0,0,0-.418-1.352,1.675,1.675,0,0,0-1.277-.437,2.086,2.086,0,0,0-1.234.375,2.546,2.546,0,0,0-.828.984V15H23.539V6.547Zm12.383,6.211a1.064,1.064,0,0,0-.441-.91,4.249,4.249,0,0,0-1.539-.559,7.277,7.277,0,0,1-1.742-.562,2.479,2.479,0,0,1-.953-.781A1.869,1.869,0,0,1,32.3,8.867a2.193,2.193,0,0,1,.879-1.758,3.432,3.432,0,0,1,2.246-.719,3.532,3.532,0,0,1,2.332.742,2.357,2.357,0,0,1,.895,1.9H37.2a1.3,1.3,0,0,0-.5-1.023,1.888,1.888,0,0,0-1.27-.43,1.976,1.976,0,0,0-1.234.344,1.082,1.082,0,0,0-.445.9.877.877,0,0,0,.414.789,5.1,5.1,0,0,0,1.5.508,7.8,7.8,0,0,1,1.754.578,2.558,2.558,0,0,1,1,.809,1.988,1.988,0,0,1,.324,1.152,2.163,2.163,0,0,1-.906,1.816,3.8,3.8,0,0,1-2.352.684,4.257,4.257,0,0,1-1.8-.359,2.922,2.922,0,0,1-1.223-1,2.42,2.42,0,0,1-.441-1.395h1.445a1.5,1.5,0,0,0,.582,1.152,2.258,2.258,0,0,0,1.434.426,2.331,2.331,0,0,0,1.316-.332A1.02,1.02,0,0,0,37.289,12.758ZM45.836,15a3.036,3.036,0,0,1-.2-.891,3.225,3.225,0,0,1-2.406,1.047,2.984,2.984,0,0,1-2.051-.707,2.287,2.287,0,0,1-.8-1.793,2.39,2.39,0,0,1,1-2.051,4.733,4.733,0,0,1,2.824-.73h1.406V9.211A1.623,1.623,0,0,0,45.156,8a1.821,1.821,0,0,0-1.336-.449,2.107,2.107,0,0,0-1.3.391A1.151,1.151,0,0,0,42,8.891H40.547A2,2,0,0,1,41,7.668a3.066,3.066,0,0,1,1.219-.934,4.1,4.1,0,0,1,1.691-.344,3.342,3.342,0,0,1,2.289.73,2.635,2.635,0,0,1,.859,2.012v3.891a4.757,4.757,0,0,0,.3,1.852V15Zm-2.4-1.1a2.54,2.54,0,0,0,1.289-.352,2.127,2.127,0,0,0,.883-.914V10.9H44.477q-2.656,0-2.656,1.555a1.316,1.316,0,0,0,.453,1.063A1.742,1.742,0,0,0,43.438,13.9Zm7.375-7.352v9.43q0,2.438-2.211,2.438a2.7,2.7,0,0,1-.883-.14V17.125a2.794,2.794,0,0,0,.656.063.982.982,0,0,0,.738-.262,1.3,1.3,0,0,0,.254-.911V6.547ZM49.219,4.3a.867.867,0,0,1,.215-.59.79.79,0,0,1,.629-.246.819.819,0,0,1,.641.242.854.854,0,0,1,.219.594.826.826,0,0,1-.219.586.834.834,0,0,1-.641.234.808.808,0,0,1-.633-.234A.843.843,0,0,1,49.219,4.3Zm7.43,10.852a3.693,3.693,0,0,1-2.8-1.129,4.19,4.19,0,0,1-1.078-3.02v-.266a5.073,5.073,0,0,1,.48-2.246A3.748,3.748,0,0,1,54.6,6.949a3.378,3.378,0,0,1,1.871-.559,3.166,3.166,0,0,1,2.563,1.086,4.7,4.7,0,0,1,.914,3.109v.6H54.219a3,3,0,0,0,.73,2.02,2.3,2.3,0,0,0,1.777.77,2.517,2.517,0,0,0,1.3-.312,3.259,3.259,0,0,0,.93-.828l.883.688A3.55,3.55,0,0,1,56.648,15.156Zm-.18-7.578A1.928,1.928,0,0,0,55,8.215,3.1,3.1,0,0,0,54.266,10H58.5V9.891a2.753,2.753,0,0,0-.594-1.707A1.815,1.815,0,0,0,56.469,7.578ZM65.2,10.7a4.993,4.993,0,0,1,.488-2.234A3.643,3.643,0,0,1,67.043,6.93a3.7,3.7,0,0,1,1.988-.539,3.565,3.565,0,0,1,2.793,1.2,4.6,4.6,0,0,1,1.066,3.18v.1a5.036,5.036,0,0,1-.473,2.215,3.589,3.589,0,0,1-1.352,1.527,3.743,3.743,0,0,1-2.02.547,3.556,3.556,0,0,1-2.785-1.2A4.575,4.575,0,0,1,65.2,10.8Zm1.453.172a3.616,3.616,0,0,0,.652,2.258,2.211,2.211,0,0,0,3.5-.012,3.955,3.955,0,0,0,.648-2.418,3.61,3.61,0,0,0-.66-2.254,2.1,2.1,0,0,0-1.754-.863A2.075,2.075,0,0,0,67.3,8.43,3.925,3.925,0,0,0,66.648,10.867Zm15.406,3.109a2.082,2.082,0,0,0,1.352-.469,1.649,1.649,0,0,0,.641-1.172h1.367a2.621,2.621,0,0,1-.5,1.383,3.293,3.293,0,0,1-1.23,1.047,3.55,3.55,0,0,1-1.629.391A3.482,3.482,0,0,1,79.309,14a4.59,4.59,0,0,1-1.02-3.152v-.242a5.089,5.089,0,0,1,.453-2.2,3.451,3.451,0,0,1,1.3-1.492,3.7,3.7,0,0,1,2-.531,3.39,3.39,0,0,1,2.363.852,3.043,3.043,0,0,1,1,2.211H84.047a1.992,1.992,0,0,0-.621-1.348,1.932,1.932,0,0,0-1.379-.527,2.023,2.023,0,0,0-1.707.793,3.724,3.724,0,0,0-.605,2.293v.273a3.65,3.65,0,0,0,.6,2.25A2.033,2.033,0,0,0,82.055,13.977Zm4.6-3.281a4.993,4.993,0,0,1,.488-2.234A3.643,3.643,0,0,1,88.5,6.93a3.7,3.7,0,0,1,1.988-.539,3.565,3.565,0,0,1,2.793,1.2,4.6,4.6,0,0,1,1.066,3.18v.1a5.036,5.036,0,0,1-.473,2.215,3.589,3.589,0,0,1-1.352,1.527,3.743,3.743,0,0,1-2.02.547,3.556,3.556,0,0,1-2.785-1.2A4.575,4.575,0,0,1,86.656,10.8Zm1.453.172a3.616,3.616,0,0,0,.652,2.258,2.211,2.211,0,0,0,3.5-.012,3.955,3.955,0,0,0,.648-2.418,3.61,3.61,0,0,0-.66-2.254,2.1,2.1,0,0,0-1.754-.863,2.075,2.075,0,0,0-1.727.852A3.925,3.925,0,0,0,88.109,10.867Zm9.422-4.32.047,1.063a3.08,3.08,0,0,1,2.531-1.219q2.68,0,2.7,3.023V15h-1.445V9.406a1.946,1.946,0,0,0-.418-1.352,1.675,1.675,0,0,0-1.277-.437,2.086,2.086,0,0,0-1.234.375,2.546,2.546,0,0,0-.828.984V15H96.164V6.547Zm8.953,0v9.43q0,2.438-2.211,2.438a2.7,2.7,0,0,1-.883-.14V17.125a2.794,2.794,0,0,0,.656.063.982.982,0,0,0,.738-.262,1.3,1.3,0,0,0,.254-.911V6.547ZM104.891,4.3a.867.867,0,0,1,.215-.59.79.79,0,0,1,.629-.246.819.819,0,0,1,.641.242.854.854,0,0,1,.219.594.826.826,0,0,1-.219.586.834.834,0,0,1-.641.234.808.808,0,0,1-.633-.234A.843.843,0,0,1,104.891,4.3Zm9.141,9.859a3.07,3.07,0,0,1-2.477.992,2.628,2.628,0,0,1-2.059-.785,3.4,3.4,0,0,1-.715-2.324v-5.5h1.445v5.461q0,1.922,1.563,1.922a2.163,2.163,0,0,0,2.2-1.234V6.547h1.445V15h-1.375ZM119,6.547l.047,1.063a3.08,3.08,0,0,1,2.531-1.219q2.68,0,2.7,3.023V15h-1.445V9.406a1.946,1.946,0,0,0-.418-1.352,1.675,1.675,0,0,0-1.277-.437,2.086,2.086,0,0,0-1.234.375,2.546,2.546,0,0,0-.828.984V15h-1.445V6.547ZM128.422,4.5V6.547H130V7.664h-1.578v5.249a1.173,1.173,0,0,0,.211.763.888.888,0,0,0,.719.254,3.5,3.5,0,0,0,.688-.094V15a4.215,4.215,0,0,1-1.109.155,1.8,1.8,0,0,1-1.461-.586,2.517,2.517,0,0,1-.492-1.664V7.664h-1.539V6.547h1.539V4.5Zm2.727,6.2a4.993,4.993,0,0,1,.488-2.234A3.642,3.642,0,0,1,133,6.93a3.7,3.7,0,0,1,1.988-.539,3.565,3.565,0,0,1,2.793,1.2,4.6,4.6,0,0,1,1.066,3.18v.1a5.036,5.036,0,0,1-.473,2.215,3.589,3.589,0,0,1-1.352,1.527,3.743,3.743,0,0,1-2.02.547,3.556,3.556,0,0,1-2.785-1.2,4.575,4.575,0,0,1-1.066-3.164Zm1.453.172a3.616,3.616,0,0,0,.652,2.258,2.211,2.211,0,0,0,3.5-.012A3.954,3.954,0,0,0,137.4,10.7a3.61,3.61,0,0,0-.66-2.254,2.1,2.1,0,0,0-1.754-.863,2.075,2.075,0,0,0-1.727.852A3.925,3.925,0,0,0,132.6,10.867Zm11.664-.164a4.952,4.952,0,0,1,.922-3.129,3.137,3.137,0,0,1,4.766-.168V3H151.4V15H150.07l-.07-.906a2.943,2.943,0,0,1-2.414,1.063,2.887,2.887,0,0,1-2.395-1.2,5.008,5.008,0,0,1-.926-3.141Zm1.445.164a3.749,3.749,0,0,0,.594,2.25,1.919,1.919,0,0,0,1.641.813,2.108,2.108,0,0,0,2.008-1.234V8.813a2.125,2.125,0,0,0-1.992-1.2,1.929,1.929,0,0,0-1.656.82A4.128,4.128,0,0,0,145.711,10.867Zm11.438,4.289a3.693,3.693,0,0,1-2.8-1.129,4.19,4.19,0,0,1-1.078-3.02v-.266a5.073,5.073,0,0,1,.48-2.246A3.748,3.748,0,0,1,155.1,6.949a3.378,3.378,0,0,1,1.871-.559,3.166,3.166,0,0,1,2.563,1.086,4.7,4.7,0,0,1,.914,3.109v.6h-5.727a3,3,0,0,0,.73,2.02,2.3,2.3,0,0,0,1.777.77,2.517,2.517,0,0,0,1.3-.312,3.258,3.258,0,0,0,.93-.828l.883.688A3.55,3.55,0,0,1,157.148,15.156Zm-.18-7.578a1.928,1.928,0,0,0-1.469.637A3.1,3.1,0,0,0,154.766,10H159V9.891a2.753,2.753,0,0,0-.594-1.707A1.815,1.815,0,0,0,156.969,7.578Zm8.758,3.125a4.952,4.952,0,0,1,.922-3.129,3.137,3.137,0,0,1,4.766-.168V3h1.445V15h-1.328l-.07-.906a2.943,2.943,0,0,1-2.414,1.063,2.887,2.887,0,0,1-2.395-1.2,5.008,5.008,0,0,1-.926-3.141Zm1.445.164a3.749,3.749,0,0,0,.594,2.25,1.919,1.919,0,0,0,1.641.813,2.108,2.108,0,0,0,2.008-1.234V8.813a2.125,2.125,0,0,0-1.992-1.2,1.929,1.929,0,0,0-1.656.82A4.128,4.128,0,0,0,167.172,10.867ZM180.32,15a3.036,3.036,0,0,1-.2-.891,3.225,3.225,0,0,1-2.406,1.047,2.984,2.984,0,0,1-2.051-.707,2.287,2.287,0,0,1-.8-1.793,2.39,2.39,0,0,1,1-2.051,4.733,4.733,0,0,1,2.824-.73h1.406V9.211A1.623,1.623,0,0,0,179.641,8a1.821,1.821,0,0,0-1.336-.449,2.107,2.107,0,0,0-1.3.391,1.151,1.151,0,0,0-.523.945h-1.453a2,2,0,0,1,.449-1.223,3.066,3.066,0,0,1,1.219-.934,4.1,4.1,0,0,1,1.691-.344,3.342,3.342,0,0,1,2.289.73,2.635,2.635,0,0,1,.859,2.012v3.891a4.757,4.757,0,0,0,.3,1.852V15Zm-2.4-1.1a2.54,2.54,0,0,0,1.289-.352,2.127,2.127,0,0,0,.883-.914V10.9h-1.133q-2.656,0-2.656,1.555a1.316,1.316,0,0,0,.453,1.063A1.742,1.742,0,0,0,177.922,13.9Zm7.844-9.4V6.547h1.578V7.664h-1.578v5.249a1.173,1.173,0,0,0,.211.763.888.888,0,0,0,.719.254,3.5,3.5,0,0,0,.688-.094V15a4.215,4.215,0,0,1-1.109.155,1.8,1.8,0,0,1-1.461-.586,2.517,2.517,0,0,1-.492-1.664V7.664h-1.539V6.547h1.539V4.5Zm2.727,6.2a4.993,4.993,0,0,1,.488-2.234A3.642,3.642,0,0,1,190.34,6.93a3.7,3.7,0,0,1,1.988-.539,3.565,3.565,0,0,1,2.793,1.2,4.6,4.6,0,0,1,1.066,3.18v.1a5.036,5.036,0,0,1-.473,2.215,3.589,3.589,0,0,1-1.352,1.527,3.743,3.743,0,0,1-2.02.547,3.556,3.556,0,0,1-2.785-1.2,4.575,4.575,0,0,1-1.066-3.164Zm1.453.172a3.616,3.616,0,0,0,.652,2.258,2.211,2.211,0,0,0,3.5-.012,3.954,3.954,0,0,0,.648-2.418,3.61,3.61,0,0,0-.66-2.254,2.1,2.1,0,0,0-1.754-.863,2.075,2.075,0,0,0-1.727.852A3.925,3.925,0,0,0,189.945,10.867Zm12.977,1.891a1.064,1.064,0,0,0-.441-.91,4.249,4.249,0,0,0-1.539-.559,7.277,7.277,0,0,1-1.742-.562,2.479,2.479,0,0,1-.953-.781,1.869,1.869,0,0,1-.309-1.078,2.193,2.193,0,0,1,.879-1.758,3.432,3.432,0,0,1,2.246-.719,3.532,3.532,0,0,1,2.332.742,2.357,2.357,0,0,1,.895,1.9h-1.453a1.3,1.3,0,0,0-.5-1.023,1.888,1.888,0,0,0-1.27-.43,1.976,1.976,0,0,0-1.234.344,1.082,1.082,0,0,0-.445.9.877.877,0,0,0,.414.789,5.1,5.1,0,0,0,1.5.508,7.8,7.8,0,0,1,1.754.578,2.558,2.558,0,0,1,1,.809,1.988,1.988,0,0,1,.324,1.152,2.163,2.163,0,0,1-.906,1.816,3.8,3.8,0,0,1-2.352.684,4.257,4.257,0,0,1-1.8-.359,2.922,2.922,0,0,1-1.223-1,2.42,2.42,0,0,1-.441-1.395h1.445a1.5,1.5,0,0,0,.582,1.152,2.258,2.258,0,0,0,1.434.426,2.331,2.331,0,0,0,1.316-.332A1.02,1.02,0,0,0,202.922,12.758Zm6.938-2.055a4.961,4.961,0,0,1,.914-3.152,3.226,3.226,0,0,1,4.82-.152l.063-.852h1.328v11.7h-1.445V14.219a3.033,3.033,0,0,1-2.328.938,2.915,2.915,0,0,1-2.441-1.191,5.072,5.072,0,0,1-.91-3.16Zm1.445.164a3.761,3.761,0,0,0,.613,2.281,1.951,1.951,0,0,0,1.652.828,2.164,2.164,0,0,0,1.969-1.141V8.7a2.171,2.171,0,0,0-1.953-1.117,1.965,1.965,0,0,0-1.664.832A4.094,4.094,0,0,0,211.3,10.867Zm13.219,3.3a3.07,3.07,0,0,1-2.477.992,2.628,2.628,0,0,1-2.059-.785,3.4,3.4,0,0,1-.715-2.324v-5.5h1.445v5.461q0,1.922,1.563,1.922a2.163,2.163,0,0,0,2.2-1.234V6.547h1.445V15h-1.375Zm7.109.992a3.693,3.693,0,0,1-2.8-1.129,4.19,4.19,0,0,1-1.078-3.02v-.266a5.073,5.073,0,0,1,.48-2.246,3.748,3.748,0,0,1,1.344-1.547,3.378,3.378,0,0,1,1.871-.559,3.166,3.166,0,0,1,2.563,1.086,4.7,4.7,0,0,1,.914,3.109v.6H229.2a3,3,0,0,0,.73,2.02,2.3,2.3,0,0,0,1.777.77,2.517,2.517,0,0,0,1.3-.312,3.258,3.258,0,0,0,.93-.828l.883.688A3.55,3.55,0,0,1,231.633,15.156Zm-.18-7.578a1.928,1.928,0,0,0-1.469.637A3.1,3.1,0,0,0,229.25,10h4.234V9.891a2.753,2.753,0,0,0-.594-1.707A1.815,1.815,0,0,0,231.453,7.578Zm14.031,5.18a1.064,1.064,0,0,0-.441-.91,4.249,4.249,0,0,0-1.539-.559,7.277,7.277,0,0,1-1.742-.562,2.479,2.479,0,0,1-.953-.781,1.869,1.869,0,0,1-.309-1.078,2.193,2.193,0,0,1,.879-1.758,3.432,3.432,0,0,1,2.246-.719,3.532,3.532,0,0,1,2.332.742,2.357,2.357,0,0,1,.895,1.9H245.4a1.3,1.3,0,0,0-.5-1.023,1.888,1.888,0,0,0-1.27-.43,1.976,1.976,0,0,0-1.234.344,1.082,1.082,0,0,0-.445.9.877.877,0,0,0,.414.789,5.1,5.1,0,0,0,1.5.508,7.8,7.8,0,0,1,1.754.578,2.558,2.558,0,0,1,1,.809,1.988,1.988,0,0,1,.324,1.152,2.163,2.163,0,0,1-.906,1.816,3.8,3.8,0,0,1-2.352.684,4.257,4.257,0,0,1-1.8-.359,2.922,2.922,0,0,1-1.223-1,2.42,2.42,0,0,1-.441-1.395h1.445a1.5,1.5,0,0,0,.582,1.152,2.258,2.258,0,0,0,1.434.426,2.331,2.331,0,0,0,1.316-.332A1.02,1.02,0,0,0,245.484,12.758Zm6.836,2.4a3.693,3.693,0,0,1-2.8-1.129,4.19,4.19,0,0,1-1.078-3.02v-.266a5.073,5.073,0,0,1,.48-2.246,3.748,3.748,0,0,1,1.344-1.547,3.378,3.378,0,0,1,1.871-.559A3.166,3.166,0,0,1,254.7,7.477a4.7,4.7,0,0,1,.914,3.109v.6h-5.727a3,3,0,0,0,.73,2.02,2.3,2.3,0,0,0,1.777.77,2.517,2.517,0,0,0,1.3-.312,3.258,3.258,0,0,0,.93-.828l.883.688A3.55,3.55,0,0,1,252.32,15.156Zm-.18-7.578a1.928,1.928,0,0,0-1.469.637A3.1,3.1,0,0,0,249.938,10h4.234V9.891a2.753,2.753,0,0,0-.594-1.707A1.815,1.815,0,0,0,252.141,7.578Zm11.9,5.461,2.094-6.492h1.477L264.578,15h-1.1l-3.062-8.453h1.477ZM274.1,15a3.036,3.036,0,0,1-.2-.891,3.225,3.225,0,0,1-2.406,1.047,2.984,2.984,0,0,1-2.051-.707,2.288,2.288,0,0,1-.8-1.793,2.39,2.39,0,0,1,1-2.051,4.733,4.733,0,0,1,2.824-.73h1.406V9.211A1.623,1.623,0,0,0,273.422,8a1.821,1.821,0,0,0-1.336-.449,2.108,2.108,0,0,0-1.3.391,1.151,1.151,0,0,0-.523.945h-1.453a2,2,0,0,1,.449-1.223,3.066,3.066,0,0,1,1.219-.934,4.1,4.1,0,0,1,1.691-.344,3.342,3.342,0,0,1,2.289.73,2.635,2.635,0,0,1,.859,2.012v3.891a4.757,4.757,0,0,0,.3,1.852V15Zm-2.4-1.1a2.54,2.54,0,0,0,1.289-.352,2.126,2.126,0,0,0,.883-.914V10.9h-1.133q-2.656,0-2.656,1.555a1.316,1.316,0,0,0,.453,1.063A1.742,1.742,0,0,0,271.7,13.9Zm7.25-7.352L279,7.609a3.08,3.08,0,0,1,2.531-1.219q2.68,0,2.7,3.023V15h-1.445V9.406a1.946,1.946,0,0,0-.418-1.352,1.675,1.675,0,0,0-1.277-.437,2.086,2.086,0,0,0-1.234.375,2.546,2.546,0,0,0-.828.984V15h-1.445V6.547ZM295.594,15a3.036,3.036,0,0,1-.2-.891,3.225,3.225,0,0,1-2.406,1.047,2.984,2.984,0,0,1-2.051-.707,2.288,2.288,0,0,1-.8-1.793,2.39,2.39,0,0,1,1-2.051,4.733,4.733,0,0,1,2.824-.73h1.406V9.211A1.623,1.623,0,0,0,294.914,8a1.821,1.821,0,0,0-1.336-.449,2.108,2.108,0,0,0-1.3.391,1.151,1.151,0,0,0-.523.945H290.3a2,2,0,0,1,.449-1.223,3.066,3.066,0,0,1,1.219-.934,4.1,4.1,0,0,1,1.691-.344,3.342,3.342,0,0,1,2.289.73,2.635,2.635,0,0,1,.859,2.012v3.891a4.757,4.757,0,0,0,.3,1.852V15Zm-2.4-1.1a2.54,2.54,0,0,0,1.289-.352,2.126,2.126,0,0,0,.883-.914V10.9h-1.133q-2.656,0-2.656,1.555a1.316,1.316,0,0,0,.453,1.063A1.742,1.742,0,0,0,293.2,13.9ZM305,4.5V6.547h1.578V7.664H305v5.249a1.173,1.173,0,0,0,.211.763.888.888,0,0,0,.719.254,3.5,3.5,0,0,0,.688-.094V15a4.215,4.215,0,0,1-1.109.155,1.8,1.8,0,0,1-1.461-.586,2.517,2.517,0,0,1-.492-1.664V7.664h-1.539V6.547h1.539V4.5Zm7.352,3.344a4.331,4.331,0,0,0-.711-.055A1.9,1.9,0,0,0,309.711,9v6h-1.445V6.547h1.406l.023.977a2.251,2.251,0,0,1,2.016-1.133,1.477,1.477,0,0,1,.641.109ZM318.586,15a3.036,3.036,0,0,1-.2-.891,3.225,3.225,0,0,1-2.406,1.047,2.984,2.984,0,0,1-2.051-.707,2.288,2.288,0,0,1-.8-1.793,2.39,2.39,0,0,1,1-2.051,4.733,4.733,0,0,1,2.824-.73h1.406V9.211A1.623,1.623,0,0,0,317.906,8a1.821,1.821,0,0,0-1.336-.449,2.108,2.108,0,0,0-1.3.391,1.151,1.151,0,0,0-.523.945H313.3a2,2,0,0,1,.449-1.223,3.066,3.066,0,0,1,1.219-.934,4.1,4.1,0,0,1,1.691-.344,3.342,3.342,0,0,1,2.289.73,2.635,2.635,0,0,1,.859,2.012v3.891a4.757,4.757,0,0,0,.3,1.852V15Zm-2.4-1.1a2.54,2.54,0,0,0,1.289-.352,2.126,2.126,0,0,0,.883-.914V10.9h-1.133q-2.656,0-2.656,1.555a1.316,1.316,0,0,0,.453,1.063A1.742,1.742,0,0,0,316.188,13.9Zm7.25-7.352.047,1.063a3.08,3.08,0,0,1,2.531-1.219q2.68,0,2.7,3.023V15h-1.445V9.406a1.946,1.946,0,0,0-.418-1.352,1.675,1.675,0,0,0-1.277-.437,2.086,2.086,0,0,0-1.234.375,2.546,2.546,0,0,0-.828.984V15H322.07V6.547Zm12.383,6.211a1.064,1.064,0,0,0-.441-.91,4.249,4.249,0,0,0-1.539-.559,7.276,7.276,0,0,1-1.742-.562,2.478,2.478,0,0,1-.953-.781,1.869,1.869,0,0,1-.309-1.078,2.193,2.193,0,0,1,.879-1.758,3.432,3.432,0,0,1,2.246-.719,3.532,3.532,0,0,1,2.332.742,2.357,2.357,0,0,1,.895,1.9h-1.453a1.3,1.3,0,0,0-.5-1.023,1.888,1.888,0,0,0-1.27-.43,1.976,1.976,0,0,0-1.234.344,1.082,1.082,0,0,0-.445.9.877.877,0,0,0,.414.789,5.1,5.1,0,0,0,1.5.508,7.8,7.8,0,0,1,1.754.578,2.559,2.559,0,0,1,1,.809,1.988,1.988,0,0,1,.324,1.152,2.163,2.163,0,0,1-.906,1.816,3.8,3.8,0,0,1-2.352.684,4.257,4.257,0,0,1-1.8-.359,2.922,2.922,0,0,1-1.223-1,2.42,2.42,0,0,1-.441-1.395h1.445a1.5,1.5,0,0,0,.582,1.152,2.258,2.258,0,0,0,1.434.426,2.331,2.331,0,0,0,1.316-.332A1.02,1.02,0,0,0,335.82,12.758Zm4.688-6.211.039.938a3.122,3.122,0,0,1,2.508-1.094,2.417,2.417,0,0,1,2.414,1.359,3.2,3.2,0,0,1,1.1-.984,3.242,3.242,0,0,1,1.6-.375q2.781,0,2.828,2.945V15h-1.445V9.422a1.941,1.941,0,0,0-.414-1.355,1.823,1.823,0,0,0-1.391-.449,1.916,1.916,0,0,0-1.336.48,1.949,1.949,0,0,0-.617,1.293V15h-1.453V9.461a1.613,1.613,0,0,0-1.8-1.844,1.934,1.934,0,0,0-1.945,1.211V15h-1.445V6.547ZM354.742,15H353.3V6.547h1.445ZM353.18,4.3a.863.863,0,0,1,.215-.594.807.807,0,0,1,.637-.242.819.819,0,0,1,.641.242.854.854,0,0,1,.219.594.826.826,0,0,1-.219.586.834.834,0,0,1-.641.234.821.821,0,0,1-.637-.234A.834.834,0,0,1,353.18,4.3Zm5.836.2V6.547h1.578V7.664h-1.578v5.249a1.173,1.173,0,0,0,.211.763.888.888,0,0,0,.719.254,3.5,3.5,0,0,0,.688-.094V15a4.215,4.215,0,0,1-1.109.155,1.8,1.8,0,0,1-1.461-.586,2.517,2.517,0,0,1-.492-1.664V7.664h-1.539V6.547h1.539V4.5ZM363.852,15h-1.445V6.547h1.445ZM362.289,4.3a.863.863,0,0,1,.215-.594.807.807,0,0,1,.637-.242.819.819,0,0,1,.641.242A.854.854,0,0,1,364,4.3a.826.826,0,0,1-.219.586.834.834,0,0,1-.641.234.821.821,0,0,1-.637-.234A.834.834,0,0,1,362.289,4.3Zm7.961,3.539a4.331,4.331,0,0,0-.711-.055A1.9,1.9,0,0,0,367.609,9v6h-1.445V6.547h1.406l.023.977a2.251,2.251,0,0,1,2.016-1.133,1.477,1.477,0,0,1,.641.109Zm.4,6.4a.905.905,0,0,1,.223-.625.848.848,0,0,1,.668-.25.874.874,0,0,1,.676.25.887.887,0,0,1,.23.625.839.839,0,0,1-.23.6.89.89,0,0,1-.676.242.8.8,0,0,1-.891-.844Z" transform="translate(612.5 3514.021)" fill="#12263f"/>
    <path id="Trazado_721848" data-name="Trazado 721848" d="M2.82,10.547V15H1.32V3.625h4.2a4.215,4.215,0,0,1,2.926.953A3.231,3.231,0,0,1,9.5,7.1,3.189,3.189,0,0,1,8.465,9.652a4.4,4.4,0,0,1-2.965.895Zm0-1.227h2.7a2.7,2.7,0,0,0,1.844-.567A2.075,2.075,0,0,0,8,7.113a2.143,2.143,0,0,0-.641-1.628A2.525,2.525,0,0,0,5.6,4.852H2.82Zm11.773,5.836a3.693,3.693,0,0,1-2.8-1.129,4.19,4.19,0,0,1-1.078-3.02v-.266A5.073,5.073,0,0,1,11.2,8.5a3.748,3.748,0,0,1,1.344-1.547,3.378,3.378,0,0,1,1.871-.559,3.166,3.166,0,0,1,2.563,1.086,4.7,4.7,0,0,1,.914,3.109v.6H12.164a3,3,0,0,0,.73,2.02,2.3,2.3,0,0,0,1.777.77,2.517,2.517,0,0,0,1.3-.312,3.259,3.259,0,0,0,.93-.828l.883.688A3.55,3.55,0,0,1,14.594,15.156Zm-.18-7.578a1.928,1.928,0,0,0-1.469.637A3.1,3.1,0,0,0,12.211,10h4.234V9.891a2.753,2.753,0,0,0-.594-1.707A1.815,1.815,0,0,0,14.414,7.578Zm9.234.266a4.331,4.331,0,0,0-.711-.055A1.9,1.9,0,0,0,21.008,9v6H19.563V6.547h1.406l.023.977a2.251,2.251,0,0,1,2.016-1.133,1.477,1.477,0,0,1,.641.109Zm6.25,4.914a1.064,1.064,0,0,0-.441-.91,4.249,4.249,0,0,0-1.539-.559,7.277,7.277,0,0,1-1.742-.562,2.479,2.479,0,0,1-.953-.781,1.869,1.869,0,0,1-.309-1.078,2.193,2.193,0,0,1,.879-1.758,3.432,3.432,0,0,1,2.246-.719,3.532,3.532,0,0,1,2.332.742,2.357,2.357,0,0,1,.895,1.9H29.813a1.3,1.3,0,0,0-.5-1.023,1.888,1.888,0,0,0-1.27-.43,1.976,1.976,0,0,0-1.234.344,1.082,1.082,0,0,0-.445.9.877.877,0,0,0,.414.789,5.1,5.1,0,0,0,1.5.508,7.8,7.8,0,0,1,1.754.578,2.558,2.558,0,0,1,1,.809,1.988,1.988,0,0,1,.324,1.152,2.163,2.163,0,0,1-.906,1.816,3.8,3.8,0,0,1-2.352.684,4.257,4.257,0,0,1-1.8-.359,2.922,2.922,0,0,1-1.223-1,2.42,2.42,0,0,1-.441-1.395H26.07a1.5,1.5,0,0,0,.582,1.152,2.258,2.258,0,0,0,1.434.426,2.331,2.331,0,0,0,1.316-.332A1.02,1.02,0,0,0,29.9,12.758ZM32.844,10.7a4.993,4.993,0,0,1,.488-2.234A3.643,3.643,0,0,1,34.691,6.93a3.7,3.7,0,0,1,1.988-.539,3.565,3.565,0,0,1,2.793,1.2,4.6,4.6,0,0,1,1.066,3.18v.1a5.036,5.036,0,0,1-.473,2.215,3.589,3.589,0,0,1-1.352,1.527,3.743,3.743,0,0,1-2.02.547,3.556,3.556,0,0,1-2.785-1.2A4.575,4.575,0,0,1,32.844,10.8Zm1.453.172a3.616,3.616,0,0,0,.652,2.258,2.211,2.211,0,0,0,3.5-.012,3.955,3.955,0,0,0,.648-2.418,3.61,3.61,0,0,0-.66-2.254,2.1,2.1,0,0,0-1.754-.863,2.075,2.075,0,0,0-1.727.852A3.925,3.925,0,0,0,34.3,10.867Zm9.422-4.32.047,1.063A3.08,3.08,0,0,1,46.3,6.391q2.68,0,2.7,3.023V15H47.555V9.406a1.946,1.946,0,0,0-.418-1.352,1.675,1.675,0,0,0-1.277-.437,2.086,2.086,0,0,0-1.234.375,2.546,2.546,0,0,0-.828.984V15H42.352V6.547ZM56.4,15a3.036,3.036,0,0,1-.2-.891,3.225,3.225,0,0,1-2.406,1.047,2.984,2.984,0,0,1-2.051-.707,2.287,2.287,0,0,1-.8-1.793,2.39,2.39,0,0,1,1-2.051,4.733,4.733,0,0,1,2.824-.73h1.406V9.211A1.623,1.623,0,0,0,55.719,8a1.821,1.821,0,0,0-1.336-.449,2.107,2.107,0,0,0-1.3.391,1.151,1.151,0,0,0-.523.945H51.109a2,2,0,0,1,.449-1.223,3.066,3.066,0,0,1,1.219-.934,4.1,4.1,0,0,1,1.691-.344,3.342,3.342,0,0,1,2.289.73,2.635,2.635,0,0,1,.859,2.012v3.891a4.757,4.757,0,0,0,.3,1.852V15ZM54,13.9a2.54,2.54,0,0,0,1.289-.352,2.127,2.127,0,0,0,.883-.914V10.9H55.039q-2.656,0-2.656,1.555a1.316,1.316,0,0,0,.453,1.063A1.742,1.742,0,0,0,54,13.9Zm9.492-3.2a4.961,4.961,0,0,1,.914-3.152,3.226,3.226,0,0,1,4.82-.152l.063-.852h1.328v11.7H69.172V14.219a3.033,3.033,0,0,1-2.328.938A2.915,2.915,0,0,1,64.4,13.965a5.072,5.072,0,0,1-.91-3.16Zm1.445.164a3.761,3.761,0,0,0,.613,2.281,1.951,1.951,0,0,0,1.652.828,2.164,2.164,0,0,0,1.969-1.141V8.7a2.171,2.171,0,0,0-1.953-1.117,1.965,1.965,0,0,0-1.664.832A4.094,4.094,0,0,0,64.938,10.867Zm13.219,3.3a3.07,3.07,0,0,1-2.477.992,2.628,2.628,0,0,1-2.059-.785,3.4,3.4,0,0,1-.715-2.324v-5.5h1.445v5.461q0,1.922,1.563,1.922a2.163,2.163,0,0,0,2.2-1.234V6.547h1.445V15H78.188Zm7.109.992a3.693,3.693,0,0,1-2.8-1.129,4.19,4.19,0,0,1-1.078-3.02v-.266a5.073,5.073,0,0,1,.48-2.246,3.748,3.748,0,0,1,1.344-1.547,3.378,3.378,0,0,1,1.871-.559,3.166,3.166,0,0,1,2.563,1.086,4.7,4.7,0,0,1,.914,3.109v.6H82.836a3,3,0,0,0,.73,2.02,2.3,2.3,0,0,0,1.777.77,2.517,2.517,0,0,0,1.3-.312,3.259,3.259,0,0,0,.93-.828l.883.688A3.55,3.55,0,0,1,85.266,15.156Zm-.18-7.578a1.928,1.928,0,0,0-1.469.637A3.1,3.1,0,0,0,82.883,10h4.234V9.891a2.753,2.753,0,0,0-.594-1.707A1.815,1.815,0,0,0,85.086,7.578ZM3.055,28.5v2.047H4.633v1.117H3.055v5.249a1.173,1.173,0,0,0,.211.763.888.888,0,0,0,.719.254,3.5,3.5,0,0,0,.688-.094V39a4.215,4.215,0,0,1-1.109.155A1.8,1.8,0,0,1,2.1,38.57a2.517,2.517,0,0,1-.492-1.664V31.664H.07V30.547H1.609V28.5Zm7.352,3.344a4.331,4.331,0,0,0-.711-.055A1.9,1.9,0,0,0,7.766,33v6H6.32V30.547H7.727l.023.977a2.251,2.251,0,0,1,2.016-1.133,1.477,1.477,0,0,1,.641.109ZM16.641,39a3.036,3.036,0,0,1-.2-.891,3.225,3.225,0,0,1-2.406,1.047,2.984,2.984,0,0,1-2.051-.707,2.287,2.287,0,0,1-.8-1.793,2.39,2.39,0,0,1,1-2.051,4.733,4.733,0,0,1,2.824-.73h1.406v-.664A1.623,1.623,0,0,0,15.961,32a1.821,1.821,0,0,0-1.336-.449,2.108,2.108,0,0,0-1.3.391,1.151,1.151,0,0,0-.523.945H11.352a2,2,0,0,1,.449-1.223,3.066,3.066,0,0,1,1.219-.934,4.1,4.1,0,0,1,1.691-.344,3.342,3.342,0,0,1,2.289.73,2.635,2.635,0,0,1,.859,2.012v3.891a4.757,4.757,0,0,0,.3,1.852V39Zm-2.4-1.1a2.54,2.54,0,0,0,1.289-.352,2.127,2.127,0,0,0,.883-.914V34.9H15.281q-2.656,0-2.656,1.555a1.316,1.316,0,0,0,.453,1.063A1.742,1.742,0,0,0,14.242,37.9Zm7.25-7.352.047,1.063a3.08,3.08,0,0,1,2.531-1.219q2.68,0,2.7,3.023V39H25.328V33.406a1.946,1.946,0,0,0-.418-1.352,1.675,1.675,0,0,0-1.277-.437,2.086,2.086,0,0,0-1.234.375,2.546,2.546,0,0,0-.828.984V39H20.125V30.547Zm12.383,6.211a1.064,1.064,0,0,0-.441-.91,4.249,4.249,0,0,0-1.539-.559,7.277,7.277,0,0,1-1.742-.562,2.479,2.479,0,0,1-.953-.781,1.869,1.869,0,0,1-.309-1.078,2.193,2.193,0,0,1,.879-1.758,3.432,3.432,0,0,1,2.246-.719,3.532,3.532,0,0,1,2.332.742,2.357,2.357,0,0,1,.895,1.9H33.789a1.3,1.3,0,0,0-.5-1.023,1.888,1.888,0,0,0-1.27-.43,1.976,1.976,0,0,0-1.234.344,1.082,1.082,0,0,0-.445.9.877.877,0,0,0,.414.789,5.1,5.1,0,0,0,1.5.508A7.8,7.8,0,0,1,34,34.7a2.558,2.558,0,0,1,1,.809,1.988,1.988,0,0,1,.324,1.152,2.163,2.163,0,0,1-.906,1.816,3.8,3.8,0,0,1-2.352.684,4.257,4.257,0,0,1-1.8-.359,2.922,2.922,0,0,1-1.223-1A2.42,2.42,0,0,1,28.6,36.4h1.445a1.5,1.5,0,0,0,.582,1.152,2.258,2.258,0,0,0,1.434.426,2.331,2.331,0,0,0,1.316-.332A1.02,1.02,0,0,0,33.875,36.758Zm4.688-6.211.039.938a3.122,3.122,0,0,1,2.508-1.094,2.417,2.417,0,0,1,2.414,1.359,3.2,3.2,0,0,1,1.1-.984,3.242,3.242,0,0,1,1.6-.375q2.781,0,2.828,2.945V39H47.6V33.422a1.941,1.941,0,0,0-.414-1.355,1.823,1.823,0,0,0-1.391-.449,1.916,1.916,0,0,0-1.336.48,1.949,1.949,0,0,0-.617,1.293V39H42.391V33.461a1.613,1.613,0,0,0-1.8-1.844,1.934,1.934,0,0,0-1.945,1.211V39H37.2V30.547ZM52.8,39H51.352V30.547H52.8ZM51.234,28.3a.863.863,0,0,1,.215-.594.807.807,0,0,1,.637-.242.819.819,0,0,1,.641.242.854.854,0,0,1,.219.594.826.826,0,0,1-.219.586.834.834,0,0,1-.641.234.821.821,0,0,1-.637-.234A.834.834,0,0,1,51.234,28.3Zm5.836.2v2.047h1.578v1.117H57.07v5.249a1.173,1.173,0,0,0,.211.763A.888.888,0,0,0,58,37.93a3.5,3.5,0,0,0,.688-.094V39a4.215,4.215,0,0,1-1.109.155,1.8,1.8,0,0,1-1.461-.586,2.517,2.517,0,0,1-.492-1.664V31.664H54.086V30.547h1.539V28.5Zm6.773,10.656a3.693,3.693,0,0,1-2.8-1.129,4.19,4.19,0,0,1-1.078-3.02v-.266a5.073,5.073,0,0,1,.48-2.246,3.748,3.748,0,0,1,1.344-1.547,3.378,3.378,0,0,1,1.871-.559,3.166,3.166,0,0,1,2.563,1.086,4.7,4.7,0,0,1,.914,3.109v.6H61.414a3,3,0,0,0,.73,2.02,2.3,2.3,0,0,0,1.777.77,2.517,2.517,0,0,0,1.3-.312,3.259,3.259,0,0,0,.93-.828l.883.688A3.55,3.55,0,0,1,63.844,39.156Zm-.18-7.578a1.928,1.928,0,0,0-1.469.637A3.1,3.1,0,0,0,61.461,34H65.7v-.109a2.753,2.753,0,0,0-.594-1.707A1.815,1.815,0,0,0,63.664,31.578Zm12.617,7.578a3.693,3.693,0,0,1-2.8-1.129,4.19,4.19,0,0,1-1.078-3.02v-.266a5.073,5.073,0,0,1,.48-2.246,3.748,3.748,0,0,1,1.344-1.547,3.378,3.378,0,0,1,1.871-.559,3.166,3.166,0,0,1,2.563,1.086,4.7,4.7,0,0,1,.914,3.109v.6H73.852a3,3,0,0,0,.73,2.02,2.3,2.3,0,0,0,1.777.77,2.517,2.517,0,0,0,1.3-.312,3.259,3.259,0,0,0,.93-.828l.883.688A3.55,3.55,0,0,1,76.281,39.156Zm-.18-7.578a1.928,1.928,0,0,0-1.469.637A3.1,3.1,0,0,0,73.9,34h4.234v-.109a2.753,2.753,0,0,0-.594-1.707A1.815,1.815,0,0,0,76.1,31.578ZM82.82,39H81.375V27H82.82Zm7.633-8.453.039.938A3.122,3.122,0,0,1,93,30.391a2.417,2.417,0,0,1,2.414,1.359,3.2,3.2,0,0,1,1.1-.984,3.242,3.242,0,0,1,1.6-.375q2.781,0,2.828,2.945V39H99.492V33.422a1.941,1.941,0,0,0-.414-1.355,1.823,1.823,0,0,0-1.391-.449,1.916,1.916,0,0,0-1.336.48,1.949,1.949,0,0,0-.617,1.293V39H94.281V33.461a1.613,1.613,0,0,0-1.8-1.844,1.934,1.934,0,0,0-1.945,1.211V39H89.086V30.547Zm16.172,8.609a3.693,3.693,0,0,1-2.8-1.129,4.19,4.19,0,0,1-1.078-3.02v-.266a5.073,5.073,0,0,1,.48-2.246,3.748,3.748,0,0,1,1.344-1.547,3.378,3.378,0,0,1,1.871-.559,3.166,3.166,0,0,1,2.563,1.086,4.7,4.7,0,0,1,.914,3.109v.6H104.2a3,3,0,0,0,.73,2.02,2.3,2.3,0,0,0,1.777.77,2.517,2.517,0,0,0,1.3-.312,3.259,3.259,0,0,0,.93-.828l.883.688A3.55,3.55,0,0,1,106.625,39.156Zm-.18-7.578a1.928,1.928,0,0,0-1.469.637A3.1,3.1,0,0,0,104.242,34h4.234v-.109a2.753,2.753,0,0,0-.594-1.707A1.815,1.815,0,0,0,106.445,31.578Zm6.516-1.031.047,1.063a3.08,3.08,0,0,1,2.531-1.219q2.68,0,2.7,3.023V39H116.8V33.406a1.946,1.946,0,0,0-.418-1.352,1.675,1.675,0,0,0-1.277-.437,2.086,2.086,0,0,0-1.234.375,2.546,2.546,0,0,0-.828.984V39h-1.445V30.547Zm12.383,6.211a1.064,1.064,0,0,0-.441-.91,4.249,4.249,0,0,0-1.539-.559,7.277,7.277,0,0,1-1.742-.562,2.479,2.479,0,0,1-.953-.781,1.869,1.869,0,0,1-.309-1.078,2.193,2.193,0,0,1,.879-1.758,3.432,3.432,0,0,1,2.246-.719,3.532,3.532,0,0,1,2.332.742,2.357,2.357,0,0,1,.895,1.9h-1.453a1.3,1.3,0,0,0-.5-1.023,1.888,1.888,0,0,0-1.27-.43,1.976,1.976,0,0,0-1.234.344,1.082,1.082,0,0,0-.445.9.877.877,0,0,0,.414.789,5.1,5.1,0,0,0,1.5.508,7.8,7.8,0,0,1,1.754.578,2.558,2.558,0,0,1,1,.809,1.988,1.988,0,0,1,.324,1.152,2.163,2.163,0,0,1-.906,1.816,3.8,3.8,0,0,1-2.352.684,4.257,4.257,0,0,1-1.8-.359,2.922,2.922,0,0,1-1.223-1,2.42,2.42,0,0,1-.441-1.395h1.445a1.5,1.5,0,0,0,.582,1.152,2.258,2.258,0,0,0,1.434.426,2.331,2.331,0,0,0,1.316-.332A1.02,1.02,0,0,0,125.344,36.758ZM133.891,39a3.036,3.036,0,0,1-.2-.891,3.225,3.225,0,0,1-2.406,1.047,2.984,2.984,0,0,1-2.051-.707,2.287,2.287,0,0,1-.8-1.793,2.39,2.39,0,0,1,1-2.051,4.733,4.733,0,0,1,2.824-.73h1.406v-.664A1.623,1.623,0,0,0,133.211,32a1.821,1.821,0,0,0-1.336-.449,2.107,2.107,0,0,0-1.3.391,1.151,1.151,0,0,0-.523.945H128.6a2,2,0,0,1,.449-1.223,3.066,3.066,0,0,1,1.219-.934,4.1,4.1,0,0,1,1.691-.344,3.342,3.342,0,0,1,2.289.73,2.635,2.635,0,0,1,.859,2.012v3.891a4.757,4.757,0,0,0,.3,1.852V39Zm-2.4-1.1a2.54,2.54,0,0,0,1.289-.352,2.127,2.127,0,0,0,.883-.914V34.9h-1.133q-2.656,0-2.656,1.555a1.316,1.316,0,0,0,.453,1.063A1.742,1.742,0,0,0,131.492,37.9Zm7.375-7.352v9.43q0,2.438-2.211,2.438a2.7,2.7,0,0,1-.883-.14V41.125a2.794,2.794,0,0,0,.656.063.982.982,0,0,0,.738-.262,1.3,1.3,0,0,0,.254-.911V30.547ZM137.273,28.3a.867.867,0,0,1,.215-.59.79.79,0,0,1,.629-.246.819.819,0,0,1,.641.242.854.854,0,0,1,.219.594.826.826,0,0,1-.219.586.834.834,0,0,1-.641.234.808.808,0,0,1-.633-.234A.843.843,0,0,1,137.273,28.3Zm7.43,10.852a3.693,3.693,0,0,1-2.8-1.129,4.19,4.19,0,0,1-1.078-3.02v-.266a5.073,5.073,0,0,1,.48-2.246,3.748,3.748,0,0,1,1.344-1.547,3.378,3.378,0,0,1,1.871-.559,3.166,3.166,0,0,1,2.563,1.086A4.7,4.7,0,0,1,148,34.586v.6h-5.727a3,3,0,0,0,.73,2.02,2.3,2.3,0,0,0,1.777.77,2.517,2.517,0,0,0,1.3-.312,3.258,3.258,0,0,0,.93-.828l.883.688A3.55,3.55,0,0,1,144.7,39.156Zm-.18-7.578a1.928,1.928,0,0,0-1.469.637A3.1,3.1,0,0,0,142.32,34h4.234v-.109a2.753,2.753,0,0,0-.594-1.707A1.815,1.815,0,0,0,144.523,31.578Z" transform="translate(321.816 3901.932)" fill="#12263f"/>
    <path id="Trazado_721849" data-name="Trazado 721849" d="M2.82,10.547V15H1.32V3.625h4.2a4.215,4.215,0,0,1,2.926.953A3.231,3.231,0,0,1,9.5,7.1,3.189,3.189,0,0,1,8.465,9.652a4.4,4.4,0,0,1-2.965.895Zm0-1.227h2.7a2.7,2.7,0,0,0,1.844-.567A2.075,2.075,0,0,0,8,7.113a2.143,2.143,0,0,0-.641-1.628A2.525,2.525,0,0,0,5.6,4.852H2.82Zm11.773,5.836a3.693,3.693,0,0,1-2.8-1.129,4.19,4.19,0,0,1-1.078-3.02v-.266A5.073,5.073,0,0,1,11.2,8.5a3.748,3.748,0,0,1,1.344-1.547,3.378,3.378,0,0,1,1.871-.559,3.166,3.166,0,0,1,2.563,1.086,4.7,4.7,0,0,1,.914,3.109v.6H12.164a3,3,0,0,0,.73,2.02,2.3,2.3,0,0,0,1.777.77,2.517,2.517,0,0,0,1.3-.312,3.259,3.259,0,0,0,.93-.828l.883.688A3.55,3.55,0,0,1,14.594,15.156Zm-.18-7.578a1.928,1.928,0,0,0-1.469.637A3.1,3.1,0,0,0,12.211,10h4.234V9.891a2.753,2.753,0,0,0-.594-1.707A1.815,1.815,0,0,0,14.414,7.578Zm9.234.266a4.331,4.331,0,0,0-.711-.055A1.9,1.9,0,0,0,21.008,9v6H19.563V6.547h1.406l.023.977a2.251,2.251,0,0,1,2.016-1.133,1.477,1.477,0,0,1,.641.109Zm6.25,4.914a1.064,1.064,0,0,0-.441-.91,4.249,4.249,0,0,0-1.539-.559,7.277,7.277,0,0,1-1.742-.562,2.479,2.479,0,0,1-.953-.781,1.869,1.869,0,0,1-.309-1.078,2.193,2.193,0,0,1,.879-1.758,3.432,3.432,0,0,1,2.246-.719,3.532,3.532,0,0,1,2.332.742,2.357,2.357,0,0,1,.895,1.9H29.813a1.3,1.3,0,0,0-.5-1.023,1.888,1.888,0,0,0-1.27-.43,1.976,1.976,0,0,0-1.234.344,1.082,1.082,0,0,0-.445.9.877.877,0,0,0,.414.789,5.1,5.1,0,0,0,1.5.508,7.8,7.8,0,0,1,1.754.578,2.558,2.558,0,0,1,1,.809,1.988,1.988,0,0,1,.324,1.152,2.163,2.163,0,0,1-.906,1.816,3.8,3.8,0,0,1-2.352.684,4.257,4.257,0,0,1-1.8-.359,2.922,2.922,0,0,1-1.223-1,2.42,2.42,0,0,1-.441-1.395H26.07a1.5,1.5,0,0,0,.582,1.152,2.258,2.258,0,0,0,1.434.426,2.331,2.331,0,0,0,1.316-.332A1.02,1.02,0,0,0,29.9,12.758ZM32.844,10.7a4.993,4.993,0,0,1,.488-2.234A3.643,3.643,0,0,1,34.691,6.93a3.7,3.7,0,0,1,1.988-.539,3.565,3.565,0,0,1,2.793,1.2,4.6,4.6,0,0,1,1.066,3.18v.1a5.036,5.036,0,0,1-.473,2.215,3.589,3.589,0,0,1-1.352,1.527,3.743,3.743,0,0,1-2.02.547,3.556,3.556,0,0,1-2.785-1.2A4.575,4.575,0,0,1,32.844,10.8Zm1.453.172a3.616,3.616,0,0,0,.652,2.258,2.211,2.211,0,0,0,3.5-.012,3.955,3.955,0,0,0,.648-2.418,3.61,3.61,0,0,0-.66-2.254,2.1,2.1,0,0,0-1.754-.863,2.075,2.075,0,0,0-1.727.852A3.925,3.925,0,0,0,34.3,10.867Zm9.422-4.32.047,1.063A3.08,3.08,0,0,1,46.3,6.391q2.68,0,2.7,3.023V15H47.555V9.406a1.946,1.946,0,0,0-.418-1.352,1.675,1.675,0,0,0-1.277-.437,2.086,2.086,0,0,0-1.234.375,2.546,2.546,0,0,0-.828.984V15H42.352V6.547ZM56.4,15a3.036,3.036,0,0,1-.2-.891,3.225,3.225,0,0,1-2.406,1.047,2.984,2.984,0,0,1-2.051-.707,2.287,2.287,0,0,1-.8-1.793,2.39,2.39,0,0,1,1-2.051,4.733,4.733,0,0,1,2.824-.73h1.406V9.211A1.623,1.623,0,0,0,55.719,8a1.821,1.821,0,0,0-1.336-.449,2.107,2.107,0,0,0-1.3.391,1.151,1.151,0,0,0-.523.945H51.109a2,2,0,0,1,.449-1.223,3.066,3.066,0,0,1,1.219-.934,4.1,4.1,0,0,1,1.691-.344,3.342,3.342,0,0,1,2.289.73,2.635,2.635,0,0,1,.859,2.012v3.891a4.757,4.757,0,0,0,.3,1.852V15ZM54,13.9a2.54,2.54,0,0,0,1.289-.352,2.127,2.127,0,0,0,.883-.914V10.9H55.039q-2.656,0-2.656,1.555a1.316,1.316,0,0,0,.453,1.063A1.742,1.742,0,0,0,54,13.9Zm9.492-3.2a4.961,4.961,0,0,1,.914-3.152,3.226,3.226,0,0,1,4.82-.152l.063-.852h1.328v11.7H69.172V14.219a3.033,3.033,0,0,1-2.328.938A2.915,2.915,0,0,1,64.4,13.965a5.072,5.072,0,0,1-.91-3.16Zm1.445.164a3.761,3.761,0,0,0,.613,2.281,1.951,1.951,0,0,0,1.652.828,2.164,2.164,0,0,0,1.969-1.141V8.7a2.171,2.171,0,0,0-1.953-1.117,1.965,1.965,0,0,0-1.664.832A4.094,4.094,0,0,0,64.938,10.867Zm13.219,3.3a3.07,3.07,0,0,1-2.477.992,2.628,2.628,0,0,1-2.059-.785,3.4,3.4,0,0,1-.715-2.324v-5.5h1.445v5.461q0,1.922,1.563,1.922a2.163,2.163,0,0,0,2.2-1.234V6.547h1.445V15H78.188Zm7.109.992a3.693,3.693,0,0,1-2.8-1.129,4.19,4.19,0,0,1-1.078-3.02v-.266a5.073,5.073,0,0,1,.48-2.246,3.748,3.748,0,0,1,1.344-1.547,3.378,3.378,0,0,1,1.871-.559,3.166,3.166,0,0,1,2.563,1.086,4.7,4.7,0,0,1,.914,3.109v.6H82.836a3,3,0,0,0,.73,2.02,2.3,2.3,0,0,0,1.777.77,2.517,2.517,0,0,0,1.3-.312,3.259,3.259,0,0,0,.93-.828l.883.688A3.55,3.55,0,0,1,85.266,15.156Zm-.18-7.578a1.928,1.928,0,0,0-1.469.637A3.1,3.1,0,0,0,82.883,10h4.234V9.891a2.753,2.753,0,0,0-.594-1.707A1.815,1.815,0,0,0,85.086,7.578ZM5.18,31.844a4.331,4.331,0,0,0-.711-.055A1.9,1.9,0,0,0,2.539,33v6H1.094V30.547H2.5l.023.977a2.251,2.251,0,0,1,2.016-1.133,1.477,1.477,0,0,1,.641.109Zm4.688,7.313a3.693,3.693,0,0,1-2.8-1.129,4.19,4.19,0,0,1-1.078-3.02v-.266a5.073,5.073,0,0,1,.48-2.246,3.748,3.748,0,0,1,1.344-1.547,3.378,3.378,0,0,1,1.871-.559,3.166,3.166,0,0,1,2.563,1.086,4.7,4.7,0,0,1,.914,3.109v.6H7.438a3,3,0,0,0,.73,2.02,2.3,2.3,0,0,0,1.777.77,2.517,2.517,0,0,0,1.3-.312,3.258,3.258,0,0,0,.93-.828l.883.688A3.55,3.55,0,0,1,9.867,39.156Zm-.18-7.578a1.928,1.928,0,0,0-1.469.637A3.1,3.1,0,0,0,7.484,34h4.234v-.109a2.753,2.753,0,0,0-.594-1.707A1.815,1.815,0,0,0,9.688,31.578Zm8.539,6.4a2.082,2.082,0,0,0,1.352-.469,1.649,1.649,0,0,0,.641-1.172h1.367a2.621,2.621,0,0,1-.5,1.383,3.293,3.293,0,0,1-1.23,1.047,3.55,3.55,0,0,1-1.629.391A3.482,3.482,0,0,1,15.48,38a4.59,4.59,0,0,1-1.02-3.152v-.242a5.089,5.089,0,0,1,.453-2.2,3.451,3.451,0,0,1,1.3-1.492,3.7,3.7,0,0,1,2-.531,3.39,3.39,0,0,1,2.363.852,3.043,3.043,0,0,1,1,2.211H20.219a1.992,1.992,0,0,0-.621-1.348,1.932,1.932,0,0,0-1.379-.527,2.023,2.023,0,0,0-1.707.793,3.724,3.724,0,0,0-.605,2.293v.273a3.65,3.65,0,0,0,.6,2.25A2.033,2.033,0,0,0,18.227,37.977ZM24.781,39H23.336V30.547h1.445ZM23.219,28.3a.863.863,0,0,1,.215-.594.807.807,0,0,1,.637-.242.819.819,0,0,1,.641.242.854.854,0,0,1,.219.594.826.826,0,0,1-.219.586.834.834,0,0,1-.641.234.821.821,0,0,1-.637-.234A.834.834,0,0,1,23.219,28.3ZM34.25,34.867a5.026,5.026,0,0,1-.891,3.113,2.846,2.846,0,0,1-2.391,1.176,2.947,2.947,0,0,1-2.477-1.133l-.07.977H27.094V27h1.445v4.477a2.93,2.93,0,0,1,2.414-1.086,2.863,2.863,0,0,1,2.418,1.164,5.177,5.177,0,0,1,.879,3.188ZM32.8,34.7a3.906,3.906,0,0,0-.57-2.281,1.888,1.888,0,0,0-1.641-.8,2.122,2.122,0,0,0-2.055,1.328V36.6a2.181,2.181,0,0,0,2.07,1.328,1.878,1.878,0,0,0,1.617-.8A4.153,4.153,0,0,0,32.8,34.7Zm6.773,4.453a3.693,3.693,0,0,1-2.8-1.129,4.19,4.19,0,0,1-1.078-3.02v-.266a5.073,5.073,0,0,1,.48-2.246,3.748,3.748,0,0,1,1.344-1.547,3.378,3.378,0,0,1,1.871-.559,3.166,3.166,0,0,1,2.563,1.086,4.7,4.7,0,0,1,.914,3.109v.6H37.148a3,3,0,0,0,.73,2.02,2.3,2.3,0,0,0,1.777.77,2.517,2.517,0,0,0,1.3-.312,3.258,3.258,0,0,0,.93-.828l.883.688A3.55,3.55,0,0,1,39.578,39.156Zm-.18-7.578a1.928,1.928,0,0,0-1.469.637A3.1,3.1,0,0,0,37.2,34H41.43v-.109a2.753,2.753,0,0,0-.594-1.707A1.815,1.815,0,0,0,39.4,31.578Zm12.617,7.578a3.693,3.693,0,0,1-2.8-1.129,4.19,4.19,0,0,1-1.078-3.02v-.266a5.073,5.073,0,0,1,.48-2.246,3.748,3.748,0,0,1,1.344-1.547,3.378,3.378,0,0,1,1.871-.559A3.166,3.166,0,0,1,54.4,31.477a4.7,4.7,0,0,1,.914,3.109v.6H49.586a3,3,0,0,0,.73,2.02,2.3,2.3,0,0,0,1.777.77,2.517,2.517,0,0,0,1.3-.312,3.258,3.258,0,0,0,.93-.828l.883.688A3.55,3.55,0,0,1,52.016,39.156Zm-.18-7.578a1.928,1.928,0,0,0-1.469.637A3.1,3.1,0,0,0,49.633,34h4.234v-.109a2.753,2.753,0,0,0-.594-1.707A1.815,1.815,0,0,0,51.836,31.578ZM58.555,39H57.109V27h1.445Zm7.633-8.453.039.938a3.122,3.122,0,0,1,2.508-1.094,2.417,2.417,0,0,1,2.414,1.359,3.2,3.2,0,0,1,1.1-.984,3.242,3.242,0,0,1,1.6-.375q2.781,0,2.828,2.945V39H75.227V33.422a1.941,1.941,0,0,0-.414-1.355,1.823,1.823,0,0,0-1.391-.449,1.916,1.916,0,0,0-1.336.48,1.949,1.949,0,0,0-.617,1.293V39H70.016V33.461a1.613,1.613,0,0,0-1.8-1.844,1.934,1.934,0,0,0-1.945,1.211V39H64.82V30.547Zm16.172,8.609a3.693,3.693,0,0,1-2.8-1.129,4.19,4.19,0,0,1-1.078-3.02v-.266a5.073,5.073,0,0,1,.48-2.246,3.748,3.748,0,0,1,1.344-1.547,3.378,3.378,0,0,1,1.871-.559,3.166,3.166,0,0,1,2.563,1.086,4.7,4.7,0,0,1,.914,3.109v.6H79.93a3,3,0,0,0,.73,2.02,2.3,2.3,0,0,0,1.777.77,2.517,2.517,0,0,0,1.3-.312,3.259,3.259,0,0,0,.93-.828l.883.688A3.55,3.55,0,0,1,82.359,39.156Zm-.18-7.578a1.928,1.928,0,0,0-1.469.637A3.1,3.1,0,0,0,79.977,34h4.234v-.109a2.753,2.753,0,0,0-.594-1.707A1.815,1.815,0,0,0,82.18,31.578ZM88.7,30.547l.047,1.063a3.08,3.08,0,0,1,2.531-1.219q2.68,0,2.7,3.023V39H92.531V33.406a1.946,1.946,0,0,0-.418-1.352,1.675,1.675,0,0,0-1.277-.437,2.086,2.086,0,0,0-1.234.375,2.546,2.546,0,0,0-.828.984V39H87.328V30.547Zm12.383,6.211a1.064,1.064,0,0,0-.441-.91,4.249,4.249,0,0,0-1.539-.559,7.277,7.277,0,0,1-1.742-.562,2.479,2.479,0,0,1-.953-.781,1.869,1.869,0,0,1-.309-1.078,2.193,2.193,0,0,1,.879-1.758,3.432,3.432,0,0,1,2.246-.719,3.532,3.532,0,0,1,2.332.742,2.357,2.357,0,0,1,.895,1.9h-1.453a1.3,1.3,0,0,0-.5-1.023,1.888,1.888,0,0,0-1.27-.43,1.976,1.976,0,0,0-1.234.344,1.082,1.082,0,0,0-.445.9.877.877,0,0,0,.414.789,5.1,5.1,0,0,0,1.5.508,7.8,7.8,0,0,1,1.754.578,2.558,2.558,0,0,1,1,.809,1.988,1.988,0,0,1,.324,1.152,2.163,2.163,0,0,1-.906,1.816,3.8,3.8,0,0,1-2.352.684,4.257,4.257,0,0,1-1.8-.359,2.922,2.922,0,0,1-1.223-1A2.42,2.42,0,0,1,95.8,36.4H97.25a1.5,1.5,0,0,0,.582,1.152,2.258,2.258,0,0,0,1.434.426,2.331,2.331,0,0,0,1.316-.332A1.02,1.02,0,0,0,101.078,36.758ZM109.625,39a3.036,3.036,0,0,1-.2-.891,3.225,3.225,0,0,1-2.406,1.047,2.984,2.984,0,0,1-2.051-.707,2.288,2.288,0,0,1-.8-1.793,2.39,2.39,0,0,1,1-2.051,4.733,4.733,0,0,1,2.824-.73H109.4v-.664A1.623,1.623,0,0,0,108.945,32a1.821,1.821,0,0,0-1.336-.449,2.108,2.108,0,0,0-1.3.391,1.151,1.151,0,0,0-.523.945h-1.453a2,2,0,0,1,.449-1.223A3.066,3.066,0,0,1,106,30.734a4.1,4.1,0,0,1,1.691-.344,3.342,3.342,0,0,1,2.289.73,2.635,2.635,0,0,1,.859,2.012v3.891a4.757,4.757,0,0,0,.3,1.852V39Zm-2.4-1.1a2.54,2.54,0,0,0,1.289-.352,2.127,2.127,0,0,0,.883-.914V34.9h-1.133q-2.656,0-2.656,1.555a1.316,1.316,0,0,0,.453,1.063A1.742,1.742,0,0,0,107.227,37.9Zm7.375-7.352v9.43q0,2.438-2.211,2.438a2.7,2.7,0,0,1-.883-.14V41.125a2.794,2.794,0,0,0,.656.063.982.982,0,0,0,.738-.262,1.3,1.3,0,0,0,.254-.911V30.547ZM113.008,28.3a.867.867,0,0,1,.215-.59.79.79,0,0,1,.629-.246.819.819,0,0,1,.641.242.854.854,0,0,1,.219.594.826.826,0,0,1-.219.586.834.834,0,0,1-.641.234.808.808,0,0,1-.633-.234A.843.843,0,0,1,113.008,28.3Zm7.43,10.852a3.693,3.693,0,0,1-2.8-1.129,4.19,4.19,0,0,1-1.078-3.02v-.266a5.073,5.073,0,0,1,.48-2.246,3.748,3.748,0,0,1,1.344-1.547,3.378,3.378,0,0,1,1.871-.559,3.166,3.166,0,0,1,2.563,1.086,4.7,4.7,0,0,1,.914,3.109v.6h-5.727a3,3,0,0,0,.73,2.02,2.3,2.3,0,0,0,1.777.77,2.517,2.517,0,0,0,1.3-.312,3.259,3.259,0,0,0,.93-.828l.883.688A3.55,3.55,0,0,1,120.438,39.156Zm-.18-7.578a1.928,1.928,0,0,0-1.469.637A3.1,3.1,0,0,0,118.055,34h4.234v-.109a2.753,2.753,0,0,0-.594-1.707A1.815,1.815,0,0,0,120.258,31.578Z" transform="translate(1150.767 3901.932)" fill="#12263f"/>
    <path id="Trazado_717592" data-name="Trazado 717592" d="M37.266,0,29.661,7.606l9.486,9.486H0V27.848H39.147l-9.486,9.486,7.605,7.606,22.47-22.47Z" transform="translate(412.038 3790.666) rotate(90)" fill="#9f0f6a"/>
    <path id="Trazado_717594" data-name="Trazado 717594" d="M37.266,0,29.661,7.606l9.486,9.486H0V27.848H39.147l-9.486,9.486,7.605,7.606,22.47-22.47Z" transform="translate(1233.355 3790.666) rotate(90)" fill="#9f0f6a"/>
    <path id="Trazado_717590" data-name="Trazado 717590" d="M37.266,0,29.661,7.606l9.486,9.486H0V27.848H39.147l-9.486,9.486,7.605,7.606,22.47-22.47Z" transform="translate(818.652 3572.504) rotate(90)" fill="#9f0f6a"/>
    <path id="Trazado_717591" data-name="Trazado 717591" d="M14.1,3.3,184.027,0C191.335-.14,197.144,7.857,197,17.863l-.608,42.91c-.142,10.006-6.181,18.232-13.489,18.374l-169.927,3.3C5.67,82.585-.139,74.589,0,64.583l.608-42.91C.752,11.667,6.792,3.441,14.1,3.3Z" transform="translate(285 3698.411) rotate(-3)" fill="#7c119b" opacity="0.56"/>
    <path id="Trazado_717593" data-name="Trazado 717593" d="M14.1,3.3,184.027,0C191.335-.14,197.144,7.857,197,17.863l-.608,42.91c-.142,10.006-6.181,18.232-13.489,18.374l-169.927,3.3C5.67,82.585-.139,74.589,0,64.583l.608-42.91C.752,11.667,6.792,3.441,14.1,3.3Z" transform="translate(1106.316 3698.411) rotate(-3)" fill="#7c119b" opacity="0.56"/>
    <path id="Trazado_721850" data-name="Trazado 721850" d="M19,0H160.9a19,19,0,0,1,19,19V56.386a19,19,0,0,1-19,19H19a19,19,0,0,1-19-19V19A19,19,0,0,1,19,0Z" transform="translate(295.575 3696.729)" fill="#7c119b"/>
    <path id="Trazado_721851" data-name="Trazado 721851" d="M19,0H160.9a19,19,0,0,1,19,19V56.386a19,19,0,0,1-19,19H19a19,19,0,0,1-19-19V19A19,19,0,0,1,19,0Z" transform="translate(1116.891 3696.729)" fill="#7c119b"/>
    <path id="Trazado_721852" data-name="Trazado 721852" d="M8.409-5.13H3.827v2.889H9.239V0H.913V-12.086H9.255v2.25H3.827v2.548H8.409Zm4.532-3.852.091,1.054A3.088,3.088,0,0,1,15.6-9.147a2.273,2.273,0,0,1,2.3,1.353,2.989,2.989,0,0,1,2.64-1.353q2.731,0,2.806,3.3V0H20.536V-5.669a1.712,1.712,0,0,0-.232-1,.989.989,0,0,0-.847-.315,1.325,1.325,0,0,0-1.237.739l.008.116V0H15.423V-5.653A1.8,1.8,0,0,0,15.2-6.674a.987.987,0,0,0-.855-.315,1.342,1.342,0,0,0-1.229.739V0h-2.8V-8.981ZM27.891,0H25.085V-8.981h2.806ZM24.919-11.3a1.249,1.249,0,0,1,.432-.979,1.629,1.629,0,0,1,1.121-.382,1.629,1.629,0,0,1,1.121.382,1.249,1.249,0,0,1,.432.979,1.249,1.249,0,0,1-.432.979,1.629,1.629,0,0,1-1.121.382,1.629,1.629,0,0,1-1.121-.382A1.249,1.249,0,0,1,24.919-11.3Zm9.4,8.774a.646.646,0,0,0-.374-.573,5.682,5.682,0,0,0-1.419-.448,6.473,6.473,0,0,1-1.727-.61,2.892,2.892,0,0,1-1.038-.917A2.19,2.19,0,0,1,29.4-6.309a2.482,2.482,0,0,1,1.021-2.038,4.206,4.206,0,0,1,2.673-.8,4.66,4.66,0,0,1,2.855.805A2.518,2.518,0,0,1,37.03-6.226H34.224q0-1.079-1.137-1.079a1.127,1.127,0,0,0-.739.245.758.758,0,0,0-.3.61.7.7,0,0,0,.365.606,3.451,3.451,0,0,0,1.166.382,10.078,10.078,0,0,1,1.407.357,2.556,2.556,0,0,1,2.025,2.5,2.352,2.352,0,0,1-1.092,2A4.787,4.787,0,0,1,33.1.166a4.885,4.885,0,0,1-2.059-.415,3.442,3.442,0,0,1-1.411-1.129,2.556,2.556,0,0,1-.506-1.5h2.615a1.081,1.081,0,0,0,.415.909,1.707,1.707,0,0,0,1.021.286,1.343,1.343,0,0,0,.859-.232A.743.743,0,0,0,34.315-2.523Zm3.652-2.05a5.3,5.3,0,0,1,.523-2.395,3.74,3.74,0,0,1,1.5-1.615,4.525,4.525,0,0,1,2.3-.564A4.13,4.13,0,0,1,45.472-7.9a4.794,4.794,0,0,1,1.162,3.4v.1a4.651,4.651,0,0,1-1.166,3.333A4.141,4.141,0,0,1,42.309.166a4.188,4.188,0,0,1-3.08-1.15A4.5,4.5,0,0,1,37.976-4.1Zm2.8.174a3.342,3.342,0,0,0,.39,1.826,1.3,1.3,0,0,0,1.154.581q1.494,0,1.527-2.3v-.282q0-2.416-1.544-2.416-1.4,0-1.519,2.083ZM53.3-6.45l-.921-.066a1.655,1.655,0,0,0-1.693.83V0h-2.8V-8.981H50.51L50.6-7.828a2.166,2.166,0,0,1,1.967-1.32,2.728,2.728,0,0,1,.78.1Z" transform="translate(359.511 3738.971)" fill="#fff"/>
    <path id="Trazado_721853" data-name="Trazado 721853" d="M5.4-4.275H3.827V0H.913V-12.086H5.669a5.309,5.309,0,0,1,3.362.954,3.231,3.231,0,0,1,1.212,2.695,3.924,3.924,0,0,1-.51,2.09A3.623,3.623,0,0,1,8.135-5l2.523,4.88V0H7.537ZM3.827-6.516H5.669a1.654,1.654,0,0,0,1.249-.437,1.689,1.689,0,0,0,.419-1.219A1.709,1.709,0,0,0,6.915-9.4a1.639,1.639,0,0,0-1.245-.445H3.827ZM16.22.166a4.617,4.617,0,0,1-3.345-1.233A4.257,4.257,0,0,1,11.6-4.275v-.232a5.516,5.516,0,0,1,.51-2.432A3.735,3.735,0,0,1,13.6-8.571a4.5,4.5,0,0,1,2.324-.577,3.888,3.888,0,0,1,2.988,1.175A4.616,4.616,0,0,1,20-4.7v1.087H14.443A2.016,2.016,0,0,0,15.1-2.424a1.951,1.951,0,0,0,1.312.432,2.514,2.514,0,0,0,2.075-.93l1.278,1.511a3.573,3.573,0,0,1-1.482,1.15A5.007,5.007,0,0,1,16.22.166ZM15.9-6.989q-1.229,0-1.461,1.627h2.822v-.216a1.386,1.386,0,0,0-.34-1.042A1.354,1.354,0,0,0,15.9-6.989Zm9.023,5a1.244,1.244,0,0,0,.913-.32,1.172,1.172,0,0,0,.315-.892h2.623A3.105,3.105,0,0,1,27.72-.78a3.937,3.937,0,0,1-2.727.946,3.986,3.986,0,0,1-3.088-1.229,4.841,4.841,0,0,1-1.129-3.4v-.116a5.471,5.471,0,0,1,.5-2.4,3.656,3.656,0,0,1,1.448-1.6,4.319,4.319,0,0,1,2.241-.56,3.887,3.887,0,0,1,2.781.971,3.445,3.445,0,0,1,1.029,2.631H26.156a1.536,1.536,0,0,0-.34-1.071,1.175,1.175,0,0,0-.913-.374q-1.087,0-1.27,1.386a9.782,9.782,0,0,0-.058,1.212A3.842,3.842,0,0,0,23.9-2.515,1.121,1.121,0,0,0,24.927-1.992ZM34.307.166a4.617,4.617,0,0,1-3.345-1.233,4.257,4.257,0,0,1-1.278-3.208v-.232a5.516,5.516,0,0,1,.51-2.432,3.735,3.735,0,0,1,1.49-1.631,4.5,4.5,0,0,1,2.324-.577A3.888,3.888,0,0,1,37-7.973a4.616,4.616,0,0,1,1.1,3.275v1.087H32.531a2.016,2.016,0,0,0,.656,1.187,1.951,1.951,0,0,0,1.312.432,2.514,2.514,0,0,0,2.075-.93l1.278,1.511A3.573,3.573,0,0,1,36.37-.261,5.007,5.007,0,0,1,34.307.166Zm-.315-7.155q-1.229,0-1.461,1.627h2.822v-.216a1.386,1.386,0,0,0-.34-1.042A1.354,1.354,0,0,0,33.992-6.989ZM47.555-4.424a5.416,5.416,0,0,1-.942,3.341A3.021,3.021,0,0,1,44.069.166a2.589,2.589,0,0,1-2.034-.9V3.453h-2.8V-8.981h2.615l.083.83a2.589,2.589,0,0,1,2.117-1,3.045,3.045,0,0,1,2.582,1.224,5.483,5.483,0,0,1,.921,3.366Zm-2.8-.174q0-2.391-1.395-2.391a1.316,1.316,0,0,0-1.328.714v3.536a1.359,1.359,0,0,0,1.345.747q1.336,0,1.378-2.308Zm7.288-6.616v2.233h1.478v1.942H52.046V-2.93a1.049,1.049,0,0,0,.183.706.98.98,0,0,0,.722.2,4.1,4.1,0,0,0,.7-.05v2a5.163,5.163,0,0,1-1.577.241,2.93,2.93,0,0,1-2.133-.681,2.79,2.79,0,0,1-.689-2.067V-7.039H48.1V-8.981h1.146v-2.233Zm1.976,6.641a5.3,5.3,0,0,1,.523-2.395,3.74,3.74,0,0,1,1.5-1.615,4.525,4.525,0,0,1,2.3-.564A4.13,4.13,0,0,1,61.525-7.9a4.794,4.794,0,0,1,1.162,3.4v.1a4.651,4.651,0,0,1-1.166,3.333A4.141,4.141,0,0,1,58.363.166a4.188,4.188,0,0,1-3.08-1.15A4.5,4.5,0,0,1,54.03-4.1Zm2.8.174a3.342,3.342,0,0,0,.39,1.826,1.3,1.3,0,0,0,1.154.581q1.494,0,1.527-2.3v-.282q0-2.416-1.544-2.416-1.4,0-1.519,2.083ZM69.353-6.45l-.921-.066a1.655,1.655,0,0,0-1.693.83V0h-2.8V-8.981h2.623l.091,1.154a2.166,2.166,0,0,1,1.967-1.32,2.728,2.728,0,0,1,.78.1Z" transform="translate(1167.718 3738.971)" fill="#fff"/>
  </g>
</svg>
