<svg xmlns="http://www.w3.org/2000/svg" xmlns:xlink="http://www.w3.org/1999/xlink" width="116.999" height="115" viewBox="0 0 116.999 115">
  <defs>
    <clipPath id="clip-path">
      <path id="path21" d="M0-682.665H57.751v57.751H0Z" transform="translate(0 682.665)"/>
    </clipPath>
  </defs>
  <g id="Grupo_1068152" data-name="Grupo 1068152" transform="translate(-425.438 -7498.47)">
    <g id="Grupo_1015374" data-name="Grupo 1015374" transform="translate(425.927 7498.205)">
      <g id="Grupo_1015448" data-name="Grupo 1015448" transform="translate(0 0)">
        <g id="Grupo_1014855" data-name="Grupo 1014855" transform="translate(0 0)">
          <path id="Unión_12" data-name="Unión 12" d="M58.5,0C90.809,0,117,25.744,117,57.5S90.809,115,58.5,115,0,89.256,0,57.5,26.192,0,58.5,0Z" transform="translate(-0.49 0.265)" fill="#6fefc4"/>
          <ellipse id="Elipse_4842" data-name="Elipse 4842" cx="49" cy="49.5" rx="49" ry="49.5" transform="translate(9.51 7.265)" fill="#fff"/>
        </g>
      </g>
    </g>
    <g id="g15" transform="translate(460.438 8209.76)">
      <g id="g17" transform="translate(0 -682.665)">
        <g id="g19" clip-path="url(#clip-path)">
          <g id="g25" transform="translate(0.846 0.846)">
            <path id="path27" d="M-401.125-583.836H-437.23a.965.965,0,0,1-.965-.965v-52.026a.965.965,0,0,1,.965-.965h36.105a.965.965,0,0,1,.965.965V-584.8a.965.965,0,0,1-.965.965" transform="translate(438.195 637.79)" fill="#fbf7f7"/>
          </g>
          <g id="g29" transform="translate(35.529 0.846)">
            <path id="path31" d="M-25.82,0h-2.386a.965.965,0,0,1,.965.965V52.99a.965.965,0,0,1-.965.965h2.386a.965.965,0,0,0,.965-.965V.965A.965.965,0,0,0-25.82,0" transform="translate(28.207)" fill="#f7ebe7"/>
          </g>
          <g id="g33" transform="translate(0 0)">
            <path id="path35" d="M-32.218,45.647H-68.323a1.813,1.813,0,0,1-1.811-1.811V-8.189A1.813,1.813,0,0,1-68.323-10H-64.2a.846.846,0,0,1,.846.846.846.846,0,0,1-.846.846h-4.122a.119.119,0,0,0-.119.119V43.836a.119.119,0,0,0,.119.119h36.105a.119.119,0,0,0,.119-.119V-8.189a.119.119,0,0,0-.119-.119H-60.929a.846.846,0,0,1-.846-.846A.846.846,0,0,1-60.929-10h28.712a1.813,1.813,0,0,1,1.811,1.811V43.836A1.813,1.813,0,0,1-32.218,45.647Z" transform="translate(70.133 10)"/>
          </g>
          <g id="g37" transform="translate(9.164 17.025)">
            <path id="path39" d="M10.552-8.308H-9.154A.846.846,0,0,1-10-9.154.846.846,0,0,1-9.154-10H10.552a.846.846,0,0,1,.846.846A.846.846,0,0,1,10.552-8.308Z" transform="translate(10 10)"/>
          </g>
          <g id="g41" transform="translate(12.335 22.489)">
            <path id="path43" d="M11.263-8.308H-9.154A.846.846,0,0,1-10-9.154.846.846,0,0,1-9.154-10H11.263a.846.846,0,0,1,.846.846A.846.846,0,0,1,11.263-8.308Z" transform="translate(10 10)"/>
          </g>
          <g id="g45" transform="translate(5.283 22.489)">
            <path id="path47" d="M-4.827-8.308H-9.154A.846.846,0,0,1-10-9.154.846.846,0,0,1-9.154-10h4.327a.846.846,0,0,1,.846.846A.846.846,0,0,1-4.827-8.308Z" transform="translate(10 10)"/>
          </g>
          <g id="g49" transform="translate(5.283 27.953)">
            <path id="path51" d="M18.315-8.308H-9.154A.846.846,0,0,1-10-9.154.846.846,0,0,1-9.154-10H18.315a.846.846,0,0,1,.846.846A.846.846,0,0,1,18.315-8.308Z" transform="translate(10 10)"/>
          </g>
          <g id="g53" transform="translate(5.283 33.417)">
            <path id="path55" d="M18.315-8.308H-9.154A.846.846,0,0,1-10-9.154.846.846,0,0,1-9.154-10H18.315a.846.846,0,0,1,.846.846A.846.846,0,0,1,18.315-8.308Z" transform="translate(10 10)"/>
          </g>
          <g id="g57" transform="translate(12.633 38.881)">
            <path id="path59" d="M10.965-8.308H-9.154A.846.846,0,0,1-10-9.154.846.846,0,0,1-9.154-10H10.965a.846.846,0,0,1,.846.846A.846.846,0,0,1,10.965-8.308Z" transform="translate(10 10)"/>
          </g>
          <g id="g61" transform="translate(5.283 38.881)">
            <path id="path63" d="M-4.454-8.308h-4.7A.846.846,0,0,1-10-9.154.846.846,0,0,1-9.154-10h4.7a.846.846,0,0,1,.846.846A.846.846,0,0,1-4.454-8.308Z" transform="translate(10 10)"/>
          </g>
          <g id="g65" transform="translate(25.07 44.344)">
            <path id="path67" d="M-1.472-8.308H-9.154A.846.846,0,0,1-10-9.154.846.846,0,0,1-9.154-10h7.682a.846.846,0,0,1,.846.846A.846.846,0,0,1-1.472-8.308Z" transform="translate(10 10)"/>
          </g>
          <g id="g69" transform="translate(5.283 44.344)">
            <path id="path71" d="M8.11-8.308H-9.154A.846.846,0,0,1-10-9.154.846.846,0,0,1-9.154-10H8.11a.846.846,0,0,1,.846.846A.846.846,0,0,1,8.11-8.308Z" transform="translate(10 10)"/>
          </g>
          <g id="g73" transform="translate(12.818 49.808)">
            <path id="path75" d="M10.78-8.308H-9.154A.846.846,0,0,1-10-9.154.846.846,0,0,1-9.154-10H10.78a.846.846,0,0,1,.846.846A.846.846,0,0,1,10.78-8.308Z" transform="translate(10 10)"/>
          </g>
          <g id="g77" transform="translate(5.283 49.808)">
            <path id="path79" d="M-4.231-8.308H-9.154A.846.846,0,0,1-10-9.154.846.846,0,0,1-9.154-10h4.923a.846.846,0,0,1,.846.846A.846.846,0,0,1-4.231-8.308Z" transform="translate(10 10)"/>
          </g>
          <g id="g81" transform="translate(8.358 4.753)">
            <path id="path83" d="M-66.443-10.087a4.78,4.78,0,0,1-3.5-1.5.846.846,0,0,1,.059-1.195.846.846,0,0,1,1.195.059,3.064,3.064,0,0,0,2.251.946,1.58,1.58,0,0,0,1.626-1.093c.095-.53-.343-1.015-1.2-1.332-1.275-.47-2.407-.974-2.454-1a.846.846,0,0,1-.117-.064,2.44,2.44,0,0,1-1.088-2.416A2.721,2.721,0,0,1-67.7-19.872a4.616,4.616,0,0,1,4.018.882.846.846,0,0,1,.1,1.192.846.846,0,0,1-1.188.106,2.939,2.939,0,0,0-2.444-.56,1.008,1.008,0,0,0-.788.814.754.754,0,0,0,.291.725c.265.116,1.235.537,2.28.922,1.976.729,2.474,2.14,2.282,3.217A3.261,3.261,0,0,1-66.443-10.087Z" transform="translate(70.167 20.038)"/>
          </g>
          <g id="g85" transform="translate(23.804 4.753)">
            <path id="path87" d="M-6.157-.052A1.033,1.033,0,0,1-7.13-.739l-2.826-8.14a.846.846,0,0,1,.522-1.077.846.846,0,0,1,1.077.522l2.186,6.3,2.084-6.273a.846.846,0,0,1,1.07-.536.846.846,0,0,1,.536,1.07l-2.7,8.117a1.035,1.035,0,0,1-.972.706Z" transform="translate(10.003 10.003)"/>
          </g>
          <g id="g89" transform="translate(19.094 7.107)">
            <path id="path91" d="M-9.154-4.757A.846.846,0,0,1-10-5.6V-9.154A.846.846,0,0,1-9.154-10a.846.846,0,0,1,.846.846V-5.6A.846.846,0,0,1-9.154-4.757Z" transform="translate(10 10)"/>
          </g>
          <g id="g93" transform="translate(17.318 8.883)">
            <path id="path95" d="M-47.584-8.308h-3.551a.846.846,0,0,1-.846-.846A.846.846,0,0,1-51.135-10h3.551a.846.846,0,0,1,.846.846A.846.846,0,0,1-47.584-8.308Z" transform="translate(51.981 10)"/>
          </g>
          <g id="g97" transform="translate(16.13 16.113)">
            <path id="path99" d="M-243.59-41.825a13.2,13.2,0,0,0-18.58-.083,13.239,13.239,0,0,0-.153,18.675,13.2,13.2,0,0,0,15.359,2.519,2.11,2.11,0,0,1,2.444.392L-243.2-19l3.771-3.771-1.322-1.322a2.116,2.116,0,0,1-.388-2.452,13.2,13.2,0,0,0-2.452-15.281" transform="translate(266.102 45.69)" fill="#309ada"/>
          </g>
          <g id="g101" transform="translate(37.237 37.236)">
            <path id="path103" d="M0-42.1a2.112,2.112,0,0,1,.475.355L1.8-40.42,5.567-44.19,4.245-45.512a2.1,2.1,0,0,1-.355-.475Z" transform="translate(0 45.987)" fill="#0088d4"/>
          </g>
          <g id="g105" transform="translate(15.284 15.267)">
            <path id="path107" d="M-262.076-55.69h0a13.951,13.951,0,0,1,9.93,4.113,14.016,14.016,0,0,1,2.609,16.26,1.269,1.269,0,0,0,.231,1.473l1.322,1.322a.846.846,0,0,1,0,1.2l-3.771,3.771a.846.846,0,0,1-1.2,0l-1.322-1.322a1.258,1.258,0,0,0-.9-.371,1.248,1.248,0,0,0-.568.136,14.108,14.108,0,0,1-6.339,1.508,13.943,13.943,0,0,1-10-4.188,13.937,13.937,0,0,1-4.021-9.966,13.946,13.946,0,0,1,4.184-9.906A13.96,13.96,0,0,1-262.076-55.69Zm12.3,23.766-.723-.723a2.957,2.957,0,0,1-.545-3.432,12.328,12.328,0,0,0-2.3-14.3A12.27,12.27,0,0,0-262.076-54a12.277,12.277,0,0,0-8.655,3.54,12.266,12.266,0,0,0-3.678,8.713,12.256,12.256,0,0,0,3.534,8.765,12.264,12.264,0,0,0,8.8,3.684,12.408,12.408,0,0,0,5.575-1.326,2.965,2.965,0,0,1,1.332-.318,2.939,2.939,0,0,1,2.092.867l.723.723Z" transform="translate(276.102 55.69)"/>
          </g>
          <g id="g109" transform="translate(19.639 19.639)">
            <path id="path111" d="M-178.643-30.65a9.671,9.671,0,0,1,0,13.677,9.671,9.671,0,0,1-13.677,0,9.671,9.671,0,0,1,0-13.677,9.671,9.671,0,0,1,13.677,0" transform="translate(195.152 33.483)" fill="#f7ebe7"/>
          </g>
          <g id="g113" transform="translate(38.251 38.251)">
            <path id="path115" d="M-55.595-2.117l-4.942,4.942a.668.668,0,0,0,0,.945l11.352,11.352a4.163,4.163,0,0,0,5.887,0,4.163,4.163,0,0,0,0-5.887L-54.65-2.117a.668.668,0,0,0-.945,0" transform="translate(60.733 2.313)" fill="#309ada"/>
          </g>
          <g id="g117" transform="translate(44.006 44.006)">
            <path id="path119" d="M-1.3-.457A.843.843,0,0,1-1.9-.7L-9.752-8.556a.846.846,0,0,1,0-1.2.846.846,0,0,1,1.2,0L-.7-1.9A.846.846,0,0,1-.7-.7.843.843,0,0,1-1.3-.457Z" transform="translate(10 10)"/>
          </g>
          <g id="g121" transform="translate(19.6 24.591)">
            <path id="path123" d="M4-8.308H-9.154A.846.846,0,0,1-10-9.154.846.846,0,0,1-9.154-10H4a.846.846,0,0,1,.846.846A.846.846,0,0,1,4-8.308Z" transform="translate(10 10)"/>
          </g>
          <g id="g125" transform="translate(27.082 29.506)">
            <path id="path127" d="M-3.484-8.308h-5.67A.846.846,0,0,1-10-9.154.846.846,0,0,1-9.154-10h5.67a.846.846,0,0,1,.846.846A.846.846,0,0,1-3.484-8.308Z" transform="translate(10 10)"/>
          </g>
          <g id="g129" transform="translate(19.017 29.506)">
            <path id="path131" d="M-4.08-8.308H-9.154A.846.846,0,0,1-10-9.154.846.846,0,0,1-9.154-10H-4.08a.846.846,0,0,1,.846.846A.846.846,0,0,1-4.08-8.308Z" transform="translate(10 10)"/>
          </g>
          <g id="g133" transform="translate(21.097 34.421)">
            <path id="path135" d="M2.5-8.308H-9.154A.846.846,0,0,1-10-9.154.846.846,0,0,1-9.154-10H2.5a.846.846,0,0,1,.846.846A.846.846,0,0,1,2.5-8.308Z" transform="translate(10 10)"/>
          </g>
          <g id="g137" transform="translate(37.406 37.405)">
            <path id="path139" d="M-124.424-189.014a4.976,4.976,0,0,1-3.542-1.467l-.569-.57a.846.846,0,0,1,0-1.2.846.846,0,0,1,1.2,0l.569.569a3.3,3.3,0,0,0,2.345.971,3.3,3.3,0,0,0,2.345-.971,3.321,3.321,0,0,0,0-4.691L-133.3-207.595-138-202.9l8.344,8.344a.846.846,0,0,1,0,1.2.846.846,0,0,1-1.2,0l-8.469-8.469a1.516,1.516,0,0,1,0-2.141l4.942-4.942a1.5,1.5,0,0,1,1.071-.444,1.5,1.5,0,0,1,1.071.444l11.352,11.352a5.015,5.015,0,0,1,0,7.084A4.976,4.976,0,0,1-124.424-189.014Z" transform="translate(139.76 209.36)"/>
          </g>
          <g id="g141" transform="translate(18.793 18.793)">
            <path id="path143" d="M-227.371-116.109a10.448,10.448,0,0,1-7.437-3.08,10.448,10.448,0,0,1-3.08-7.436,10.448,10.448,0,0,1,3.08-7.436,10.448,10.448,0,0,1,7.437-3.08,10.448,10.448,0,0,1,7.436,3.08,10.469,10.469,0,0,1,3.012,8.616.846.846,0,0,1-.935.746.846.846,0,0,1-.746-.935,8.785,8.785,0,0,0-2.527-7.231,8.767,8.767,0,0,0-6.24-2.585,8.767,8.767,0,0,0-6.24,2.585,8.767,8.767,0,0,0-2.585,6.24,8.767,8.767,0,0,0,2.585,6.24,8.767,8.767,0,0,0,6.24,2.585,8.767,8.767,0,0,0,6.24-2.585,8.807,8.807,0,0,0,1.69-2.37.846.846,0,0,1,1.131-.389.846.846,0,0,1,.389,1.131,10.5,10.5,0,0,1-2.015,2.824A10.448,10.448,0,0,1-227.371-116.109Z" transform="translate(237.888 137.143)"/>
          </g>
        </g>
      </g>
    </g>
  </g>
</svg>
