<svg id="Grupo_1068053" data-name="Grupo 1068053" xmlns="http://www.w3.org/2000/svg" xmlns:xlink="http://www.w3.org/1999/xlink" width="295" height="259.851" viewBox="0 0 295 259.851">
  <defs>
    <clipPath id="clip-path">
      <rect id="Rectángulo_376566" data-name="Rectángulo 376566" width="295" height="259.851" fill="none"/>
    </clipPath>
  </defs>
  <g id="Grupo_1068052" data-name="Grupo 1068052" clip-path="url(#clip-path)">
    <path id="Trazado_718671" data-name="Trazado 718671" d="M47.418,232.856a47.417,47.417,0,1,1,0-94.834h0a20.049,20.049,0,0,0,0-40.1H45.031a20.845,20.845,0,0,1,0-41.69h7.32a8.115,8.115,0,0,0,0-16.23H46.972a5.6,5.6,0,0,1,0-11.2H83.129a8.826,8.826,0,0,0,8.8-8.8h0a8.826,8.826,0,0,0-8.8-8.8H72.318a5.6,5.6,0,1,1,0-11.2H230.656a7.33,7.33,0,0,1,7.308,7.308h0a7.33,7.33,0,0,1-7.308,7.308H219.569A11.517,11.517,0,0,0,208.086,26.1h0a11.517,11.517,0,0,0,11.483,11.483H262.46a7.308,7.308,0,1,1,0,14.616h-7.018a10.589,10.589,0,0,0,0,21.179h9.551a27.2,27.2,0,0,1,0,54.4H261.88a26.162,26.162,0,1,0,0,52.323h6.743a26.377,26.377,0,1,1,0,52.755Zm201.94-218.24a7.308,7.308,0,1,0-7.309-7.308,7.308,7.308,0,0,0,7.309,7.308M31.255,40a5.6,5.6,0,1,0-5.6-5.6,5.6,5.6,0,0,0,5.6,5.6" fill="#3899e5" fill-rule="evenodd"/>
    <path id="Trazado_718672" data-name="Trazado 718672" d="M280.5,229.3h-50.34a10.916,10.916,0,0,0-10.884,10.884h0a10.916,10.916,0,0,0,10.884,10.884h-1.086a5.1,5.1,0,0,1,0,10.2H202.626a10.916,10.916,0,0,0-10.884,10.884h0a10.916,10.916,0,0,0,10.884,10.884h50.34A10.916,10.916,0,0,0,263.85,272.16h0a10.916,10.916,0,0,0-10.884-10.884h-.082a5.1,5.1,0,1,1,0-10.2H280.5a10.916,10.916,0,0,0,10.884-10.884h0A10.916,10.916,0,0,0,280.5,229.3" transform="translate(-66.173 -79.136)" fill="#7dbcee" fill-rule="evenodd"/>
    <path id="Trazado_718673" data-name="Trazado 718673" d="M109.309,226.427H56.031a11.554,11.554,0,0,0-11.52,11.52h0a11.554,11.554,0,0,0,11.52,11.52h-1.15a5.415,5.415,0,0,1,5.4,5.4h0a5.415,5.415,0,0,1-5.4,5.4H26.889a11.554,11.554,0,0,0-11.52,11.52h0a11.554,11.554,0,0,0,11.52,11.519H80.167a11.554,11.554,0,0,0,11.521-11.519h0a11.555,11.555,0,0,0-11.521-11.52H80.08a5.416,5.416,0,0,1-5.4-5.4h0a5.416,5.416,0,0,1,5.4-5.4h29.229a11.553,11.553,0,0,0,11.519-11.52h0a11.553,11.553,0,0,0-11.519-11.52" transform="translate(-5.304 -78.143)" fill="#7dbcee" fill-rule="evenodd"/>
    <path id="Trazado_718674" data-name="Trazado 718674" d="M215.3,102.831h54.509a11.786,11.786,0,1,1,0,23.573h1.177a5.525,5.525,0,0,0,0,11.049h28.639a11.82,11.82,0,0,1,11.785,11.785h0a11.821,11.821,0,0,1-11.785,11.786h-54.51a11.821,11.821,0,0,1-11.786-11.786h0a11.82,11.82,0,0,1,11.786-11.785h.09a5.525,5.525,0,0,0,0-11.049H215.3a11.786,11.786,0,0,1,0-23.573" transform="translate(-70.236 -35.489)" fill="#2d62a4" fill-rule="evenodd"/>
    <path id="Trazado_718675" data-name="Trazado 718675" d="M273.753,22.025h0a1.877,1.877,0,0,1,1.872,1.871v8.876a1.872,1.872,0,0,1-3.743,0V23.9a1.877,1.877,0,0,1,1.872-1.871" transform="translate(-93.83 -7.601)" fill="#fff" fill-rule="evenodd"/>
    <path id="Trazado_718676" data-name="Trazado 718676" d="M277.723,30.673h0a1.876,1.876,0,0,1-1.871,1.871h-8.876a1.877,1.877,0,0,1-1.871-1.871h0a1.877,1.877,0,0,1,1.871-1.872h8.876a1.876,1.876,0,0,1,1.871,1.872" transform="translate(-91.492 -9.94)" fill="#fff" fill-rule="evenodd"/>
    <path id="Trazado_718677" data-name="Trazado 718677" d="M123.036,189.648h0a1.877,1.877,0,0,1,1.871,1.872V200.4a1.871,1.871,0,1,1-3.743,0V191.52a1.877,1.877,0,0,1,1.872-1.872" transform="translate(-41.816 -65.45)" fill="#fff" fill-rule="evenodd"/>
    <path id="Trazado_718678" data-name="Trazado 718678" d="M127.006,198.3h0a1.877,1.877,0,0,1-1.871,1.872H116.26a1.872,1.872,0,1,1,0-3.743h8.876a1.877,1.877,0,0,1,1.871,1.872" transform="translate(-39.477 -67.789)" fill="#fff" fill-rule="evenodd"/>
    <path id="Trazado_718679" data-name="Trazado 718679" d="M341.612,269.53h0a1.877,1.877,0,0,1,1.872,1.871v8.876a1.872,1.872,0,1,1-3.743,0V271.4a1.877,1.877,0,0,1,1.871-1.871" transform="translate(-117.25 -93.019)" fill="#fff" fill-rule="evenodd"/>
    <path id="Trazado_718680" data-name="Trazado 718680" d="M345.582,278.179h0a1.877,1.877,0,0,1-1.872,1.872h-8.876a1.872,1.872,0,1,1,0-3.743h8.876a1.877,1.877,0,0,1,1.872,1.872" transform="translate(-114.91 -95.358)" fill="#fff" fill-rule="evenodd"/>
    <path id="Trazado_718681" data-name="Trazado 718681" d="M281.957,58.127h0a5.657,5.657,0,0,1,7.976,0l1.184,1.185,1.185-1.185a5.64,5.64,0,0,1,7.975,7.976l-1.184,1.184-7.976,7.975-7.976-7.975L281.957,66.1a5.657,5.657,0,0,1,0-7.976" transform="translate(-96.74 -19.493)" fill="#7dbcee" fill-rule="evenodd"/>
    <path id="Trazado_718682" data-name="Trazado 718682" d="M312.69,82.627h0a2.911,2.911,0,0,1,4.1,0l.609.609.609-.609a2.9,2.9,0,1,1,4.1,4.1l-.609.609-4.1,4.1-4.1-4.1-.61-.609a2.91,2.91,0,0,1,0-4.1" transform="translate(-107.622 -28.224)" fill="#7dbcee" fill-rule="evenodd"/>
    <path id="Trazado_718683" data-name="Trazado 718683" d="M358.9,69.99H347.912a1.091,1.091,0,1,0,0,2.183H358.9a1.091,1.091,0,1,0,0-2.183" transform="translate(-119.693 -24.155)" fill="#fff" fill-rule="evenodd"/>
    <path id="Trazado_718684" data-name="Trazado 718684" d="M339.691,69.99h-2.612a1.091,1.091,0,0,0,0,2.183h2.612a1.091,1.091,0,1,0,0-2.183" transform="translate(-115.955 -24.155)" fill="#fff" fill-rule="evenodd"/>
    <path id="Trazado_718685" data-name="Trazado 718685" d="M348.071,77.729H337.078a1.091,1.091,0,0,0,0,2.183h10.993a1.091,1.091,0,1,0,0-2.183" transform="translate(-115.954 -26.825)" fill="#fff" fill-rule="evenodd"/>
    <path id="Trazado_718686" data-name="Trazado 718686" d="M109.216,120.8h0a5.657,5.657,0,0,1,7.976,0l1.183,1.184,1.184-1.184a5.64,5.64,0,0,1,7.976,7.976l-1.183,1.183-7.977,7.976-7.975-7.976-1.184-1.183a5.656,5.656,0,0,1,0-7.976" transform="translate(-37.124 -41.124)" fill="#7dbcee" fill-rule="evenodd"/>
    <path id="Trazado_718687" data-name="Trazado 718687" d="M91.757,119.159H80.764a1.091,1.091,0,1,0,0,2.183H91.757a1.091,1.091,0,1,0,0-2.183" transform="translate(-27.496 -41.124)" fill="#fff" fill-rule="evenodd"/>
    <path id="Trazado_718688" data-name="Trazado 718688" d="M72.542,119.159H69.93a1.091,1.091,0,0,0,0,2.183h2.612a1.091,1.091,0,1,0,0-2.183" transform="translate(-23.757 -41.124)" fill="#2d62a4" fill-rule="evenodd"/>
    <path id="Trazado_718689" data-name="Trazado 718689" d="M80.924,126.9H69.93a1.091,1.091,0,0,0,0,2.183H80.924a1.091,1.091,0,0,0,0-2.183" transform="translate(-23.757 -43.794)" fill="#2d62a4" fill-rule="evenodd"/>
    <path id="Trazado_718690" data-name="Trazado 718690" d="M379.04,298.567h10.994a1.092,1.092,0,0,1,0,2.183H379.04a1.092,1.092,0,0,1,0-2.183" transform="translate(-130.436 -103.04)" fill="#fff" fill-rule="evenodd"/>
    <path id="Trazado_718691" data-name="Trazado 718691" d="M402.672,298.567h2.612a1.092,1.092,0,0,1,0,2.183h-2.612a1.092,1.092,0,0,1,0-2.183" transform="translate(-138.592 -103.04)" fill="#2d62a4" fill-rule="evenodd"/>
    <path id="Trazado_718692" data-name="Trazado 718692" d="M389.874,306.306h10.992a1.091,1.091,0,0,1,0,2.183H389.874a1.091,1.091,0,1,1,0-2.183" transform="translate(-134.175 -105.711)" fill="#2d62a4" fill-rule="evenodd"/>
    <path id="Trazado_718693" data-name="Trazado 718693" d="M106.581,58.686h29.372a3.891,3.891,0,0,1,3.879,3.88V89.928a.433.433,0,0,1-.739.306l-6.609-6.61h-25.9a3.89,3.89,0,0,1-3.879-3.878V62.566a3.891,3.891,0,0,1,3.879-3.88" transform="translate(-35.444 -20.253)" fill="#fff" fill-rule="evenodd"/>
    <path id="Trazado_718694" data-name="Trazado 718694" d="M353.534,110.539H331.8a2.879,2.879,0,0,0-2.87,2.871v20.248a.319.319,0,0,0,.547.227l4.891-4.891h19.167a2.88,2.88,0,0,0,2.871-2.87V113.41a2.88,2.88,0,0,0-2.871-2.871" transform="translate(-113.518 -38.149)" fill="#fff" fill-rule="evenodd"/>
    <path id="Trazado_718695" data-name="Trazado 718695" d="M121.312,334.16h22.136a2.932,2.932,0,0,0,2.923-2.924V310.614a.327.327,0,0,0-.557-.231l-4.981,4.982h-19.52a2.933,2.933,0,0,0-2.925,2.924v12.946a2.933,2.933,0,0,0,2.925,2.924" transform="translate(-40.857 -107.085)" fill="#fff" fill-rule="evenodd"/>
    <path id="Trazado_718696" data-name="Trazado 718696" d="M125.367,326.608h10.994a1.091,1.091,0,0,1,0,2.183H125.367a1.091,1.091,0,0,1,0-2.183" transform="translate(-42.89 -112.717)" fill="#d289ac" fill-rule="evenodd"/>
    <path id="Trazado_718697" data-name="Trazado 718697" d="M149,326.608h2.612a1.091,1.091,0,1,1,0,2.183H149a1.091,1.091,0,0,1,0-2.183" transform="translate(-51.045 -112.717)" fill="#d289ac" fill-rule="evenodd"/>
    <path id="Trazado_718698" data-name="Trazado 718698" d="M136.2,334.347h10.993a1.091,1.091,0,1,1,0,2.183H136.2a1.091,1.091,0,1,1,0-2.183" transform="translate(-46.628 -115.388)" fill="#f2c5d3" fill-rule="evenodd"/>
    <path id="Trazado_718699" data-name="Trazado 718699" d="M116.665,73.86h10.994a1.091,1.091,0,0,1,0,2.183H116.665a1.091,1.091,0,0,1,0-2.183" transform="translate(-39.886 -25.49)" fill="#d289ac" fill-rule="evenodd"/>
    <path id="Trazado_718700" data-name="Trazado 718700" d="M140.3,73.86h2.612a1.091,1.091,0,1,1,0,2.183H140.3a1.091,1.091,0,0,1,0-2.183" transform="translate(-48.042 -25.49)" fill="#d289ac" fill-rule="evenodd"/>
    <path id="Trazado_718701" data-name="Trazado 718701" d="M127.5,81.6h10.993a1.091,1.091,0,1,1,0,2.183H127.5a1.091,1.091,0,1,1,0-2.183" transform="translate(-43.625 -28.161)" fill="#f2c5d3" fill-rule="evenodd"/>
    <path id="Trazado_718702" data-name="Trazado 718702" d="M335.521,120.029h10.994a1.091,1.091,0,0,1,0,2.183H335.521a1.091,1.091,0,0,1,0-2.183" transform="translate(-115.417 -41.424)" fill="#d289ac" fill-rule="evenodd"/>
    <path id="Trazado_718703" data-name="Trazado 718703" d="M359.153,120.029h2.612a1.091,1.091,0,1,1,0,2.183h-2.612a1.091,1.091,0,0,1,0-2.183" transform="translate(-123.573 -41.424)" fill="#d289ac" fill-rule="evenodd"/>
    <path id="Trazado_718704" data-name="Trazado 718704" d="M346.355,127.767h10.993a1.091,1.091,0,1,1,0,2.183H346.355a1.091,1.091,0,1,1,0-2.183" transform="translate(-119.156 -44.094)" fill="#f2c5d3" fill-rule="evenodd"/>
    <path id="Trazado_718705" data-name="Trazado 718705" d="M337.615,330.512H312.978a3.264,3.264,0,0,1-3.255-3.254V304.306a.364.364,0,0,1,.622-.256l5.544,5.544h21.726a3.264,3.264,0,0,1,3.254,3.253v14.41a3.264,3.264,0,0,1-3.254,3.254" transform="translate(-106.89 -104.895)" fill="#fff" fill-rule="evenodd"/>
    <path id="Trazado_718706" data-name="Trazado 718706" d="M319.118,326.608h10.994a1.091,1.091,0,0,1,0,2.183H319.118a1.091,1.091,0,0,1,0-2.183" transform="translate(-109.756 -112.717)" fill="#d289ac" fill-rule="evenodd"/>
    <path id="Trazado_718707" data-name="Trazado 718707" d="M342.75,326.608h2.612a1.091,1.091,0,0,1,0,2.183H342.75a1.091,1.091,0,0,1,0-2.183" transform="translate(-117.912 -112.717)" fill="#d289ac" fill-rule="evenodd"/>
    <path id="Trazado_718708" data-name="Trazado 718708" d="M329.951,334.347h10.994a1.091,1.091,0,0,1,0,2.183H329.951a1.091,1.091,0,0,1,0-2.183" transform="translate(-113.495 -115.388)" fill="#f2c5d3" fill-rule="evenodd"/>
    <path id="Trazado_718709" data-name="Trazado 718709" d="M319.118,318.869h10.994a1.092,1.092,0,0,1,0,2.183H319.118a1.092,1.092,0,0,1,0-2.183" transform="translate(-109.756 -110.047)" fill="#f2c5d3" fill-rule="evenodd"/>
    <path id="Trazado_718710" data-name="Trazado 718710" d="M241.259,89.825c19.074,58.185-90.913,41.544-77.971,10.655,0,0-5.023-11.157-.3-20.332s8.037-11,9.252-23.086S186.086,17.518,208.772,29.5a10.758,10.758,0,0,1,5.081-.119c2.231.673,4.39,3.808,4.39,3.808s5.847.531,7.447,8.18a4.151,4.151,0,0,1,1.953,4.329s3.313,10.8,8.538,18.562c4.494,6.675,8.846,15.99,5.077,25.566" transform="translate(-55.551 -9.159)" fill="#0e0737" fill-rule="evenodd"/>
    <path id="Trazado_718711" data-name="Trazado 718711" d="M234.581,305.787a50.323,50.323,0,0,0,.751,9.328c2.258,11.227,7.832,23.273,7.832,23.273L205.3,346.261l-37.865-7.874s5.574-12.045,7.832-23.273a50.274,50.274,0,0,0,.75-9.328Z" transform="translate(-57.784 -105.532)" fill="#f2c5d3" fill-rule="evenodd"/>
    <path id="Trazado_718712" data-name="Trazado 718712" d="M238.365,306.14a49.154,49.154,0,0,0,.749,8.975c.327,1.631.726,3.279,1.167,4.9-24.983,3.5-56.463-1.121-61.889-1.974q.154-.633.3-1.264l4.663-4.717s44.44-5.718,50.027-6.278h1.927c.893.058,1.928.181,3.056.353" transform="translate(-61.566 -105.532)" fill="#d289ac" fill-rule="evenodd"/>
    <path id="Trazado_718713" data-name="Trazado 718713" d="M158.829,172.309a19.752,19.752,0,0,0-12.563,14.26c-2.018,9.135-19.895,76.711,5.564,70.5,4.436-1.083,8.747-8.107,9.77-10.335,2.208-4.807,5.717-31.7,5.717-31.7Z" transform="translate(-47.726 -59.466)" fill="#f2c5d3" fill-rule="evenodd"/>
    <path id="Trazado_718714" data-name="Trazado 718714" d="M278.21,172.309a19.752,19.752,0,0,1,12.563,14.26c1.339,6.06,5.059,22.749,7.713,37.46,6.657,36.892-12.479,36.463-18.842,22.791-1.929-4.144-2.291-11.222-3.084-17.814-1.2-9.982-3.485-12.478-3.265-14.371Z" transform="translate(-94.313 -59.466)" fill="#f2c5d3" fill-rule="evenodd"/>
    <path id="Trazado_718715" data-name="Trazado 718715" d="M219.834,120.164h0a10.313,10.313,0,0,1,10.284,10.284V151.98a10.284,10.284,0,1,1-20.567,0V130.448a10.314,10.314,0,0,1,10.284-10.284" transform="translate(-72.319 -41.47)" fill="#e5c2d1" fill-rule="evenodd"/>
    <path id="Trazado_718716" data-name="Trazado 718716" d="M219.834,120.164h0a10.313,10.313,0,0,1,10.284,10.284V151.98a10.284,10.284,0,1,1-20.567,0V130.448A10.314,10.314,0,0,1,219.834,120.164Z" transform="translate(-72.319 -41.47)" fill="none" stroke="#272525" stroke-linecap="round" stroke-linejoin="round" stroke-width="0.216"/>
    <path id="Trazado_718717" data-name="Trazado 718717" d="M214.591,154.517s.177,4.094,2.126,5.067,23.971,5.822,23.971,5.822.262,16.139,2.6,27.314c2.009,9.6-.785,15.373-4.246,24.244-.569,1.457-.587,9.889-1.212,11.1,0,0-3.481,24.545-1.669,36.189-24.18,2.944-40.309,2.944-63.71,0,1.811-11.644-1.67-36.189-1.67-36.189-4.419-8.576-7.8-24.169-5.458-35.344s2.6-27.314,2.6-27.314,22.022-4.847,23.972-5.822,2.126-5.067,2.126-5.067l10.284-2.209Z" transform="translate(-56.793 -52.564)" fill="#f2c5d3" fill-rule="evenodd"/>
    <path id="Trazado_718718" data-name="Trazado 718718" d="M238,169.942c1.06,6.156,2.978,18.392,2.978,26.277a1.105,1.105,0,1,1-2.211,0c0-8.152-2.095-21.091-3.1-26.806l2.329.53m-60.54,0c.742-.168,1.524-.346,2.329-.53-1,5.715-3.1,18.654-3.1,26.806a1.105,1.105,0,1,1-2.21,0c0-7.884,1.918-20.121,2.977-26.277" transform="translate(-60.217 -58.467)" fill="#fff" fill-rule="evenodd"/>
    <path id="Trazado_718719" data-name="Trazado 718719" d="M171.74,238.678c.99-4.115,1.687-7.081,1.806-7.582-1.672-5.382-4.77-12.455-4.77-12.455l-4.069,4.924L156.39,244.57l2.9,4.217-.2.714s8.21-7.394,12.645-10.824" transform="translate(-53.973 -75.456)" fill="#d289ac" fill-rule="evenodd"/>
    <path id="Trazado_718720" data-name="Trazado 718720" d="M240.473,235.766c-.5,1.254-.647,8.92-1.194,9.982,0,0-3.481,24.546-1.669,36.19a261.772,261.772,0,0,1-31.856,2.208,261.761,261.761,0,0,1-31.854-2.208c1.811-11.644-1.67-36.19-1.67-36.19-.547-1.062-1.078-2.231-1.584-3.485-5-26,1.5-37.279,1.5-37.292,11.726-.932,22.7-1.405,33.6-1.42,10.9.015,21.879.489,33.6,1.42.008.012,6.118,4.8,1.114,30.795" transform="translate(-58.239 -70.249)" fill="#e65253" fill-rule="evenodd"/>
    <path id="Trazado_718721" data-name="Trazado 718721" d="M175.085,266.243c-.561-10.2-1.962-20.081-1.962-20.081-.547-1.062-1.078-2.231-1.584-3.485-.068-.354-.133-.7-.2-1.053l27.606-36.875-6.106,9.292,18.711-4.028,4.692,2.773L193.881,223.98l-7.309,16.435h35.243a8.621,8.621,0,0,0,7.6-4.937l1.5-6.085,2.579-3.436,10.155-1.7c.005,5.041-.883,4.658-2.282,11.921-.5,1.254-.647,8.92-1.194,9.982,0,0-1.221,8.608-1.84,18.049-1.862-5.8-3.648-11.266-3.914-11.711-.585-.974-2.6-.909-2.6-.909H181.6Z" transform="translate(-59.133 -70.662)" fill="#ca4d4e" fill-rule="evenodd"/>
    <path id="Trazado_718722" data-name="Trazado 718722" d="M183.195,98.6c-.175.024-.346.052-.517.087l0,0a7.049,7.049,0,1,0,5.883,1.416c.179,2.081-.151,4.656-2.807,4.914l.077-4.064a2.423,2.423,0,0,0-2.631-2.356" transform="translate(-61.112 -34.027)" fill="#d289ac" fill-rule="evenodd"/>
    <path id="Trazado_718723" data-name="Trazado 718723" d="M259.883,98.6c.175.024.346.052.517.087l.005,0h0a7.047,7.047,0,1,1-5.883,1.416c-.179,2.081.152,4.656,2.807,4.914l-.077-4.064a2.422,2.422,0,0,1,2.631-2.356" transform="translate(-86.937 -34.027)" fill="#d289ac" fill-rule="evenodd"/>
    <path id="Trazado_718724" data-name="Trazado 718724" d="M212.54,44.844h0a24.2,24.2,0,0,0-24.131,24.129V90.918a24.129,24.129,0,1,0,48.257,0V68.973A24.2,24.2,0,0,0,212.54,44.844" transform="translate(-65.023 -15.476)" fill="#f2c5d3" fill-rule="evenodd"/>
    <path id="Trazado_718725" data-name="Trazado 718725" d="M188.854,70.727a24.023,24.023,0,0,0-.445,4.6V92.113l36.742-21.234-6.575-4.771s-17.614-2.364-19.761-2.848c-1.1-.249-5.722,3.546-9.961,7.467" transform="translate(-65.023 -21.828)" fill="#d289ac" fill-rule="evenodd"/>
    <path id="Trazado_718726" data-name="Trazado 718726" d="M244.438,118.807a3.173,3.173,0,1,0,3.113,3.232,3.174,3.174,0,0,0-3.113-3.232" transform="translate(-83.244 -41.002)" fill="#d5738f" fill-rule="evenodd"/>
    <path id="Trazado_718727" data-name="Trazado 718727" d="M202.764,118.016a3.173,3.173,0,1,0,3.113,3.233,3.175,3.175,0,0,0-3.113-3.233" transform="translate(-68.861 -40.729)" fill="#d5738f" fill-rule="evenodd"/>
    <path id="Trazado_718728" data-name="Trazado 718728" d="M201.779,93.245a.881.881,0,0,1-.79-1.576,8.044,8.044,0,0,1,7.559.029.883.883,0,0,1-.908,1.514,6.253,6.253,0,0,0-5.861.032" transform="translate(-69.197 -31.316)" fill="#0e0737" fill-rule="evenodd"/>
    <path id="Trazado_718729" data-name="Trazado 718729" d="M245.662,93.247a6.255,6.255,0,0,0-5.865-.034.882.882,0,0,1-.907-1.514,8.042,8.042,0,0,1,7.557-.031.882.882,0,0,1-.785,1.579" transform="translate(-82.297 -31.316)" fill="#0e0737" fill-rule="evenodd"/>
    <path id="Trazado_718730" data-name="Trazado 718730" d="M187.966,82.916v3.4c1.148,0,2.539-1.67,2.539-3.168V80.035a18.922,18.922,0,0,0,2.7-8.768c0-4.493,1.045-7.169,4.892-7.169s7.7,2.012,14,2.012,10.154-2.012,14-2.012,4.893,2.677,4.893,7.169a18.928,18.928,0,0,0,2.7,8.768v3.111c0,1.5,1.392,3.168,2.54,3.168v-3.4c-.016-2.346.841-3.2.841-3.2v-10.1c0-34.375-49.941-34.375-49.941,0v10.1s.856.857.841,3.2" transform="translate(-64.58 -15.128)" fill="#0e0737" fill-rule="evenodd"/>
    <path id="Trazado_718731" data-name="Trazado 718731" d="M205.4,103.57h0a2.258,2.258,0,0,0-1.443.522.926.926,0,0,1-.611-.465.361.361,0,1,0-.641.331,1.566,1.566,0,0,0,.734.7l-.018.02a1.68,1.68,0,0,1-.944-.577.361.361,0,1,0-.559.455,2.342,2.342,0,0,0,1.064.739l0,.006a2.242,2.242,0,0,1-1.084-.348.361.361,0,1,0-.387.61,2.911,2.911,0,0,0,1.121.424l.5.071V108.8a2.27,2.27,0,1,0,4.54,0V105.84a2.277,2.277,0,0,0-2.27-2.27" transform="translate(-69.483 -35.696)" fill="#0e0737" fill-rule="evenodd"/>
    <path id="Trazado_718732" data-name="Trazado 718732" d="M243.168,103.57h0a2.255,2.255,0,0,1,1.442.522.927.927,0,0,0,.612-.465.361.361,0,1,1,.641.331,1.569,1.569,0,0,1-.734.7l.018.02a1.684,1.684,0,0,0,.944-.577.361.361,0,1,1,.559.455,2.342,2.342,0,0,1-1.064.739l0,.006a2.246,2.246,0,0,0,1.085-.348.361.361,0,0,1,.386.61,2.9,2.9,0,0,1-1.121.424l-.5.071V108.8a2.277,2.277,0,0,1-2.269,2.27h0a2.277,2.277,0,0,1-2.269-2.27V105.84a2.277,2.277,0,0,1,2.269-2.27" transform="translate(-83.138 -35.696)" fill="#0e0737" fill-rule="evenodd"/>
    <path id="Trazado_718733" data-name="Trazado 718733" d="M218.632,127.039h6.062a3.781,3.781,0,0,1,0,7.562h-6.062a3.781,3.781,0,1,1,0-7.562" transform="translate(-74.148 -43.843)" fill="#0e0737" fill-rule="evenodd"/>
    <path id="Trazado_718734" data-name="Trazado 718734" d="M228.092,135.611a3.782,3.782,0,0,1-2.971,1.448H219.06a3.776,3.776,0,0,1-2.97-1.448,3.779,3.779,0,0,1,2.97-1.448h6.062a3.784,3.784,0,0,1,2.971,1.448" transform="translate(-74.576 -46.302)" fill="#d5738f" fill-rule="evenodd"/>
    <path id="Trazado_718735" data-name="Trazado 718735" d="M219.681,127.039h6.062a3.755,3.755,0,0,1,1.791.454v.919a1.4,1.4,0,0,1-1.395,1.394h-6.855a1.4,1.4,0,0,1-1.394-1.394v-.919a3.75,3.75,0,0,1,1.79-.454" transform="translate(-75.198 -43.843)" fill="#fff" fill-rule="evenodd"/>
    <path id="Trazado_718736" data-name="Trazado 718736" d="M209.512,145.22h19.2a2.067,2.067,0,0,1,2.062,2.061v42.9a2.067,2.067,0,0,1-2.062,2.061h-19.2a2.067,2.067,0,0,1-2.061-2.061v-42.9a2.067,2.067,0,0,1,2.061-2.061" transform="translate(-71.595 -50.118)" fill="#211a4b" fill-rule="evenodd"/>
    <rect id="Rectángulo_376564" data-name="Rectángulo 376564" width="23.318" height="0.58" transform="translate(135.856 98.838)" fill="#2c376a"/>
    <rect id="Rectángulo_376565" data-name="Rectángulo 376565" width="23.318" height="0.58" transform="translate(135.856 137.808)" fill="#2c376a"/>
    <path id="Trazado_718737" data-name="Trazado 718737" d="M210.184,146.449a1.16,1.16,0,1,1-1.159,1.16,1.16,1.16,0,0,1,1.159-1.16" transform="translate(-72.138 -50.542)" fill="#fff" fill-rule="evenodd"/>
    <path id="Trazado_718738" data-name="Trazado 718738" d="M214.4,147.523a.456.456,0,1,1-.456.456.455.455,0,0,1,.456-.456" transform="translate(-73.834 -50.912)" fill="#28295e" fill-rule="evenodd"/>
    <path id="Trazado_718739" data-name="Trazado 718739" d="M217.945,146.782a.942.942,0,1,1-.942.942.942.942,0,0,1,.942-.942" transform="translate(-74.891 -50.657)" fill="#3d2e64" fill-rule="evenodd"/>
    <path id="Trazado_718740" data-name="Trazado 718740" d="M223.522,159.986a3.278,3.278,0,0,1,1.384.305,1.683,1.683,0,0,0,1.893,2.768c.005.07.007.141.007.212a3.285,3.285,0,1,1-3.285-3.286" transform="translate(-76.007 -55.214)" fill="#fff" fill-rule="evenodd"/>
    <path id="Trazado_718741" data-name="Trazado 718741" d="M201.255,186.336s-2.073,1.214-3.135,1.972-3.342,5.375-4.468,7.875-2.42,8.648-3.633,9.407l8.6,7.255c1.081-2.432,6.48-4.933,7.77-5.579a28.813,28.813,0,0,0,3.924-2.749,1.468,1.468,0,0,0,.493-.945s5.65-1.861,6.181-2.126,3.943-2.579,4.208-3.261a2.491,2.491,0,0,0-.113-2.464s1.062-.607,1.138-1.441.128-2.654-1.567-2.768v.456s-5.448.834-6.244.948-6.484.455-6.484.455a2.161,2.161,0,0,1-.379-1.252c.037-.682.075-.569.075-.569s7.432-4.777,7.811-5.157,3.6-1.857,3.982-3.033-.342-1.631-1.327-1.631a30.321,30.321,0,0,0-4.928,1.1c-.722.227-11.9,6.559-11.9,6.559Z" transform="translate(-65.578 -62.717)" fill="#f2c5d3" fill-rule="evenodd"/>
    <line id="Línea_3206" data-name="Línea 3206" x1="4.948" y2="1.59" transform="translate(140.276 140.854)" fill="none" stroke="#d5738f" stroke-linecap="round" stroke-linejoin="round" stroke-width="0.709"/>
    <path id="Trazado_718742" data-name="Trazado 718742" d="M229.673,203.094s-2.314,1.157-2.654,1.27-11.034,2.35-12.1,2.5" transform="translate(-74.174 -70.091)" fill="none" stroke="#d5738f" stroke-linecap="round" stroke-linejoin="round" stroke-width="0.709"/>
    <line id="Línea_3207" data-name="Línea 3207" x1="1.877" y2="0.151" transform="translate(140.466 130.652)" fill="none" stroke="#d5738f" stroke-linecap="round" stroke-linejoin="round" stroke-width="0.709"/>
    <line id="Línea_3208" data-name="Línea 3208" x1="1.119" y2="0.663" transform="translate(140.92 128.832)" fill="none" stroke="#d5738f" stroke-linecap="round" stroke-linejoin="round" stroke-width="0.709"/>
    <line id="Línea_3209" data-name="Línea 3209" x1="2.491" y2="1.384" transform="translate(133.185 126.67)" fill="none" stroke="#d5738f" stroke-linecap="round" stroke-linejoin="round" stroke-width="0.709"/>
    <path id="Trazado_718743" data-name="Trazado 718743" d="M159.52,269.081l25.67-47.82-8.316-7.536-31.056,37.682Z" transform="translate(-50.324 -73.76)" fill="#f2c5d3" fill-rule="evenodd"/>
    <line id="Línea_3210" data-name="Línea 3210" x2="9.002" y2="15.463" transform="translate(188.723 157.646)" fill="none" stroke="#d5738f" stroke-linecap="round" stroke-linejoin="round" stroke-width="0.709"/>
    <path id="Trazado_718744" data-name="Trazado 718744" d="M275.62,192.59v-.964a1.418,1.418,0,0,0-2.836,0v.964a1.418,1.418,0,0,0,2.836,0" transform="translate(-94.142 -65.644)" fill="#9d775a" fill-rule="evenodd"/>
    <path id="Trazado_718745" data-name="Trazado 718745" d="M272.627,204.251h0a4.419,4.419,0,0,0,4.407-4.407V197.88a4.407,4.407,0,1,0-8.814,0v1.965a4.42,4.42,0,0,0,4.407,4.407" transform="translate(-92.567 -66.77)" fill="#c85354" fill-rule="evenodd"/>
    <path id="Trazado_718746" data-name="Trazado 718746" d="M267.093,205.126h9.525a1.114,1.114,0,0,0,1.111-1.111v-.792a1.114,1.114,0,0,0-1.111-1.111h-9.525a1.114,1.114,0,0,0-1.11,1.111v.792a1.114,1.114,0,0,0,1.11,1.111" transform="translate(-91.795 -69.752)" fill="#9d775a" fill-rule="evenodd"/>
    <path id="Trazado_718747" data-name="Trazado 718747" d="M276.658,205.126h3.261a1.114,1.114,0,0,0,1.111-1.111v-.792a1.114,1.114,0,0,0-1.111-1.111h-3.261a1.114,1.114,0,0,0-1.111,1.111v.792a1.114,1.114,0,0,0,1.111,1.111" transform="translate(-95.095 -69.752)" fill="#856043" fill-rule="evenodd"/>
    <path id="Trazado_718748" data-name="Trazado 718748" d="M277.93,206.066l-.3,1.992H265.57l-.3-1.992a8.092,8.092,0,0,0,3.836-1.634,1.371,1.371,0,0,0,2.494,0,1.37,1.37,0,0,0,2.493,0,1.37,1.37,0,0,0,2.492,0,1.371,1.371,0,0,1,1.344,1.634" transform="translate(-91.54 -70.553)" fill="#4e3525" fill-rule="evenodd"/>
    <path id="Trazado_718749" data-name="Trazado 718749" d="M271.918,193.572h3.295a.981.981,0,1,0,0-1.961h-3.295a.981.981,0,1,0,0,1.961" transform="translate(-93.504 -66.128)" fill="#9d775a" fill-rule="evenodd"/>
    <path id="Trazado_718750" data-name="Trazado 718750" d="M269.666,199.594v.364a.284.284,0,0,0,.568,0v-.364a.284.284,0,1,0-.568,0" transform="translate(-93.066 -68.785)" fill="#ae4849" fill-rule="evenodd"/>
    <path id="Trazado_718751" data-name="Trazado 718751" d="M272.861,199.594v.364a.284.284,0,1,0,.567,0v-.364a.284.284,0,1,0-.567,0" transform="translate(-94.169 -68.785)" fill="#ae4849" fill-rule="evenodd"/>
    <path id="Trazado_718752" data-name="Trazado 718752" d="M276.173,199.594v.364a.284.284,0,0,0,.568,0v-.364a.284.284,0,1,0-.568,0" transform="translate(-95.312 -68.785)" fill="#ae4849" fill-rule="evenodd"/>
    <path id="Trazado_718753" data-name="Trazado 718753" d="M279.366,199.594v.364a.284.284,0,0,0,.568,0v-.364a.284.284,0,1,0-.568,0" transform="translate(-96.413 -68.785)" fill="#ae4849" fill-rule="evenodd"/>
    <path id="Trazado_718754" data-name="Trazado 718754" d="M271.225,196.612v.363a.284.284,0,1,0,.568,0v-.363a.284.284,0,1,0-.568,0" transform="translate(-93.604 -67.756)" fill="#ae4849" fill-rule="evenodd"/>
    <path id="Trazado_718755" data-name="Trazado 718755" d="M274.517,196.612v.363a.284.284,0,1,0,.568,0v-.363a.284.284,0,1,0-.568,0" transform="translate(-94.74 -67.756)" fill="#ae4849" fill-rule="evenodd"/>
    <path id="Trazado_718756" data-name="Trazado 718756" d="M277.808,196.612v.363a.284.284,0,1,0,.568,0v-.363a.284.284,0,1,0-.568,0" transform="translate(-95.876 -67.756)" fill="#ae4849" fill-rule="evenodd"/>
    <path id="Trazado_718757" data-name="Trazado 718757" d="M275.93,193.572h.667a.981.981,0,1,0,0-1.961h-.667a.981.981,0,0,0,0,1.961" transform="translate(-94.889 -66.128)" fill="#856043" fill-rule="evenodd"/>
    <path id="Trazado_718758" data-name="Trazado 718758" d="M279.195,219.363s3.1,3.746,3.554,4.432a32.579,32.579,0,0,1,2.119,7.362c.112,1.668-1.835,7.009-3.17,7.343s-6.443,1.808-6.893-.876,4.39-18.259,4.39-18.259" transform="translate(-94.829 -75.706)" fill="#d5738f" fill-rule="evenodd"/>
    <path id="Trazado_718759" data-name="Trazado 718759" d="M263.842,219.169a1.824,1.824,0,0,0-1.473-.473c-.751.194-2.031,2.809-.529,5.758a27.491,27.491,0,0,0,2.114,3.726s-1,6.563,3.726,9.067,2.893-6.062,2.893-6.062Z" transform="translate(-90.124 -75.463)" fill="#f2c5d3" fill-rule="evenodd"/>
    <path id="Trazado_718760" data-name="Trazado 718760" d="M269.038,247.148l-7.309-34.418a.943.943,0,0,1,.923-1.139h14.616a.942.942,0,0,1,.923,1.139l-7.309,34.418a.942.942,0,0,1-1.844,0" transform="translate(-90.319 -73.023)" fill="#9d775a" fill-rule="evenodd"/>
    <path id="Trazado_718761" data-name="Trazado 718761" d="M269.92,238l-.256-1.209,3.832,1.57.612-1.69-.838,3.946Zm-1.149-24.69h8.874l-.756,2.248L272.2,214.3l-2.528,1.685-2.6-.818-1.04,1.24,1.164-2.8Zm9.006,6.081-2.872,13.521-5.177-2.673,5.825-2.51-3.8-2.595,5.092-3.551-1.318-2.153,1.442-.871s.306.312.811.832" transform="translate(-91.812 -73.617)" fill="#856043" fill-rule="evenodd"/>
    <path id="Trazado_718762" data-name="Trazado 718762" d="M277.369,213.658v1.636a1.423,1.423,0,1,1-2.846,0v-1.91a1.8,1.8,0,0,0-3.6,0v.956a1.422,1.422,0,1,1-2.845,0V213.6a1.016,1.016,0,0,0-2.033,0v4.584a1.284,1.284,0,0,1-1.28,1.28h0a1.284,1.284,0,0,1-1.28-1.28v-4.523c0-.508-.409-.488-.536-.233s-.365.66-.823.437S261.9,213,261.9,213l.42-1.342.518-1.683a2.568,2.568,0,0,1,2.3-1.751h10.575a2.569,2.569,0,0,1,2.3,1.751l.518,1.683.42,1.342s.233.64-.224.864-.7-.183-.823-.437-.536-.275-.536.233" transform="translate(-90.365 -71.86)" fill="#382219" fill-rule="evenodd"/>
    <path id="Trazado_718763" data-name="Trazado 718763" d="M276.407,217.735s2.308-.084,2.725-.084.584.278,1.057.779a19.343,19.343,0,0,1,1.919,2.892,2.693,2.693,0,0,1-.361,2.086s2.17.807,2.392,1.251a6.308,6.308,0,0,1,.111,2.948,4.571,4.571,0,0,1-1.168,1.779,2.521,2.521,0,0,1,.723,1.251,6.4,6.4,0,0,1-.362,3.394,15.3,15.3,0,0,1-1.029,1.5,2.228,2.228,0,0,1,.306,1.613,10.153,10.153,0,0,1-2.7,2.754c-.612.389-5.229.305-6.481.333s-5.173-2.03-5.618-2.419a2.916,2.916,0,0,1-.669-1.948c.056-.473.595-1.444,2.092-1.041,0,0,1.886.764,2.276.874s4.853.069,5.019.014,1.016-1.738,2.267-2c0,0-2.767-.764-3.3-.889s-5.229-1.016-5.466-1.085a1.921,1.921,0,0,1-1.168-1.849c.069-1.183.5-1.739,1.654-1.724s4.756.278,5.466.347,5.062.653,5.242.653.069-.361-.153-.445-4.005-1.193-4.388-1.263-3.692-.517-4.345-.684a2.124,2.124,0,0,1-1.073-2.337c.264-.917.807-.987,2.448-1.223a26.451,26.451,0,0,1,4.047-.376c.668.056,1.544.223,1.544.223s-1.126-.834-1.4-.988-2.212-.654-2.517-1.906.389-2.42.908-2.43" transform="translate(-92.232 -75.115)" fill="#f2c5d3" fill-rule="evenodd"/>
    <line id="Línea_3211" data-name="Línea 3211" x2="1.459" y2="0.291" transform="translate(187.191 147.944)" fill="none" stroke="#d5738f" stroke-linecap="round" stroke-linejoin="round" stroke-width="0.709"/>
    <line id="Línea_3212" data-name="Línea 3212" x2="1.099" y2="0.115" transform="translate(189.04 154.044)" fill="none" stroke="#d5738f" stroke-linecap="round" stroke-linejoin="round" stroke-width="0.709"/>
    <path id="Trazado_718764" data-name="Trazado 718764" d="M285.054,242.177a5.286,5.286,0,0,1,1.61.929" transform="translate(-98.376 -83.579)" fill="none" stroke="#d5738f" stroke-linecap="round" stroke-linejoin="round" stroke-width="0.709"/>
    <path id="Trazado_718765" data-name="Trazado 718765" d="M281.593,245.13a20.48,20.48,0,0,0,2.722-.2" transform="translate(-97.182 -84.53)" fill="none" stroke="#d5738f" stroke-linecap="round" stroke-linejoin="round" stroke-width="0.709"/>
    <line id="Línea_3213" data-name="Línea 3213" x1="0.893" y1="0.212" transform="translate(189.29 160.208)" fill="none" stroke="#d5738f" stroke-linecap="round" stroke-linejoin="round" stroke-width="0.709"/>
    <path id="Trazado_718766" data-name="Trazado 718766" d="M265.435,233.2a10.49,10.49,0,0,1,1.637,3.513" transform="translate(-91.606 -80.479)" fill="none" stroke="#d5738f" stroke-linecap="round" stroke-linejoin="round" stroke-width="0.709"/>
    <path id="Trazado_718767" data-name="Trazado 718767" d="M281.234,217.735s2.308-.084,2.725-.084.584.278,1.057.779a19.334,19.334,0,0,1,1.919,2.892,2.693,2.693,0,0,1-.361,2.086s2.17.807,2.392,1.251a6.308,6.308,0,0,1,.111,2.948,4.571,4.571,0,0,1-1.168,1.779,2.521,2.521,0,0,1,.723,1.251,6.4,6.4,0,0,1-.361,3.394,15.3,15.3,0,0,1-1.03,1.5" transform="translate(-97.058 -75.115)" fill="none" stroke="#d5738f" stroke-linecap="round" stroke-linejoin="round" stroke-width="0.709"/>
    <path id="Trazado_718768" data-name="Trazado 718768" d="M223.213,198.837a1.6,1.6,0,0,0-.336-.688s1.062-.607,1.138-1.441.128-2.654-1.566-2.768m-19.4-5.175s-2.073,1.214-3.135,1.972-3.342,5.375-4.468,7.875c-.073.16-.145.335-.219.523" transform="translate(-67.378 -65.145)" fill="none" stroke="#d5738f" stroke-linecap="round" stroke-linejoin="round" stroke-width="0.709"/>
    <path id="Trazado_718769" data-name="Trazado 718769" d="M204.638,343.116s23.611-.13,34.785-2.728c0,0,.618-.1.974.942a24.935,24.935,0,0,1,.682,3.151,43.622,43.622,0,0,1,2.664,7.487c.845,3.638-39.106,5.587-39.106,5.587s-39.951-1.949-39.106-5.587a43.682,43.682,0,0,1,2.664-7.487,25.143,25.143,0,0,1,.682-3.151c.358-1.039.974-.942.974-.942,11.175,2.6,34.786,2.728,34.786,2.728" transform="translate(-57.123 -117.472)" fill="#1c174f" fill-rule="evenodd"/>
    <path id="Trazado_718770" data-name="Trazado 718770" d="M224.517,333.665h0a1.4,1.4,0,0,1,1.4,1.4V336.3a1.4,1.4,0,0,1-2.794,0v-1.234a1.4,1.4,0,0,1,1.4-1.4" transform="translate(-77.002 -115.153)" fill="#d289ac" fill-rule="evenodd"/>
    <path id="Trazado_718771" data-name="Trazado 718771" d="M169.606,346.639s39.389,6.32,73.06,0" transform="translate(-58.534 -119.63)" fill="none" stroke="#12131f" stroke-linecap="round" stroke-linejoin="round" stroke-width="0.709"/>
    <line id="Línea_3214" data-name="Línea 3214" y2="3.918" transform="translate(144.972 229.763)" fill="none" stroke="#12131f" stroke-linecap="round" stroke-linejoin="round" stroke-width="0.709"/>
    <line id="Línea_3215" data-name="Línea 3215" y2="3.833" transform="translate(147.515 229.803)" fill="none" stroke="#12131f" stroke-linecap="round" stroke-linejoin="round" stroke-width="0.709"/>
    <path id="Trazado_718772" data-name="Trazado 718772" d="M189.664,349.416s-3.955,3.728-8.308,4.7" transform="translate(-62.589 -120.589)" fill="none" stroke="#12131f" stroke-linecap="round" stroke-linejoin="round" stroke-width="0.709"/>
    <path id="Trazado_718773" data-name="Trazado 718773" d="M171.833,347.094s-1.557,5.314-1.686,6.288" transform="translate(-58.72 -119.787)" fill="none" stroke="#12131f" stroke-linecap="round" stroke-linejoin="round" stroke-width="0.709"/>
    <path id="Trazado_718774" data-name="Trazado 718774" d="M258.237,349.729s3.954,3.727,8.307,4.7" transform="translate(-89.122 -120.697)" fill="none" stroke="#12131f" stroke-linecap="round" stroke-linejoin="round" stroke-width="0.709"/>
    <path id="Trazado_718775" data-name="Trazado 718775" d="M278.41,347.136s1.557,5.314,1.688,6.288" transform="translate(-96.084 -119.802)" fill="none" stroke="#12131f" stroke-linecap="round" stroke-linejoin="round" stroke-width="0.709"/>
    <line id="Línea_3216" data-name="Línea 3216" x1="12.684" y2="15.631" transform="translate(98.084 158.824)" fill="none" stroke="#d289ac" stroke-linecap="round" stroke-linejoin="round" stroke-width="0.709"/>
    <path id="Trazado_718776" data-name="Trazado 718776" d="M222.765,70.51c-12.972,2.853-30.774,19.415-38.045,15.52C176.259,81.5,186.7,63.6,190.464,62.3s32.3,8.208,32.3,8.208" transform="translate(-62.637 -21.459)" fill="#0e0737" fill-rule="evenodd"/>
    <path id="Trazado_718777" data-name="Trazado 718777" d="M224.564,118.877c-2.592-.022-.637-3.047,0-4.824.638,1.777,2.592,4.8,0,4.824" transform="translate(-77.049 -39.361)" fill="#f0dce4" fill-rule="evenodd"/>
    <path id="Trazado_718778" data-name="Trazado 718778" d="M217.252,30.472c-3.538,8.365-13.86,25.3-38.568,21.593a34.9,34.9,0,0,0-1.333,6.356,41.878,41.878,0,0,1-1.567,8.346c15.017.388,39.239-4.035,44.706-35.228a5.233,5.233,0,0,0-1.521-.8,6.829,6.829,0,0,0-1.716-.265" transform="translate(-60.666 -10.516)" fill="#211a4b" fill-rule="evenodd"/>
    <path id="Trazado_718779" data-name="Trazado 718779" d="M163.842,24.78h0a2.717,2.717,0,0,1,3.831,0l.568.568.568-.568a2.709,2.709,0,0,1,3.831,3.831l-.568.568-3.83,3.83-3.832-3.83-.568-.568a2.718,2.718,0,0,1,0-3.831" transform="translate(-56.272 -8.279)" fill="#7dbcee" fill-rule="evenodd"/>
    <path id="Trazado_718780" data-name="Trazado 718780" d="M284.1,6.179h10.994a1.091,1.091,0,0,1,0,2.183H284.1a1.091,1.091,0,1,1,0-2.183" transform="translate(-97.67 -2.132)" fill="#fff" fill-rule="evenodd"/>
    <path id="Trazado_718781" data-name="Trazado 718781" d="M307.731,6.179h2.612a1.091,1.091,0,1,1,0,2.183h-2.612a1.091,1.091,0,1,1,0-2.183" transform="translate(-105.826 -2.132)" fill="#2d62a4" fill-rule="evenodd"/>
    <path id="Trazado_718782" data-name="Trazado 718782" d="M294.933,13.917h10.992a1.091,1.091,0,1,1,0,2.183H294.933a1.091,1.091,0,1,1,0-2.183" transform="translate(-101.409 -4.803)" fill="#2d62a4" fill-rule="evenodd"/>
    <path id="Trazado_718783" data-name="Trazado 718783" d="M277.823,251.876a20.564,20.564,0,0,0,2.722-.2" transform="translate(-95.881 -86.858)" fill="none" stroke="#d5738f" stroke-linecap="round" stroke-linejoin="round" stroke-width="0.709"/>
    <path id="Trazado_718784" data-name="Trazado 718784" d="M61.742,355.567H271.733a6.018,6.018,0,0,1,6,6h0a6.016,6.016,0,0,1-6,6h-20.24a3.333,3.333,0,0,0,0,6.665H258.9a4.166,4.166,0,0,1,0,8.331H75.24a4.166,4.166,0,0,1,0-8.331h5.832a3.333,3.333,0,1,0,0-6.665H61.742a6.017,6.017,0,0,1-6-6h0a6.018,6.018,0,0,1,6-6m3.124,27a4.011,4.011,0,0,0,4-4v-.333a4,4,0,1,0-8,0v.333a4.01,4.01,0,0,0,4,4" transform="translate(-19.238 -122.712)" fill="#0e0737" fill-rule="evenodd"/>
  </g>
</svg>
