<svg xmlns="http://www.w3.org/2000/svg" width="114" height="114" viewBox="0 0 114 114">
  <g id="Grupo_1017061" data-name="Grupo 1017061" transform="translate(-1221.333 -396)">
    <circle id="Elipse_5878" data-name="Elipse 5878" cx="57" cy="57" r="57" transform="translate(1221.333 396)" fill="#eae7f5"/>
    <g id="Layer_x0020_1" transform="translate(1245.665 414.605)">
      <path id="Trazado_717261" data-name="Trazado 717261" d="M38.917,35.132H1.13A.932.932,0,0,1,.2,34.2V5.512A4.831,4.831,0,0,1,5.024.686H43.157A4.868,4.868,0,0,1,48.02,5.549v15.5a.929.929,0,0,1,0,.879.93.93,0,0,1-.389.666L40.39,34.962a.929.929,0,0,1-1.473.17Z" transform="translate(3.679 31.657)" fill="#7a7a7a" fill-rule="evenodd"/>
      <path id="Trazado_717262" data-name="Trazado 717262" d="M32.93,26.8H1.219a.932.932,0,0,1-.931-.931V1.707A.932.932,0,0,1,1.219.776H38.753a.932.932,0,0,1,.931.931V21.333a.933.933,0,0,1-.044.283.928.928,0,0,1-.365.76l-5.549,4.26a.928.928,0,0,1-.8.161Z" transform="translate(7.801 35.78)" fill="#ffffe6" fill-rule="evenodd"/>
      <path id="Trazado_717263" data-name="Trazado 717263" d="M45.518,10.9H4.841A4.721,4.721,0,0,1,.126,6.189V2.405a.932.932,0,0,1,.931-.931H42.616a.94.94,0,0,1,.133-.054.929.929,0,0,1,1.168.6l2.4,7.473a.932.932,0,0,1-.8,1.411Z" transform="translate(0.296 63.452)" fill="#5e5d5d" fill-rule="evenodd"/>
      <path id="Trazado_717264" data-name="Trazado 717264" d="M.539,1.377h15.74V5.928a.933.933,0,0,1-.932.931H1.47a.932.932,0,0,1-.931-.931V1.377Z" transform="translate(19.379 63.548)" fill="#545353" fill-rule="evenodd"/>
      <path id="Trazado_717265" data-name="Trazado 717265" d="M4.261,8.892a.931.931,0,0,1-.807-.466L1.647,5.3A.93.93,0,0,1,1.626,4.4a1.842,1.842,0,0,0-.1-1.591.932.932,0,0,1,1.6-.957,3.743,3.743,0,0,1,.366,2.9l1.58,2.736a.932.932,0,0,1-.341,1.272A.917.917,0,0,1,4.261,8.892Z" transform="translate(58.916 65.023)" fill-rule="evenodd"/>
      <path id="Trazado_717266" data-name="Trazado 717266" d="M20.026,2.994h-2.11a.931.931,0,0,1,0-1.863h2.11a.931.931,0,1,1,0,1.863Zm-6.1,0H1.359a.931.931,0,0,1,0-1.863H13.923a.931.931,0,1,1,0,1.863Z" transform="translate(14.262 52.207)" fill="#fe646f" fill-rule="evenodd"/>
      <path id="Trazado_717267" data-name="Trazado 717267" d="M20.026,3.066H7.461a.931.931,0,0,1,0-1.863H20.025a.931.931,0,0,1,0,1.863Zm-16.556,0H1.359a.931.931,0,0,1,0-1.863h2.11a.931.931,0,0,1,0,1.863Z" transform="translate(14.262 55.501)" fill="#fe646f" fill-rule="evenodd"/>
      <path id="Trazado_717268" data-name="Trazado 717268" d="M6.3,10.743a.93.93,0,0,1-.807-.465L.959,2.422a.931.931,0,0,1,.353-1.279,5.467,5.467,0,0,1,5.467,9.468.936.936,0,0,1-.478.132Z" transform="translate(32.98 20.801)" fill="#ff4974" fill-rule="evenodd"/>
      <path id="Trazado_717269" data-name="Trazado 717269" d="M9.656,14.333a.933.933,0,0,1-.683-.3L.79,5.221a.931.931,0,0,1,.217-1.44L5.962.92a.932.932,0,0,1,1.148.173l8.183,8.814a.931.931,0,0,1-.217,1.44l-4.955,2.861a.919.919,0,0,1-.465.125Z" transform="translate(19.482 36.714)" fill="#fe6a8d" fill-rule="evenodd"/>
      <path id="Trazado_717270" data-name="Trazado 717270" d="M5.993,14.5A3.67,3.67,0,0,1,2.822,12.67L.9,9.34A3.625,3.625,0,0,1,2.224,4.394L8.779.609,14.34,10.24,7.813,14.008a3.653,3.653,0,0,1-1.819.487Z" transform="translate(13.607 28.101)" fill="#ff4974" fill-rule="evenodd"/>
      <path id="Trazado_717271" data-name="Trazado 717271" d="M.592,12.727,9.018.738a.931.931,0,0,1,1.566.074L21.466,19.66a.931.931,0,0,1-.719,1.392l-14.6,1.306L.592,12.727Z" transform="translate(21.795 15.983)" fill="#ececff" fill-rule="evenodd"/>
      <path id="Trazado_717272" data-name="Trazado 717272" d="M1.96,5.046a.931.931,0,0,1-.467-1.738L6.3.532a.931.931,0,1,1,.931,1.613L2.425,4.921A.925.925,0,0,1,1.96,5.046Z" transform="translate(41.937 18.767)" fill="#ff4974" fill-rule="evenodd"/>
      <path id="Trazado_717273" data-name="Trazado 717273" d="M1.923,7.515a.943.943,0,0,1-.242-.032.931.931,0,0,1-.658-1.141L2.461.977a.931.931,0,1,1,1.8.482L2.821,6.824a.931.931,0,0,1-.9.691Z" transform="translate(40.189 13.206)" fill="#ff4974" fill-rule="evenodd"/>
      <path id="Trazado_717274" data-name="Trazado 717274" d="M7.364,3.832A.943.943,0,0,1,7.122,3.8L1.756,2.363a.932.932,0,0,1,.483-1.8L7.6,2a.932.932,0,0,1-.241,1.831Z" transform="translate(43.685 24.512)" fill="#ff4974" fill-rule="evenodd"/>
      <path id="Trazado_717275" data-name="Trazado 717275" d="M9.02,16.262A7.762,7.762,0,1,1,16.782,8.5,7.771,7.771,0,0,1,9.02,16.262Z" transform="translate(52.553 34.029)" fill="#eb5468" fill-rule="evenodd"/>
      <path id="Trazado_717276" data-name="Trazado 717276" d="M3.2,9.227A1.834,1.834,0,0,1,1.357,7.39V2.655a1.843,1.843,0,0,1,2.763-1.6l4.1,2.364a1.845,1.845,0,0,1,0,3.193l-4.1,2.364a1.835,1.835,0,0,1-.916.246Z" transform="translate(57.077 37.509)" fill="#ffe470" fill-rule="evenodd"/>
      <path id="Trazado_717277" data-name="Trazado 717277" d="M16.779,20.818a.779.779,0,0,1-.376-.1l-4.668-2.57A9.054,9.054,0,0,1,1.194,9.222a9.052,9.052,0,1,1,16.482,5.17l-.115,5.661a.78.78,0,0,1-.39.661.788.788,0,0,1-.391.1Z" transform="translate(49.569 7.874)" fill="#1ab193" fill-rule="evenodd"/>
      <g id="Grupo_1017059" data-name="Grupo 1017059" transform="translate(54.681 11.921)">
        <path id="Trazado_717278" data-name="Trazado 717278" d="M10.76,1.866H9.776A.781.781,0,0,1,9.776.3h.983a.781.781,0,1,1,0,1.562Zm-2.845,0H2.058A.781.781,0,1,1,2.058.3H7.915a.781.781,0,0,1,0,1.562Z" transform="translate(-1.277 2.117)" fill="#4fc9ad" fill-rule="evenodd"/>
        <path id="Trazado_717279" data-name="Trazado 717279" d="M10.759,1.927H4.9A.781.781,0,0,1,4.9.365h5.858a.781.781,0,0,1,0,1.562Zm-7.718,0H2.058a.781.781,0,0,1,0-1.562h.983a.781.781,0,0,1,0,1.562Z" transform="translate(-1.276 4.909)" fill="#4fc9ad" fill-rule="evenodd"/>
        <path id="Trazado_717280" data-name="Trazado 717280" d="M10.76,1.987H9.776a.781.781,0,0,1,0-1.562h.983a.781.781,0,1,1,0,1.562Zm-2.845,0H2.058a.781.781,0,1,1,0-1.562H7.915a.781.781,0,0,1,0,1.562Z" transform="translate(-1.277 7.699)" fill="#4fc9ad" fill-rule="evenodd"/>
        <path id="Trazado_717281" data-name="Trazado 717281" d="M2.737,1.815H2.081a.781.781,0,0,1,0-1.562h.656a.781.781,0,1,1,0,1.562Z" transform="translate(-0.177 -0.253)" fill="#4fc9ad" fill-rule="evenodd"/>
        <path id="Trazado_717282" data-name="Trazado 717282" d="M6.04,1.815h-3.9a.781.781,0,1,1,0-1.562h3.9a.781.781,0,0,1,0,1.562Z" transform="translate(2.321 -0.253)" fill="#4fc9ad" fill-rule="evenodd"/>
      </g>
      <path id="Trazado_717283" data-name="Trazado 717283" d="M6.37,16.441a.766.766,0,0,1-.66-.376L3.987,13.147H3.129A2.686,2.686,0,0,1,.445,10.464V2.683A2.686,2.686,0,0,1,3.129,0H30.438a2.687,2.687,0,0,1,2.684,2.683v7.781a2.687,2.687,0,0,1-2.684,2.683H8.752L7.029,16.064a.764.764,0,0,1-.659.377Z" transform="translate(15.047 0)" fill="#ffbe61" fill-rule="evenodd"/>
      <path id="Trazado_717284" data-name="Trazado 717284" d="M6.962,8.285A.764.764,0,0,1,6.6,8.2L4.785,7.227,2.967,8.2a.765.765,0,0,1-1.114-.809l.36-2.027L.73,3.929a.766.766,0,0,1,.425-1.31l2.039-.285L4.1.483a.766.766,0,0,1,1.377,0l.9,1.852,2.039.285a.765.765,0,0,1,.425,1.309L7.354,5.358l.359,2.027a.767.767,0,0,1-.3.754.756.756,0,0,1-.448.146Z" transform="translate(17.365 2.405)" fill="#ffe8b2" fill-rule="evenodd"/>
      <path id="Trazado_717285" data-name="Trazado 717285" d="M7.167,8.285a.763.763,0,0,1-.36-.09L4.99,7.227,3.173,8.2a.765.765,0,0,1-1.114-.809l.36-2.027L.936,3.929a.766.766,0,0,1,.425-1.31L3.4,2.335,4.3.483a.766.766,0,0,1,1.378,0l.9,1.852,2.039.285a.765.765,0,0,1,.425,1.309L7.561,5.358l.36,2.027a.765.765,0,0,1-.754.9Z" transform="translate(26.841 2.405)" fill="#ffe8b2" fill-rule="evenodd"/>
      <path id="Trazado_717286" data-name="Trazado 717286" d="M7.373,8.285a.763.763,0,0,1-.36-.09L5.2,7.226l-1.817.968a.766.766,0,0,1-1.114-.809l.36-2.028L1.141,3.928a.765.765,0,0,1,.425-1.309l2.039-.285.9-1.851a.766.766,0,0,1,1.377,0l.9,1.851,2.039.285a.765.765,0,0,1,.425,1.309L7.765,5.357l.36,2.028a.767.767,0,0,1-.3.754A.755.755,0,0,1,7.373,8.285Z" transform="translate(36.316 2.406)" fill="#ffe8b2" fill-rule="evenodd"/>
      <path id="Trazado_717287" data-name="Trazado 717287" d="M8.657,17.362A8.538,8.538,0,1,1,17.2,8.824,8.547,8.547,0,0,1,8.657,17.362Z" transform="translate(0 13.181)" fill="#cfe7b4" fill-rule="evenodd"/>
      <path id="Trazado_717288" data-name="Trazado 717288" d="M7.007,8.1A8.5,8.5,0,0,1,.315,4.864a.737.737,0,0,1-.026-.881,8.2,8.2,0,0,1,13.437,0,.736.736,0,0,1-.026.881A8.5,8.5,0,0,1,7.007,8.1Z" transform="translate(1.65 22.441)" fill="#8dbd57" fill-rule="evenodd"/>
      <path id="Trazado_717289" data-name="Trazado 717289" d="M3.913,7.743A3.691,3.691,0,1,1,7.6,4.052,3.695,3.695,0,0,1,3.913,7.743Z" transform="translate(4.744 16.659)" fill="#ffe5c1" fill-rule="evenodd"/>
      <path id="Trazado_717290" data-name="Trazado 717290" d="M18.872,29.355l-1.674-2.9a14.4,14.4,0,0,1-6.859-2.029L4.356,20.578c-.2-.108-2.368-1.371-2.611-3.319a2.019,2.019,0,0,1,.7-1.97C3.447,14.5,5.15,14.777,7,15.369L1.267,5.431A2.894,2.894,0,1,1,6.279,2.537L8.39,6.193a2.89,2.89,0,0,1,2.9-1A2.887,2.887,0,0,1,14.7,3.222a2.892,2.892,0,0,1,5.27-.6l2.858,4.95.023.042,5.3,9.176,0,0a4,4,0,0,1,.376,3.062l1.694,2.933,0,.008.269.466a.619.619,0,0,1-.226.843L19.95,30.066a.579.579,0,0,1-.789-.211l-.289-.5Z" transform="translate(35.083 50.304)" fill="#ffc6b9" fill-rule="evenodd"/>
    </g>
  </g>
</svg>
