<svg xmlns="http://www.w3.org/2000/svg" width="505" height="399.864" viewBox="0 0 505 399.864">
  <g id="Grupo_1068015" data-name="Grupo 1068015" transform="translate(9782.328 8606.738)">
    <g id="Grupo_1068014" data-name="Grupo 1068014" transform="translate(-8817.328 -3555.064)">
      <rect id="Rectángulo_376373" data-name="Rectángulo 376373" width="505" height="399.864" transform="translate(-965 -5051.674)" fill="#fff"/>
    </g>
    <path id="Trazado_721854" data-name="Trazado 721854" d="M18,0H458.9a18,18,0,0,1,18,18V45.034a18,18,0,0,1-18,18H18a18,18,0,0,1-18-18V18A18,18,0,0,1,18,0Z" transform="translate(-9768.276 -8590.693)" fill="#eee1f2"/>
    <path id="Trazado_721855" data-name="Trazado 721855" d="M19,0h81.726a19,19,0,0,1,19,19V76.227a19,19,0,0,1-19,19H19a19,19,0,0,1-19-19V19A19,19,0,0,1,19,0Z" transform="translate(-9404.5 -8332.792)" fill="#eee1f2"/>
    <path id="Trazado_721856" data-name="Trazado 721856" d="M19,0h81.726a19,19,0,0,1,19,19V76.227a19,19,0,0,1-19,19H19a19,19,0,0,1-19-19V19A19,19,0,0,1,19,0Z" transform="translate(-9770.593 -8333.177)" fill="#eee1f2"/>
    <path id="Trazado_721857" data-name="Trazado 721857" d="M3.258,3.625l3.719,9.281L10.7,3.625h1.945V15h-1.5V10.57l.141-4.781L7.547,15H6.4L2.672,5.813,2.82,10.57V15H1.32V3.625ZM18.57,15.156a3.693,3.693,0,0,1-2.8-1.129,4.19,4.19,0,0,1-1.078-3.02v-.266a5.073,5.073,0,0,1,.48-2.246A3.748,3.748,0,0,1,16.52,6.949a3.378,3.378,0,0,1,1.871-.559,3.166,3.166,0,0,1,2.563,1.086,4.7,4.7,0,0,1,.914,3.109v.6H16.141a3,3,0,0,0,.73,2.02,2.3,2.3,0,0,0,1.777.77,2.517,2.517,0,0,0,1.3-.312,3.259,3.259,0,0,0,.93-.828l.883.688A3.55,3.55,0,0,1,18.57,15.156Zm-.18-7.578a1.928,1.928,0,0,0-1.469.637A3.1,3.1,0,0,0,16.188,10h4.234V9.891a2.753,2.753,0,0,0-.594-1.707A1.815,1.815,0,0,0,18.391,7.578Zm6.516-1.031.047,1.063a3.08,3.08,0,0,1,2.531-1.219q2.68,0,2.7,3.023V15H28.742V9.406a1.946,1.946,0,0,0-.418-1.352,1.675,1.675,0,0,0-1.277-.437,2.086,2.086,0,0,0-1.234.375,2.546,2.546,0,0,0-.828.984V15H23.539V6.547Zm12.383,6.211a1.064,1.064,0,0,0-.441-.91,4.249,4.249,0,0,0-1.539-.559,7.277,7.277,0,0,1-1.742-.562,2.479,2.479,0,0,1-.953-.781A1.869,1.869,0,0,1,32.3,8.867a2.193,2.193,0,0,1,.879-1.758,3.432,3.432,0,0,1,2.246-.719,3.532,3.532,0,0,1,2.332.742,2.357,2.357,0,0,1,.895,1.9H37.2a1.3,1.3,0,0,0-.5-1.023,1.888,1.888,0,0,0-1.27-.43,1.976,1.976,0,0,0-1.234.344,1.082,1.082,0,0,0-.445.9.877.877,0,0,0,.414.789,5.1,5.1,0,0,0,1.5.508,7.8,7.8,0,0,1,1.754.578,2.558,2.558,0,0,1,1,.809,1.988,1.988,0,0,1,.324,1.152,2.163,2.163,0,0,1-.906,1.816,3.8,3.8,0,0,1-2.352.684,4.257,4.257,0,0,1-1.8-.359,2.922,2.922,0,0,1-1.223-1,2.42,2.42,0,0,1-.441-1.395h1.445a1.5,1.5,0,0,0,.582,1.152,2.258,2.258,0,0,0,1.434.426,2.331,2.331,0,0,0,1.316-.332A1.02,1.02,0,0,0,37.289,12.758ZM45.836,15a3.036,3.036,0,0,1-.2-.891,3.225,3.225,0,0,1-2.406,1.047,2.984,2.984,0,0,1-2.051-.707,2.287,2.287,0,0,1-.8-1.793,2.39,2.39,0,0,1,1-2.051,4.733,4.733,0,0,1,2.824-.73h1.406V9.211A1.623,1.623,0,0,0,45.156,8a1.821,1.821,0,0,0-1.336-.449,2.107,2.107,0,0,0-1.3.391A1.151,1.151,0,0,0,42,8.891H40.547A2,2,0,0,1,41,7.668a3.066,3.066,0,0,1,1.219-.934,4.1,4.1,0,0,1,1.691-.344,3.342,3.342,0,0,1,2.289.73,2.635,2.635,0,0,1,.859,2.012v3.891a4.757,4.757,0,0,0,.3,1.852V15Zm-2.4-1.1a2.54,2.54,0,0,0,1.289-.352,2.127,2.127,0,0,0,.883-.914V10.9H44.477q-2.656,0-2.656,1.555a1.316,1.316,0,0,0,.453,1.063A1.742,1.742,0,0,0,43.438,13.9Zm7.375-7.352v9.43q0,2.438-2.211,2.438a2.7,2.7,0,0,1-.883-.14V17.125a2.794,2.794,0,0,0,.656.063.982.982,0,0,0,.738-.262,1.3,1.3,0,0,0,.254-.911V6.547ZM49.219,4.3a.867.867,0,0,1,.215-.59.79.79,0,0,1,.629-.246.819.819,0,0,1,.641.242.854.854,0,0,1,.219.594.826.826,0,0,1-.219.586.834.834,0,0,1-.641.234.808.808,0,0,1-.633-.234A.843.843,0,0,1,49.219,4.3Zm7.43,10.852a3.693,3.693,0,0,1-2.8-1.129,4.19,4.19,0,0,1-1.078-3.02v-.266a5.073,5.073,0,0,1,.48-2.246A3.748,3.748,0,0,1,54.6,6.949a3.378,3.378,0,0,1,1.871-.559,3.166,3.166,0,0,1,2.563,1.086,4.7,4.7,0,0,1,.914,3.109v.6H54.219a3,3,0,0,0,.73,2.02,2.3,2.3,0,0,0,1.777.77,2.517,2.517,0,0,0,1.3-.312,3.259,3.259,0,0,0,.93-.828l.883.688A3.55,3.55,0,0,1,56.648,15.156Zm-.18-7.578A1.928,1.928,0,0,0,55,8.215,3.1,3.1,0,0,0,54.266,10H58.5V9.891a2.753,2.753,0,0,0-.594-1.707A1.815,1.815,0,0,0,56.469,7.578ZM65.2,10.7a4.993,4.993,0,0,1,.488-2.234A3.643,3.643,0,0,1,67.043,6.93a3.7,3.7,0,0,1,1.988-.539,3.565,3.565,0,0,1,2.793,1.2,4.6,4.6,0,0,1,1.066,3.18v.1a5.036,5.036,0,0,1-.473,2.215,3.589,3.589,0,0,1-1.352,1.527,3.743,3.743,0,0,1-2.02.547,3.556,3.556,0,0,1-2.785-1.2A4.575,4.575,0,0,1,65.2,10.8Zm1.453.172a3.616,3.616,0,0,0,.652,2.258,2.211,2.211,0,0,0,3.5-.012,3.955,3.955,0,0,0,.648-2.418,3.61,3.61,0,0,0-.66-2.254,2.1,2.1,0,0,0-1.754-.863A2.075,2.075,0,0,0,67.3,8.43,3.925,3.925,0,0,0,66.648,10.867Zm15.406,3.109a2.082,2.082,0,0,0,1.352-.469,1.649,1.649,0,0,0,.641-1.172h1.367a2.621,2.621,0,0,1-.5,1.383,3.293,3.293,0,0,1-1.23,1.047,3.55,3.55,0,0,1-1.629.391A3.482,3.482,0,0,1,79.309,14a4.59,4.59,0,0,1-1.02-3.152v-.242a5.089,5.089,0,0,1,.453-2.2,3.451,3.451,0,0,1,1.3-1.492,3.7,3.7,0,0,1,2-.531,3.39,3.39,0,0,1,2.363.852,3.043,3.043,0,0,1,1,2.211H84.047a1.992,1.992,0,0,0-.621-1.348,1.932,1.932,0,0,0-1.379-.527,2.023,2.023,0,0,0-1.707.793,3.724,3.724,0,0,0-.605,2.293v.273a3.65,3.65,0,0,0,.6,2.25A2.033,2.033,0,0,0,82.055,13.977Zm4.6-3.281a4.993,4.993,0,0,1,.488-2.234A3.643,3.643,0,0,1,88.5,6.93a3.7,3.7,0,0,1,1.988-.539,3.565,3.565,0,0,1,2.793,1.2,4.6,4.6,0,0,1,1.066,3.18v.1a5.036,5.036,0,0,1-.473,2.215,3.589,3.589,0,0,1-1.352,1.527,3.743,3.743,0,0,1-2.02.547,3.556,3.556,0,0,1-2.785-1.2A4.575,4.575,0,0,1,86.656,10.8Zm1.453.172a3.616,3.616,0,0,0,.652,2.258,2.211,2.211,0,0,0,3.5-.012,3.955,3.955,0,0,0,.648-2.418,3.61,3.61,0,0,0-.66-2.254,2.1,2.1,0,0,0-1.754-.863,2.075,2.075,0,0,0-1.727.852A3.925,3.925,0,0,0,88.109,10.867Zm9.422-4.32.047,1.063a3.08,3.08,0,0,1,2.531-1.219q2.68,0,2.7,3.023V15h-1.445V9.406a1.946,1.946,0,0,0-.418-1.352,1.675,1.675,0,0,0-1.277-.437,2.086,2.086,0,0,0-1.234.375,2.546,2.546,0,0,0-.828.984V15H96.164V6.547Zm8.953,0v9.43q0,2.438-2.211,2.438a2.7,2.7,0,0,1-.883-.14V17.125a2.794,2.794,0,0,0,.656.063.982.982,0,0,0,.738-.262,1.3,1.3,0,0,0,.254-.911V6.547ZM104.891,4.3a.867.867,0,0,1,.215-.59.79.79,0,0,1,.629-.246.819.819,0,0,1,.641.242.854.854,0,0,1,.219.594.826.826,0,0,1-.219.586.834.834,0,0,1-.641.234.808.808,0,0,1-.633-.234A.843.843,0,0,1,104.891,4.3Zm9.141,9.859a3.07,3.07,0,0,1-2.477.992,2.628,2.628,0,0,1-2.059-.785,3.4,3.4,0,0,1-.715-2.324v-5.5h1.445v5.461q0,1.922,1.563,1.922a2.163,2.163,0,0,0,2.2-1.234V6.547h1.445V15h-1.375ZM119,6.547l.047,1.063a3.08,3.08,0,0,1,2.531-1.219q2.68,0,2.7,3.023V15h-1.445V9.406a1.946,1.946,0,0,0-.418-1.352,1.675,1.675,0,0,0-1.277-.437,2.086,2.086,0,0,0-1.234.375,2.546,2.546,0,0,0-.828.984V15h-1.445V6.547ZM128.422,4.5V6.547H130V7.664h-1.578v5.249a1.173,1.173,0,0,0,.211.763.888.888,0,0,0,.719.254,3.5,3.5,0,0,0,.688-.094V15a4.215,4.215,0,0,1-1.109.155,1.8,1.8,0,0,1-1.461-.586,2.517,2.517,0,0,1-.492-1.664V7.664h-1.539V6.547h1.539V4.5Zm2.727,6.2a4.993,4.993,0,0,1,.488-2.234A3.642,3.642,0,0,1,133,6.93a3.7,3.7,0,0,1,1.988-.539,3.565,3.565,0,0,1,2.793,1.2,4.6,4.6,0,0,1,1.066,3.18v.1a5.036,5.036,0,0,1-.473,2.215,3.589,3.589,0,0,1-1.352,1.527,3.743,3.743,0,0,1-2.02.547,3.556,3.556,0,0,1-2.785-1.2,4.575,4.575,0,0,1-1.066-3.164Zm1.453.172a3.616,3.616,0,0,0,.652,2.258,2.211,2.211,0,0,0,3.5-.012A3.954,3.954,0,0,0,137.4,10.7a3.61,3.61,0,0,0-.66-2.254,2.1,2.1,0,0,0-1.754-.863,2.075,2.075,0,0,0-1.727.852A3.925,3.925,0,0,0,132.6,10.867Zm11.664-.164a4.952,4.952,0,0,1,.922-3.129,3.137,3.137,0,0,1,4.766-.168V3H151.4V15H150.07l-.07-.906a2.943,2.943,0,0,1-2.414,1.063,2.887,2.887,0,0,1-2.395-1.2,5.008,5.008,0,0,1-.926-3.141Zm1.445.164a3.749,3.749,0,0,0,.594,2.25,1.919,1.919,0,0,0,1.641.813,2.108,2.108,0,0,0,2.008-1.234V8.813a2.125,2.125,0,0,0-1.992-1.2,1.929,1.929,0,0,0-1.656.82A4.128,4.128,0,0,0,145.711,10.867Zm11.438,4.289a3.693,3.693,0,0,1-2.8-1.129,4.19,4.19,0,0,1-1.078-3.02v-.266a5.073,5.073,0,0,1,.48-2.246A3.748,3.748,0,0,1,155.1,6.949a3.378,3.378,0,0,1,1.871-.559,3.166,3.166,0,0,1,2.563,1.086,4.7,4.7,0,0,1,.914,3.109v.6h-5.727a3,3,0,0,0,.73,2.02,2.3,2.3,0,0,0,1.777.77,2.517,2.517,0,0,0,1.3-.312,3.258,3.258,0,0,0,.93-.828l.883.688A3.55,3.55,0,0,1,157.148,15.156Zm-.18-7.578a1.928,1.928,0,0,0-1.469.637A3.1,3.1,0,0,0,154.766,10H159V9.891a2.753,2.753,0,0,0-.594-1.707A1.815,1.815,0,0,0,156.969,7.578Zm8.758,3.125a4.952,4.952,0,0,1,.922-3.129,3.137,3.137,0,0,1,4.766-.168V3h1.445V15h-1.328l-.07-.906a2.943,2.943,0,0,1-2.414,1.063,2.887,2.887,0,0,1-2.395-1.2,5.008,5.008,0,0,1-.926-3.141Zm1.445.164a3.749,3.749,0,0,0,.594,2.25,1.919,1.919,0,0,0,1.641.813,2.108,2.108,0,0,0,2.008-1.234V8.813a2.125,2.125,0,0,0-1.992-1.2,1.929,1.929,0,0,0-1.656.82A4.128,4.128,0,0,0,167.172,10.867ZM180.32,15a3.036,3.036,0,0,1-.2-.891,3.225,3.225,0,0,1-2.406,1.047,2.984,2.984,0,0,1-2.051-.707,2.287,2.287,0,0,1-.8-1.793,2.39,2.39,0,0,1,1-2.051,4.733,4.733,0,0,1,2.824-.73h1.406V9.211A1.623,1.623,0,0,0,179.641,8a1.821,1.821,0,0,0-1.336-.449,2.107,2.107,0,0,0-1.3.391,1.151,1.151,0,0,0-.523.945h-1.453a2,2,0,0,1,.449-1.223,3.066,3.066,0,0,1,1.219-.934,4.1,4.1,0,0,1,1.691-.344,3.342,3.342,0,0,1,2.289.73,2.635,2.635,0,0,1,.859,2.012v3.891a4.757,4.757,0,0,0,.3,1.852V15Zm-2.4-1.1a2.54,2.54,0,0,0,1.289-.352,2.127,2.127,0,0,0,.883-.914V10.9h-1.133q-2.656,0-2.656,1.555a1.316,1.316,0,0,0,.453,1.063A1.742,1.742,0,0,0,177.922,13.9Zm7.844-9.4V6.547h1.578V7.664h-1.578v5.249a1.173,1.173,0,0,0,.211.763.888.888,0,0,0,.719.254,3.5,3.5,0,0,0,.688-.094V15a4.215,4.215,0,0,1-1.109.155,1.8,1.8,0,0,1-1.461-.586,2.517,2.517,0,0,1-.492-1.664V7.664h-1.539V6.547h1.539V4.5Zm2.727,6.2a4.993,4.993,0,0,1,.488-2.234A3.642,3.642,0,0,1,190.34,6.93a3.7,3.7,0,0,1,1.988-.539,3.565,3.565,0,0,1,2.793,1.2,4.6,4.6,0,0,1,1.066,3.18v.1a5.036,5.036,0,0,1-.473,2.215,3.589,3.589,0,0,1-1.352,1.527,3.743,3.743,0,0,1-2.02.547,3.556,3.556,0,0,1-2.785-1.2,4.575,4.575,0,0,1-1.066-3.164Zm1.453.172a3.616,3.616,0,0,0,.652,2.258,2.211,2.211,0,0,0,3.5-.012,3.954,3.954,0,0,0,.648-2.418,3.61,3.61,0,0,0-.66-2.254,2.1,2.1,0,0,0-1.754-.863,2.075,2.075,0,0,0-1.727.852A3.925,3.925,0,0,0,189.945,10.867Zm12.977,1.891a1.064,1.064,0,0,0-.441-.91,4.249,4.249,0,0,0-1.539-.559,7.277,7.277,0,0,1-1.742-.562,2.479,2.479,0,0,1-.953-.781,1.869,1.869,0,0,1-.309-1.078,2.193,2.193,0,0,1,.879-1.758,3.432,3.432,0,0,1,2.246-.719,3.532,3.532,0,0,1,2.332.742,2.357,2.357,0,0,1,.895,1.9h-1.453a1.3,1.3,0,0,0-.5-1.023,1.888,1.888,0,0,0-1.27-.43,1.976,1.976,0,0,0-1.234.344,1.082,1.082,0,0,0-.445.9.877.877,0,0,0,.414.789,5.1,5.1,0,0,0,1.5.508,7.8,7.8,0,0,1,1.754.578,2.558,2.558,0,0,1,1,.809,1.988,1.988,0,0,1,.324,1.152,2.163,2.163,0,0,1-.906,1.816,3.8,3.8,0,0,1-2.352.684,4.257,4.257,0,0,1-1.8-.359,2.922,2.922,0,0,1-1.223-1,2.42,2.42,0,0,1-.441-1.395h1.445a1.5,1.5,0,0,0,.582,1.152,2.258,2.258,0,0,0,1.434.426,2.331,2.331,0,0,0,1.316-.332A1.02,1.02,0,0,0,202.922,12.758Zm6.938-2.055a4.961,4.961,0,0,1,.914-3.152,3.226,3.226,0,0,1,4.82-.152l.063-.852h1.328v11.7h-1.445V14.219a3.033,3.033,0,0,1-2.328.938,2.915,2.915,0,0,1-2.441-1.191,5.072,5.072,0,0,1-.91-3.16Zm1.445.164a3.761,3.761,0,0,0,.613,2.281,1.951,1.951,0,0,0,1.652.828,2.164,2.164,0,0,0,1.969-1.141V8.7a2.171,2.171,0,0,0-1.953-1.117,1.965,1.965,0,0,0-1.664.832A4.094,4.094,0,0,0,211.3,10.867Zm13.219,3.3a3.07,3.07,0,0,1-2.477.992,2.628,2.628,0,0,1-2.059-.785,3.4,3.4,0,0,1-.715-2.324v-5.5h1.445v5.461q0,1.922,1.563,1.922a2.163,2.163,0,0,0,2.2-1.234V6.547h1.445V15h-1.375Zm7.109.992a3.693,3.693,0,0,1-2.8-1.129,4.19,4.19,0,0,1-1.078-3.02v-.266a5.073,5.073,0,0,1,.48-2.246,3.748,3.748,0,0,1,1.344-1.547,3.378,3.378,0,0,1,1.871-.559,3.166,3.166,0,0,1,2.563,1.086,4.7,4.7,0,0,1,.914,3.109v.6H229.2a3,3,0,0,0,.73,2.02,2.3,2.3,0,0,0,1.777.77,2.517,2.517,0,0,0,1.3-.312,3.258,3.258,0,0,0,.93-.828l.883.688A3.55,3.55,0,0,1,231.633,15.156Zm-.18-7.578a1.928,1.928,0,0,0-1.469.637A3.1,3.1,0,0,0,229.25,10h4.234V9.891a2.753,2.753,0,0,0-.594-1.707A1.815,1.815,0,0,0,231.453,7.578Zm14.031,5.18a1.064,1.064,0,0,0-.441-.91,4.249,4.249,0,0,0-1.539-.559,7.277,7.277,0,0,1-1.742-.562,2.479,2.479,0,0,1-.953-.781,1.869,1.869,0,0,1-.309-1.078,2.193,2.193,0,0,1,.879-1.758,3.432,3.432,0,0,1,2.246-.719,3.532,3.532,0,0,1,2.332.742,2.357,2.357,0,0,1,.895,1.9H245.4a1.3,1.3,0,0,0-.5-1.023,1.888,1.888,0,0,0-1.27-.43,1.976,1.976,0,0,0-1.234.344,1.082,1.082,0,0,0-.445.9.877.877,0,0,0,.414.789,5.1,5.1,0,0,0,1.5.508,7.8,7.8,0,0,1,1.754.578,2.558,2.558,0,0,1,1,.809,1.988,1.988,0,0,1,.324,1.152,2.163,2.163,0,0,1-.906,1.816,3.8,3.8,0,0,1-2.352.684,4.257,4.257,0,0,1-1.8-.359,2.922,2.922,0,0,1-1.223-1,2.42,2.42,0,0,1-.441-1.395h1.445a1.5,1.5,0,0,0,.582,1.152,2.258,2.258,0,0,0,1.434.426,2.331,2.331,0,0,0,1.316-.332A1.02,1.02,0,0,0,245.484,12.758Zm6.836,2.4a3.693,3.693,0,0,1-2.8-1.129,4.19,4.19,0,0,1-1.078-3.02v-.266a5.073,5.073,0,0,1,.48-2.246,3.748,3.748,0,0,1,1.344-1.547,3.378,3.378,0,0,1,1.871-.559A3.166,3.166,0,0,1,254.7,7.477a4.7,4.7,0,0,1,.914,3.109v.6h-5.727a3,3,0,0,0,.73,2.02,2.3,2.3,0,0,0,1.777.77,2.517,2.517,0,0,0,1.3-.312,3.258,3.258,0,0,0,.93-.828l.883.688A3.55,3.55,0,0,1,252.32,15.156Zm-.18-7.578a1.928,1.928,0,0,0-1.469.637A3.1,3.1,0,0,0,249.938,10h4.234V9.891a2.753,2.753,0,0,0-.594-1.707A1.815,1.815,0,0,0,252.141,7.578Zm11.9,5.461,2.094-6.492h1.477L264.578,15h-1.1l-3.062-8.453h1.477ZM274.1,15a3.036,3.036,0,0,1-.2-.891,3.225,3.225,0,0,1-2.406,1.047,2.984,2.984,0,0,1-2.051-.707,2.288,2.288,0,0,1-.8-1.793,2.39,2.39,0,0,1,1-2.051,4.733,4.733,0,0,1,2.824-.73h1.406V9.211A1.623,1.623,0,0,0,273.422,8a1.821,1.821,0,0,0-1.336-.449,2.108,2.108,0,0,0-1.3.391,1.151,1.151,0,0,0-.523.945h-1.453a2,2,0,0,1,.449-1.223,3.066,3.066,0,0,1,1.219-.934,4.1,4.1,0,0,1,1.691-.344,3.342,3.342,0,0,1,2.289.73,2.635,2.635,0,0,1,.859,2.012v3.891a4.757,4.757,0,0,0,.3,1.852V15Zm-2.4-1.1a2.54,2.54,0,0,0,1.289-.352,2.126,2.126,0,0,0,.883-.914V10.9h-1.133q-2.656,0-2.656,1.555a1.316,1.316,0,0,0,.453,1.063A1.742,1.742,0,0,0,271.7,13.9Zm7.25-7.352L279,7.609a3.08,3.08,0,0,1,2.531-1.219q2.68,0,2.7,3.023V15h-1.445V9.406a1.946,1.946,0,0,0-.418-1.352,1.675,1.675,0,0,0-1.277-.437,2.086,2.086,0,0,0-1.234.375,2.546,2.546,0,0,0-.828.984V15h-1.445V6.547ZM295.594,15a3.036,3.036,0,0,1-.2-.891,3.225,3.225,0,0,1-2.406,1.047,2.984,2.984,0,0,1-2.051-.707,2.288,2.288,0,0,1-.8-1.793,2.39,2.39,0,0,1,1-2.051,4.733,4.733,0,0,1,2.824-.73h1.406V9.211A1.623,1.623,0,0,0,294.914,8a1.821,1.821,0,0,0-1.336-.449,2.108,2.108,0,0,0-1.3.391,1.151,1.151,0,0,0-.523.945H290.3a2,2,0,0,1,.449-1.223,3.066,3.066,0,0,1,1.219-.934,4.1,4.1,0,0,1,1.691-.344,3.342,3.342,0,0,1,2.289.73,2.635,2.635,0,0,1,.859,2.012v3.891a4.757,4.757,0,0,0,.3,1.852V15Zm-2.4-1.1a2.54,2.54,0,0,0,1.289-.352,2.126,2.126,0,0,0,.883-.914V10.9h-1.133q-2.656,0-2.656,1.555a1.316,1.316,0,0,0,.453,1.063A1.742,1.742,0,0,0,293.2,13.9ZM305,4.5V6.547h1.578V7.664H305v5.249a1.173,1.173,0,0,0,.211.763.888.888,0,0,0,.719.254,3.5,3.5,0,0,0,.688-.094V15a4.215,4.215,0,0,1-1.109.155,1.8,1.8,0,0,1-1.461-.586,2.517,2.517,0,0,1-.492-1.664V7.664h-1.539V6.547h1.539V4.5Zm7.352,3.344a4.331,4.331,0,0,0-.711-.055A1.9,1.9,0,0,0,309.711,9v6h-1.445V6.547h1.406l.023.977a2.251,2.251,0,0,1,2.016-1.133,1.477,1.477,0,0,1,.641.109ZM318.586,15a3.036,3.036,0,0,1-.2-.891,3.225,3.225,0,0,1-2.406,1.047,2.984,2.984,0,0,1-2.051-.707,2.288,2.288,0,0,1-.8-1.793,2.39,2.39,0,0,1,1-2.051,4.733,4.733,0,0,1,2.824-.73h1.406V9.211A1.623,1.623,0,0,0,317.906,8a1.821,1.821,0,0,0-1.336-.449,2.108,2.108,0,0,0-1.3.391,1.151,1.151,0,0,0-.523.945H313.3a2,2,0,0,1,.449-1.223,3.066,3.066,0,0,1,1.219-.934,4.1,4.1,0,0,1,1.691-.344,3.342,3.342,0,0,1,2.289.73,2.635,2.635,0,0,1,.859,2.012v3.891a4.757,4.757,0,0,0,.3,1.852V15Zm-2.4-1.1a2.54,2.54,0,0,0,1.289-.352,2.126,2.126,0,0,0,.883-.914V10.9h-1.133q-2.656,0-2.656,1.555a1.316,1.316,0,0,0,.453,1.063A1.742,1.742,0,0,0,316.188,13.9Zm7.25-7.352.047,1.063a3.08,3.08,0,0,1,2.531-1.219q2.68,0,2.7,3.023V15h-1.445V9.406a1.946,1.946,0,0,0-.418-1.352,1.675,1.675,0,0,0-1.277-.437,2.086,2.086,0,0,0-1.234.375,2.546,2.546,0,0,0-.828.984V15H322.07V6.547Zm12.383,6.211a1.064,1.064,0,0,0-.441-.91,4.249,4.249,0,0,0-1.539-.559,7.276,7.276,0,0,1-1.742-.562,2.478,2.478,0,0,1-.953-.781,1.869,1.869,0,0,1-.309-1.078,2.193,2.193,0,0,1,.879-1.758,3.432,3.432,0,0,1,2.246-.719,3.532,3.532,0,0,1,2.332.742,2.357,2.357,0,0,1,.895,1.9h-1.453a1.3,1.3,0,0,0-.5-1.023,1.888,1.888,0,0,0-1.27-.43,1.976,1.976,0,0,0-1.234.344,1.082,1.082,0,0,0-.445.9.877.877,0,0,0,.414.789,5.1,5.1,0,0,0,1.5.508,7.8,7.8,0,0,1,1.754.578,2.559,2.559,0,0,1,1,.809,1.988,1.988,0,0,1,.324,1.152,2.163,2.163,0,0,1-.906,1.816,3.8,3.8,0,0,1-2.352.684,4.257,4.257,0,0,1-1.8-.359,2.922,2.922,0,0,1-1.223-1,2.42,2.42,0,0,1-.441-1.395h1.445a1.5,1.5,0,0,0,.582,1.152,2.258,2.258,0,0,0,1.434.426,2.331,2.331,0,0,0,1.316-.332A1.02,1.02,0,0,0,335.82,12.758Zm4.688-6.211.039.938a3.122,3.122,0,0,1,2.508-1.094,2.417,2.417,0,0,1,2.414,1.359,3.2,3.2,0,0,1,1.1-.984,3.242,3.242,0,0,1,1.6-.375q2.781,0,2.828,2.945V15h-1.445V9.422a1.941,1.941,0,0,0-.414-1.355,1.823,1.823,0,0,0-1.391-.449,1.916,1.916,0,0,0-1.336.48,1.949,1.949,0,0,0-.617,1.293V15h-1.453V9.461a1.613,1.613,0,0,0-1.8-1.844,1.934,1.934,0,0,0-1.945,1.211V15h-1.445V6.547ZM354.742,15H353.3V6.547h1.445ZM353.18,4.3a.863.863,0,0,1,.215-.594.807.807,0,0,1,.637-.242.819.819,0,0,1,.641.242.854.854,0,0,1,.219.594.826.826,0,0,1-.219.586.834.834,0,0,1-.641.234.821.821,0,0,1-.637-.234A.834.834,0,0,1,353.18,4.3Zm5.836.2V6.547h1.578V7.664h-1.578v5.249a1.173,1.173,0,0,0,.211.763.888.888,0,0,0,.719.254,3.5,3.5,0,0,0,.688-.094V15a4.215,4.215,0,0,1-1.109.155,1.8,1.8,0,0,1-1.461-.586,2.517,2.517,0,0,1-.492-1.664V7.664h-1.539V6.547h1.539V4.5ZM363.852,15h-1.445V6.547h1.445ZM362.289,4.3a.863.863,0,0,1,.215-.594.807.807,0,0,1,.637-.242.819.819,0,0,1,.641.242A.854.854,0,0,1,364,4.3a.826.826,0,0,1-.219.586.834.834,0,0,1-.641.234.821.821,0,0,1-.637-.234A.834.834,0,0,1,362.289,4.3Zm7.961,3.539a4.331,4.331,0,0,0-.711-.055A1.9,1.9,0,0,0,367.609,9v6h-1.445V6.547h1.406l.023.977a2.251,2.251,0,0,1,2.016-1.133,1.477,1.477,0,0,1,.641.109Zm.4,6.4a.905.905,0,0,1,.223-.625.848.848,0,0,1,.668-.25.874.874,0,0,1,.676.25.887.887,0,0,1,.23.625.839.839,0,0,1-.23.6.89.89,0,0,1-.676.242.8.8,0,0,1-.891-.844Z" transform="translate(-9718.544 -8566.887)" fill="#12263f"/>
    <path id="Trazado_721858" data-name="Trazado 721858" d="M16.426,10.547V15h-1.5V3.625h4.2a4.215,4.215,0,0,1,2.926.953A3.231,3.231,0,0,1,23.105,7.1,3.189,3.189,0,0,1,22.07,9.652a4.4,4.4,0,0,1-2.965.895Zm0-1.227h2.7a2.7,2.7,0,0,0,1.844-.567,2.075,2.075,0,0,0,.641-1.64,2.143,2.143,0,0,0-.641-1.628,2.525,2.525,0,0,0-1.758-.634H16.426ZM28.2,15.156a3.693,3.693,0,0,1-2.8-1.129,4.19,4.19,0,0,1-1.078-3.02v-.266A5.073,5.073,0,0,1,24.8,8.5a3.748,3.748,0,0,1,1.344-1.547,3.378,3.378,0,0,1,1.871-.559,3.166,3.166,0,0,1,2.563,1.086,4.7,4.7,0,0,1,.914,3.109v.6H25.77a3,3,0,0,0,.73,2.02,2.3,2.3,0,0,0,1.777.77,2.517,2.517,0,0,0,1.3-.312,3.259,3.259,0,0,0,.93-.828l.883.688A3.55,3.55,0,0,1,28.2,15.156Zm-.18-7.578a1.928,1.928,0,0,0-1.469.637A3.1,3.1,0,0,0,25.816,10h4.234V9.891a2.753,2.753,0,0,0-.594-1.707A1.815,1.815,0,0,0,28.02,7.578Zm9.234.266a4.331,4.331,0,0,0-.711-.055A1.9,1.9,0,0,0,34.613,9v6H33.168V6.547h1.406l.023.977a2.251,2.251,0,0,1,2.016-1.133,1.477,1.477,0,0,1,.641.109Zm6.25,4.914a1.064,1.064,0,0,0-.441-.91,4.249,4.249,0,0,0-1.539-.559,7.277,7.277,0,0,1-1.742-.562,2.479,2.479,0,0,1-.953-.781,1.869,1.869,0,0,1-.309-1.078A2.193,2.193,0,0,1,39.4,7.109a3.432,3.432,0,0,1,2.246-.719,3.532,3.532,0,0,1,2.332.742,2.357,2.357,0,0,1,.895,1.9H43.418a1.3,1.3,0,0,0-.5-1.023,1.888,1.888,0,0,0-1.27-.43,1.976,1.976,0,0,0-1.234.344,1.082,1.082,0,0,0-.445.9.877.877,0,0,0,.414.789,5.1,5.1,0,0,0,1.5.508,7.8,7.8,0,0,1,1.754.578,2.558,2.558,0,0,1,1,.809,1.988,1.988,0,0,1,.324,1.152,2.163,2.163,0,0,1-.906,1.816,3.8,3.8,0,0,1-2.352.684,4.257,4.257,0,0,1-1.8-.359,2.922,2.922,0,0,1-1.223-1A2.42,2.42,0,0,1,38.23,12.4h1.445a1.5,1.5,0,0,0,.582,1.152,2.258,2.258,0,0,0,1.434.426,2.331,2.331,0,0,0,1.316-.332A1.02,1.02,0,0,0,43.5,12.758ZM46.449,10.7a4.993,4.993,0,0,1,.488-2.234A3.643,3.643,0,0,1,48.3,6.93a3.7,3.7,0,0,1,1.988-.539,3.565,3.565,0,0,1,2.793,1.2,4.6,4.6,0,0,1,1.066,3.18v.1a5.036,5.036,0,0,1-.473,2.215,3.589,3.589,0,0,1-1.352,1.527,3.743,3.743,0,0,1-2.02.547,3.556,3.556,0,0,1-2.785-1.2A4.575,4.575,0,0,1,46.449,10.8Zm1.453.172a3.616,3.616,0,0,0,.652,2.258,2.211,2.211,0,0,0,3.5-.012A3.955,3.955,0,0,0,52.7,10.7a3.61,3.61,0,0,0-.66-2.254,2.1,2.1,0,0,0-1.754-.863,2.075,2.075,0,0,0-1.727.852A3.925,3.925,0,0,0,47.9,10.867Zm9.422-4.32.047,1.063A3.08,3.08,0,0,1,59.9,6.391q2.68,0,2.7,3.023V15H61.16V9.406a1.946,1.946,0,0,0-.418-1.352,1.675,1.675,0,0,0-1.277-.437,2.086,2.086,0,0,0-1.234.375,2.546,2.546,0,0,0-.828.984V15H55.957V6.547ZM70,15a3.036,3.036,0,0,1-.2-.891,3.225,3.225,0,0,1-2.406,1.047,2.984,2.984,0,0,1-2.051-.707,2.288,2.288,0,0,1-.8-1.793,2.39,2.39,0,0,1,1-2.051,4.733,4.733,0,0,1,2.824-.73h1.406V9.211A1.623,1.623,0,0,0,69.324,8a1.821,1.821,0,0,0-1.336-.449,2.108,2.108,0,0,0-1.3.391,1.151,1.151,0,0,0-.523.945H64.715a2,2,0,0,1,.449-1.223,3.066,3.066,0,0,1,1.219-.934,4.1,4.1,0,0,1,1.691-.344,3.342,3.342,0,0,1,2.289.73,2.635,2.635,0,0,1,.859,2.012v3.891a4.757,4.757,0,0,0,.3,1.852V15Zm-2.4-1.1a2.54,2.54,0,0,0,1.289-.352,2.127,2.127,0,0,0,.883-.914V10.9H68.645q-2.656,0-2.656,1.555a1.316,1.316,0,0,0,.453,1.063A1.742,1.742,0,0,0,67.605,13.9ZM6.84,34.7a4.961,4.961,0,0,1,.914-3.152,2.962,2.962,0,0,1,2.453-1.16A2.96,2.96,0,0,1,12.574,31.4l.063-.852h1.328v11.7H12.52V38.219a3.033,3.033,0,0,1-2.328.938A2.915,2.915,0,0,1,7.75,37.965a5.072,5.072,0,0,1-.91-3.16Zm1.445.164A3.761,3.761,0,0,0,8.9,37.148a1.951,1.951,0,0,0,1.652.828,2.164,2.164,0,0,0,1.969-1.141V32.7a2.171,2.171,0,0,0-1.953-1.117A1.965,1.965,0,0,0,8.9,32.41,4.094,4.094,0,0,0,8.285,34.867Zm13.219,3.3a3.07,3.07,0,0,1-2.477.992,2.628,2.628,0,0,1-2.059-.785,3.4,3.4,0,0,1-.715-2.324v-5.5H17.7v5.461q0,1.922,1.563,1.922a2.163,2.163,0,0,0,2.2-1.234V30.547H22.91V39H21.535Zm7.109.992a3.693,3.693,0,0,1-2.8-1.129,4.19,4.19,0,0,1-1.078-3.02v-.266a5.073,5.073,0,0,1,.48-2.246,3.748,3.748,0,0,1,1.344-1.547,3.378,3.378,0,0,1,1.871-.559A3.166,3.166,0,0,1,31,31.477a4.7,4.7,0,0,1,.914,3.109v.6H26.184a3,3,0,0,0,.73,2.02,2.3,2.3,0,0,0,1.777.77,2.517,2.517,0,0,0,1.3-.312,3.259,3.259,0,0,0,.93-.828l.883.688A3.55,3.55,0,0,1,28.613,39.156Zm-.18-7.578a1.928,1.928,0,0,0-1.469.637A3.1,3.1,0,0,0,26.23,34h4.234v-.109a2.753,2.753,0,0,0-.594-1.707A1.815,1.815,0,0,0,28.434,31.578Zm13.2.266a4.331,4.331,0,0,0-.711-.055A1.9,1.9,0,0,0,38.988,33v6H37.543V30.547h1.406l.023.977a2.251,2.251,0,0,1,2.016-1.133,1.477,1.477,0,0,1,.641.109Zm4.688,7.313a3.693,3.693,0,0,1-2.8-1.129,4.19,4.19,0,0,1-1.078-3.02v-.266a5.073,5.073,0,0,1,.48-2.246,3.748,3.748,0,0,1,1.344-1.547,3.378,3.378,0,0,1,1.871-.559A3.166,3.166,0,0,1,48.7,31.477a4.7,4.7,0,0,1,.914,3.109v.6H43.887a3,3,0,0,0,.73,2.02,2.3,2.3,0,0,0,1.777.77,2.517,2.517,0,0,0,1.3-.312,3.258,3.258,0,0,0,.93-.828l.883.688A3.55,3.55,0,0,1,46.316,39.156Zm-.18-7.578a1.928,1.928,0,0,0-1.469.637A3.1,3.1,0,0,0,43.934,34h4.234v-.109a2.753,2.753,0,0,0-.594-1.707A1.815,1.815,0,0,0,46.137,31.578Zm8.539,6.4a2.082,2.082,0,0,0,1.352-.469,1.649,1.649,0,0,0,.641-1.172h1.367a2.621,2.621,0,0,1-.5,1.383,3.293,3.293,0,0,1-1.23,1.047,3.55,3.55,0,0,1-1.629.391A3.482,3.482,0,0,1,51.93,38a4.59,4.59,0,0,1-1.02-3.152v-.242a5.089,5.089,0,0,1,.453-2.2,3.451,3.451,0,0,1,1.3-1.492,3.7,3.7,0,0,1,2-.531,3.39,3.39,0,0,1,2.363.852,3.043,3.043,0,0,1,1,2.211H56.668a1.992,1.992,0,0,0-.621-1.348,1.932,1.932,0,0,0-1.379-.527,2.023,2.023,0,0,0-1.707.793,3.724,3.724,0,0,0-.605,2.293v.273a3.65,3.65,0,0,0,.6,2.25A2.033,2.033,0,0,0,54.676,37.977ZM61.23,39H59.785V30.547H61.23ZM59.668,28.3a.863.863,0,0,1,.215-.594.807.807,0,0,1,.637-.242.819.819,0,0,1,.641.242.854.854,0,0,1,.219.594.826.826,0,0,1-.219.586.834.834,0,0,1-.641.234.821.821,0,0,1-.637-.234A.834.834,0,0,1,59.668,28.3ZM70.7,34.867a5.026,5.026,0,0,1-.891,3.113,2.846,2.846,0,0,1-2.391,1.176,2.947,2.947,0,0,1-2.477-1.133l-.07.977H63.543V27h1.445v4.477A2.93,2.93,0,0,1,67.4,30.391a2.863,2.863,0,0,1,2.418,1.164,5.177,5.177,0,0,1,.879,3.188ZM69.254,34.7a3.906,3.906,0,0,0-.57-2.281,1.888,1.888,0,0,0-1.641-.8,2.122,2.122,0,0,0-2.055,1.328V36.6a2.181,2.181,0,0,0,2.07,1.328,1.878,1.878,0,0,0,1.617-.8A4.153,4.153,0,0,0,69.254,34.7Zm6.773,4.453a3.693,3.693,0,0,1-2.8-1.129,4.19,4.19,0,0,1-1.078-3.02v-.266a5.073,5.073,0,0,1,.48-2.246,3.748,3.748,0,0,1,1.344-1.547,3.378,3.378,0,0,1,1.871-.559,3.166,3.166,0,0,1,2.563,1.086,4.7,4.7,0,0,1,.914,3.109v.6H73.6a3,3,0,0,0,.73,2.02,2.3,2.3,0,0,0,1.777.77,2.517,2.517,0,0,0,1.3-.312,3.259,3.259,0,0,0,.93-.828l.883.688A3.55,3.55,0,0,1,76.027,39.156Zm-.18-7.578a1.928,1.928,0,0,0-1.469.637A3.1,3.1,0,0,0,73.645,34h4.234v-.109a2.753,2.753,0,0,0-.594-1.707A1.815,1.815,0,0,0,75.848,31.578ZM9.152,63.156a3.693,3.693,0,0,1-2.8-1.129,4.19,4.19,0,0,1-1.078-3.02v-.266a5.073,5.073,0,0,1,.48-2.246A3.748,3.748,0,0,1,7.1,54.949a3.378,3.378,0,0,1,1.871-.559,3.166,3.166,0,0,1,2.563,1.086,4.7,4.7,0,0,1,.914,3.109v.6H6.723a3,3,0,0,0,.73,2.02,2.3,2.3,0,0,0,1.777.77,2.517,2.517,0,0,0,1.3-.312,3.258,3.258,0,0,0,.93-.828l.883.688A3.55,3.55,0,0,1,9.152,63.156Zm-.18-7.578a1.928,1.928,0,0,0-1.469.637A3.1,3.1,0,0,0,6.77,58H11v-.109a2.753,2.753,0,0,0-.594-1.707A1.815,1.815,0,0,0,8.973,55.578ZM15.691,63H14.246V51h1.445Zm7.633-8.453.039.938a3.122,3.122,0,0,1,2.508-1.094,2.417,2.417,0,0,1,2.414,1.359,3.2,3.2,0,0,1,1.1-.984,3.242,3.242,0,0,1,1.6-.375q2.781,0,2.828,2.945V63H32.363V57.422a1.941,1.941,0,0,0-.414-1.355,1.823,1.823,0,0,0-1.391-.449,1.916,1.916,0,0,0-1.336.48,1.949,1.949,0,0,0-.617,1.293V63H27.152V57.461a1.613,1.613,0,0,0-1.8-1.844A1.934,1.934,0,0,0,23.4,56.828V63H21.957V54.547ZM39.5,63.156a3.693,3.693,0,0,1-2.8-1.129,4.19,4.19,0,0,1-1.078-3.02v-.266A5.073,5.073,0,0,1,36.1,56.5a3.748,3.748,0,0,1,1.344-1.547,3.378,3.378,0,0,1,1.871-.559,3.166,3.166,0,0,1,2.563,1.086,4.7,4.7,0,0,1,.914,3.109v.6H37.066a3,3,0,0,0,.73,2.02,2.3,2.3,0,0,0,1.777.77,2.517,2.517,0,0,0,1.3-.312,3.258,3.258,0,0,0,.93-.828l.883.688A3.55,3.55,0,0,1,39.5,63.156Zm-.18-7.578a1.928,1.928,0,0,0-1.469.637A3.1,3.1,0,0,0,37.113,58h4.234v-.109a2.753,2.753,0,0,0-.594-1.707A1.815,1.815,0,0,0,39.316,55.578Zm6.516-1.031.047,1.063a3.08,3.08,0,0,1,2.531-1.219q2.68,0,2.7,3.023V63H49.668V57.406a1.946,1.946,0,0,0-.418-1.352,1.675,1.675,0,0,0-1.277-.437,2.086,2.086,0,0,0-1.234.375,2.546,2.546,0,0,0-.828.984V63H44.465V54.547Zm12.383,6.211a1.064,1.064,0,0,0-.441-.91,4.249,4.249,0,0,0-1.539-.559,7.277,7.277,0,0,1-1.742-.562,2.479,2.479,0,0,1-.953-.781,1.869,1.869,0,0,1-.309-1.078,2.193,2.193,0,0,1,.879-1.758,3.432,3.432,0,0,1,2.246-.719,3.532,3.532,0,0,1,2.332.742,2.357,2.357,0,0,1,.895,1.9H58.129a1.3,1.3,0,0,0-.5-1.023,1.888,1.888,0,0,0-1.27-.43,1.976,1.976,0,0,0-1.234.344,1.082,1.082,0,0,0-.445.9.877.877,0,0,0,.414.789,5.1,5.1,0,0,0,1.5.508,7.8,7.8,0,0,1,1.754.578,2.558,2.558,0,0,1,1,.809,1.988,1.988,0,0,1,.324,1.152,2.163,2.163,0,0,1-.906,1.816,3.8,3.8,0,0,1-2.352.684,4.257,4.257,0,0,1-1.8-.359,2.922,2.922,0,0,1-1.223-1,2.42,2.42,0,0,1-.441-1.395h1.445a1.5,1.5,0,0,0,.582,1.152,2.258,2.258,0,0,0,1.434.426,2.331,2.331,0,0,0,1.316-.332A1.02,1.02,0,0,0,58.215,60.758ZM66.762,63a3.036,3.036,0,0,1-.2-.891,3.225,3.225,0,0,1-2.406,1.047,2.984,2.984,0,0,1-2.051-.707,2.287,2.287,0,0,1-.8-1.793,2.39,2.39,0,0,1,1-2.051,4.733,4.733,0,0,1,2.824-.73h1.406v-.664A1.623,1.623,0,0,0,66.082,56a1.821,1.821,0,0,0-1.336-.449,2.107,2.107,0,0,0-1.3.391,1.151,1.151,0,0,0-.523.945H61.473a2,2,0,0,1,.449-1.223,3.066,3.066,0,0,1,1.219-.934,4.1,4.1,0,0,1,1.691-.344,3.342,3.342,0,0,1,2.289.73,2.635,2.635,0,0,1,.859,2.012v3.891a4.757,4.757,0,0,0,.3,1.852V63Zm-2.4-1.1a2.54,2.54,0,0,0,1.289-.352,2.127,2.127,0,0,0,.883-.914V58.9H65.4q-2.656,0-2.656,1.555a1.316,1.316,0,0,0,.453,1.063A1.742,1.742,0,0,0,64.363,61.9Zm7.375-7.352v9.43q0,2.438-2.211,2.438a2.7,2.7,0,0,1-.883-.14V65.125a2.794,2.794,0,0,0,.656.063.982.982,0,0,0,.738-.262,1.3,1.3,0,0,0,.254-.911V54.547ZM70.145,52.3a.867.867,0,0,1,.215-.59.79.79,0,0,1,.629-.246.819.819,0,0,1,.641.242.854.854,0,0,1,.219.594.826.826,0,0,1-.219.586.834.834,0,0,1-.641.234.808.808,0,0,1-.633-.234A.843.843,0,0,1,70.145,52.3Zm7.43,10.852a3.693,3.693,0,0,1-2.8-1.129,4.19,4.19,0,0,1-1.078-3.02v-.266a5.073,5.073,0,0,1,.48-2.246,3.748,3.748,0,0,1,1.344-1.547,3.378,3.378,0,0,1,1.871-.559,3.166,3.166,0,0,1,2.563,1.086,4.7,4.7,0,0,1,.914,3.109v.6H75.145a3,3,0,0,0,.73,2.02,2.3,2.3,0,0,0,1.777.77,2.517,2.517,0,0,0,1.3-.312,3.259,3.259,0,0,0,.93-.828l.883.688A3.55,3.55,0,0,1,77.574,63.156Zm-.18-7.578a1.928,1.928,0,0,0-1.469.637A3.1,3.1,0,0,0,75.191,58h4.234v-.109a2.753,2.753,0,0,0-.594-1.707A1.815,1.815,0,0,0,77.395,55.578Z" transform="translate(-9387.5 -8318.678)" fill="#12263f"/>
    <path id="Trazado_721859" data-name="Trazado 721859" d="M4.75,10.547V15H3.25V3.625h4.2a4.215,4.215,0,0,1,2.926.953A3.231,3.231,0,0,1,11.43,7.1a3.189,3.189,0,0,1-1.035,2.551,4.4,4.4,0,0,1-2.965.895Zm0-1.227h2.7a2.7,2.7,0,0,0,1.844-.567,2.075,2.075,0,0,0,.641-1.64,2.143,2.143,0,0,0-.641-1.628,2.525,2.525,0,0,0-1.758-.634H4.75Zm11.773,5.836a3.693,3.693,0,0,1-2.8-1.129,4.19,4.19,0,0,1-1.078-3.02v-.266a5.073,5.073,0,0,1,.48-2.246,3.748,3.748,0,0,1,1.344-1.547,3.378,3.378,0,0,1,1.871-.559,3.166,3.166,0,0,1,2.563,1.086,4.7,4.7,0,0,1,.914,3.109v.6H14.094a3,3,0,0,0,.73,2.02,2.3,2.3,0,0,0,1.777.77,2.517,2.517,0,0,0,1.3-.312,3.259,3.259,0,0,0,.93-.828l.883.688A3.55,3.55,0,0,1,16.523,15.156Zm-.18-7.578a1.928,1.928,0,0,0-1.469.637A3.1,3.1,0,0,0,14.141,10h4.234V9.891a2.753,2.753,0,0,0-.594-1.707A1.815,1.815,0,0,0,16.344,7.578Zm9.234.266a4.331,4.331,0,0,0-.711-.055A1.9,1.9,0,0,0,22.938,9v6H21.492V6.547H22.9l.023.977a2.251,2.251,0,0,1,2.016-1.133,1.477,1.477,0,0,1,.641.109Zm6.25,4.914a1.064,1.064,0,0,0-.441-.91,4.249,4.249,0,0,0-1.539-.559,7.277,7.277,0,0,1-1.742-.562,2.479,2.479,0,0,1-.953-.781,1.869,1.869,0,0,1-.309-1.078,2.193,2.193,0,0,1,.879-1.758,3.432,3.432,0,0,1,2.246-.719,3.532,3.532,0,0,1,2.332.742,2.357,2.357,0,0,1,.895,1.9H31.742a1.3,1.3,0,0,0-.5-1.023,1.888,1.888,0,0,0-1.27-.43,1.976,1.976,0,0,0-1.234.344,1.082,1.082,0,0,0-.445.9.877.877,0,0,0,.414.789,5.1,5.1,0,0,0,1.5.508,7.8,7.8,0,0,1,1.754.578,2.558,2.558,0,0,1,1,.809,1.988,1.988,0,0,1,.324,1.152,2.163,2.163,0,0,1-.906,1.816,3.8,3.8,0,0,1-2.352.684,4.257,4.257,0,0,1-1.8-.359,2.922,2.922,0,0,1-1.223-1,2.42,2.42,0,0,1-.441-1.395H28a1.5,1.5,0,0,0,.582,1.152,2.258,2.258,0,0,0,1.434.426,2.331,2.331,0,0,0,1.316-.332A1.02,1.02,0,0,0,31.828,12.758ZM34.773,10.7a4.993,4.993,0,0,1,.488-2.234A3.643,3.643,0,0,1,36.621,6.93a3.7,3.7,0,0,1,1.988-.539,3.565,3.565,0,0,1,2.793,1.2,4.6,4.6,0,0,1,1.066,3.18v.1A5.036,5.036,0,0,1,42,13.082a3.589,3.589,0,0,1-1.352,1.527,3.743,3.743,0,0,1-2.02.547,3.556,3.556,0,0,1-2.785-1.2A4.575,4.575,0,0,1,34.773,10.8Zm1.453.172a3.616,3.616,0,0,0,.652,2.258,2.211,2.211,0,0,0,3.5-.012,3.955,3.955,0,0,0,.648-2.418,3.61,3.61,0,0,0-.66-2.254,2.1,2.1,0,0,0-1.754-.863,2.075,2.075,0,0,0-1.727.852A3.925,3.925,0,0,0,36.227,10.867Zm9.422-4.32L45.7,7.609a3.08,3.08,0,0,1,2.531-1.219q2.68,0,2.7,3.023V15H49.484V9.406a1.946,1.946,0,0,0-.418-1.352,1.675,1.675,0,0,0-1.277-.437,2.086,2.086,0,0,0-1.234.375,2.546,2.546,0,0,0-.828.984V15H44.281V6.547ZM58.328,15a3.036,3.036,0,0,1-.2-.891,3.225,3.225,0,0,1-2.406,1.047,2.984,2.984,0,0,1-2.051-.707,2.287,2.287,0,0,1-.8-1.793,2.39,2.39,0,0,1,1-2.051,4.733,4.733,0,0,1,2.824-.73H58.1V9.211A1.623,1.623,0,0,0,57.648,8a1.821,1.821,0,0,0-1.336-.449,2.107,2.107,0,0,0-1.3.391,1.151,1.151,0,0,0-.523.945H53.039a2,2,0,0,1,.449-1.223,3.066,3.066,0,0,1,1.219-.934A4.1,4.1,0,0,1,56.4,6.391a3.342,3.342,0,0,1,2.289.73,2.635,2.635,0,0,1,.859,2.012v3.891a4.757,4.757,0,0,0,.3,1.852V15Zm-2.4-1.1a2.54,2.54,0,0,0,1.289-.352,2.127,2.127,0,0,0,.883-.914V10.9H56.969q-2.656,0-2.656,1.555a1.316,1.316,0,0,0,.453,1.063A1.742,1.742,0,0,0,55.93,13.9Zm9.492-3.2a4.961,4.961,0,0,1,.914-3.152,3.226,3.226,0,0,1,4.82-.152l.063-.852h1.328v11.7H71.1V14.219a3.033,3.033,0,0,1-2.328.938,2.915,2.915,0,0,1-2.441-1.191,5.072,5.072,0,0,1-.91-3.16Zm1.445.164a3.761,3.761,0,0,0,.613,2.281,1.951,1.951,0,0,0,1.652.828A2.164,2.164,0,0,0,71.1,12.836V8.7a2.171,2.171,0,0,0-1.953-1.117,1.965,1.965,0,0,0-1.664.832A4.094,4.094,0,0,0,66.867,10.867Zm13.219,3.3a3.07,3.07,0,0,1-2.477.992,2.628,2.628,0,0,1-2.059-.785,3.4,3.4,0,0,1-.715-2.324v-5.5h1.445v5.461q0,1.922,1.563,1.922a2.163,2.163,0,0,0,2.2-1.234V6.547h1.445V15H80.117Zm7.109.992a3.693,3.693,0,0,1-2.8-1.129,4.19,4.19,0,0,1-1.078-3.02v-.266A5.073,5.073,0,0,1,83.8,8.5a3.748,3.748,0,0,1,1.344-1.547,3.378,3.378,0,0,1,1.871-.559,3.166,3.166,0,0,1,2.563,1.086,4.7,4.7,0,0,1,.914,3.109v.6H84.766a3,3,0,0,0,.73,2.02,2.3,2.3,0,0,0,1.777.77,2.517,2.517,0,0,0,1.3-.312,3.259,3.259,0,0,0,.93-.828l.883.688A3.55,3.55,0,0,1,87.2,15.156Zm-.18-7.578a1.928,1.928,0,0,0-1.469.637A3.1,3.1,0,0,0,84.813,10h4.234V9.891a2.753,2.753,0,0,0-.594-1.707A1.815,1.815,0,0,0,87.016,7.578ZM7.535,28.5v2.047H9.113v1.117H7.535v5.249a1.173,1.173,0,0,0,.211.763.888.888,0,0,0,.719.254,3.5,3.5,0,0,0,.688-.094V39a4.215,4.215,0,0,1-1.109.155,1.8,1.8,0,0,1-1.461-.586,2.517,2.517,0,0,1-.492-1.664V31.664H4.551V30.547H6.09V28.5Zm7.352,3.344a4.331,4.331,0,0,0-.711-.055A1.9,1.9,0,0,0,12.246,33v6H10.8V30.547h1.406l.023.977a2.251,2.251,0,0,1,2.016-1.133,1.477,1.477,0,0,1,.641.109ZM21.121,39a3.036,3.036,0,0,1-.2-.891,3.225,3.225,0,0,1-2.406,1.047,2.984,2.984,0,0,1-2.051-.707,2.287,2.287,0,0,1-.8-1.793,2.39,2.39,0,0,1,1-2.051,4.733,4.733,0,0,1,2.824-.73h1.406v-.664A1.623,1.623,0,0,0,20.441,32a1.821,1.821,0,0,0-1.336-.449,2.108,2.108,0,0,0-1.3.391,1.151,1.151,0,0,0-.523.945H15.832a2,2,0,0,1,.449-1.223,3.066,3.066,0,0,1,1.219-.934,4.1,4.1,0,0,1,1.691-.344,3.342,3.342,0,0,1,2.289.73,2.635,2.635,0,0,1,.859,2.012v3.891a4.757,4.757,0,0,0,.3,1.852V39Zm-2.4-1.1a2.54,2.54,0,0,0,1.289-.352,2.127,2.127,0,0,0,.883-.914V34.9H19.762q-2.656,0-2.656,1.555a1.316,1.316,0,0,0,.453,1.063A1.742,1.742,0,0,0,18.723,37.9Zm7.25-7.352.047,1.063a3.08,3.08,0,0,1,2.531-1.219q2.68,0,2.7,3.023V39H29.809V33.406a1.946,1.946,0,0,0-.418-1.352,1.675,1.675,0,0,0-1.277-.437,2.086,2.086,0,0,0-1.234.375,2.546,2.546,0,0,0-.828.984V39H24.605V30.547Zm12.383,6.211a1.064,1.064,0,0,0-.441-.91,4.249,4.249,0,0,0-1.539-.559,7.277,7.277,0,0,1-1.742-.562,2.479,2.479,0,0,1-.953-.781,1.869,1.869,0,0,1-.309-1.078,2.193,2.193,0,0,1,.879-1.758,3.432,3.432,0,0,1,2.246-.719,3.532,3.532,0,0,1,2.332.742,2.357,2.357,0,0,1,.895,1.9H38.27a1.3,1.3,0,0,0-.5-1.023,1.888,1.888,0,0,0-1.27-.43,1.976,1.976,0,0,0-1.234.344,1.082,1.082,0,0,0-.445.9.877.877,0,0,0,.414.789,5.1,5.1,0,0,0,1.5.508,7.8,7.8,0,0,1,1.754.578,2.558,2.558,0,0,1,1,.809,1.988,1.988,0,0,1,.324,1.152,2.163,2.163,0,0,1-.906,1.816,3.8,3.8,0,0,1-2.352.684,4.257,4.257,0,0,1-1.8-.359,2.922,2.922,0,0,1-1.223-1,2.42,2.42,0,0,1-.441-1.395h1.445a1.5,1.5,0,0,0,.582,1.152,2.258,2.258,0,0,0,1.434.426,2.331,2.331,0,0,0,1.316-.332A1.02,1.02,0,0,0,38.355,36.758Zm4.688-6.211.039.938a3.122,3.122,0,0,1,2.508-1.094A2.417,2.417,0,0,1,48,31.75a3.2,3.2,0,0,1,1.1-.984,3.242,3.242,0,0,1,1.6-.375q2.781,0,2.828,2.945V39H52.082V33.422a1.941,1.941,0,0,0-.414-1.355,1.823,1.823,0,0,0-1.391-.449,1.916,1.916,0,0,0-1.336.48,1.949,1.949,0,0,0-.617,1.293V39H46.871V33.461a1.613,1.613,0,0,0-1.8-1.844,1.934,1.934,0,0,0-1.945,1.211V39H41.676V30.547ZM57.277,39H55.832V30.547h1.445ZM55.715,28.3a.863.863,0,0,1,.215-.594.807.807,0,0,1,.637-.242.819.819,0,0,1,.641.242.854.854,0,0,1,.219.594.826.826,0,0,1-.219.586.834.834,0,0,1-.641.234.821.821,0,0,1-.637-.234A.834.834,0,0,1,55.715,28.3Zm5.836.2v2.047h1.578v1.117H61.551v5.249a1.173,1.173,0,0,0,.211.763.888.888,0,0,0,.719.254,3.5,3.5,0,0,0,.688-.094V39a4.215,4.215,0,0,1-1.109.155A1.8,1.8,0,0,1,60.6,38.57a2.517,2.517,0,0,1-.492-1.664V31.664H58.566V30.547h1.539V28.5Zm6.773,10.656a3.693,3.693,0,0,1-2.8-1.129,4.19,4.19,0,0,1-1.078-3.02v-.266a5.073,5.073,0,0,1,.48-2.246,3.748,3.748,0,0,1,1.344-1.547,3.378,3.378,0,0,1,1.871-.559,3.166,3.166,0,0,1,2.563,1.086,4.7,4.7,0,0,1,.914,3.109v.6H65.895a3,3,0,0,0,.73,2.02,2.3,2.3,0,0,0,1.777.77,2.517,2.517,0,0,0,1.3-.312,3.259,3.259,0,0,0,.93-.828l.883.688A3.55,3.55,0,0,1,68.324,39.156Zm-.18-7.578a1.928,1.928,0,0,0-1.469.637A3.1,3.1,0,0,0,65.941,34h4.234v-.109a2.753,2.753,0,0,0-.594-1.707A1.815,1.815,0,0,0,68.145,31.578Zm12.617,7.578a3.693,3.693,0,0,1-2.8-1.129,4.19,4.19,0,0,1-1.078-3.02v-.266a5.073,5.073,0,0,1,.48-2.246,3.748,3.748,0,0,1,1.344-1.547,3.378,3.378,0,0,1,1.871-.559,3.166,3.166,0,0,1,2.563,1.086,4.7,4.7,0,0,1,.914,3.109v.6H78.332a3,3,0,0,0,.73,2.02,2.3,2.3,0,0,0,1.777.77,2.517,2.517,0,0,0,1.3-.312,3.259,3.259,0,0,0,.93-.828l.883.688A3.55,3.55,0,0,1,80.762,39.156Zm-.18-7.578a1.928,1.928,0,0,0-1.469.637A3.1,3.1,0,0,0,78.379,34h4.234v-.109a2.753,2.753,0,0,0-.594-1.707A1.815,1.815,0,0,0,80.582,31.578ZM87.3,39H85.855V27H87.3ZM18.664,54.547l.039.938a3.122,3.122,0,0,1,2.508-1.094,2.417,2.417,0,0,1,2.414,1.359,3.2,3.2,0,0,1,1.1-.984,3.242,3.242,0,0,1,1.6-.375q2.781,0,2.828,2.945V63H27.7V57.422a1.941,1.941,0,0,0-.414-1.355,1.823,1.823,0,0,0-1.391-.449,1.916,1.916,0,0,0-1.336.48,1.949,1.949,0,0,0-.617,1.293V63H22.492V57.461a1.613,1.613,0,0,0-1.8-1.844,1.934,1.934,0,0,0-1.945,1.211V63H17.3V54.547Zm16.172,8.609a3.693,3.693,0,0,1-2.8-1.129,4.19,4.19,0,0,1-1.078-3.02v-.266a5.073,5.073,0,0,1,.48-2.246,3.748,3.748,0,0,1,1.344-1.547,3.378,3.378,0,0,1,1.871-.559,3.166,3.166,0,0,1,2.563,1.086,4.7,4.7,0,0,1,.914,3.109v.6H32.406a3,3,0,0,0,.73,2.02,2.3,2.3,0,0,0,1.777.77,2.517,2.517,0,0,0,1.3-.312,3.258,3.258,0,0,0,.93-.828l.883.688A3.55,3.55,0,0,1,34.836,63.156Zm-.18-7.578a1.928,1.928,0,0,0-1.469.637A3.1,3.1,0,0,0,32.453,58h4.234v-.109a2.753,2.753,0,0,0-.594-1.707A1.815,1.815,0,0,0,34.656,55.578Zm6.516-1.031.047,1.063a3.08,3.08,0,0,1,2.531-1.219q2.68,0,2.7,3.023V63H45.008V57.406a1.946,1.946,0,0,0-.418-1.352,1.675,1.675,0,0,0-1.277-.437,2.086,2.086,0,0,0-1.234.375,2.546,2.546,0,0,0-.828.984V63H39.8V54.547Zm12.383,6.211a1.064,1.064,0,0,0-.441-.91,4.249,4.249,0,0,0-1.539-.559,7.277,7.277,0,0,1-1.742-.562,2.479,2.479,0,0,1-.953-.781,1.869,1.869,0,0,1-.309-1.078,2.193,2.193,0,0,1,.879-1.758,3.432,3.432,0,0,1,2.246-.719,3.532,3.532,0,0,1,2.332.742,2.357,2.357,0,0,1,.895,1.9H53.469a1.3,1.3,0,0,0-.5-1.023,1.888,1.888,0,0,0-1.27-.43,1.976,1.976,0,0,0-1.234.344,1.082,1.082,0,0,0-.445.9.877.877,0,0,0,.414.789,5.1,5.1,0,0,0,1.5.508,7.8,7.8,0,0,1,1.754.578,2.558,2.558,0,0,1,1,.809A1.988,1.988,0,0,1,55,60.656a2.163,2.163,0,0,1-.906,1.816,3.8,3.8,0,0,1-2.352.684,4.257,4.257,0,0,1-1.8-.359,2.922,2.922,0,0,1-1.223-1,2.42,2.42,0,0,1-.441-1.395h1.445a1.5,1.5,0,0,0,.582,1.152,2.258,2.258,0,0,0,1.434.426,2.331,2.331,0,0,0,1.316-.332A1.02,1.02,0,0,0,53.555,60.758ZM62.1,63a3.036,3.036,0,0,1-.2-.891,3.225,3.225,0,0,1-2.406,1.047,2.984,2.984,0,0,1-2.051-.707,2.287,2.287,0,0,1-.8-1.793,2.39,2.39,0,0,1,1-2.051,4.733,4.733,0,0,1,2.824-.73h1.406v-.664A1.623,1.623,0,0,0,61.422,56a1.821,1.821,0,0,0-1.336-.449,2.107,2.107,0,0,0-1.3.391,1.151,1.151,0,0,0-.523.945H56.813a2,2,0,0,1,.449-1.223,3.066,3.066,0,0,1,1.219-.934,4.1,4.1,0,0,1,1.691-.344,3.342,3.342,0,0,1,2.289.73,2.635,2.635,0,0,1,.859,2.012v3.891a4.757,4.757,0,0,0,.3,1.852V63Zm-2.4-1.1a2.54,2.54,0,0,0,1.289-.352,2.127,2.127,0,0,0,.883-.914V58.9H60.742q-2.656,0-2.656,1.555a1.316,1.316,0,0,0,.453,1.063A1.742,1.742,0,0,0,59.7,61.9Zm7.375-7.352v9.43q0,2.438-2.211,2.438a2.7,2.7,0,0,1-.883-.14V65.125a2.794,2.794,0,0,0,.656.063.982.982,0,0,0,.738-.262,1.3,1.3,0,0,0,.254-.911V54.547ZM65.484,52.3a.867.867,0,0,1,.215-.59.79.79,0,0,1,.629-.246.819.819,0,0,1,.641.242.854.854,0,0,1,.219.594.826.826,0,0,1-.219.586.834.834,0,0,1-.641.234.808.808,0,0,1-.633-.234A.843.843,0,0,1,65.484,52.3Zm7.43,10.852a3.693,3.693,0,0,1-2.8-1.129,4.19,4.19,0,0,1-1.078-3.02v-.266a5.073,5.073,0,0,1,.48-2.246,3.748,3.748,0,0,1,1.344-1.547,3.378,3.378,0,0,1,1.871-.559A3.166,3.166,0,0,1,75.3,55.477a4.7,4.7,0,0,1,.914,3.109v.6H70.484a3,3,0,0,0,.73,2.02,2.3,2.3,0,0,0,1.777.77,2.517,2.517,0,0,0,1.3-.312,3.259,3.259,0,0,0,.93-.828l.883.688A3.55,3.55,0,0,1,72.914,63.156Zm-.18-7.578a1.928,1.928,0,0,0-1.469.637A3.1,3.1,0,0,0,70.531,58h4.234v-.109a2.753,2.753,0,0,0-.594-1.707A1.815,1.815,0,0,0,72.734,55.578Z" transform="translate(-9753.593 -8319.177)" fill="#12263f"/>
    <path id="Trazado_718654" data-name="Trazado 718654" d="M38.738,0,30.833,7.907l9.86,9.86H0V28.948H40.693l-9.86,9.86,7.906,7.906L62.1,23.357Z" transform="translate(-9506.471 -8513.546) rotate(90)" fill="#9f0f6a"/>
    <path id="Trazado_718652" data-name="Trazado 718652" d="M28.457,0,22.65,5.808l7.243,7.243H0v8.214H29.893L22.65,28.509l5.807,5.808L45.615,17.158Z" transform="translate(-9327.42 -8386.647) rotate(90)" fill="#9f0f6a"/>
    <path id="Trazado_718658" data-name="Trazado 718658" d="M28.457,0,22.65,5.808l7.243,7.243H0v8.214H29.893L22.65,28.509l5.807,5.808L45.615,17.158Z" transform="translate(-9693.513 -8386.647) rotate(90)" fill="#9f0f6a"/>
    <path id="Trazado_718653" data-name="Trazado 718653" d="M9.741,2.279,127.146,0c5.049-.1,9.063,5.427,8.965,12.34l-.42,29.647c-.1,6.913-4.27,12.6-9.32,12.695L8.967,56.961C3.917,57.059-.1,51.534,0,44.621l.42-29.647C.52,8.061,4.692,2.377,9.741,2.279Z" transform="translate(-9416.235 -8454.056) rotate(-3)" fill="#7c119b" opacity="0.56"/>
    <path id="Trazado_718659" data-name="Trazado 718659" d="M9.741,2.279,127.146,0c5.049-.1,9.063,5.427,8.965,12.34l-.42,29.647c-.1,6.913-4.27,12.6-9.32,12.695L8.967,56.961C3.917,57.059-.1,51.534,0,44.621l.42-29.647C.52,8.061,4.692,2.377,9.741,2.279Z" transform="translate(-9782.328 -8454.056) rotate(-3)" fill="#7c119b" opacity="0.56"/>
    <path id="Trazado_721860" data-name="Trazado 721860" d="M19,0h86.3a19,19,0,0,1,19,19V33.085a19,19,0,0,1-19,19H19a19,19,0,0,1-19-19V19A19,19,0,0,1,19,0Z" transform="translate(-9408.93 -8455.218)" fill="#7c119b"/>
    <path id="Trazado_721861" data-name="Trazado 721861" d="M19,0h86.3a19,19,0,0,1,19,19V33.085a19,19,0,0,1-19,19H19a19,19,0,0,1-19-19V19A19,19,0,0,1,19,0Z" transform="translate(-9775.022 -8455.218)" fill="#7c119b"/>
    <path id="Trazado_721862" data-name="Trazado 721862" d="M6.04-4.778H4.277V0H1.021V-13.508H6.336a5.933,5.933,0,0,1,3.757,1.066A3.611,3.611,0,0,1,11.448-9.43a4.386,4.386,0,0,1-.571,2.335,4.05,4.05,0,0,1-1.786,1.5l2.82,5.454V0H8.424Zm-1.763-2.5h2.06a1.849,1.849,0,0,0,1.4-.488A1.888,1.888,0,0,0,8.2-9.134a1.91,1.91,0,0,0-.473-1.372A1.831,1.831,0,0,0,6.336-11H4.277ZM18.128.186a5.16,5.16,0,0,1-3.739-1.378A4.757,4.757,0,0,1,12.96-4.778v-.26a6.165,6.165,0,0,1,.571-2.718A4.175,4.175,0,0,1,15.2-9.579a5.027,5.027,0,0,1,2.6-.645,4.345,4.345,0,0,1,3.34,1.313,5.159,5.159,0,0,1,1.225,3.66v1.215H16.143a2.253,2.253,0,0,0,.733,1.327,2.181,2.181,0,0,0,1.466.482,2.81,2.81,0,0,0,2.319-1.039l1.429,1.688A3.994,3.994,0,0,1,20.433-.292,5.6,5.6,0,0,1,18.128.186Zm-.353-8q-1.373,0-1.633,1.818H19.3v-.241a1.549,1.549,0,0,0-.38-1.164A1.514,1.514,0,0,0,17.775-7.812ZM27.86-2.227a1.391,1.391,0,0,0,1.021-.357,1.31,1.31,0,0,0,.353-1h2.932A3.47,3.47,0,0,1,30.982-.872,4.4,4.4,0,0,1,27.934.186a4.455,4.455,0,0,1-3.451-1.373,5.41,5.41,0,0,1-1.262-3.8v-.13a6.114,6.114,0,0,1,.561-2.686A4.087,4.087,0,0,1,25.4-9.6a4.827,4.827,0,0,1,2.5-.626,4.344,4.344,0,0,1,3.108,1.085A3.85,3.85,0,0,1,32.165-6.2H29.233a1.716,1.716,0,0,0-.38-1.2,1.313,1.313,0,0,0-1.021-.417q-1.215,0-1.419,1.549a10.932,10.932,0,0,0-.065,1.354,4.294,4.294,0,0,0,.362,2.1A1.253,1.253,0,0,0,27.86-2.227ZM38.343.186A5.16,5.16,0,0,1,34.6-1.192a4.757,4.757,0,0,1-1.429-3.586v-.26a6.165,6.165,0,0,1,.571-2.718,4.175,4.175,0,0,1,1.665-1.823,5.027,5.027,0,0,1,2.6-.645,4.345,4.345,0,0,1,3.34,1.313,5.159,5.159,0,0,1,1.225,3.66v1.215H36.358a2.253,2.253,0,0,0,.733,1.327,2.181,2.181,0,0,0,1.466.482,2.81,2.81,0,0,0,2.319-1.039L42.3-1.577A3.994,3.994,0,0,1,40.649-.292,5.6,5.6,0,0,1,38.343.186Zm-.353-8q-1.373,0-1.633,1.818h3.154v-.241a1.549,1.549,0,0,0-.38-1.164A1.514,1.514,0,0,0,37.991-7.812ZM53.15-4.945A6.053,6.053,0,0,1,52.1-1.211a3.376,3.376,0,0,1-2.844,1.4A2.894,2.894,0,0,1,46.98-.826V3.859H43.854v-13.9h2.922l.093.928a2.894,2.894,0,0,1,2.366-1.113A3.4,3.4,0,0,1,52.12-8.855a6.128,6.128,0,0,1,1.03,3.762ZM50.023-5.14q0-2.672-1.559-2.672a1.471,1.471,0,0,0-1.484.8v3.952a1.519,1.519,0,0,0,1.5.835q1.494,0,1.54-2.579Zm8.146-7.394v2.5H59.82v2.171H58.169v4.592a1.173,1.173,0,0,0,.2.789,1.1,1.1,0,0,0,.807.223,4.586,4.586,0,0,0,.779-.056V-.083A5.77,5.77,0,0,1,58.2.186a3.275,3.275,0,0,1-2.384-.761,3.118,3.118,0,0,1-.77-2.31V-7.867h-1.28v-2.171h1.28v-2.5Zm2.208,7.422a5.925,5.925,0,0,1,.584-2.677,4.18,4.18,0,0,1,1.679-1.8,5.057,5.057,0,0,1,2.57-.631,4.616,4.616,0,0,1,3.553,1.4,5.358,5.358,0,0,1,1.3,3.8v.111a5.2,5.2,0,0,1-1.3,3.725A4.628,4.628,0,0,1,65.229.186,4.681,4.681,0,0,1,61.787-1.1a5.026,5.026,0,0,1-1.4-3.484Zm3.126.195a3.735,3.735,0,0,0,.436,2.041,1.453,1.453,0,0,0,1.29.649q1.67,0,1.707-2.57v-.315q0-2.7-1.726-2.7-1.568,0-1.7,2.329ZM77.512-7.208l-1.03-.074a1.85,1.85,0,0,0-1.893.928V0H71.463V-10.038H74.4l.1,1.29a2.421,2.421,0,0,1,2.2-1.475,3.049,3.049,0,0,1,.872.111Z" transform="translate(-9382.451 -8423.077)" fill="#fff"/>
    <path id="Trazado_721863" data-name="Trazado 721863" d="M9.4-5.733H4.277V-2.5h6.049V0H1.021V-13.508h9.324v2.514H4.277v2.848H9.4Zm5.065-4.3.1,1.178a3.451,3.451,0,0,1,2.867-1.364A2.541,2.541,0,0,1,20-8.711a3.341,3.341,0,0,1,2.95-1.512q3.052,0,3.136,3.692V0H22.952V-6.336a1.914,1.914,0,0,0-.26-1.123,1.106,1.106,0,0,0-.946-.353,1.481,1.481,0,0,0-1.382.826l.009.13V0H17.237V-6.318a2.011,2.011,0,0,0-.25-1.141,1.1,1.1,0,0,0-.956-.353,1.5,1.5,0,0,0-1.373.826V0H11.532V-10.038ZM31.172,0H28.036V-10.038h3.136ZM27.851-12.626a1.4,1.4,0,0,1,.482-1.095,1.82,1.82,0,0,1,1.252-.427,1.82,1.82,0,0,1,1.252.427,1.4,1.4,0,0,1,.482,1.095,1.4,1.4,0,0,1-.482,1.095,1.82,1.82,0,0,1-1.252.427,1.82,1.82,0,0,1-1.252-.427A1.4,1.4,0,0,1,27.851-12.626Zm10.5,9.806a.722.722,0,0,0-.417-.64,6.35,6.35,0,0,0-1.586-.5,7.234,7.234,0,0,1-1.93-.682,3.232,3.232,0,0,1-1.16-1.025,2.448,2.448,0,0,1-.4-1.382A2.774,2.774,0,0,1,34-9.328a4.7,4.7,0,0,1,2.987-.9,5.208,5.208,0,0,1,3.191.9,2.814,2.814,0,0,1,1.206,2.366H38.25q0-1.206-1.271-1.206a1.26,1.26,0,0,0-.826.274.847.847,0,0,0-.334.682.778.778,0,0,0,.408.677,3.857,3.857,0,0,0,1.3.427,11.264,11.264,0,0,1,1.573.4,2.857,2.857,0,0,1,2.264,2.792,2.629,2.629,0,0,1-1.22,2.236,5.35,5.35,0,0,1-3.159.863,5.46,5.46,0,0,1-2.3-.464A3.847,3.847,0,0,1,33.111-1.54a2.857,2.857,0,0,1-.566-1.679h2.922A1.208,1.208,0,0,0,35.931-2.2a1.908,1.908,0,0,0,1.141.32,1.5,1.5,0,0,0,.96-.26A.831.831,0,0,0,38.353-2.82Zm4.082-2.292a5.925,5.925,0,0,1,.584-2.677,4.18,4.18,0,0,1,1.679-1.8,5.057,5.057,0,0,1,2.57-.631,4.616,4.616,0,0,1,3.553,1.4,5.358,5.358,0,0,1,1.3,3.8v.111a5.2,5.2,0,0,1-1.3,3.725A4.628,4.628,0,0,1,47.287.186,4.681,4.681,0,0,1,43.845-1.1a5.026,5.026,0,0,1-1.4-3.484Zm3.126.195A3.735,3.735,0,0,0,46-2.876a1.453,1.453,0,0,0,1.29.649q1.67,0,1.707-2.57v-.315q0-2.7-1.726-2.7-1.568,0-1.7,2.329ZM59.57-7.208l-1.03-.074a1.85,1.85,0,0,0-1.893.928V0H53.521V-10.038h2.932l.1,1.29a2.421,2.421,0,0,1,2.2-1.475,3.049,3.049,0,0,1,.872.111Z" transform="translate(-9748.544 -8423.077)" fill="#fff"/>
    <g id="OBJECTS_2_" data-name="OBJECTS (2)" transform="translate(-9639.302 -8432.003)">
      <path id="Trazado_717487" data-name="Trazado 717487" d="M233.311,103.185a102.2,102.2,0,1,0-182.8,62.841h161.2A101.758,101.758,0,0,0,233.311,103.185Z" transform="translate(-19.057 -0.984)" fill="#f5e6ef"/>
      <path id="Trazado_717488" data-name="Trazado 717488" d="M120.22,301.319l.056-10.726-5.849-.3-.065,11.542,5.641.036Z" transform="translate(-60.285 -140.566)" fill="#e6b99a"/>
      <path id="Trazado_717489" data-name="Trazado 717489" d="M112.363,307.081s4.62,1.9,6.79-1.1l11.223,5.778-19.445-.114Z" transform="translate(-58.629 -148.136)" fill="#17203d"/>
      <path id="Trazado_717490" data-name="Trazado 717490" d="M130.354,318.677l-19.445-.114.011-1.633,19.445.114Z" transform="translate(-58.619 -153.416)" fill="#fff"/>
      <path id="Trazado_717491" data-name="Trazado 717491" d="M62.656,301.319l2.064-10.726,5.848-.3-2.055,11.542-5.641.036Z" transform="translate(-35.338 -140.566)" fill="#e6b99a"/>
      <path id="Trazado_717492" data-name="Trazado 717492" d="M59.212,307.081s-4.62,1.9-6.79-1.1L41.2,311.764l19.445-.114Z" transform="translate(-24.986 -148.136)" fill="#17203d"/>
      <path id="Trazado_717493" data-name="Trazado 717493" d="M41.21,318.677l19.445-.114-.011-1.633-19.445.114Z" transform="translate(-24.985 -153.416)" fill="#fff"/>
      <path id="Trazado_717494" data-name="Trazado 717494" d="M97.591,156.732l-.724,71.909-10.469.444-.916-56.816-1.538-.028-11.28,56.843L62.7,228.3s7.5-52.855,8.552-56.989l2.5-14.582H97.591Z" transform="translate(-35.359 -76.126)" fill="#9f0f6a"/>
      <path id="Trazado_717495" data-name="Trazado 717495" d="M119.017,286.174l-10.633.207" transform="translate(-57.4 -138.578)" fill="none" stroke="#323166" stroke-miterlimit="10" stroke-width="0.955"/>
      <path id="Trazado_717496" data-name="Trazado 717496" d="M74.571,285.7l-10.409-.938" transform="translate(-36.065 -137.896)" fill="none" stroke="#323166" stroke-miterlimit="10" stroke-width="0.955"/>
      <path id="Trazado_717497" data-name="Trazado 717497" d="M94.847,186.716h7.629" transform="translate(-50.869 -90.593)" fill="none" stroke="#323166" stroke-miterlimit="10" stroke-width="0.955"/>
      <path id="Trazado_717498" data-name="Trazado 717498" d="M70.447,126.008l-2.558,15.116a4.014,4.014,0,0,0,7.89,1.443l3.2-14.47Z" transform="translate(-37.844 -61.304)" fill="#e6b99a"/>
      <path id="Trazado_717499" data-name="Trazado 717499" d="M66.847,118.463,69,109.344c.425-3.052,3.633-5.256,6.707-5.045a5.583,5.583,0,0,1,5.182,6.3l-1.231,8.95Z" transform="translate(-37.36 -50.823)" fill="#fff"/>
      <path id="Trazado_717500" data-name="Trazado 717500" d="M63.5,150.031a3.793,3.793,0,0,1-.724,5.856L48.549,166.77l-4.555-2.453,14.294-15.289C59.784,147.868,62.185,148.671,63.5,150.031Z" transform="translate(-26.334 -72.141)" fill="#e6b99a"/>
      <path id="Trazado_717501" data-name="Trazado 717501" d="M48.057,180.629a4.725,4.725,0,1,0-6.047,2.842A4.725,4.725,0,0,0,48.057,180.629Z" transform="translate(-23.87 -84.603)" fill="#e6b99a"/>
      <path id="Trazado_717502" data-name="Trazado 717502" d="M38.158,180.891s-2.152-.1-1.492-2.491,2.833-5.112,7.418-3.853Z" transform="translate(-22.738 -84.569)" fill="#e6b99a"/>
      <path id="Trazado_717503" data-name="Trazado 717503" d="M85.447,99.8l-5.9,2.152.285,34.812,26.349.06,2.492-28.712-3.033-6.587-7.651-2.663Z" transform="translate(-43.489 -48.207)" fill="#fff"/>
      <path id="Trazado_717504" data-name="Trazado 717504" d="M90.736,136.791a3.714,3.714,0,0,1-5.815-.347L70.354,122.2l3.082-3.7L90.7,129.713C91.964,131.123,92,135.378,90.736,136.791Z" transform="translate(-39.052 -57.683)" fill="#e6b99a"/>
      <path id="Trazado_717505" data-name="Trazado 717505" d="M66.583,110.09s.758-2.54,3.189-2.054,4.49,2.844,3.565,7.508Z" transform="translate(-37.233 -52.603)" fill="#e6b99a"/>
      <path id="Trazado_717506" data-name="Trazado 717506" d="M53.317,96.011c.686,2.519,2.657,9.88,3.234,12.037a.738.738,0,0,0,.783.544l6.293-.578a.741.741,0,0,0,.643-.946L60.756,95.06a.74.74,0,0,0-.779-.529l-6.012.552A.737.737,0,0,0,53.317,96.011Z" transform="translate(-30.82 -46.115)" fill="#332c30"/>
      <path id="Trazado_717507" data-name="Trazado 717507" d="M64.454,119.627c2.512.706,5.364-.2,6.07-2.711a4.725,4.725,0,0,0-3.27-5.827c-2.512-.706-5.636-.076-6.343,2.436A5.19,5.19,0,0,0,64.454,119.627Z" transform="translate(-34.42 -53.975)" fill="#e6b99a"/>
      <path id="Trazado_717508" data-name="Trazado 717508" d="M104.733,119.866,98.068,132.6a4.014,4.014,0,0,0,6.331,4.925l8.038-11.85Z" transform="translate(-52.062 -58.34)" fill="#e6b99a"/>
      <path id="Trazado_717509" data-name="Trazado 717509" d="M106.07,113.888,111.9,106a5.867,5.867,0,0,1,7.841-1.6c2.813,1.72,3,6.886.683,10.1L117.3,121.1Z" transform="translate(-56.284 -50.459)" fill="#fff"/>
      <path id="Trazado_717510" data-name="Trazado 717510" d="M108.668,118.464l3.71-7.241" transform="translate(-57.537 -54.17)" fill="none" stroke="#323166" stroke-miterlimit="10" stroke-width="0.955"/>
      <path id="Trazado_717511" data-name="Trazado 717511" d="M123.888,131.484l2.006,1.289,2.8-5.056" transform="translate(-64.88 -62.128)" fill="none" stroke="#323166" stroke-miterlimit="10" stroke-width="0.955"/>
      <path id="Trazado_717512" data-name="Trazado 717512" d="M96.934,83.759l-.245,6.227a3.045,3.045,0,0,0,3.252,3.465c1.78.052,3.769-.734,3.767-2.665l-.071-9.815Z" transform="translate(-51.755 -39.575)" fill="#e6b99a"/>
      <path id="Trazado_717513" data-name="Trazado 717513" d="M96.806,92.534l6.139-4.058-5.985-.469Z" transform="translate(-51.814 -42.969)" fill="#d1987b"/>
      <path id="Trazado_717514" data-name="Trazado 717514" d="M89.638,72.683a2.582,2.582,0,0,1-2.455,2.687,2.554,2.554,0,0,1-2.6-2.528,2.582,2.582,0,0,1,2.455-2.687A2.555,2.555,0,0,1,89.638,72.683Z" transform="translate(-45.919 -34.356)" fill="#d1987b"/>
      <path id="Trazado_717515" data-name="Trazado 717515" d="M94.708,71.935c-3.556-.132-6.376-3.141-6.362-6.144l.064-6.281a6.9,6.9,0,0,1,6.567-6.956c3.73-.117,7.491,2.888,7.6,6.738l-.109,4.894A7.828,7.828,0,0,1,94.708,71.935Z" transform="translate(-47.733 -25.863)" fill="#e6b99a"/>
      <path id="Trazado_717516" data-name="Trazado 717516" d="M116.845,72.707a2.557,2.557,0,0,1-2.431,2.661,2.529,2.529,0,0,1-2.571-2.5,2.557,2.557,0,0,1,2.431-2.661A2.53,2.53,0,0,1,116.845,72.707Z" transform="translate(-59.069 -34.38)" fill="#e6b99a"/>
      <path id="Trazado_717517" data-name="Trazado 717517" d="M114.643,74.843s.784-2.087,2.478-1.659" transform="translate(-60.42 -35.79)" fill="none" stroke="#332c30" stroke-linecap="round" stroke-linejoin="round" stroke-miterlimit="10" stroke-width="0.709"/>
      <path id="Trazado_717518" data-name="Trazado 717518" d="M88.3,73.295s.057,2.24,1.28,2.58,1.7-.25,3.362-.366a8.014,8.014,0,0,1,4.792,1.128c1.649.8,3.633-4.345,4.306-5.708.132-.267.41-.071.41-.071l-.434,4.373s-.752,6.228-7.823,6.024S88.3,73.295,88.3,73.295Z" transform="translate(-47.676 -34.662)" fill="#332c30"/>
      <path id="Trazado_717519" data-name="Trazado 717519" d="M88.347,56.746h14.394v-.573a7.206,7.206,0,0,0-14.394,0Z" transform="translate(-47.733 -24.312)" fill="#ae819e"/>
      <path id="Trazado_717520" data-name="Trazado 717520" d="M98.924,59.576s-7.859-4.3-15.4-3.334S84.6,60.01,84.6,60.01H98.923Z" transform="translate(-43.917 -27.576)" fill="#934576"/>
      <path id="Trazado_717521" data-name="Trazado 717521" d="M114.7,63.654l-.231,3.761-.285,1.322-1.052-5.083Z" transform="translate(-59.689 -31.22)" fill="#332c30"/>
      <path id="Trazado_717522" data-name="Trazado 717522" d="M88.388,67l-.042-3.389.643.025Z" transform="translate(-47.733 -31.197)" fill="#332c30"/>
      <path id="Trazado_717523" data-name="Trazado 717523" d="M97.227,75.771l-.092,1.366,1.213,0" transform="translate(-51.973 -37.066)" fill="none" stroke="#332c30" stroke-linecap="round" stroke-linejoin="round" stroke-miterlimit="10" stroke-width="0.709"/>
      <path id="Trazado_717524" data-name="Trazado 717524" d="M93.179,73.178a.612.612,0,1,1-.607-.636A.624.624,0,0,1,93.179,73.178Z" transform="translate(-49.474 -35.509)" fill="#332c30"/>
      <path id="Trazado_717525" data-name="Trazado 717525" d="M104.477,73.24a.612.612,0,1,1-.607-.635A.624.624,0,0,1,104.477,73.24Z" transform="translate(-54.925 -35.538)" fill="#332c30"/>
      <path id="Trazado_717526" data-name="Trazado 717526" d="M93.2,68s.11.615-.713.6a6.51,6.51,0,0,0-1.385.047.463.463,0,0,1-.508-.234.357.357,0,0,1,.072-.421,2.046,2.046,0,0,1,1.471-.556C93.116,67.445,93.2,68,93.2,68Z" transform="translate(-48.8 -33.046)" fill="#332c30"/>
      <path id="Trazado_717527" data-name="Trazado 717527" d="M102.274,67.991s-.125.617.766.593a7.6,7.6,0,0,1,1.5.033.525.525,0,0,0,.552-.239.336.336,0,0,0-.074-.421,2.271,2.271,0,0,0-1.586-.542C102.373,67.432,102.274,67.991,102.274,67.991Z" transform="translate(-54.45 -33.035)" fill="#332c30"/>
      <path id="Trazado_717528" data-name="Trazado 717528" d="M96.127,82.2a2.886,2.886,0,0,0,2.949-.2" transform="translate(-51.487 -40.072)" fill="none" stroke="#fff" stroke-linecap="round" stroke-linejoin="round" stroke-miterlimit="10" stroke-width="0.709"/>
      <path id="Trazado_717529" data-name="Trazado 717529" d="M95.271,96.72l-4.46,1.621S89.295,101.7,96.2,101.72c7.162.025,7.16-4.316,7.16-4.316L99.009,95.84Z" transform="translate(-48.854 -46.749)" fill="#e6b99a"/>
      <path id="Trazado_717530" data-name="Trazado 717530" d="M159.675,183.116h57.5a13.29,13.29,0,0,0,13.29-13.29V49.24a13.29,13.29,0,0,0-13.29-13.29h-57.5a13.29,13.29,0,0,0-13.29,13.29V169.826A13.291,13.291,0,0,0,159.675,183.116Z" transform="translate(-75.734 -17.854)" fill="#4e7c7b"/>
      <path id="Trazado_717531" data-name="Trazado 717531" d="M163.383,183.628h57.66a9.149,9.149,0,0,0,9.149-9.149V54.506a9.149,9.149,0,0,0-9.149-9.149h-57.66a9.149,9.149,0,0,0-9.149,9.149V174.478A9.149,9.149,0,0,0,163.383,183.628Z" transform="translate(-79.521 -22.392)" fill="#fdfcff"/>
      <path id="Trazado_717532" data-name="Trazado 717532" d="M198.078,47.977h27.568a2.471,2.471,0,0,0,2.471-2.471V41.475h-32.51v4.031A2.471,2.471,0,0,0,198.078,47.977Z" transform="translate(-99.482 -20.52)" fill="#4e7c7b"/>
      <path id="Trazado_717533" data-name="Trazado 717533" d="M223.04,107.332H171.191a3.147,3.147,0,0,1-3.147-3.147V88.611a3.147,3.147,0,0,1,3.147-3.147H223.04a3.147,3.147,0,0,1,3.147,3.147v15.574A3.147,3.147,0,0,1,223.04,107.332Z" transform="translate(-86.184 -41.743)" fill="#ae819e"/>
      <path id="Trazado_717534" data-name="Trazado 717534" d="M258.126,118.954v8.063l8.51-8.178Z" transform="translate(-129.645 -57.845)" fill="#ae819e"/>
      <path id="Trazado_717535" data-name="Trazado 717535" d="M182.638,99.273h41.238" transform="translate(-93.225 -48.405)" fill="none" stroke="#271545" stroke-miterlimit="10" stroke-width="0.932"/>
      <path id="Trazado_717536" data-name="Trazado 717536" d="M182.638,107.2h41.238" transform="translate(-93.225 -52.23)" fill="none" stroke="#271545" stroke-miterlimit="10" stroke-width="0.932"/>
      <path id="Trazado_717537" data-name="Trazado 717537" d="M182.638,115.13h13.6" transform="translate(-93.225 -56.055)" fill="none" stroke="#271545" stroke-miterlimit="10" stroke-width="0.932"/>
      <path id="Trazado_717538" data-name="Trazado 717538" d="M223.04,238.14H171.191a3.147,3.147,0,0,1-3.147-3.147V219.42a3.147,3.147,0,0,1,3.147-3.147H223.04a3.147,3.147,0,0,1,3.147,3.147v15.574A3.147,3.147,0,0,1,223.04,238.14Z" transform="translate(-86.184 -104.853)" fill="#ae819e"/>
      <path id="Trazado_717539" data-name="Trazado 717539" d="M258.126,249.764v8.062l8.51-8.177Z" transform="translate(-129.645 -120.956)" fill="#ae819e"/>
      <path id="Trazado_717540" data-name="Trazado 717540" d="M182.638,230.083h41.238" transform="translate(-93.225 -111.516)" fill="none" stroke="#271545" stroke-miterlimit="10" stroke-width="0.932"/>
      <path id="Trazado_717541" data-name="Trazado 717541" d="M182.638,238.011h41.238" transform="translate(-93.225 -115.341)" fill="none" stroke="#271545" stroke-miterlimit="10" stroke-width="0.932"/>
      <path id="Trazado_717542" data-name="Trazado 717542" d="M182.638,245.94h13.6" transform="translate(-93.225 -119.166)" fill="none" stroke="#271545" stroke-miterlimit="10" stroke-width="0.932"/>
      <path id="Trazado_717543" data-name="Trazado 717543" d="M171.191,173.855H223.04a3.147,3.147,0,0,0,3.147-3.147V155.134a3.147,3.147,0,0,0-3.147-3.147H171.191a3.147,3.147,0,0,0-3.147,3.147v15.574A3.147,3.147,0,0,0,171.191,173.855Z" transform="translate(-86.184 -73.838)" fill="#68a5a4"/>
      <path id="Trazado_717544" data-name="Trazado 717544" d="M181.375,185.477v8.063l-8.51-8.178Z" transform="translate(-88.51 -89.94)" fill="#68a5a4"/>
      <path id="Trazado_717545" data-name="Trazado 717545" d="M182.638,164.422h24.5" transform="translate(-93.225 -79.837)" fill="none" stroke="#271545" stroke-miterlimit="10" stroke-width="0.932"/>
      <path id="Trazado_717546" data-name="Trazado 717546" d="M182.638,172.349h41.238" transform="translate(-93.225 -83.662)" fill="none" stroke="#271545" stroke-miterlimit="10" stroke-width="0.932"/>
      <path id="Trazado_717547" data-name="Trazado 717547" d="M182.638,180.278h8.287" transform="translate(-93.225 -87.487)" fill="none" stroke="#271545" stroke-miterlimit="10" stroke-width="0.932"/>
      <path id="Trazado_717548" data-name="Trazado 717548" d="M364.659,312.258l3.188,1.573a.794.794,0,0,1,.438.91c-.083.286-.353.549-1.062.562-1.576.028-8.551-1.059-8.551-1.059v.732l-3.237-.366s-.226-3.7.759-4.243Z" transform="translate(-176.582 -150.25)" fill="#332c30"/>
      <path id="Trazado_717549" data-name="Trazado 717549" d="M360.249,306.489l5.139,3.7s-.55,1.412-2.983.47-5.482-2.361-5.482-2.361l.445-2.214Z" transform="translate(-177.311 -148.186)" fill="#e6b99a"/>
      <path id="Trazado_717550" data-name="Trazado 717550" d="M356.449,297.573l-.508-13.724,5.132.487-.731,12.748Z" transform="translate(-176.837 -137.456)" fill="#e6b99a"/>
      <path id="Trazado_717551" data-name="Trazado 717551" d="M325.315,312.258l-3.187,1.573a.794.794,0,0,0-.438.91c.083.286.353.549,1.062.562,1.576.028,8.551-1.059,8.551-1.059v.732l3.236-.366s.226-3.7-.759-4.243Z" transform="translate(-160.299 -150.25)" fill="#332c30"/>
      <path id="Trazado_717552" data-name="Trazado 717552" d="M333.858,306.489l-5.139,3.7s.55,1.412,2.983.47,5.482-2.361,5.482-2.361l-.445-2.214Z" transform="translate(-163.704 -148.186)" fill="#e6b99a"/>
      <path id="Trazado_717553" data-name="Trazado 717553" d="M340.766,297.573l.508-13.724-5.132.487.731,12.748Z" transform="translate(-167.285 -137.456)" fill="#e6b99a"/>
      <path id="Trazado_717554" data-name="Trazado 717554" d="M346.426,149.115s3.952,2.074,5.033,11.7-2.01,64.9-2.01,64.9h-7.6l-1.08-60.766-2.062,60.766h-7.874l-2.573-56.888s-1.012-13.67,4.355-19.385Z" transform="translate(-163.445 -72.452)" fill="#7c119b"/>
      <path id="Trazado_717555" data-name="Trazado 717555" d="M352.32,178.656l3.74-1.692" transform="translate(-175.09 -85.888)" fill="none" stroke="#323166" stroke-miterlimit="10" stroke-width="0.955"/>
      <path id="Trazado_717556" data-name="Trazado 717556" d="M362.318,290.857h-7.849" transform="translate(-176.127 -140.837)" fill="none" stroke="#323166" stroke-miterlimit="10" stroke-width="0.955"/>
      <path id="Trazado_717557" data-name="Trazado 717557" d="M341.145,290.857H333" transform="translate(-165.769 -140.837)" fill="none" stroke="#323166" stroke-miterlimit="10" stroke-width="0.955"/>
      <path id="Trazado_717558" data-name="Trazado 717558" d="M370.047,120.823l3.8,13.964a2.8,2.8,0,0,1-2.219,3.469,3.852,3.852,0,0,1-3.722-2.469l-3.519-11.152Z" transform="translate(-180.912 -58.802)" fill="#c88d6d"/>
      <path id="Trazado_717559" data-name="Trazado 717559" d="M363.564,106.289s3.836.129,5.873,6.623l1.494,6.99L359.9,121.766Z" transform="translate(-178.749 -51.79)" fill="#9f0f6a"/>
      <path id="Trazado_717560" data-name="Trazado 717560" d="M383.945,118.658,371.1,132.685c-.983,1.228.19,3.022,1.435,3.983a2.812,2.812,0,0,0,4.092-.717l9.6-14.14Z" transform="translate(-183.974 -57.758)" fill="#c88d6d"/>
      <path id="Trazado_717561" data-name="Trazado 717561" d="M391.119,94.116c-.453,2.571-1.742,10.082-2.119,12.283a.739.739,0,0,1-.73.613h-6.32a.741.741,0,0,1-.727-.883l2.4-12.281a.741.741,0,0,1,.727-.6h6.037A.739.739,0,0,1,391.119,94.116Z" transform="translate(-189.028 -45.499)" fill="#332c30"/>
      <path id="Trazado_717562" data-name="Trazado 717562" d="M392.107,119.06l3.706-5.112a2.525,2.525,0,0,0,.485-1.535c-.042-1.988-.419-6.776-3.035-7.8-3.323-1.3-5.056,1.589-3.467,4.334s1.589,3.9,1.589,3.9l-2.186,2.889Z" transform="translate(-192.883 -50.827)" fill="#c88d6d"/>
      <path id="Trazado_717563" data-name="Trazado 717563" d="M341.82,103.576l5.977,1.2s2.381,6.145,1.029,12.144l-2.863,10.021-13.813.321-4.491-16.374-.436-5.177,8.651-2.554Z" transform="translate(-162.981 -50.28)" fill="#9f0f6a"/>
      <path id="Trazado_717564" data-name="Trazado 717564" d="M367.492,126.479a15.717,15.717,0,0,0,.264-9.046" transform="translate(-182.41 -57.167)" fill="none" stroke="#323166" stroke-miterlimit="10" stroke-width="0.955"/>
      <path id="Trazado_717565" data-name="Trazado 717565" d="M330.076,122.868l-.244,13.068c-.12,1.631-2.239,4.033-3.855,3.784a2.8,2.8,0,0,1-2.374-2.886l-.116-12.189Z" transform="translate(-161.18 -59.789)" fill="#c88d6d"/>
      <path id="Trazado_717566" data-name="Trazado 717566" d="M323.467,108.094s-3.263.879-3.223,6.022l-.807,9.044,8.987-.927,1.5-9.553Z" transform="translate(-159.226 -52.661)" fill="#9f0f6a"/>
      <path id="Trazado_717567" data-name="Trazado 717567" d="M336.8,129.32l.465-6.539" transform="translate(-167.604 -59.747)" fill="none" stroke="#323166" stroke-miterlimit="10" stroke-width="0.955"/>
      <path id="Trazado_717568" data-name="Trazado 717568" d="M344.281,122.888l-16.7,9.627,2.271,6.557s8.844-7,16.489-13.682Z" transform="translate(-163.153 -59.798)" fill="#c88d6d"/>
      <path id="Trazado_717569" data-name="Trazado 717569" d="M365.238,120.18a3.856,3.856,0,1,0-4.636,2.87A3.856,3.856,0,0,0,365.238,120.18Z" transform="translate(-177.651 -56.205)" fill="#c88d6d"/>
      <path id="Trazado_717570" data-name="Trazado 717570" d="M362.766,113.731l5.7-2.072a.578.578,0,0,1,.52,1.024l-4.249,2.856Z" transform="translate(-180.13 -54.364)" fill="#c88d6d"/>
      <path id="Trazado_717571" data-name="Trazado 717571" d="M347.2,65.038c0,4.809-4.065,9.744-9.08,9.744s-8.586-4.934-8.586-9.744,3.571-8.214,8.586-8.214S347.2,60.228,347.2,65.038Z" transform="translate(-164.096 -27.925)" fill="#332c30"/>
      <path id="Trazado_717572" data-name="Trazado 717572" d="M356.368,79.265a2.324,2.324,0,1,0,2.4-2.244A2.324,2.324,0,0,0,356.368,79.265Z" transform="translate(-177.043 -37.669)" fill="#a96448"/>
      <path id="Trazado_717573" data-name="Trazado 717573" d="M348.56,91.522l.717,7.244-6.6-.3.5-6.945Z" transform="translate(-170.439 -44.666)" fill="#c88d6d"/>
      <path id="Trazado_717574" data-name="Trazado 717574" d="M349.918,95.872l-5.328-3.416c-.253-.17,1.1-1.389,1.406-1.415l3.58,1.248Z" transform="translate(-171.346 -44.433)" fill="#a96448"/>
      <path id="Trazado_717575" data-name="Trazado 717575" d="M344.079,78.776c3.288-.107,5.912-2.793,5.914-5.482l-.032-6.343a6.246,6.246,0,0,0-6.034-6.249c-3.448-.117-6.942,2.563-7.059,6.011l.081,5.1A7.1,7.1,0,0,0,344.079,78.776Z" transform="translate(-167.635 -29.794)" fill="#c88d6d"/>
      <path id="Trazado_717576" data-name="Trazado 717576" d="M354.744,84.121l.21,1.33-.812.058" transform="translate(-175.969 -41.095)" fill="none" stroke="#1a2328" stroke-linecap="round" stroke-linejoin="round" stroke-miterlimit="10" stroke-width="0.707"/>
      <path id="Trazado_717577" data-name="Trazado 717577" d="M357.417,81.2a.582.582,0,1,0,.58-.584A.582.582,0,0,0,357.417,81.2Z" transform="translate(-177.549 -39.405)" fill="#1a2328"/>
      <path id="Trazado_717578" data-name="Trazado 717578" d="M347.711,81.219a.582.582,0,1,0,.58-.583A.582.582,0,0,0,347.711,81.219Z" transform="translate(-172.867 -39.413)" fill="#1a2328"/>
      <path id="Trazado_717579" data-name="Trazado 717579" d="M345.025,77.4s.02.5.966.244a11.723,11.723,0,0,1,1.608-.367.642.642,0,0,0,.53-.324.29.29,0,0,0-.213-.343,3.351,3.351,0,0,0-1.8.057C344.991,76.958,345.025,77.4,345.025,77.4Z" transform="translate(-171.571 -37.426)" fill="#332c30"/>
      <path id="Trazado_717580" data-name="Trazado 717580" d="M358.635,76.964s-.065.461-.752.3a6.447,6.447,0,0,0-1.174-.218.369.369,0,0,1-.367-.26.267.267,0,0,1,.169-.289,2.124,2.124,0,0,1,1.377-.131C358.706,76.549,358.635,76.964,358.635,76.964Z" transform="translate(-177.029 -37.326)" fill="#332c30"/>
      <path id="Trazado_717581" data-name="Trazado 717581" d="M353.014,88.627H349.65s.341.995,1.911.924S353.014,88.627,353.014,88.627Z" transform="translate(-173.802 -43.269)" fill="#fdfcff"/>
      <path id="Trazado_717582" data-name="Trazado 717582" d="M339.185,67.855a13.241,13.241,0,0,1-2.913,4.11l-.231,2.752-3.7-2.922.695-3.5Z" transform="translate(-165.451 -33.247)" fill="#332c30"/>
      <path id="Trazado_717583" data-name="Trazado 717583" d="M331.13,80.219a2.324,2.324,0,1,0,2.4-2.244A2.324,2.324,0,0,0,331.13,80.219Z" transform="translate(-164.866 -38.129)" fill="#c88d6d"/>
      <path id="Trazado_717584" data-name="Trazado 717584" d="M335.664,82.162A1.335,1.335,0,0,0,333.6,81.2" transform="translate(-166.06 -39.584)" fill="none" stroke="#1a2328" stroke-linecap="round" stroke-linejoin="round" stroke-miterlimit="10" stroke-width="0.642"/>
      <path id="Trazado_717585" data-name="Trazado 717585" d="M339.491,103.8l7.582,4.365,1.709-4.417-2.111-.5-4.662-.178Z" transform="translate(-168.901 -50.237)" fill="#c88d6d"/>
      <path id="Trazado_717586" data-name="Trazado 717586" d="M347.747,63.352s-4.684,6.775-12.629,4.748l-1.434-3.322S341.512,56.336,347.747,63.352Z" transform="translate(-166.099 -29.73)" fill="#332c30"/>
      <path id="Trazado_717587" data-name="Trazado 717587" d="M352.726,63.188a6.081,6.081,0,0,1,3.752,4.4s.884-6.632-6.112-7.4Z" transform="translate(-174.148 -29.551)" fill="#332c30"/>
      <path id="Trazado_717588" data-name="Trazado 717588" d="M327.208,53.378c-4.3,1.7-5.667-.72-4.858-2.89a3.859,3.859,0,0,1,.518-.952s-2.957-.968-2.159-3.383c0,0,.535-1.839,3.286-.848a2.65,2.65,0,0,1,.609-2.654,2.4,2.4,0,0,1,2.5-.452,4.134,4.134,0,0,1,1.871,1.567,1.7,1.7,0,0,1,2.557.122c.918,1.173-.137,2.841-.137,2.841s1.83-.678,2.349.405-.217,2.543-2.682,4.094A32.363,32.363,0,0,1,327.208,53.378Z" transform="translate(-159.773 -20.787)" fill="#332c30"/>
      <path id="Trazado_717589" data-name="Trazado 717589" d="M9.872,320.307H228.82" transform="translate(-9.872 -155.046)" fill="none" stroke="#d5a992" stroke-linecap="round" stroke-linejoin="round" stroke-miterlimit="10" stroke-width="1.432"/>
    </g>
  </g>
</svg>
