<svg xmlns="http://www.w3.org/2000/svg" width="116.999" height="115" viewBox="0 0 116.999 115">
  <g id="Grupo_1068153" data-name="Grupo 1068153" transform="translate(-425.438 -7498.47)">
    <g id="Grupo_1015374" data-name="Grupo 1015374" transform="translate(425.927 7498.205)">
      <g id="Grupo_1015448" data-name="Grupo 1015448" transform="translate(0 0)">
        <g id="Grupo_1014855" data-name="Grupo 1014855" transform="translate(0 0)">
          <path id="Unión_12" data-name="Unión 12" d="M58.5,0C90.809,0,117,25.744,117,57.5S90.809,115,58.5,115,0,89.256,0,57.5,26.192,0,58.5,0Z" transform="translate(-0.49 0.265)" fill="#6fefc4"/>
          <path id="Trazado_608322" data-name="Trazado 608322" d="M49,0C76.062,0,98,22.162,98,49.5S76.062,99,49,99,0,76.838,0,49.5,21.938,0,49,0Z" transform="translate(9.51 7.265)" fill="#fff"/>
        </g>
      </g>
    </g>
    <g id="diccionario" transform="translate(433.199 7528.123)">
      <g id="Grupo_1068157" data-name="Grupo 1068157" transform="translate(26.5 0.816)">
        <path id="Trazado_720621" data-name="Trazado 720621" d="M415.154,54.22h-4.988v-8.5h4.988a2.479,2.479,0,0,1,2.479,2.479v3.537A2.479,2.479,0,0,1,415.154,54.22Z" transform="translate(-369.157 -41.566)" fill="#adc9fc"/>
        <path id="Trazado_720622" data-name="Trazado 720622" d="M415.154,132.323h-4.988v-8.5h4.988a2.479,2.479,0,0,1,2.479,2.479v3.537A2.479,2.479,0,0,1,415.154,132.323Z" transform="translate(-369.157 -111.173)" fill="#bfe19f"/>
        <path id="Trazado_720623" data-name="Trazado 720623" d="M415.154,210.426h-4.988v-8.5h4.988a2.479,2.479,0,0,1,2.479,2.479v3.537A2.479,2.479,0,0,1,415.154,210.426Z" transform="translate(-369.157 -180.78)" fill="#adc9fc"/>
        <path id="Trazado_720624" data-name="Trazado 720624" d="M415.154,288.53h-4.988v-8.5h4.988a2.479,2.479,0,0,1,2.479,2.479v3.537A2.479,2.479,0,0,1,415.154,288.53Z" transform="translate(-369.157 -250.388)" fill="#dd636e"/>
        <g id="Grupo_1068155" data-name="Grupo 1068155">
          <path id="Trazado_720625" data-name="Trazado 720625" d="M362.5,344.72v15.13H352.307V345.755Z" transform="translate(-317.592 -308.037)" fill="#b08561"/>
          <path id="Trazado_720626" data-name="Trazado 720626" d="M108.936,387.345a5.818,5.818,0,0,1,0-6.235L92.757,378.1h-21.6v11.5h28.79Z" transform="translate(-67.022 -337.784)" fill="#f1f4f6"/>
          <path id="Trazado_720627" data-name="Trazado 720627" d="M78.089,9.752V48.573L40.8,49.5l-2.2.063-5.425,4.377V15.121A7.63,7.63,0,0,1,40.8,7.5H75.838A2.251,2.251,0,0,1,78.089,9.752Z" transform="translate(-33.181 -7.5)" fill="#d1a578"/>
          <path id="Trazado_720628" data-name="Trazado 720628" d="M40.8,7.5v42l-2.2.063-5.425,4.377V15.121A7.63,7.63,0,0,1,40.8,7.5Z" transform="translate(-33.181 -7.5)" fill="#c0976f"/>
          <path id="Trazado_720629" data-name="Trazado 720629" d="M75.841,379.628H40.8a7.621,7.621,0,0,1,0-15.242H75.841a2.251,2.251,0,0,1,0,4.5H50.026l-3.9,1.559-3.9-1.559H40.8a3.118,3.118,0,0,0,0,6.237H75.841a2.251,2.251,0,1,1,0,4.5Z" transform="translate(-33.184 -325.564)" fill="#c0976f"/>
          <path id="Trazado_720630" data-name="Trazado 720630" d="M124.08,405.78v7.373a1.12,1.12,0,0,1-1.811.881l-1.4-1.1a1.119,1.119,0,0,0-1.383,0l-1.4,1.1a1.12,1.12,0,0,1-1.811-.881V405.78Z" transform="translate(-107.238 -362.455)" fill="#dd636e"/>
          <path id="Trazado_720631" data-name="Trazado 720631" d="M116.277,405.78h7.8V408.9h-7.8Z" transform="translate(-107.238 -362.455)" fill="#da4a54"/>
        </g>
        <g id="Grupo_1068156" data-name="Grupo 1068156" transform="translate(11.198 4.158)">
          <path id="Trazado_720632" data-name="Trazado 720632" d="M151.76,61.978l-5.573-14.768-.021-.054a2.3,2.3,0,0,0-2.137-1.431h0a2.3,2.3,0,0,0-2.136,1.436l-.018.045-5.625,14.768a1.971,1.971,0,1,0,3.684,1.4l.917-2.409h6.316l.907,2.4a1.971,1.971,0,0,0,3.688-1.392Zm-9.409-4.953,1.671-4.388,1.656,4.388Z" transform="translate(-136.118 -45.724)" fill="#f5dd81"/>
          <path id="Trazado_720633" data-name="Trazado 720633" d="M300.221,144.237h-6.356l7.774-11.932a1.971,1.971,0,0,0-1.651-3.047h-9.453a1.971,1.971,0,1,0,0,3.942h5.816l-7.774,11.932a1.971,1.971,0,0,0,1.651,3.047h9.992a1.971,1.971,0,0,0,0-3.942Z" transform="translate(-271.708 -120.171)" fill="#f5dd81"/>
        </g>
      </g>
      <g id="Grupo_1068158" data-name="Grupo 1068158" transform="translate(25.684)">
        <path id="Trazado_720634" data-name="Trazado 720634" d="M188.4,101.775h0a.816.816,0,0,0-.762.526l-1.671,4.388a.816.816,0,0,0,.762,1.106h3.327a.816.816,0,0,0,.763-1.1L189.16,102.3a.815.815,0,0,0-.762-.528Zm-.489,4.388.484-1.27.479,1.27Z" transform="translate(-168.48 -90.704)"/>
        <path id="Trazado_720635" data-name="Trazado 720635" d="M145.83,55l-2.993-7.931a.816.816,0,1,0-1.527.576l2.992,7.931a1.155,1.155,0,1,1-2.161.817l-.907-2.4a.816.816,0,0,0-.763-.528h-6.316a.816.816,0,0,0-.762.526l-.917,2.408a1.163,1.163,0,0,1-1.081.745,1.155,1.155,0,0,1-1.079-1.567l5.624-14.766.006-.015.005-.013a1.494,1.494,0,0,1,2.765,0l1.457,3.858a.816.816,0,1,0,1.527-.576l-1.444-3.826-.009-.024-.021-.053a3.126,3.126,0,0,0-5.783,0c-.008.02-.017.041-.027.068l-5.625,14.768a2.788,2.788,0,0,0,2.6,3.779A2.8,2.8,0,0,0,134,56.978l.717-1.883h5.189l.708,1.875A2.787,2.787,0,1,0,145.83,55Z" transform="translate(-117.412 -34.062)"/>
        <path id="Trazado_720636" data-name="Trazado 720636" d="M293.534,136.737h-4.85l6.953-10.67a2.787,2.787,0,0,0-2.335-4.308h-9.453a2.787,2.787,0,0,0,0,5.574h4.31L281.207,138a2.787,2.787,0,0,0,2.335,4.308h9.992a2.787,2.787,0,0,0,0-5.574Zm0,3.942h-9.992a1.155,1.155,0,0,1-.968-1.786l7.774-11.932a.816.816,0,0,0-.684-1.261h-5.816a1.155,1.155,0,0,1,0-2.31H293.3a1.155,1.155,0,0,1,.968,1.786L286.5,137.107a.816.816,0,0,0,.684,1.261h6.356a1.155,1.155,0,0,1,0,2.31Z" transform="translate(-253.008 -108.513)"/>
        <path id="Trazado_720637" data-name="Trazado 720637" d="M75.792,10.991V7.453a3.3,3.3,0,0,0-3.3-3.3h-.273V3.067A3.071,3.071,0,0,0,69.156,0H34.121a8.446,8.446,0,0,0-8.437,8.437V47.259c0,.006,0,.011,0,.017A8.446,8.446,0,0,0,34.12,55.7H61.367a.816.816,0,1,0,0-1.632H34.12a6.8,6.8,0,0,1,0-13.61H69.156a1.437,1.437,0,0,1,1.435,1.426V41.9a1.437,1.437,0,0,1-1.435,1.428H34.12a3.934,3.934,0,0,0,0,7.868h.6v.321a1.936,1.936,0,0,0,3.131,1.523l1.4-1.1a.3.3,0,0,1,.376,0l1.4,1.1a1.936,1.936,0,0,0,3.131-1.523v-.321h25a1.437,1.437,0,0,1,1.435,1.426v.009s0,0,0,0a1.437,1.437,0,0,1-1.436,1.431H64.63a.816.816,0,1,0,0,1.632h4.526a3.071,3.071,0,0,0,3.068-3.068c0-.006,0-.011,0-.017V39.774H72.5a3.3,3.3,0,0,0,3.3-3.3V32.942a3.287,3.287,0,0,0-1.128-2.479,3.288,3.288,0,0,0,1.128-2.479V24.446a3.287,3.287,0,0,0-1.128-2.479,3.288,3.288,0,0,0,1.128-2.479V15.949a3.287,3.287,0,0,0-1.128-2.479,3.288,3.288,0,0,0,1.128-2.479ZM33.3,8.884a8.433,8.433,0,0,0-5.855,3.24A6.82,6.82,0,0,1,33.3,6.716Zm-5.989-.447A6.814,6.814,0,0,1,33.3,1.682V5.073a8.437,8.437,0,0,0-5.989,3.417Zm0,8.844A6.814,6.814,0,0,1,33.3,10.526V31.492a8.437,8.437,0,0,0-5.989,3.417Zm0,25V39.889A6.814,6.814,0,0,1,33.3,33.134v5.728A8.437,8.437,0,0,0,27.316,42.28Zm41.841-3.458H34.937V1.632h34.22a1.437,1.437,0,0,1,1.435,1.435V39.18A3.048,3.048,0,0,0,69.156,38.823ZM34.12,49.561a2.3,2.3,0,0,1,0-4.6h.6v4.6Zm8.234,2.226a.292.292,0,0,1-.321-.034l-1.4-1.1a1.931,1.931,0,0,0-2.39,0l-1.4,1.1a.3.3,0,0,1-.492-.239V44.957h6.171v6.557A.292.292,0,0,1,42.355,51.787Zm1.8-6.83H67.106a6.684,6.684,0,0,0,0,4.6H44.157Zm25,4.6h-.268a5.027,5.027,0,0,1,0-4.6h.268a3.049,3.049,0,0,0,1.435-.358v5.32a3.047,3.047,0,0,0-1.435-.358Zm5-16.62v3.537A1.665,1.665,0,0,1,72.5,38.142h-.273V31.278H72.5A1.666,1.666,0,0,1,74.16,32.941Zm0-8.5v3.537A1.665,1.665,0,0,1,72.5,29.646h-.273V22.782H72.5A1.666,1.666,0,0,1,74.16,24.445Zm0-8.5v3.537A1.665,1.665,0,0,1,72.5,21.15h-.273V14.286H72.5A1.666,1.666,0,0,1,74.16,15.949Zm-1.936-3.3V5.79H72.5A1.665,1.665,0,0,1,74.16,7.453v3.537A1.665,1.665,0,0,1,72.5,12.654h-.273Z" transform="translate(-25.684)"/>
      </g>
    </g>
  </g>
</svg>
