<svg xmlns="http://www.w3.org/2000/svg" width="116.999" height="115" viewBox="0 0 116.999 115">
  <g id="Grupo_1016361" data-name="Grupo 1016361" transform="translate(-425.438 -7498.47)">
    <g id="Grupo_1015374" data-name="Grupo 1015374" transform="translate(425.927 7498.205)">
      <g id="Grupo_1015448" data-name="Grupo 1015448" transform="translate(0 0)">
        <g id="Grupo_1014855" data-name="Grupo 1014855" transform="translate(0 0)">
          <path id="Unión_12" data-name="Unión 12" d="M58.5,0C90.809,0,117,25.744,117,57.5S90.809,115,58.5,115,0,89.256,0,57.5,26.192,0,58.5,0Z" transform="translate(-0.49 0.265)" fill="#6fefc4"/>
          <ellipse id="Elipse_4842" data-name="Elipse 4842" cx="49" cy="49.5" rx="49" ry="49.5" transform="translate(9.51 7.265)" fill="#fff"/>
        </g>
      </g>
    </g>
    <g id="oficina" transform="translate(452.367 7484.352)">
      <g id="Grupo_1017070" data-name="Grupo 1017070" transform="translate(0.925 44.156)">
        <g id="Grupo_1017069" data-name="Grupo 1017069" transform="translate(0 0)">
          <path id="Trazado_717301" data-name="Trazado 717301" d="M354.725,210.988l-10.613-1.233-2.466-29.727h11.967a1.113,1.113,0,0,1,1.113,1.113Z" transform="translate(-300.437 -164.083)" fill="#b57f5f"/>
          <path id="Trazado_717302" data-name="Trazado 717302" d="M430.567,180.027h-3.955a1.113,1.113,0,0,1,1.113,1.113v29.847l3.955-1.233V181.14A1.113,1.113,0,0,0,430.567,180.027Z" transform="translate(-374.926 -164.082)" fill="#9f6e50"/>
          <path id="Trazado_717303" data-name="Trazado 717303" d="M397.824,237.46H395.1a.557.557,0,0,1-.557-.557v-4.918l1.233-.925-1.233-.925v-6.007l1.233-1.069-1.233-.781v-4.918a.557.557,0,0,1,.557-.557h2.721a.557.557,0,0,1,.557.557V236.9A.557.557,0,0,1,397.824,237.46Z" transform="translate(-346.814 -196.323)" fill="#a4ccff"/>
          <path id="Trazado_717304" data-name="Trazado 717304" d="M416.221,216.8h-2.1a.557.557,0,0,1,.557.557V236.9a.557.557,0,0,1-.557.557h2.1a.557.557,0,0,0,.557-.557v-4.918l-1.233-.925,1.233-.925v-6.007l-1.233-.925,1.233-.925v-4.918A.557.557,0,0,0,416.221,216.8Z" transform="translate(-363.979 -196.323)" fill="#8bb3ea"/>
          <path id="Trazado_717305" data-name="Trazado 717305" d="M56.161,153.087l-11.867-1.233V115.094a1.113,1.113,0,0,1,1.113-1.113h7.93Z" transform="translate(-39.756 -106.181)" fill="#b57f5f"/>
          <path id="Trazado_717306" data-name="Trazado 717306" d="M117.621,113.982v39.106l5.291-1.233V113.982Z" transform="translate(-104.04 -106.182)" fill="#9f6e50"/>
          <path id="Trazado_717307" data-name="Trazado 717307" d="M79.807,183.531H77.086a.557.557,0,0,1-.557-.557v-6.942l1.233-1.256-1.233-.594v-8.8l1.233-.509-1.233-1.341v-6.942a.557.557,0,0,1,.557-.557h2.721a.557.557,0,0,1,.557.557v26.388A.557.557,0,0,1,79.807,183.531Z" transform="translate(-68.016 -143.044)" fill="#a4ccff"/>
          <path id="Trazado_717308" data-name="Trazado 717308" d="M98.2,156.031h-2.1a.557.557,0,0,1,.557.557v26.388a.557.557,0,0,1-.557.557h2.1a.557.557,0,0,0,.557-.557v-6.942l-1.233-.925,1.233-.925v-8.8l-1.233-.925,1.233-.925v-6.942A.557.557,0,0,0,98.2,156.031Z" transform="translate(-85.181 -143.045)" fill="#8bb3ea"/>
          <path id="Trazado_717309" data-name="Trazado 717309" d="M175.325,98.869h-24.8V51.843a1.113,1.113,0,0,1,1.113-1.113h22.577a1.113,1.113,0,0,1,1.113,1.113V98.869Z" transform="translate(-132.884 -50.73)" fill="#eef5f6"/>
          <path id="Trazado_717310" data-name="Trazado 717310" d="M323.082,50.73h-4.155a1.113,1.113,0,0,1,1.113,1.113V98.869H324.2V51.843A1.113,1.113,0,0,0,323.082,50.73Z" transform="translate(-280.521 -50.73)" fill="#deecf1"/>
          <path id="Trazado_717311" data-name="Trazado 717311" d="M200.151,108.981H194l-.925-.123-.925.123h-7.382a.557.557,0,0,1-.557-.557V101.7l.123-.925-.123-.925V93.456l.123-.925-.123-.925V85.481a.557.557,0,0,1,.557-.557h7.382l.925.123.925-.123h6.149a.557.557,0,0,1,.557.557v22.944A.557.557,0,0,1,200.151,108.981Z" transform="translate(-162.421 -80.707)" fill="#a4ccff"/>
          <path id="Trazado_717312" data-name="Trazado 717312" d="M305.908,84.924h-2.466a.557.557,0,0,1,.557.557v22.944a.557.557,0,0,1-.557.557h2.466a.557.557,0,0,0,.557-.557V101.7l-1.233-.925,1.233-.925V93.456l-1.233-.925,1.233-.925V85.481A.557.557,0,0,0,305.908,84.924Z" transform="translate(-266.945 -80.707)" fill="#8bb3ea"/>
          <path id="Trazado_717313" data-name="Trazado 717313" d="M218.174,329.038,207.4,327.805V315.241a.557.557,0,0,1,.557-.557h4.523l.925.247.925-.247h3.289a.557.557,0,0,1,.557.557v13.8Z" transform="translate(-182.747 -282.132)" fill="#fde588"/>
          <path id="Trazado_717314" data-name="Trazado 717314" d="M282.721,314.684h-2.466a.557.557,0,0,1,.557.557v13.8l2.466-1.233V315.241A.556.556,0,0,0,282.721,314.684Z" transform="translate(-246.618 -282.132)" fill="#fdd76f"/>
          <path id="Trazado_717315" data-name="Trazado 717315" d="M63.242,421.079H10.583A3.083,3.083,0,0,0,7.5,424.162v1.257a.617.617,0,0,0,.617.617H65.709a.617.617,0,0,0,.617-.617v-1.257A3.083,3.083,0,0,0,63.242,421.079Z" transform="translate(-7.5 -375.406)" fill="#7f8c93"/>
          <path id="Trazado_717316" data-name="Trazado 717316" d="M452.761,421.079H449a3.083,3.083,0,0,1,3.083,3.083v1.257a.617.617,0,0,1-.617.617h3.761a.617.617,0,0,0,.617-.617v-1.257A3.083,3.083,0,0,0,452.761,421.079Z" transform="translate(-394.553 -375.406)" fill="#455b6b"/>
        </g>
      </g>
      <g id="Grupo_1017071" data-name="Grupo 1017071" transform="translate(0 43.231)">
        <path id="Trazado_717317" data-name="Trazado 717317" d="M74.465,177.882a1.483,1.483,0,0,0,1.481-1.481V150.012a1.483,1.483,0,0,0-1.481-1.481H70.51a1.483,1.483,0,0,0-1.481,1.481V176.4a1.483,1.483,0,0,0,1.481,1.481h3.954ZM74.1,167.609H70.879v-8.8H74.1Zm-3.218,8.423v-6.574H74.1v6.574ZM74.1,150.381v6.574H70.879v-6.574Z" transform="translate(-60.516 -135.545)"/>
        <path id="Trazado_717318" data-name="Trazado 717318" d="M176.713,78.906v22.944a1.483,1.483,0,0,0,1.481,1.481h16.613a1.483,1.483,0,0,0,1.481-1.481V78.906a1.483,1.483,0,0,0-1.481-1.481H178.194A1.483,1.483,0,0,0,176.713,78.906ZM194.44,93.275h-7.013V86.881h7.013Zm-8.863,0h-7.013V86.881h7.013Zm-7.013,1.85h7.013v6.357h-7.013Zm8.863,6.357V95.125h7.013v6.357Zm7.014-16.451h-7.013V79.275h7.013Zm-8.863-5.757v5.757h-7.013V79.275Z" transform="translate(-154.92 -73.208)"/>
        <path id="Trazado_717319" data-name="Trazado 717319" d="M387.046,210.785v19.543a1.483,1.483,0,0,0,1.481,1.481h3.954a1.483,1.483,0,0,0,1.481-1.481V210.785a1.483,1.483,0,0,0-1.481-1.481h-3.954A1.483,1.483,0,0,0,387.046,210.785Zm5.068,12.775H388.9v-6.007h3.218Zm-3.218,6.4v-4.55h3.218v4.55Zm3.218-18.807v4.55H388.9v-4.55Z" transform="translate(-339.314 -188.823)"/>
        <path id="Trazado_717320" data-name="Trazado 717320" d="M59.134,88.9H58.6V61.214a2.04,2.04,0,0,0-2.038-2.038H53.729a.925.925,0,0,0,0,1.85h2.837a.188.188,0,0,1,.188.188V88.9H45.524V61.026H49.7a.925.925,0,0,0,0-1.85H45.524V45.269a2.04,2.04,0,0,0-2.038-2.038H37.792a.925.925,0,1,0,0,1.85h5.694a.188.188,0,0,1,.188.188V88.9H38.51V77.264a1.483,1.483,0,0,0-1.481-1.481H26.134a1.483,1.483,0,0,0-1.481,1.481V88.9H19.488V45.269a.188.188,0,0,1,.188-.188H33.761a.925.925,0,0,0,0-1.85H19.676a2.04,2.04,0,0,0-2.038,2.038v5.762H6.576a2.04,2.04,0,0,0-2.038,2.038v5.016a.925.925,0,1,0,1.85,0V53.069a.188.188,0,0,1,.188-.188H17.638V88.9H6.387V62.117a.925.925,0,1,0-1.85,0V88.9h-.53A4.013,4.013,0,0,0,0,92.912v1.257A1.543,1.543,0,0,0,1.542,95.71H61.6a1.543,1.543,0,0,0,1.542-1.542V92.912A4.013,4.013,0,0,0,59.134,88.9Zm-22.473,0H32.506V77.632H36.66ZM26.5,77.632h4.154V88.9H26.5ZM61.292,93.86H1.85v-.948a2.161,2.161,0,0,1,2.158-2.158H59.134a2.161,2.161,0,0,1,2.158,2.158Z" transform="translate(0 -43.231)"/>
      </g>
    </g>
  </g>
</svg>
