<svg xmlns="http://www.w3.org/2000/svg" width="292.743" height="297.958" viewBox="0 0 292.743 297.958">
  <g id="Group_10_3_" data-name="Group 10 (3)" transform="translate(-0.925 -0.653)">
    <path id="Trazado_720730" data-name="Trazado 720730" d="M151.521,374.456c79.757,0,144.412-37.329,144.412-83.376S231.278,207.7,151.521,207.7,7.109,245.032,7.109,291.079,71.764,374.456,151.521,374.456Z" transform="translate(-2.265 -75.845)" fill="#fafafa"/>
    <path id="Trazado_720731" data-name="Trazado 720731" d="M280.33,222.341c-8.6,4.966-8.6,13.019,0,17.987s22.551,4.967,31.153,0,8.6-13.02,0-17.987S288.932,217.374,280.33,222.341Z" transform="translate(-99.986 -79.842)" fill="#e6e6e6"/>
    <path id="Trazado_720732" data-name="Trazado 720732" d="M57.648,412.129l97.475-56.277c1.515-.875,1.515-2.293,0-3.168L132.3,339.5a6.064,6.064,0,0,0-5.488,0L29.333,395.782c-1.516.875-1.516,2.293,0,3.168L52.16,412.129A6.065,6.065,0,0,0,57.648,412.129Z" transform="translate(-9.99 -123.885)" fill="#e0e0e0"/>
    <path id="Trazado_720733" data-name="Trazado 720733" d="M322.971,391.553,266.533,359.03a.765.765,0,0,1,0-1.45l53.039-30.667a2.775,2.775,0,0,1,2.511,0l56.438,32.523a.765.765,0,0,1,0,1.45l-53.038,30.667A2.775,2.775,0,0,1,322.971,391.553Z" transform="translate(-97.104 -119.402)" fill="#e0e0e0"/>
    <path id="Trazado_720734" data-name="Trazado 720734" d="M81.021,131.854l1.283.765,26.322-15.2-1.282-.765Z" transform="translate(-29.34 -42.493)" fill="#fafafa"/>
    <path id="Trazado_720735" data-name="Trazado 720735" d="M108.086,77.453,83.046,91.907V24.079l25.04-14.445Z" transform="translate(-30.082 -3.29)" fill="#fff"/>
    <path id="Trazado_720736" data-name="Trazado 720736" d="M110.391,1.83,79.226,19.823V94.749L110.39,76.756Zm-2.422,73.53-26.323,15.2V21.22l26.322-15.2Z" transform="translate(-28.683 -0.431)" fill="#f0f0f0"/>
    <path id="Trazado_720737" data-name="Trazado 720737" d="M123.843,77.783l-1.282-.765V9.2l1.283-.753Z" transform="translate(-44.557 -2.855)" fill="#e0e0e0"/>
    <path id="Trazado_720738" data-name="Trazado 720738" d="M109.638,1.4l-1.3-.746L77.171,18.646l1.3.746Z" transform="translate(-27.93 0)" fill="#fafafa"/>
    <path id="Trazado_720739" data-name="Trazado 720739" d="M77.171,29.047l1.3.746v74.926l-1.3-.746Z" transform="translate(-27.93 -10.401)" fill="#e0e0e0"/>
    <path id="Trazado_720740" data-name="Trazado 720740" d="M107.294,78.509,86.01,90.8V28.9L107.294,16.61Z" transform="translate(-31.168 -5.845)" fill="#f0f0f0"/>
    <path id="Trazado_720741" data-name="Trazado 720741" d="M107.294,78.509,86.01,90.8V28.9L107.294,16.61Z" transform="translate(-31.168 -5.845)" fill="#f0f0f0"/>
    <path id="Trazado_720742" data-name="Trazado 720742" d="M86.01,98.486a19.906,19.906,0,0,0,3.042-.025,38.238,38.238,0,0,0,10.366-2.255c2.576-.951,5.15-2.184,7.875-2.26v12.892l-2.882,1.664a9.722,9.722,0,0,0-3.951-2.194c-4.1-1.079-8.307.984-12.521,1.466a16.767,16.767,0,0,1-1.93.1Z" transform="translate(-31.168 -34.174)" fill="#fafafa"/>
    <path id="Trazado_720743" data-name="Trazado 720743" d="M86.01,60.588c4.762-1.408,9.647-2.581,13.046-6.075,2.739-2.816,4.029-6.718,4.931-10.542s1.52-7.771,3.251-11.3c.017-.035.039-.068.056-.1V61.038c-.267.4-.533.8-.818,1.182C103.349,66.458,98.741,70,93.483,70.27c-2.471.129-5.026-.45-7.473-.442Z" transform="translate(-31.168 -11.692)" fill="#fafafa"/>
    <path id="Trazado_720744" data-name="Trazado 720744" d="M86.01,43.457a14.512,14.512,0,0,0,4.715-13.2c-.066-.357-.15-.71-.24-1.062l8.188-4.727c-.032.539-.058,1.077-.073,1.613a47.974,47.974,0,0,1-.671,9.342A18.351,18.351,0,0,1,88.6,47.476a17.525,17.525,0,0,1-2.59,1.08Z" transform="translate(-31.168 -8.722)" fill="#fafafa"/>
    <path id="Trazado_720745" data-name="Trazado 720745" d="M17.835,182.72l1.283.764,26.322-15.2-1.282-.766Z" transform="translate(-6.194 -61.126)" fill="#fafafa"/>
    <path id="Trazado_720746" data-name="Trazado 720746" d="M44.9,128.319,19.86,142.773V74.945L44.9,60.5Z" transform="translate(-6.936 -21.923)" fill="#fff"/>
    <path id="Trazado_720747" data-name="Trazado 720747" d="M47.2,52.7,16.04,70.689v74.926L47.2,127.623Zm-2.421,73.529-26.322,15.2V72.087l26.322-15.2Z" transform="translate(-5.537 -19.064)" fill="#f0f0f0"/>
    <path id="Trazado_720748" data-name="Trazado 720748" d="M60.657,128.649l-1.282-.765V60.066l1.283-.753Z" transform="translate(-21.411 -21.488)" fill="#e0e0e0"/>
    <path id="Trazado_720749" data-name="Trazado 720749" d="M46.451,52.266l-1.3-.746L13.984,69.513l1.3.745Z" transform="translate(-4.784 -18.633)" fill="#fafafa"/>
    <path id="Trazado_720750" data-name="Trazado 720750" d="M13.984,79.914l1.3.745v74.926l-1.3-.746Z" transform="translate(-4.784 -29.034)" fill="#e0e0e0"/>
    <path id="Trazado_720751" data-name="Trazado 720751" d="M44.108,129.375,22.824,141.664v-61.9L44.108,67.476Z" transform="translate(-8.022 -24.478)" fill="#f0f0f0"/>
    <path id="Trazado_720752" data-name="Trazado 720752" d="M44.108,129.375,22.824,141.664v-61.9L44.108,67.476Z" transform="translate(-8.022 -24.478)" fill="#f0f0f0"/>
    <path id="Trazado_720753" data-name="Trazado 720753" d="M22.824,149.352a19.911,19.911,0,0,0,3.042-.025,38.238,38.238,0,0,0,10.366-2.255c2.576-.951,5.15-2.184,7.875-2.26V157.7l-2.883,1.664a9.722,9.722,0,0,0-3.951-2.194c-4.1-1.079-8.307.984-12.521,1.466a16.761,16.761,0,0,1-1.93.1Z" transform="translate(-8.022 -52.807)" fill="#fafafa"/>
    <path id="Trazado_720754" data-name="Trazado 720754" d="M22.824,111.456c4.762-1.408,9.647-2.581,13.046-6.075,2.739-2.816,4.029-6.718,4.931-10.541s1.52-7.771,3.251-11.3c.017-.035.039-.068.056-.1v28.467c-.267.4-.533.8-.818,1.182-3.127,4.237-7.734,7.775-12.993,8.049-2.471.129-5.026-.45-7.473-.442Z" transform="translate(-8.022 -30.326)" fill="#fafafa"/>
    <path id="Trazado_720755" data-name="Trazado 720755" d="M22.824,94.323a14.512,14.512,0,0,0,4.715-13.2c-.066-.357-.15-.71-.24-1.062l8.188-4.727c-.032.539-.058,1.077-.073,1.613a47.973,47.973,0,0,1-.671,9.342,18.351,18.351,0,0,1-9.329,12.056,17.454,17.454,0,0,1-2.59,1.08Z" transform="translate(-8.022 -27.355)" fill="#fafafa"/>
    <path id="Trazado_720756" data-name="Trazado 720756" d="M427.5,247.813l-1.431.853-48.657-28.091,1.43-.854Z" transform="translate(-137.912 -80.247)" fill="#fafafa"/>
    <path id="Trazado_720757" data-name="Trazado 720757" d="M379.671,147.945,426.9,175.208V51.031L379.671,23.779Z" transform="translate(-138.739 -8.471)" fill="#fff"/>
    <path id="Trazado_720758" data-name="Trazado 720758" d="M373.153,147.169l54.056,31.209V46.285L373.152,15.076Zm2.7-127.417,48.657,28.092V173.7l-48.657-28.092Z" transform="translate(-136.351 -5.283)" fill="#f0f0f0"/>
    <path id="Trazado_720759" data-name="Trazado 720759" d="M377.415,148.314l1.43-.854V23.294l-1.43-.84Z" transform="translate(-137.912 -7.986)" fill="#e0e0e0"/>
    <path id="Trazado_720760" data-name="Trazado 720760" d="M426.072,179.157v1.679l-48.657-28.091,1.43-.854Z" transform="translate(-137.912 -55.4)" fill="#fafafa"/>
    <path id="Trazado_720761" data-name="Trazado 720761" d="M426.072,111.3v1.679L377.415,84.888l1.43-.854Z" transform="translate(-137.912 -30.543)" fill="#fafafa"/>
    <path id="Trazado_720762" data-name="Trazado 720762" d="M373.153,14.6l1.453-.831,54.056,31.209-1.452.832Z" transform="translate(-136.351 -4.803)" fill="#fafafa"/>
    <path id="Trazado_720763" data-name="Trazado 720763" d="M459.91,63.013l-1.452.832V195.938l1.453-.831Z" transform="translate(-167.599 -22.843)" fill="#e0e0e0"/>
    <path id="Trazado_720764" data-name="Trazado 720764" d="M420.517,47.339l-1.453-.838V172.365l1.453-.831Z" transform="translate(-153.169 -16.795)" fill="#e0e0e0"/>
    <path id="Trazado_720765" data-name="Trazado 720765" d="M414.8,44.052l2.7,1.552V171.468l-2.7-1.563Z" transform="translate(-151.608 -15.898)" fill="#f0f0f0"/>
    <path id="Trazado_720766" data-name="Trazado 720766" d="M373.153,82.922v3.113l54.057,31.209v-3.113Z" transform="translate(-136.351 -30.136)" fill="#f0f0f0"/>
    <path id="Trazado_720767" data-name="Trazado 720767" d="M373.153,150.767v3.113L427.21,185.09v-3.113Z" transform="translate(-136.351 -54.988)" fill="#f0f0f0"/>
    <path id="Trazado_720768" data-name="Trazado 720768" d="M419.064,108.941l1.453-.84,20.811,12.015V121.8Z" transform="translate(-153.169 -39.359)" fill="#fafafa"/>
    <path id="Trazado_720769" data-name="Trazado 720769" d="M419.064,176.771l1.453-.84,20.811,12.015v1.679Z" transform="translate(-153.169 -64.206)" fill="#fafafa"/>
    <path id="Trazado_720770" data-name="Trazado 720770" d="M287.688,207.239a.642.642,0,0,1,.378-.528,2.021,2.021,0,0,1,1.827,0,.642.642,0,0,1,.378.527l-6.054,19.715h0a.457.457,0,0,1-.266.364,1.427,1.427,0,0,1-1.292,0,.458.458,0,0,1-.266-.364h0Z" transform="translate(-103.104 -75.401)" fill="#4a0a5d"/>
    <path id="Trazado_720771" data-name="Trazado 720771" d="M324.541,207.239a.642.642,0,0,0-.378-.528,2.022,2.022,0,0,0-1.827,0,.642.642,0,0,0-.378.527l6.054,19.715h0a.458.458,0,0,0,.266.364,1.427,1.427,0,0,0,1.291,0,.458.458,0,0,0,.266-.364h0Z" transform="translate(-117.597 -75.401)" fill="#4a0a5d"/>
    <path id="Trazado_720772" data-name="Trazado 720772" d="M309.185,209.335a.642.642,0,0,0-.378-.528,2.016,2.016,0,0,0-1.826,0,.642.642,0,0,0-.378.527l.378,24.864h0a.458.458,0,0,0,.266.364,1.427,1.427,0,0,0,1.291,0,.457.457,0,0,0,.266-.364h0Z" transform="translate(-111.973 -76.169)" fill="#4a0a5d"/>
    <path id="Trazado_720773" data-name="Trazado 720773" d="M318.407,184.684h-.022c0-3.42-2.238-6.84-6.759-9.45-9.039-5.219-23.7-5.219-32.734,0-4.52,2.61-6.762,6.03-6.758,9.45h-.022v1.836c.055,3.376,2.319,6.741,6.78,9.316,9.04,5.218,23.7,5.218,32.734,0,4.462-2.576,6.726-5.941,6.78-9.316v-1.836Z" transform="translate(-99.339 -62.517)" fill="#9f0f6a"/>
    <path id="Trazado_720774" data-name="Trazado 720774" d="M318.407,184.684h-.022c0-3.42-2.238-6.84-6.759-9.45-9.039-5.219-23.7-5.219-32.734,0-4.52,2.61-6.762,6.03-6.758,9.45h-.022v1.836c.055,3.376,2.319,6.741,6.78,9.316,9.04,5.218,23.7,5.218,32.734,0,4.462-2.576,6.726-5.941,6.78-9.316v-1.836Z" transform="translate(-99.339 -62.517)" fill="#fff" opacity="0.6"/>
    <path id="Trazado_720775" data-name="Trazado 720775" d="M278.892,175.234c-9.04,5.218-9.04,13.68,0,18.9s23.7,5.218,32.734,0,9.04-13.681,0-18.9S287.932,170.015,278.892,175.234Z" transform="translate(-99.339 -62.517)" fill="#9f0f6a"/>
    <path id="Trazado_720776" data-name="Trazado 720776" d="M278.892,175.234c-9.04,5.218-9.04,13.68,0,18.9s23.7,5.218,32.734,0,9.04-13.681,0-18.9S287.932,170.015,278.892,175.234Z" transform="translate(-99.339 -62.517)" fill="#fff" opacity="0.8"/>
    <g id="Grupo_1068169" data-name="Grupo 1068169" transform="translate(188.387 116.502)" opacity="0.2">
      <path id="Trazado_720777" data-name="Trazado 720777" d="M309.356,184.718c2.883,1.665,2.883,4.364,0,6.029a11.54,11.54,0,0,1-10.442,0c-2.883-1.665-2.883-4.364,0-6.028A11.539,11.539,0,0,1,309.356,184.718Z" transform="translate(-296.752 -183.47)" fill="#9f0f6a"/>
    </g>
    <path id="Trazado_720778" data-name="Trazado 720778" d="M299.543,184.43c-2.511-2.563-3.987-8.96-1.537-10.993h12.463c2.449,2.032.975,8.426-1.535,10.99-.022.024-.046.047-.068.07l-.086.084c-.071.068-.146.136-.227.2-.02.016-.04.031-.06.047-.061.048-.122.1-.189.143a3.36,3.36,0,0,1-.324.207,8.266,8.266,0,0,1-7.48,0,3.544,3.544,0,0,1-.327-.209c-.062-.044-.119-.089-.176-.134l-.074-.058c-.078-.063-.151-.129-.219-.195-.034-.032-.067-.065-.1-.1S299.56,184.449,299.543,184.43Z" transform="translate(-108.364 -63.293)" fill="#f0f0f0"/>
    <path id="Trazado_720779" data-name="Trazado 720779" d="M309.5,171.433c2.843,1.642,2.843,4.3,0,5.945a11.382,11.382,0,0,1-10.3,0c-2.843-1.642-2.843-4.3,0-5.945A11.379,11.379,0,0,1,309.5,171.433Z" transform="translate(-108.483 -62.108)" fill="#fafafa"/>
    <path id="Trazado_720780" data-name="Trazado 720780" d="M309.136,173.549c1.73,1,1.73,2.618,0,3.617a6.924,6.924,0,0,1-6.265,0c-1.73-1-1.73-2.618,0-3.617A6.924,6.924,0,0,1,309.136,173.549Z" transform="translate(-110.131 -63.059)" fill="#e0e0e0"/>
    <path id="Trazado_720781" data-name="Trazado 720781" d="M303.022,176.258a6.924,6.924,0,0,1,6.265,0,2.874,2.874,0,0,1,1.036.95,2.875,2.875,0,0,1-1.036.951,6.924,6.924,0,0,1-6.265,0,2.875,2.875,0,0,1-1.036-.951A2.863,2.863,0,0,1,303.022,176.258Z" transform="translate(-110.282 -64.052)" fill="#4a0a5d"/>
    <path id="Trazado_720782" data-name="Trazado 720782" d="M307.268,171.186a14.208,14.208,0,0,0,2.266-3.013c1.046-1.85,1.941-4.2,1.4-4.508s-3.444,2.04-3.444,2.04a13.4,13.4,0,0,0,.232-3.158c-.092-1.648-.494-3.146-.966-3.448s-1.528,1.777-1.981,3.284-.634,2.443-.634,2.443-.4-1.734-.9-3.165c-.549-1.564-1.048-1.918-1.434-1.763s-.641.885-.754,2.968a20.628,20.628,0,0,0,.093,2.982s-.776-.854-1.639-1.682c-.947-.909-1.615-.908-1.886-.734s-.082,1.461,1.384,4.113a14.814,14.814,0,0,0,2.767,3.642S303.8,172.494,307.268,171.186Z" transform="translate(-108.644 -58.03)" fill="#9f0f6a"/>
    <g id="Grupo_1068170" data-name="Grupo 1068170" transform="translate(188.871 101.04)" opacity="0.2">
      <path id="Trazado_720783" data-name="Trazado 720783" d="M307.268,171.186a14.208,14.208,0,0,0,2.266-3.013c1.046-1.85,1.941-4.2,1.4-4.508s-3.444,2.04-3.444,2.04a13.4,13.4,0,0,0,.232-3.158c-.092-1.648-.494-3.146-.966-3.448s-1.528,1.777-1.981,3.284-.634,2.443-.634,2.443-.4-1.734-.9-3.165c-.549-1.564-1.048-1.918-1.434-1.763s-.641.885-.754,2.968a20.628,20.628,0,0,0,.093,2.982s-.776-.854-1.639-1.682c-.947-.909-1.615-.908-1.886-.734s-.082,1.461,1.384,4.113a14.814,14.814,0,0,0,2.767,3.642S303.8,172.494,307.268,171.186Z" transform="translate(-297.516 -159.069)"/>
    </g>
    <path id="Trazado_720784" data-name="Trazado 720784" d="M308.6,163.764c-.453,1.507-.634,2.443-.634,2.443l.275,1.3s.284-2.838.684-4.665C308.8,163.155,308.691,163.471,308.6,163.764Z" transform="translate(-112.474 -59.411)" opacity="0.2"/>
    <path id="Trazado_720785" data-name="Trazado 720785" d="M303.672,165.8a18.92,18.92,0,0,1-.4-3.613,14.625,14.625,0,0,0-.188,1.822,20.625,20.625,0,0,0,.093,2.982l2,2.1A17.913,17.913,0,0,1,303.672,165.8Z" transform="translate(-110.676 -59.171)" opacity="0.2"/>
    <path id="Trazado_720786" data-name="Trazado 720786" d="M311.263,167.868l1.262-1.232a13.448,13.448,0,0,0,.232-3.158,11.566,11.566,0,0,0-.254-1.867,8.82,8.82,0,0,1-.148,3.03A28.415,28.415,0,0,1,311.263,167.868Z" transform="translate(-113.68 -58.96)" opacity="0.2"/>
    <path id="Trazado_720787" data-name="Trazado 720787" d="M30.976,402.648,36.46,399.1s2.658-14.14.684-26.643c-2.775-17.579-14.744-23.642-19.091-21.9s-5.369,6.955,2.482,17.112C25.166,373.665,31.124,386.334,30.976,402.648Z" transform="translate(-5.047 -128.069)" fill="#9f0f6a"/>
    <g id="Grupo_1068171" data-name="Grupo 1068171" transform="translate(9.656 222.202)" opacity="0.3">
      <path id="Trazado_720788" data-name="Trazado 720788" d="M30.976,402.648,36.46,399.1s2.658-14.14.684-26.643c-2.775-17.579-14.744-23.642-19.091-21.9s-5.369,6.955,2.482,17.112C25.166,373.665,31.124,386.334,30.976,402.648Z" transform="translate(-14.703 -350.271)" fill="#fff"/>
    </g>
    <path id="Trazado_720789" data-name="Trazado 720789" d="M36.427,397.123a.4.4,0,0,1-.054,0,.391.391,0,0,1-.335-.442c2.274-16.458-4.344-34.489-11.78-41.756a.392.392,0,1,1,.548-.561c7.572,7.4,14.317,25.724,12.008,42.424A.392.392,0,0,1,36.427,397.123Z" transform="translate(-8.504 -129.526)" fill="#fff"/>
    <path id="Trazado_720790" data-name="Trazado 720790" d="M12.125,421.361c-.822.472-3.163-1.336-3.812-1.771a7.85,7.85,0,0,1-2.61-3,7.351,7.351,0,0,1-.653-4.416,17.376,17.376,0,0,1,.559-2.348l.655-2.279a5.779,5.779,0,0,0,.335-2.3c-.2-1.559-1.584-2.651-2.841-3.594-1.391-1.042-2.84-2.417-2.832-4.294a6.6,6.6,0,0,1,1.653-3.929c.9-1.137,1.963-2.141,2.774-3.34a4.614,4.614,0,0,0,.945-2.917,4.806,4.806,0,0,0-.635-1.822A25.777,25.777,0,0,1,3.668,381.7a3.675,3.675,0,0,1,.633-3.885,4.3,4.3,0,0,1,3.229-.8,7.409,7.409,0,0,1,3,1.058c2.98,1.657,4.68,5.186,7.843,6.461a31.63,31.63,0,0,0,3.827.935,4.724,4.724,0,0,1,3.156,2.161c1.161,2.318-.993,5.175-.177,7.637.722,2.178,2.838,3.011,4.026,4.974a4.658,4.658,0,0,1,.556,2.851,13.668,13.668,0,0,1-1.2,4.817,43,43,0,0,1-2.632,4.531S12.251,421.289,12.125,421.361Z" transform="translate(0 -137.857)" fill="#9f0f6a"/>
    <g id="Grupo_1068172" data-name="Grupo 1068172" transform="translate(0.925 239.135)" opacity="0.65">
      <path id="Trazado_720791" data-name="Trazado 720791" d="M12.125,421.361c-.822.472-3.163-1.336-3.812-1.771a7.85,7.85,0,0,1-2.61-3,7.351,7.351,0,0,1-.653-4.416,17.376,17.376,0,0,1,.559-2.348l.655-2.279a5.779,5.779,0,0,0,.335-2.3c-.2-1.559-1.584-2.651-2.841-3.594-1.391-1.042-2.84-2.417-2.832-4.294a6.6,6.6,0,0,1,1.653-3.929c.9-1.137,1.963-2.141,2.774-3.34a4.614,4.614,0,0,0,.945-2.917,4.806,4.806,0,0,0-.635-1.822A25.777,25.777,0,0,1,3.668,381.7a3.675,3.675,0,0,1,.633-3.885,4.3,4.3,0,0,1,3.229-.8,7.409,7.409,0,0,1,3,1.058c2.98,1.657,4.68,5.186,7.843,6.461a31.63,31.63,0,0,0,3.827.935,4.724,4.724,0,0,1,3.156,2.161c1.161,2.318-.993,5.175-.177,7.637.722,2.178,2.838,3.011,4.026,4.974a4.658,4.658,0,0,1,.556,2.851,13.668,13.668,0,0,1-1.2,4.817,43,43,0,0,1-2.632,4.531S12.251,421.289,12.125,421.361Z" transform="translate(-0.925 -376.992)" fill="#fff"/>
    </g>
    <path id="Trazado_720792" data-name="Trazado 720792" d="M24.306,418.391H24.3a.373.373,0,0,1-.361-.387c.613-14.731-6.327-30.993-11.375-35.718a.371.371,0,1,1,.508-.542c5.149,4.82,12.23,21.352,11.609,36.29A.371.371,0,0,1,24.306,418.391Z" transform="translate(-4.219 -139.561)" fill="#fff"/>
    <path id="Trazado_720793" data-name="Trazado 720793" d="M20.979,409.785a.365.365,0,0,1-.11-.017,49.777,49.777,0,0,0-10.69-1.723.372.372,0,0,1-.356-.387.36.36,0,0,1,.386-.356,50.7,50.7,0,0,1,10.879,1.757.371.371,0,0,1-.11.725Z" transform="translate(-3.26 -148.96)" fill="#fff"/>
    <path id="Trazado_720794" data-name="Trazado 720794" d="M151.976,219.156V10.279c0-5.374-2.67-6.856-5.04-8.225a9.875,9.875,0,0,0-9.643-.253L51.039,51.6a13.483,13.483,0,0,0-6.1,10.566V271.043c0,3.89,2.44,6.184,4.811,7.552s6.5,2.871,9.873.926l86.253-49.8A11.474,11.474,0,0,0,151.976,219.156Z" transform="translate(-16.123 0)" fill="#4a0a5d"/>
    <path id="Trazado_720795" data-name="Trazado 720795" d="M146.49,253.217,57.795,304.425l.028-209.78-11.1-6.407a12.472,12.472,0,0,0-1.786,6.011V303.126c0,3.89,2.44,6.184,4.811,7.552s6.5,2.871,9.873.926l86.253-49.8a11.644,11.644,0,0,0,5.282-5.893l-.343-.2Z" transform="translate(-16.123 -32.083)" fill="#630d7c"/>
    <path id="Trazado_720796" data-name="Trazado 720796" d="M151.492,12.614l-86.5,49.944a9.481,9.481,0,0,0-4.284,7.41V277.149c0,4.176,2.967,5.884,6.585,3.793l84.2-48.61a10.762,10.762,0,0,0,4.851-8.4V15.415C156.344,12.331,154.159,11.073,151.492,12.614Z" transform="translate(-21.899 -4.14)" fill="#4a0a5d"/>
    <path id="Trazado_720797" data-name="Trazado 720797" d="M155.408,40.344v182.23a10.674,10.674,0,0,1-4.819,8.355L69.023,278.024c-2.66,1.547-4.819.3-4.819-2.777V91.528a10.769,10.769,0,0,1,3.382-7.265c.155-.14.3-.28.457-.413a8.225,8.225,0,0,1,.98-.67L148.83,37.1l.479-.28C152.668,34.885,155.408,36.469,155.408,40.344Z" transform="translate(-23.18 -12.946)"/>
    <path id="Trazado_720798" data-name="Trazado 720798" d="M143.589,226.3a10.673,10.673,0,0,0,4.819-8.355V38.126s-22.124,12.768-22.175,12.8c-.752.53-57.21,33.029-57.21,33.029a8.327,8.327,0,0,0-.98.67c-.155.132-.3.272-.457.413A10.769,10.769,0,0,0,64.2,92.308V272.134Z" transform="translate(-23.179 -13.727)" fill="#fafafa"/>
    <path id="Trazado_720799" data-name="Trazado 720799" d="M120.9,64.957l12.257-7.076c.731-.422,1.324-.122,1.324.67a2.841,2.841,0,0,1-1.324,2.2L120.9,67.826c-.731.422-1.324.122-1.324-.67A2.837,2.837,0,0,1,120.9,64.957Z" transform="translate(-43.462 -20.893)" fill="#630d7c"/>
    <path id="Trazado_720800" data-name="Trazado 720800" d="M150.067,51.225c.824-.476,1.492-.09,1.492.861a3.3,3.3,0,0,1-1.492,2.584c-.824.476-1.492.09-1.492-.861A3.3,3.3,0,0,1,150.067,51.225Z" transform="translate(-54.086 -18.45)" fill="#630d7c"/>
    <path id="Trazado_720801" data-name="Trazado 720801" d="M53.99,134.744a5.152,5.152,0,0,0-2.255-4.077,1.494,1.494,0,0,0-1.545-.127c-.283.17-1.4.79-1.691.968a1.766,1.766,0,0,0-.7,1.6v17.02a5.152,5.152,0,0,0,2.255,4.077,1.526,1.526,0,0,0,1.49.158c.311-.163,1.448-.821,1.743-1a1.763,1.763,0,0,0,.7-1.6Z" transform="translate(-17.172 -47.52)" fill="#4a0a5d"/>
    <path id="Trazado_720802" data-name="Trazado 720802" d="M52.312,136.268v17.02c0,1.533-1.009,2.193-2.255,1.473a5.154,5.154,0,0,1-2.255-4.077v-17.02c0-1.533,1.009-2.193,2.255-1.473A5.156,5.156,0,0,1,52.312,136.268Z" transform="translate(-17.172 -48.077)" fill="#4a0a5d"/>
    <path id="Trazado_720803" data-name="Trazado 720803" d="M53.99,181.752a5.152,5.152,0,0,0-2.255-4.077,1.493,1.493,0,0,0-1.545-.127c-.283.17-1.4.79-1.691.968a1.767,1.767,0,0,0-.7,1.6v17.02a5.154,5.154,0,0,0,2.255,4.077,1.526,1.526,0,0,0,1.49.158c.311-.163,1.448-.821,1.743-1a1.763,1.763,0,0,0,.7-1.6Z" transform="translate(-17.172 -64.74)" fill="#4a0a5d"/>
    <path id="Trazado_720804" data-name="Trazado 720804" d="M52.312,183.276V200.3c0,1.533-1.009,2.193-2.255,1.473a5.154,5.154,0,0,1-2.255-4.077v-17.02c0-1.533,1.009-2.193,2.255-1.473A5.154,5.154,0,0,1,52.312,183.276Z" transform="translate(-17.172 -65.297)" fill="#4a0a5d"/>
    <path id="Trazado_720805" data-name="Trazado 720805" d="M162.274,36,77.405,84.938a4.219,4.219,0,0,0-1.911,3.308V275.513a4.2,4.2,0,0,0,1.915,3.3l1.193.682a4.244,4.244,0,0,0,3.826-.008l84.87-49.012a4.225,4.225,0,0,0,1.911-3.31V39.981a4.2,4.2,0,0,0-1.915-3.3L166.1,36A4.249,4.249,0,0,0,162.274,36Z" transform="translate(-27.315 -12.781)" fill="#e0e0e0"/>
    <path id="Trazado_720806" data-name="Trazado 720806" d="M172.111,229.285c0,1.68-1.179,2.751-2.641,3.59L86.06,281.038c-1.454.84-2.641.162-2.641-1.527V93.931a5.259,5.259,0,0,1,2.629-4.554L169.467,41.19a1.762,1.762,0,0,1,2.643,1.526v186.57Z" transform="translate(-30.218 -14.762)" fill="#fafafa"/>
    <path id="Trazado_720807" data-name="Trazado 720807" d="M169.52,39.983v.75a1.765,1.765,0,0,0-2.648-1.523L83.456,87.4a5.116,5.116,0,0,0-1.919,1.919.234.234,0,0,0-.03.059L76.343,86.4a3.928,3.928,0,0,1,1.375-1.456L162.584,36A4.247,4.247,0,0,1,166.409,36l1.191.684A4.2,4.2,0,0,1,169.52,39.983Z" transform="translate(-27.626 -12.781)" fill="#f0f0f0"/>
    <path id="Trazado_720808" data-name="Trazado 720808" d="M84.58,123.776,171.8,73.418V61.129L84.58,111.485Z" transform="translate(-30.644 -22.153)" fill="#9f0f6a"/>
    <path id="Trazado_720809" data-name="Trazado 720809" d="M84.58,123.776,171.8,73.418V61.129L84.58,111.485Z" transform="translate(-30.644 -22.153)" fill="#fff" opacity="0.5"/>
    <path id="Trazado_720810" data-name="Trazado 720810" d="M94.369,131.9l29.125-16.815c.784-.452,1.419-.131,1.419.719a3.045,3.045,0,0,1-1.419,2.358L94.369,134.977c-.784.452-1.419.131-1.419-.718A3.045,3.045,0,0,1,94.369,131.9Z" transform="translate(-33.709 -41.843)" fill="#fafafa"/>
    <path id="Trazado_720811" data-name="Trazado 720811" d="M209.119,72.4c1.471-.849,2.664-.161,2.664,1.538a5.9,5.9,0,0,1-2.672,4.618c-1.476.852-2.668.163-2.664-1.538A5.909,5.909,0,0,1,209.119,72.4Z" transform="translate(-75.285 -26.15)" fill="#fff" opacity="0.75"/>
    <path id="Trazado_720812" data-name="Trazado 720812" d="M209.8,74.541a3.273,3.273,0,0,0-1.48,2.558c0,.613.28.983.7,1.041v.717l.6-.828a1.747,1.747,0,0,0,.17-.079,3.264,3.264,0,0,0,1.48-2.558C211.28,74.452,210.619,74.071,209.8,74.541Z" transform="translate(-75.973 -26.992)" fill="#4a0a5d"/>
    <path id="Trazado_720813" data-name="Trazado 720813" d="M196.5,79.689c1.471-.849,2.664-.161,2.664,1.538a5.9,5.9,0,0,1-2.672,4.618c-1.476.852-2.668.163-2.664-1.538A5.915,5.915,0,0,1,196.5,79.689Z" transform="translate(-70.663 -28.818)" fill="#fff" opacity="0.75"/>
    <path id="Trazado_720814" data-name="Trazado 720814" d="M198.685,84.416l-.9-.518a2.534,2.534,0,0,0,.3-1.118.893.893,0,0,0-1.449-.836,2.811,2.811,0,0,0-1.288,2.226,1,1,0,0,0,.432.921.777.777,0,0,0,.395.1,1.259,1.259,0,0,0,.622-.188,2.552,2.552,0,0,0,.827-.824l.9.518a.164.164,0,0,0,.164-.285Zm-1.253-.54s0,0,0,0,0,0,0,.006a2.3,2.3,0,0,1-.793.836.574.574,0,0,1-.956-.552,2.487,2.487,0,0,1,1.124-1.943.935.935,0,0,1,.454-.143.457.457,0,0,1,.232.058.693.693,0,0,1,.27.637A2.286,2.286,0,0,1,197.432,83.876Z" transform="translate(-71.22 -29.709)" fill="#4a0a5d"/>
    <path id="Trazado_720815" data-name="Trazado 720815" d="M84.58,373.575v9.472c0,1.66,1.167,1.653,2.6.827L169.2,336.51c1.437-.826,2.6-1.879,2.6-3.531v-9.761Z" transform="translate(-30.644 -118.159)" fill="#9f0f6a"/>
    <path id="Trazado_720816" data-name="Trazado 720816" d="M84.58,373.575v9.472c0,1.66,1.167,1.653,2.6.827L169.2,336.51c1.437-.826,2.6-1.879,2.6-3.531v-9.761Z" transform="translate(-30.644 -118.159)" fill="#fff" opacity="0.5"/>
    <path id="Trazado_720817" data-name="Trazado 720817" d="M113.241,392.092l-.891.515v3.519l-1.1.638v-2.626l-1.049.605v2.626l-1.1.637v-3.518l-.887.511,2.516-4.931Z" transform="translate(-39.298 -142.647)" fill="#9f0f6a"/>
    <path id="Trazado_720818" data-name="Trazado 720818" d="M138.332,380.858a1.284,1.284,0,0,1-.65-.173,2.674,2.674,0,0,1-1-2.418c0-1.974,1.053-4.188,2.348-4.935a1.5,1.5,0,0,1,1.535-.088,2.677,2.677,0,0,1,.995,2.418c0,1.975-1.053,4.188-2.348,4.935A1.774,1.774,0,0,1,138.332,380.858Zm1.587-7.423a1.415,1.415,0,0,0-.7.213c-1.194.69-2.165,2.762-2.165,4.62a2.379,2.379,0,0,0,.812,2.1,1.135,1.135,0,0,0,1.17-.088c1.194-.689,2.165-2.762,2.165-4.62a2.379,2.379,0,0,0-.812-2.1A.927.927,0,0,0,139.919,373.435Z" transform="translate(-49.731 -136.421)" fill="#fff"/>
    <path id="Trazado_720819" data-name="Trazado 720819" d="M139.777,378.163a.526.526,0,0,1-.265-.071,1.063,1.063,0,0,1-.4-.962,2.176,2.176,0,0,1,.812-1.77.577.577,0,0,1,.594-.024,1.063,1.063,0,0,1,.4.961,2.179,2.179,0,0,1-.812,1.77A.673.673,0,0,1,139.777,378.163Zm.475-2.534a.3.3,0,0,0-.147.046,1.851,1.851,0,0,0-.629,1.455c0,.383.117.588.219.646.023.013.094.054.229-.023a1.854,1.854,0,0,0,.629-1.456c0-.383-.117-.587-.219-.646A.146.146,0,0,0,140.252,375.629Z" transform="translate(-50.619 -137.224)" fill="#fff"/>
    <path id="Trazado_720820" data-name="Trazado 720820" d="M138.069,383.138l-.023,0a.182.182,0,0,1-.158-.2l.042-.327a2.817,2.817,0,0,1,1.118-2.006l.853-.492a.805.805,0,0,1,.766-.065,1.1,1.1,0,0,1,.534.88l.042.279a.181.181,0,0,1-.152.207.175.175,0,0,1-.207-.152l-.042-.279a.777.777,0,0,0-.331-.607.461.461,0,0,0-.426.053l-.853.492a2.48,2.48,0,0,0-.938,1.738l-.042.326A.185.185,0,0,1,138.069,383.138Z" transform="translate(-50.171 -138.949)" fill="#fff"/>
    <path id="Trazado_720821" data-name="Trazado 720821" d="M165.241,365.314a.5.5,0,0,1-.3-.1,1.21,1.21,0,0,1-.251-1.24,2.833,2.833,0,0,1,.158-.482l.073-.169a2.342,2.342,0,0,0,.2-.9v-.445a4.31,4.31,0,0,1,1.674-3.507,1.1,1.1,0,0,1,1.131-.061,1.927,1.927,0,0,1,.725,1.742v.445a.972.972,0,0,0,.167.615l.073.086a.976.976,0,0,1,.183.345,1.931,1.931,0,0,1-.691,1.96l-2.81,1.623A.65.65,0,0,1,165.241,365.314Zm2.194-6.674a.959.959,0,0,0-.465.141,3.981,3.981,0,0,0-1.49,3.191v.445a2.707,2.707,0,0,1-.226,1.049l-.073.169a2.455,2.455,0,0,0-.137.419c-.1.438-.02.767.113.864.022.017.084.065.227-.016l2.81-1.623a1.591,1.591,0,0,0,.526-1.536.607.607,0,0,0-.112-.217l-.073-.085a1.31,1.31,0,0,1-.255-.853v-.445a1.616,1.616,0,0,0-.542-1.426A.592.592,0,0,0,167.435,358.64Z" transform="translate(-59.968 -131.001)" fill="#fff"/>
    <path id="Trazado_720822" data-name="Trazado 720822" d="M167.4,368.436a.544.544,0,0,1-.222-.046.778.778,0,0,1-.408-.577.183.183,0,0,1,.138-.218.186.186,0,0,1,.218.138.44.44,0,0,0,.2.323.267.267,0,0,0,.247-.039,1.663,1.663,0,0,0,.626-1.1.184.184,0,0,1,.21-.148.181.181,0,0,1,.148.211,2.007,2.007,0,0,1-.8,1.354A.7.7,0,0,1,167.4,368.436Z" transform="translate(-60.748 -134.111)" fill="#fff"/>
    <path id="Trazado_720823" data-name="Trazado 720823" d="M167.234,358.836a.182.182,0,0,1-.181-.161,1.23,1.23,0,0,1-.01-.157,1.585,1.585,0,0,1,.627-1.291.482.482,0,0,1,.5-.021.763.763,0,0,1,.306.694,1.616,1.616,0,0,1-.009.165.182.182,0,0,1-.362-.038,1.22,1.22,0,0,0,.006-.127c0-.213-.061-.343-.123-.378-.035-.02-.079-.013-.139.02a1.239,1.239,0,0,0-.444.976,1.081,1.081,0,0,0,.006.113.181.181,0,0,1-.159.2Z" transform="translate(-60.851 -130.587)" fill="#fff"/>
    <path id="Trazado_720824" data-name="Trazado 720824" d="M192.151,344.429a.183.183,0,0,1-.091-.34l4.016-2.319a.182.182,0,1,1,.182.315l-4.016,2.319A.173.173,0,0,1,192.151,344.429Z" transform="translate(-69.981 -124.946)" fill="#fff"/>
    <path id="Trazado_720825" data-name="Trazado 720825" d="M192.151,348.092a.183.183,0,0,1-.091-.34l4.016-2.319a.182.182,0,1,1,.182.315l-4.016,2.319A.18.18,0,0,1,192.151,348.092Z" transform="translate(-69.981 -126.287)" fill="#fff"/>
    <path id="Trazado_720826" data-name="Trazado 720826" d="M192.151,351.754a.183.183,0,0,1-.091-.34l4.016-2.319a.182.182,0,1,1,.182.315l-4.016,2.319A.174.174,0,0,1,192.151,351.754Z" transform="translate(-69.981 -127.629)" fill="#fff"/>
    <path id="Trazado_720827" data-name="Trazado 720827" d="M170.347,41.686a1.031,1.031,0,0,1,1.029,1.029v186.57c0,1.139-.7,2.05-2.273,2.954L85.693,280.4a1.69,1.69,0,0,1-.81.261c-.633,0-.727-.721-.727-1.151V93.931a4.536,4.536,0,0,1,2.261-3.917l83.42-48.186A1.009,1.009,0,0,1,170.347,41.686Zm0-.735a1.75,1.75,0,0,0-.879.239L86.049,89.376a5.259,5.259,0,0,0-2.629,4.554V279.512c0,1.2.6,1.887,1.463,1.887a2.393,2.393,0,0,0,1.178-.36l83.41-48.162c1.462-.84,2.641-1.911,2.641-3.59V42.716A1.765,1.765,0,0,0,170.347,40.951Z" transform="translate(-30.219 -14.762)" fill="#e0e0e0"/>
    <path id="Trazado_720828" data-name="Trazado 720828" d="M106.086,118.971a.173.173,0,0,1-.022-.107v-.523l-.818.473c-.045.025-.067,0-.067-.073v-.188a.562.562,0,0,1,.008-.1.818.818,0,0,1,.029-.1l.87-2.376a.519.519,0,0,1,.042-.093.147.147,0,0,1,.057-.051l.114-.065c.034-.02.059-.021.075,0a.2.2,0,0,1,.023.115V117.7l.181-.1c.035-.02.059-.021.072,0a.212.212,0,0,1,.021.115v.125a.334.334,0,0,1-.021.131.16.16,0,0,1-.072.079l-.181.1v.523a.317.317,0,0,1-.022.132.182.182,0,0,1-.076.081l-.138.079C106.126,118.986,106.1,118.987,106.086,118.971Zm.032-1.107v-1.3l-.594,1.647Z" transform="translate(-38.189 -42.161)" fill="#4a0a5d"/>
    <path id="Trazado_720829" data-name="Trazado 720829" d="M108.007,117.5a1.719,1.719,0,0,1-.24-1.069,3.4,3.4,0,0,1,.241-1.345,1.649,1.649,0,0,1,.678-.816.931.931,0,0,1,.328-.125.364.364,0,0,1,.253.037.05.05,0,0,1,.023.046.236.236,0,0,1-.01.06l-.075.273c-.011.034-.02.054-.031.06a.058.058,0,0,1-.034,0,.468.468,0,0,0-.418.067,1.136,1.136,0,0,0-.463.563,2.558,2.558,0,0,0-.168.995,1.371,1.371,0,0,0,.163.806q.163.2.447.036a1.239,1.239,0,0,0,.2-.146.976.976,0,0,0,.16-.177v-.85l-.341.2c-.035.02-.059.022-.072,0a.205.205,0,0,1-.021-.114v-.12a.333.333,0,0,1,.021-.133.164.164,0,0,1,.072-.077l.545-.314c.037-.022.065-.021.081,0a.25.25,0,0,1,.025.135v1.212a.6.6,0,0,1-.008.108.243.243,0,0,1-.034.082,1.765,1.765,0,0,1-.646.639C108.393,117.7,108.167,117.694,108.007,117.5Z" transform="translate(-39.137 -41.573)" fill="#4a0a5d"/>
    <path id="Trazado_720830" data-name="Trazado 720830" d="M118.484,112.566a1.254,1.254,0,0,1-.475,1.006c-.262.151-.475-.053-.475-.457a1.254,1.254,0,0,1,.475-1.006C118.271,111.957,118.484,112.162,118.484,112.566Z" transform="translate(-42.715 -40.809)" fill="#4a0a5d"/>
    <path id="Trazado_720831" data-name="Trazado 720831" d="M117.632,110.172a2.863,2.863,0,0,0-1.105,1.658c-.042.148-.021.289.051.333h0c.09.056.223-.06.276-.247a2.012,2.012,0,0,1,.778-1.171.5.5,0,0,1,.778.273c.053.126.187.089.278-.072h0a.492.492,0,0,0,.05-.39A.717.717,0,0,0,117.632,110.172Z" transform="translate(-42.338 -40.07)" fill="#4a0a5d"/>
    <path id="Trazado_720832" data-name="Trazado 720832" d="M117.284,108.278a4.445,4.445,0,0,0-1.7,2.414c-.053.157-.037.316.039.364h0c.087.056.213-.053.272-.232a3.616,3.616,0,0,1,1.383-1.974.918.918,0,0,1,1.385.376c.06.11.185.074.272-.082a.474.474,0,0,0,.04-.409A1.127,1.127,0,0,0,117.284,108.278Z" transform="translate(-41.991 -39.347)" fill="#4a0a5d"/>
    <path id="Trazado_720833" data-name="Trazado 720833" d="M147.017,93.043a.129.129,0,0,1-.017-.087.252.252,0,0,1,.033-.106l.682-1.221c.017-.029.034-.057.052-.086a.177.177,0,0,1,.058-.06l.245-.141a.045.045,0,0,1,.06,0,.1.1,0,0,1,.025.077V94.55a.248.248,0,0,1-.025.106.164.164,0,0,1-.06.074l-.255.147a.044.044,0,0,1-.06,0,.1.1,0,0,1-.025-.077V92.4l-.446.795a.128.128,0,0,1-.061.062.049.049,0,0,1-.058-.018Z" transform="translate(-53.508 -33.217)" fill="#4a0a5d"/>
    <path id="Trazado_720834" data-name="Trazado 720834" d="M149.526,91.593a.128.128,0,0,1-.017-.087.26.26,0,0,1,.032-.106l.682-1.221c.016-.029.034-.058.052-.086a.181.181,0,0,1,.058-.06l.245-.142a.045.045,0,0,1,.06,0,.1.1,0,0,1,.025.077V93.1a.241.241,0,0,1-.025.106.155.155,0,0,1-.06.073l-.254.147a.046.046,0,0,1-.06,0,.1.1,0,0,1-.025-.077v-2.39l-.446.795a.131.131,0,0,1-.061.062.048.048,0,0,1-.058-.018Z" transform="translate(-54.427 -32.686)" fill="#4a0a5d"/>
    <path id="Trazado_720835" data-name="Trazado 720835" d="M152.611,90.463a.046.046,0,0,1,.06,0,.1.1,0,0,1,.025.077v.475a.249.249,0,0,1-.025.106.161.161,0,0,1-.06.074l-.292.169a.046.046,0,0,1-.06,0,.1.1,0,0,1-.025-.077v-.475a.249.249,0,0,1,.025-.106.162.162,0,0,1,.06-.073Zm0,1.693a.047.047,0,0,1,.06,0,.1.1,0,0,1,.025.077v.475a.249.249,0,0,1-.025.106.161.161,0,0,1-.06.074l-.292.169a.046.046,0,0,1-.06,0,.1.1,0,0,1-.025-.077V92.5a.254.254,0,0,1,.025-.107.162.162,0,0,1,.06-.073Z" transform="translate(-55.426 -32.895)" fill="#4a0a5d"/>
    <path id="Trazado_720836" data-name="Trazado 720836" d="M154.816,90.723a.045.045,0,0,1-.06,0,.1.1,0,0,1-.025-.077v-.586l-.975.562a.045.045,0,0,1-.06,0,.1.1,0,0,1-.025-.077v-.343a.429.429,0,0,1,.02-.131c.015-.042.03-.087.049-.136l.962-2.4a.388.388,0,0,1,.129-.2l.239-.138a.046.046,0,0,1,.06,0,.1.1,0,0,1,.025.077v1.935l.271-.157a.045.045,0,0,1,.06,0,.1.1,0,0,1,.025.077v.344a.253.253,0,0,1-.025.106.158.158,0,0,1-.06.073l-.271.157V90.4a.248.248,0,0,1-.025.106.157.157,0,0,1-.06.074Zm-.085-1.272V88.416l-.538,1.346Z" transform="translate(-55.953 -31.696)" fill="#4a0a5d"/>
    <path id="Trazado_720837" data-name="Trazado 720837" d="M157.361,85.977a.254.254,0,0,1,.025-.106.156.156,0,0,1,.06-.074l1.181-.682a.046.046,0,0,1,.06,0,.1.1,0,0,1,.025.077v.344a.249.249,0,0,1-.025.106.157.157,0,0,1-.06.074l-.883.509-.035.64a.869.869,0,0,1,.168-.16c.055-.038.1-.068.137-.089a.817.817,0,0,1,.326-.116.369.369,0,0,1,.261.064.51.51,0,0,1,.172.252,1.309,1.309,0,0,1,.063.443,2.329,2.329,0,0,1-.065.567,1.988,1.988,0,0,1-.176.465,1.536,1.536,0,0,1-.262.359,1.507,1.507,0,0,1-.321.25.94.94,0,0,1-.373.138.371.371,0,0,1-.258-.062.443.443,0,0,1-.153-.216,1.034,1.034,0,0,1-.058-.327.2.2,0,0,1,.023-.108.168.168,0,0,1,.061-.072l.255-.146a.05.05,0,0,1,.056,0,.1.1,0,0,1,.035.065.3.3,0,0,0,.06.147.164.164,0,0,0,.094.057.226.226,0,0,0,.12-.013.87.87,0,0,0,.138-.066.743.743,0,0,0,.289-.317,1.019,1.019,0,0,0,.11-.475.35.35,0,0,0-.11-.3.256.256,0,0,0-.289.016.743.743,0,0,0-.15.108.781.781,0,0,0-.09.1c-.023.032-.044.062-.063.087a.233.233,0,0,1-.072.063l-.289.167a.046.046,0,0,1-.06,0,.1.1,0,0,1-.025-.077Z" transform="translate(-57.234 -30.936)" fill="#4a0a5d"/>
    <path id="Trazado_720838" data-name="Trazado 720838" d="M92.342,128.812V127.8l.873-.5v1.009Z" transform="translate(-33.487 -46.392)" fill="#4a0a5d"/>
    <path id="Trazado_720839" data-name="Trazado 720839" d="M94.409,127.035v-2.017l.873-.5v2.017Z" transform="translate(-34.244 -45.372)" fill="#4a0a5d"/>
    <path id="Trazado_720840" data-name="Trazado 720840" d="M96.477,125.259v-3.026l.874-.5v3.025Z" transform="translate(-35.002 -44.351)" fill="#4a0a5d"/>
    <path id="Trazado_720841" data-name="Trazado 720841" d="M98.545,123.48v-4.034l.874-.5v4.035Z" transform="translate(-35.759 -43.331)" fill="#4a0a5d"/>
    <path id="Trazado_720842" data-name="Trazado 720842" d="M211.344,54.437c-.093-.136-.207-.172-.324-.1l-3.262,1.876a1.245,1.245,0,0,0-.377.99v1.833a1.074,1.074,0,0,0,.142.585.331.331,0,0,0,.131.12.2.2,0,0,0,.193-.016l3.262-1.876a1.246,1.246,0,0,0,.377-.991V55.021A1.061,1.061,0,0,0,211.344,54.437Zm-3.732,4.945a.523.523,0,0,1-.053-.268V57.281a.979.979,0,0,1,.287-.755l3.262-1.876a.114.114,0,0,1,.1-.013.1.1,0,0,1,.042.037.522.522,0,0,1,.053.267v1.833a.978.978,0,0,1-.287.755l-3.262,1.876A.1.1,0,0,1,207.611,59.382Z" transform="translate(-75.627 -19.651)" fill="#4a0a5d"/>
    <path id="Trazado_720843" data-name="Trazado 720843" d="M208.739,57.75v2.169l-.513.294a.067.067,0,0,1-.1-.056V58.544a.76.76,0,0,1,.212-.563Z" transform="translate(-75.9 -20.915)" fill="#4a0a5d"/>
    <path id="Trazado_720844" data-name="Trazado 720844" d="M209.468,57.337l.613-.356V59.15l-.613.35Z" transform="translate(-76.392 -20.634)" fill="#4a0a5d"/>
    <path id="Trazado_720845" data-name="Trazado 720845" d="M210.81,56.568l.612-.357v2.176l-.612.35Z" transform="translate(-76.883 -20.351)" fill="#4a0a5d"/>
    <path id="Trazado_720846" data-name="Trazado 720846" d="M212.764,55.623v1.563a.812.812,0,0,1-.406.7l-.207.119V55.835l.488-.281A.083.083,0,0,1,212.764,55.623Z" transform="translate(-77.374 -20.107)" fill="#4a0a5d"/>
    <path id="Trazado_720847" data-name="Trazado 720847" d="M213.955,55.344c.09-.054.164.208.164.584v.341a1.356,1.356,0,0,1-.165.793l-.165.112,0-1.734Z" transform="translate(-77.974 -20.031)" fill="#4a0a5d"/>
    <path id="Trazado_720848" data-name="Trazado 720848" d="M199.562,62.467l3.172-2.816-.978,4.128-.463-1.717Z" transform="translate(-72.763 -21.612)" fill="#4a0a5d"/>
    <path id="Trazado_720849" data-name="Trazado 720849" d="M257.325,213.752V86.14a2.943,2.943,0,0,1,1.286-2.328c.71-.411,1.286-.034,1.286.841V212.265a2.943,2.943,0,0,1-1.286,2.328C257.9,215,257.325,214.627,257.325,213.752Z" transform="translate(-93.922 -30.401)" fill="#9f0f6a"/>
    <path id="Trazado_720850" data-name="Trazado 720850" d="M258.258,114.978v-5.633a1.592,1.592,0,0,1,.7-1.259c.384-.222.7-.018.7.455v5.633a1.59,1.59,0,0,1-.7,1.258C258.569,115.654,258.258,115.451,258.258,114.978Z" transform="translate(-94.264 -39.321)" fill="#fff"/>
    <g id="Grupo_1068173" data-name="Grupo 1068173" transform="translate(63.149 51.971)" opacity="0.2">
      <path id="Trazado_720851" data-name="Trazado 720851" d="M190.524,114.6c0,1.731-1.215,2.835-2.722,3.7L101.84,167.934c-1.5.866-2.722.167-2.722-1.573V136.236a5.42,5.42,0,0,1,2.71-4.694L187.8,81.882a1.816,1.816,0,0,1,2.724,1.572V114.6Z" transform="translate(-99.118 -81.635)"/>
    </g>
    <path id="Trazado_720852" data-name="Trazado 720852" d="M193.061,85.651,109,134.122A4.181,4.181,0,0,0,107.1,137.4v30.449a4.16,4.16,0,0,0,1.9,3.27l1.181.676a4.2,4.2,0,0,0,3.789-.008l83.523-48.237c1.045-.6,2.435-2.381,2.435-3.589V89.592a4.162,4.162,0,0,0-1.9-3.271l-1.181-.676A4.209,4.209,0,0,0,193.061,85.651Z" transform="translate(-38.894 -30.969)" fill="#9f0f6a"/>
    <path id="Trazado_720853" data-name="Trazado 720853" d="M193.061,85.651,109,134.122A4.181,4.181,0,0,0,107.1,137.4v30.449a4.16,4.16,0,0,0,1.9,3.27l1.181.676a4.2,4.2,0,0,0,3.789-.008l83.523-48.237c1.045-.6,2.435-2.381,2.435-3.589V89.592a4.162,4.162,0,0,0-1.9-3.271l-1.181-.676A4.209,4.209,0,0,0,193.061,85.651Z" transform="translate(-38.894 -30.969)" opacity="0.25"/>
    <path id="Trazado_720854" data-name="Trazado 720854" d="M202.806,122.058c0,1.664-1.168,2.724-2.616,3.556L117.571,173.32c-1.44.832-2.616.16-2.616-1.512V143.029a5.209,5.209,0,0,1,2.6-4.511l82.629-47.729a1.745,1.745,0,0,1,2.618,1.511Z" transform="translate(-41.77 -32.931)" fill="#fafafa"/>
    <path id="Trazado_720855" data-name="Trazado 720855" d="M201.058,91.208A1.1,1.1,0,0,1,202.15,92.3v29.758c0,1.158-.705,2.079-2.288,2.988l-82.619,47.706a1.749,1.749,0,0,1-.838.269c-.716,0-.793-.849-.793-1.213V143.03a4.566,4.566,0,0,1,2.276-3.943l82.629-47.729A1.069,1.069,0,0,1,201.058,91.208Zm0-.656a1.732,1.732,0,0,0-.87.236l-82.629,47.729a5.209,5.209,0,0,0-2.6,4.511v28.779c0,1.186.591,1.869,1.449,1.869a2.366,2.366,0,0,0,1.167-.357l82.619-47.705c1.448-.832,2.616-1.892,2.616-3.556V92.3A1.748,1.748,0,0,0,201.058,90.552Z" transform="translate(-41.77 -32.931)" fill="#e6e6e6"/>
    <path id="Trazado_720856" data-name="Trazado 720856" d="M200.239,89.594v.743a1.748,1.748,0,0,0-2.622-1.508L114.991,136.56a5.062,5.062,0,0,0-1.9,1.9.2.2,0,0,0-.029.058l-5.114-2.95a3.884,3.884,0,0,1,1.362-1.442l84.061-48.474a4.2,4.2,0,0,1,3.788-.007l1.18.677A4.155,4.155,0,0,1,200.239,89.594Z" transform="translate(-39.203 -30.97)" fill="#9f0f6a"/>
    <path id="Trazado_720857" data-name="Trazado 720857" d="M200.239,89.594v.743a1.748,1.748,0,0,0-2.622-1.508L114.991,136.56a5.062,5.062,0,0,0-1.9,1.9.2.2,0,0,0-.029.058l-5.114-2.95a3.884,3.884,0,0,1,1.362-1.442l84.061-48.474a4.2,4.2,0,0,1,3.788-.007l1.18.677A4.155,4.155,0,0,1,200.239,89.594Z" transform="translate(-39.203 -30.97)" fill="#fff" opacity="0.45"/>
    <path id="Trazado_720858" data-name="Trazado 720858" d="M128.068,167.055c-1.971,1.141-3.568,4.523-3.568,7.562a4.273,4.273,0,0,0,1.2,3.412l.062-.518a4.24,4.24,0,0,1,1.629-2.956l1.349-.778c.788-.456,1.463,0,1.629,1.079l.073.425a10.868,10.868,0,0,0,1.193-4.782C131.637,167.459,130.04,165.924,128.068,167.055Zm0,5.725c-.632.363-1.141-.187-1.141-1.234a3.174,3.174,0,0,1,1.141-2.552c.633-.363,1.141.187,1.141,1.234A3.172,3.172,0,0,1,128.068,172.78Z" transform="translate(-45.267 -60.819)" fill="#9f0f6a"/>
    <path id="Trazado_720859" data-name="Trazado 720859" d="M126.66,178.536a2,2,0,0,1-1.013-.269c-.992-.572-1.56-1.957-1.56-3.8,0-3.113,1.66-6.6,3.7-7.783a2.34,2.34,0,0,1,2.4-.139c.992.572,1.56,1.957,1.56,3.8,0,3.114-1.659,6.606-3.7,7.783A2.79,2.79,0,0,1,126.66,178.536Zm2.51-11.742a2.266,2.266,0,0,0-1.124.34c-1.9,1.1-3.441,4.385-3.441,7.333,0,1.627.486,2.88,1.3,3.35a1.822,1.822,0,0,0,1.881-.14c1.9-1.094,3.44-4.384,3.44-7.333,0-1.627-.486-2.88-1.3-3.35A1.507,1.507,0,0,0,129.17,166.794Z" transform="translate(-45.116 -60.67)" fill="#9f0f6a"/>
    <path id="Trazado_720860" data-name="Trazado 720860" d="M142.32,156.753l19.4-11.2c.761-.439,1.378-.113,1.378.729a2.983,2.983,0,0,1-1.377,2.319l-19.4,11.2c-.761.439-1.378.113-1.378-.729A2.983,2.983,0,0,1,142.32,156.753Z" transform="translate(-51.29 -53.007)" fill="#4a0a5d"/>
    <path id="Trazado_720861" data-name="Trazado 720861" d="M141.27,169.589a.328.328,0,0,1-.164-.612l14.544-8.4a.327.327,0,1,1,.328.567l-14.544,8.4A.319.319,0,0,1,141.27,169.589Z" transform="translate(-51.29 -58.567)" fill="#e0e0e0"/>
    <path id="Trazado_720862" data-name="Trazado 720862" d="M239.3,109.069a1.76,1.76,0,0,0,.8-1.379c0-.508-.356-.714-.8-.459a1.76,1.76,0,0,0-.8,1.379C238.5,109.118,238.857,109.323,239.3,109.069Z" transform="translate(-87.027 -39.001)" fill="#e0e0e0"/>
    <path id="Trazado_720863" data-name="Trazado 720863" d="M243.421,106.7a1.76,1.76,0,0,0,.8-1.379c0-.508-.357-.714-.8-.459a1.76,1.76,0,0,0-.8,1.379C242.625,106.748,242.982,106.954,243.421,106.7Z" transform="translate(-88.537 -38.133)" fill="#e0e0e0"/>
    <path id="Trazado_720864" data-name="Trazado 720864" d="M235.172,111.44a1.76,1.76,0,0,0,.8-1.379c0-.508-.356-.714-.8-.459a1.759,1.759,0,0,0-.8,1.379C234.376,111.489,234.733,111.695,235.172,111.44Z" transform="translate(-85.516 -39.869)" fill="#e0e0e0"/>
    <path id="Trazado_720865" data-name="Trazado 720865" d="M171.273,158.655a2.861,2.861,0,0,0,1.294-2.241c0-.825-.579-1.16-1.294-.747a2.859,2.859,0,0,0-1.294,2.241C169.98,158.733,170.559,159.067,171.273,158.655Z" transform="translate(-61.926 -56.719)" fill="#e0e0e0"/>
    <path id="Trazado_720866" data-name="Trazado 720866" d="M125.459,167.489l71.9-41.514c.758-.437,1.372-.127,1.372.694a2.943,2.943,0,0,1-1.372,2.278l-71.9,41.514c-.758.437-1.372.127-1.372-.694A2.94,2.94,0,0,1,125.459,167.489Z" transform="translate(-45.116 -45.834)" fill="#e0e0e0"/>
    <path id="Trazado_720867" data-name="Trazado 720867" d="M126.413,206.2l-.817-.216c-.781-.207-1.711-.663-1.711-1.663a2.631,2.631,0,0,1,1.268-2,.8.8,0,0,1,1.258.6,3.158,3.158,0,0,1,1.258-2.054c.7-.4,1.268-.164,1.268.536,0,1-.928,2.53-1.707,3.635Z" transform="translate(-45.042 -73.269)" fill="#9f0f6a"/>
    <path id="Trazado_720868" data-name="Trazado 720868" d="M137.811,200.007a1.251,1.251,0,0,1-.633-.164,1.626,1.626,0,0,1-.7-1.5,4.75,4.75,0,0,1,2.146-3.717,1.443,1.443,0,0,1,2.348,1.355,3.633,3.633,0,0,1-.134.945l.7.952a.2.2,0,0,1-.163.32h-1.084a4.308,4.308,0,0,1-1.461,1.5A2.06,2.06,0,0,1,137.811,200.007Zm1.827-5.284a1.666,1.666,0,0,0-.812.253,4.306,4.306,0,0,0-1.945,3.369,1.052,1.052,0,0,0,1.744,1.006A3.961,3.961,0,0,0,140,197.9a.2.2,0,0,1,.174-.1h.8l-.5-.68a.2.2,0,0,1-.056-.2,3.315,3.315,0,0,0,.147-.934,1.25,1.25,0,0,0-.5-1.15A.854.854,0,0,0,139.638,194.723Z" transform="translate(-49.655 -70.942)" fill="#e0e0e0"/>
    <path id="Trazado_720869" data-name="Trazado 720869" d="M148.409,193.616l-.027,0a.2.2,0,0,1-.174-.188l-.177-2.9-1.719-.464a.2.2,0,0,1-.147-.169.2.2,0,0,1,.1-.2l4.091-2.362a.2.2,0,0,1,.291.24L148.6,193.48A.2.2,0,0,1,148.409,193.616Zm-1.525-3.812,1.391.376a.2.2,0,0,1,.149.182l.125,2.035,1.539-4.443Z" transform="translate(-53.202 -68.374)" fill="#e0e0e0"/>
    <path id="Trazado_720870" data-name="Trazado 720870" d="M149.3,190.575a.2.2,0,0,1-.158-.325l2.232-2.864a.2.2,0,1,1,.317.248l-2.232,2.864A.2.2,0,0,1,149.3,190.575Z" transform="translate(-54.277 -68.374)" fill="#e0e0e0"/>
    <path id="Trazado_720871" data-name="Trazado 720871" d="M236.736,142.479a.2.2,0,0,1-.043,0,.2.2,0,0,1-.158-.2v-4.724a.2.2,0,0,1,.1-.174l2.988-1.734a.2.2,0,0,1,.3.174v4.724a.2.2,0,0,1-.343.143l-1.3-1.291-1.366,2.968A.2.2,0,0,1,236.736,142.479Zm.2-4.81v3.689l1.1-2.394a.2.2,0,0,1,.147-.114.2.2,0,0,1,.177.055l1.16,1.153v-3.89Z" transform="translate(-86.306 -49.439)" fill="#e0e0e0"/>
    <g id="Grupo_1068174" data-name="Grupo 1068174" transform="translate(63.149 100.652)" opacity="0.2">
      <path id="Trazado_720872" data-name="Trazado 720872" d="M190.524,240.46c0,1.731-1.215,2.835-2.722,3.7L101.84,293.8c-1.5.866-2.722.167-2.722-1.573V213.058a5.42,5.42,0,0,1,2.71-4.694L187.8,158.7a1.816,1.816,0,0,1,2.724,1.572V240.46Z" transform="translate(-99.118 -158.457)"/>
    </g>
    <path id="Trazado_720873" data-name="Trazado 720873" d="M193.061,162.47,109,210.941a4.18,4.18,0,0,0-1.893,3.277v77.93a4.16,4.16,0,0,0,1.9,3.27l1.181.676a4.205,4.205,0,0,0,3.789-.008l83.406-48.172c1.045-.6,2.552-2.447,2.552-3.655V166.411a4.162,4.162,0,0,0-1.9-3.271l-1.181-.676A4.207,4.207,0,0,0,193.061,162.47Z" transform="translate(-38.894 -59.109)" fill="#9f0f6a"/>
    <path id="Trazado_720874" data-name="Trazado 720874" d="M193.061,162.47,109,210.941a4.18,4.18,0,0,0-1.893,3.277v77.93a4.16,4.16,0,0,0,1.9,3.27l1.181.676a4.205,4.205,0,0,0,3.789-.008l83.406-48.172c1.045-.6,2.552-2.447,2.552-3.655V166.411a4.162,4.162,0,0,0-1.9-3.271l-1.181-.676A4.207,4.207,0,0,0,193.061,162.47Z" transform="translate(-38.894 -59.109)" opacity="0.25"/>
    <path id="Trazado_720875" data-name="Trazado 720875" d="M202.806,246.358c0,1.664-1.168,2.724-2.616,3.556L117.571,297.62c-1.44.832-2.616.16-2.616-1.512v-76.26a5.209,5.209,0,0,1,2.6-4.511l82.629-47.729a1.745,1.745,0,0,1,2.618,1.511Z" transform="translate(-41.77 -61.07)" fill="#fafafa"/>
    <path id="Trazado_720876" data-name="Trazado 720876" d="M201.058,168.027a1.094,1.094,0,0,1,1.092,1.092v77.24c0,1.158-.705,2.079-2.288,2.988l-82.619,47.705a1.749,1.749,0,0,1-.838.269c-.716,0-.793-.848-.793-1.213v-76.26a4.566,4.566,0,0,1,2.276-3.943l82.629-47.729A1.078,1.078,0,0,1,201.058,168.027Zm0-.656a1.732,1.732,0,0,0-.87.236l-82.629,47.729a5.209,5.209,0,0,0-2.6,4.511v76.26c0,1.186.591,1.869,1.449,1.869a2.364,2.364,0,0,0,1.167-.357l82.619-47.705c1.448-.832,2.616-1.892,2.616-3.556v-77.24A1.747,1.747,0,0,0,201.058,167.371Z" transform="translate(-41.77 -61.071)" fill="#e6e6e6"/>
    <path id="Trazado_720877" data-name="Trazado 720877" d="M200.239,166.412v.743a1.748,1.748,0,0,0-2.622-1.508l-82.626,47.731a5.062,5.062,0,0,0-1.9,1.9.2.2,0,0,0-.029.058l-5.114-2.95a3.889,3.889,0,0,1,1.362-1.442l84.061-48.475a4.2,4.2,0,0,1,3.788-.007l1.18.677A4.156,4.156,0,0,1,200.239,166.412Z" transform="translate(-39.203 -59.109)" fill="#9f0f6a"/>
    <path id="Trazado_720878" data-name="Trazado 720878" d="M200.239,166.412v.743a1.748,1.748,0,0,0-2.622-1.508l-82.626,47.731a5.062,5.062,0,0,0-1.9,1.9.2.2,0,0,0-.029.058l-5.114-2.95a3.889,3.889,0,0,1,1.362-1.442l84.061-48.475a4.2,4.2,0,0,1,3.788-.007l1.18.677A4.156,4.156,0,0,1,200.239,166.412Z" transform="translate(-39.203 -59.109)" fill="#fff" opacity="0.45"/>
    <path id="Trazado_720879" data-name="Trazado 720879" d="M128.068,243.877c-1.971,1.141-3.568,4.523-3.568,7.562a4.273,4.273,0,0,0,1.2,3.412l.062-.518a4.24,4.24,0,0,1,1.629-2.956l1.349-.778c.788-.456,1.463,0,1.629,1.079l.073.425a10.868,10.868,0,0,0,1.193-4.782C131.637,244.282,130.04,242.747,128.068,243.877Zm0,5.726c-.632.363-1.141-.187-1.141-1.234a3.174,3.174,0,0,1,1.141-2.552c.633-.363,1.141.187,1.141,1.234A3.173,3.173,0,0,1,128.068,249.6Z" transform="translate(-45.267 -88.96)" fill="#9f0f6a"/>
    <path id="Trazado_720880" data-name="Trazado 720880" d="M126.66,255.359a2,2,0,0,1-1.013-.269c-.992-.572-1.56-1.957-1.56-3.8,0-3.113,1.66-6.6,3.7-7.783a2.34,2.34,0,0,1,2.4-.139c.992.572,1.56,1.957,1.56,3.8,0,3.114-1.659,6.606-3.7,7.783A2.79,2.79,0,0,1,126.66,255.359Zm2.51-11.742a2.266,2.266,0,0,0-1.124.34c-1.9,1.1-3.441,4.385-3.441,7.333,0,1.627.486,2.88,1.3,3.35a1.822,1.822,0,0,0,1.881-.14c1.9-1.094,3.44-4.384,3.44-7.333,0-1.627-.486-2.88-1.3-3.35A1.5,1.5,0,0,0,129.17,243.617Z" transform="translate(-45.116 -88.811)" fill="#9f0f6a"/>
    <path id="Trazado_720881" data-name="Trazado 720881" d="M142.32,233.575l19.4-11.2c.761-.439,1.378-.113,1.378.729a2.983,2.983,0,0,1-1.377,2.319l-19.4,11.2c-.761.439-1.378.113-1.378-.729A2.983,2.983,0,0,1,142.32,233.575Z" transform="translate(-51.29 -81.148)" fill="#4a0a5d"/>
    <path id="Trazado_720882" data-name="Trazado 720882" d="M141.27,246.412a.328.328,0,0,1-.164-.612l14.544-8.4a.327.327,0,1,1,.328.567l-14.544,8.4A.319.319,0,0,1,141.27,246.412Z" transform="translate(-51.29 -86.708)" fill="#e0e0e0"/>
    <path id="Trazado_720883" data-name="Trazado 720883" d="M239.3,185.891a1.76,1.76,0,0,0,.8-1.379c0-.508-.356-.714-.8-.459a1.76,1.76,0,0,0-.8,1.379C238.5,185.94,238.857,186.146,239.3,185.891Z" transform="translate(-87.027 -67.142)" fill="#e0e0e0"/>
    <path id="Trazado_720884" data-name="Trazado 720884" d="M243.421,183.522a1.76,1.76,0,0,0,.8-1.379c0-.508-.357-.714-.8-.459a1.76,1.76,0,0,0-.8,1.379C242.625,183.571,242.982,183.776,243.421,183.522Z" transform="translate(-88.537 -66.274)" fill="#e0e0e0"/>
    <path id="Trazado_720885" data-name="Trazado 720885" d="M235.172,188.263a1.76,1.76,0,0,0,.8-1.379c0-.508-.356-.714-.8-.459a1.759,1.759,0,0,0-.8,1.379C234.376,188.312,234.733,188.517,235.172,188.263Z" transform="translate(-85.516 -68.01)" fill="#e0e0e0"/>
    <path id="Trazado_720886" data-name="Trazado 720886" d="M171.273,235.478a2.861,2.861,0,0,0,1.294-2.241c0-.825-.579-1.16-1.294-.747a2.859,2.859,0,0,0-1.294,2.241C169.98,235.556,170.559,235.89,171.273,235.478Z" transform="translate(-61.926 -84.86)" fill="#e0e0e0"/>
    <path id="Trazado_720887" data-name="Trazado 720887" d="M125.459,249l57.839-33.41c.758-.437,1.372-.127,1.372.694a2.943,2.943,0,0,1-1.372,2.278l-57.839,33.41c-.758.437-1.372.127-1.372-.694A2.943,2.943,0,0,1,125.459,249Z" transform="translate(-45.116 -78.659)" fill="#e0e0e0"/>
    <path id="Trazado_720888" data-name="Trazado 720888" d="M125.459,266.849l32.907-19.012c.758-.437,1.372-.127,1.372.694a2.942,2.942,0,0,1-1.373,2.278l-32.906,19.012c-.758.437-1.372.127-1.372-.694A2.943,2.943,0,0,1,125.459,266.849Z" transform="translate(-45.116 -90.474)" fill="#e0e0e0"/>
    <path id="Trazado_720889" data-name="Trazado 720889" d="M126.413,356.887l-.817-.216c-.781-.207-1.711-.663-1.711-1.663a2.631,2.631,0,0,1,1.268-2,.8.8,0,0,1,1.258.6,3.158,3.158,0,0,1,1.258-2.054c.7-.4,1.268-.164,1.268.536,0,1-.928,2.53-1.707,3.635Z" transform="translate(-45.042 -128.467)" fill="#9f0f6a"/>
    <path id="Trazado_720890" data-name="Trazado 720890" d="M137.811,350.7a1.251,1.251,0,0,1-.633-.164,1.626,1.626,0,0,1-.7-1.5,4.75,4.75,0,0,1,2.146-3.717,1.443,1.443,0,0,1,2.348,1.355,3.633,3.633,0,0,1-.134.945l.7.952a.2.2,0,0,1-.163.32h-1.084a4.308,4.308,0,0,1-1.461,1.5A2.067,2.067,0,0,1,137.811,350.7Zm1.827-5.285a1.666,1.666,0,0,0-.812.253,4.306,4.306,0,0,0-1.945,3.369,1.052,1.052,0,0,0,1.744,1.006A3.961,3.961,0,0,0,140,348.585a.2.2,0,0,1,.174-.1h.8l-.5-.68a.2.2,0,0,1-.056-.2,3.315,3.315,0,0,0,.147-.934,1.25,1.25,0,0,0-.5-1.15A.854.854,0,0,0,139.638,345.41Z" transform="translate(-49.655 -126.141)" fill="#e0e0e0"/>
    <path id="Trazado_720891" data-name="Trazado 720891" d="M148.409,344.3l-.027,0a.2.2,0,0,1-.174-.188l-.177-2.9-1.719-.465a.2.2,0,0,1-.048-.369l4.091-2.362a.2.2,0,0,1,.291.24l-2.046,5.9A.2.2,0,0,1,148.409,344.3Zm-1.525-3.812,1.391.376a.2.2,0,0,1,.149.182l.125,2.035,1.539-4.443Z" transform="translate(-53.202 -123.572)" fill="#e0e0e0"/>
    <path id="Trazado_720892" data-name="Trazado 720892" d="M149.3,341.263a.2.2,0,0,1-.158-.325l2.232-2.864a.2.2,0,1,1,.317.248l-2.232,2.864A.2.2,0,0,1,149.3,341.263Z" transform="translate(-54.277 -123.572)" fill="#e0e0e0"/>
    <path id="Trazado_720893" data-name="Trazado 720893" d="M236.736,293.166a.2.2,0,0,1-.2-.2v-4.724a.2.2,0,0,1,.1-.174l2.988-1.734a.2.2,0,0,1,.3.174v4.724a.2.2,0,0,1-.343.143l-1.3-1.292-1.366,2.968A.2.2,0,0,1,236.736,293.166Zm.2-4.809v3.688l1.1-2.394a.2.2,0,0,1,.147-.114.2.2,0,0,1,.177.055l1.16,1.153v-3.89Z" transform="translate(-86.306 -104.637)" fill="#e0e0e0"/>
    <path id="Trazado_720894" data-name="Trazado 720894" d="M123.277,278.249v36.739c0,.525.369.738.823.475l34.391-19.855a1.82,1.82,0,0,0,.823-1.426V257.443c0-.525-.369-.738-.823-.475L124.1,276.823A1.819,1.819,0,0,0,123.277,278.249Z" transform="translate(-44.819 -93.85)" fill="#9f0f6a"/>
    <path id="Trazado_720895" data-name="Trazado 720895" d="M123.277,278.249v36.739c0,.525.369.738.823.475l34.391-19.855a1.82,1.82,0,0,0,.823-1.426V257.443c0-.525-.369-.738-.823-.475L124.1,276.823A1.819,1.819,0,0,0,123.277,278.249Z" transform="translate(-44.819 -93.85)" fill="#fff" opacity="0.5"/>
    <path id="Trazado_720896" data-name="Trazado 720896" d="M126.276,280.09l32.235-18.61v34.248L126.276,314.34Z" transform="translate(-45.917 -95.544)" fill="#fff" opacity="0.5"/>
    <path id="Trazado_720897" data-name="Trazado 720897" d="M126.276,325.641V314.517l8.706-19.765,14.193,9.859-4.7-4.777,5.985-7.5,8.055,3.653v11.046Z" transform="translate(-45.917 -106.844)" fill="#fff"/>
    <path id="Trazado_720898" data-name="Trazado 720898" d="M158.348,277.187c1.421-.821,2.574-.155,2.574,1.486a5.691,5.691,0,0,1-2.574,4.459c-1.421.821-2.574.155-2.574-1.486A5.688,5.688,0,0,1,158.348,277.187Z" transform="translate(-56.723 -101.169)" fill="#fff"/>
    <path id="Trazado_720899" data-name="Trazado 720899" d="M188.269,240.726v36.739c0,.525.369.738.823.475l34.391-19.855a1.821,1.821,0,0,0,.823-1.426V219.92c0-.525-.369-.738-.823-.475L189.092,239.3A1.819,1.819,0,0,0,188.269,240.726Z" transform="translate(-68.626 -80.105)" fill="#9f0f6a"/>
    <path id="Trazado_720900" data-name="Trazado 720900" d="M188.269,240.726v36.739c0,.525.369.738.823.475l34.391-19.855a1.821,1.821,0,0,0,.823-1.426V219.92c0-.525-.369-.738-.823-.475L189.092,239.3A1.819,1.819,0,0,0,188.269,240.726Z" transform="translate(-68.626 -80.105)" fill="#fff" opacity="0.5"/>
    <path id="Trazado_720901" data-name="Trazado 720901" d="M191.269,242.566l32.235-18.61v34.249l-32.235,18.611Z" transform="translate(-69.725 -81.798)" fill="#fff" opacity="0.5"/>
    <path id="Trazado_720902" data-name="Trazado 720902" d="M191.269,288.117V276.994l8.7-19.766,14.193,9.859-4.7-4.776,5.985-7.5,8.055,3.654v11.046Z" transform="translate(-69.725 -93.099)" fill="#fff"/>
    <path id="Trazado_720903" data-name="Trazado 720903" d="M223.341,239.663c1.421-.821,2.574-.155,2.574,1.486a5.692,5.692,0,0,1-2.574,4.459c-1.421.821-2.574.155-2.574-1.486A5.689,5.689,0,0,1,223.341,239.663Z" transform="translate(-80.53 -87.423)" fill="#fff"/>
    <path id="Trazado_720904" data-name="Trazado 720904" d="M314.949,80.981l0-.007-3.045-1.758h0c-1.126-.668-2.8-.538-4.668.541-2.586,1.493-4.8,5.116-5.7,8.157l-2.16-1.24h0a3.931,3.931,0,0,0-4.313.112q-.315.182-.62.39c-.108.074-.214.155-.32.233s-.188.133-.28.2c-.143.112-.282.231-.421.349-.052.044-.106.086-.157.131-.163.144-.322.3-.479.449l-.074.069c-.175.174-.345.354-.511.537l-.014.015a14.442,14.442,0,0,0-1.4,1.829,10.6,10.6,0,0,0-1.864,5.476c0,3.215,1.985,5.267,4.425,6.577h0l2.4,1.385a16.787,16.787,0,0,0,4.576,1.889l3.957,1.047,3.955-5.618C312,96.4,316.5,89,316.5,84.153A3.374,3.374,0,0,0,314.949,80.981Z" transform="translate(-105.497 -28.629)" fill="#9f0f6a"/>
    <path id="Trazado_720905" data-name="Trazado 720905" d="M314.949,80.981l0-.007-3.045-1.758h0c-1.126-.668-2.8-.538-4.668.541-2.586,1.493-4.8,5.116-5.7,8.157l-2.16-1.24h0a3.931,3.931,0,0,0-4.313.112q-.315.182-.62.39c-.108.074-.214.155-.32.233s-.188.133-.28.2c-.143.112-.282.231-.421.349-.052.044-.106.086-.157.131-.163.144-.322.3-.479.449l-.074.069c-.175.174-.345.354-.511.537l-.014.015a14.442,14.442,0,0,0-1.4,1.829,10.6,10.6,0,0,0-1.864,5.476c0,3.215,1.985,5.267,4.425,6.577h0l2.4,1.385a16.787,16.787,0,0,0,4.576,1.889l3.957,1.047,3.955-5.618C312,96.4,316.5,89,316.5,84.153A3.374,3.374,0,0,0,314.949,80.981Z" transform="translate(-105.497 -28.629)" fill="#fff" opacity="0.45"/>
    <path id="Trazado_720906" data-name="Trazado 720906" d="M295.71,111.453l-2.366-1.361c-2.436-1.312-4.424-3.362-4.424-6.578a10.59,10.59,0,0,1,1.865-5.477l3.12,1.8a10.588,10.588,0,0,0-1.865,5.477A7.079,7.079,0,0,0,295.71,111.453Z" transform="translate(-105.496 -35.673)" fill="#9f0f6a"/>
    <g id="Grupo_1068175" data-name="Grupo 1068175" transform="translate(183.425 62.364)" opacity="0.2">
      <path id="Trazado_720907" data-name="Trazado 720907" d="M295.71,111.453l-2.366-1.361c-2.436-1.312-4.424-3.362-4.424-6.578a10.59,10.59,0,0,1,1.865-5.477l3.12,1.8a10.588,10.588,0,0,0-1.865,5.477A7.079,7.079,0,0,0,295.71,111.453Z" transform="translate(-288.921 -98.037)" fill="#fff"/>
    </g>
    <path id="Trazado_720908" data-name="Trazado 720908" d="M316.01,80.962c-1.124-.606-2.76-.452-4.577.6-3.12,1.8-5.7,6.7-6.087,9.94-.39-2.786-2.967-4.713-6.087-2.909a13.068,13.068,0,0,0-4.274,4.2l-3.12-1.8c.048-.075.1-.15.149-.224s.079-.123.127-.184c.105-.154.215-.307.325-.456a14.7,14.7,0,0,1,1.014-1.2c.087-.1.18-.189.272-.281.066-.066.132-.132.2-.193a11.521,11.521,0,0,1,2.19-1.672,4.763,4.763,0,0,1,2.37-.7,3.459,3.459,0,0,1,1.944.588l2.159,1.238c.9-3.041,3.116-6.662,5.705-8.154,1.869-1.08,3.542-1.211,4.665-.544h0Z" transform="translate(-106.574 -28.629)" fill="#9f0f6a"/>
    <path id="Trazado_720909" data-name="Trazado 720909" d="M316.01,80.962c-1.124-.606-2.76-.452-4.577.6-3.12,1.8-5.7,6.7-6.087,9.94-.39-2.786-2.967-4.713-6.087-2.909a13.068,13.068,0,0,0-4.274,4.2l-3.12-1.8c.048-.075.1-.15.149-.224s.079-.123.127-.184c.105-.154.215-.307.325-.456a14.7,14.7,0,0,1,1.014-1.2c.087-.1.18-.189.272-.281.066-.066.132-.132.2-.193a11.521,11.521,0,0,1,2.19-1.672,4.763,4.763,0,0,1,2.37-.7,3.459,3.459,0,0,1,1.944.588l2.159,1.238c.9-3.041,3.116-6.662,5.705-8.154,1.869-1.08,3.542-1.211,4.665-.544h0Z" transform="translate(-106.574 -28.629)" fill="#fff" opacity="0.75"/>
    <path id="Trazado_720910" data-name="Trazado 720910" d="M322.488,38.024l0,0-1.564-.9h0a2.406,2.406,0,0,0-2.4.278,7.7,7.7,0,0,0-2.928,4.189l-1.109-.637h0a2.017,2.017,0,0,0-2.215.057c-.108.062-.214.129-.319.2-.056.037-.11.079-.164.12s-.1.068-.144.105c-.073.057-.144.119-.216.179-.027.023-.055.044-.081.067-.084.074-.165.151-.246.231l-.038.035q-.135.134-.262.276l-.007.008a7.4,7.4,0,0,0-.719.94,5.441,5.441,0,0,0-.957,2.812,3.781,3.781,0,0,0,2.272,3.378l1.233.711a8.624,8.624,0,0,0,2.35.97l2.032.538,2.031-2.885c1.935-2.749,4.242-6.548,4.242-9.038A1.737,1.737,0,0,0,322.488,38.024Z" transform="translate(-112.897 -13.28)" fill="#9f0f6a"/>
    <path id="Trazado_720911" data-name="Trazado 720911" d="M322.488,38.024l0,0-1.564-.9h0a2.406,2.406,0,0,0-2.4.278,7.7,7.7,0,0,0-2.928,4.189l-1.109-.637h0a2.017,2.017,0,0,0-2.215.057c-.108.062-.214.129-.319.2-.056.037-.11.079-.164.12s-.1.068-.144.105c-.073.057-.144.119-.216.179-.027.023-.055.044-.081.067-.084.074-.165.151-.246.231l-.038.035q-.135.134-.262.276l-.007.008a7.4,7.4,0,0,0-.719.94,5.441,5.441,0,0,0-.957,2.812,3.781,3.781,0,0,0,2.272,3.378l1.233.711a8.624,8.624,0,0,0,2.35.97l2.032.538,2.031-2.885c1.935-2.749,4.242-6.548,4.242-9.038A1.737,1.737,0,0,0,322.488,38.024Z" transform="translate(-112.897 -13.28)" opacity="0.3"/>
    <path id="Trazado_720912" data-name="Trazado 720912" d="M312.608,53.672l-1.215-.7a3.783,3.783,0,0,1-2.272-3.378,5.438,5.438,0,0,1,.958-2.812l1.6.924a5.435,5.435,0,0,0-.958,2.812A3.636,3.636,0,0,0,312.608,53.672Z" transform="translate(-112.895 -16.898)" fill="#9f0f6a"/>
    <g id="Grupo_1068176" data-name="Grupo 1068176" transform="translate(196.226 29.885)" opacity="0.45">
      <path id="Trazado_720913" data-name="Trazado 720913" d="M312.608,53.672l-1.215-.7a3.783,3.783,0,0,1-2.272-3.378,5.438,5.438,0,0,1,.958-2.812l1.6.924a5.435,5.435,0,0,0-.958,2.812A3.636,3.636,0,0,0,312.608,53.672Z" transform="translate(-309.121 -46.783)"/>
    </g>
    <path id="Trazado_720914" data-name="Trazado 720914" d="M323.032,38.014a2.456,2.456,0,0,0-2.35.307,7.848,7.848,0,0,0-3.126,5.1,1.975,1.975,0,0,0-3.126-1.494,6.708,6.708,0,0,0-2.2,2.159l-1.6-.924c.025-.039.049-.077.077-.115s.041-.063.065-.094c.054-.079.11-.158.167-.234a7.506,7.506,0,0,1,.521-.615c.045-.049.093-.1.139-.144s.068-.068.1-.1A5.928,5.928,0,0,1,312.827,41a2.448,2.448,0,0,1,1.217-.359,1.774,1.774,0,0,1,1,.3l1.109.636a7.687,7.687,0,0,1,2.93-4.187,2.4,2.4,0,0,1,2.4-.279h0Z" transform="translate(-113.449 -13.281)" fill="#9f0f6a"/>
    <path id="Trazado_720915" data-name="Trazado 720915" d="M323.032,38.014a2.456,2.456,0,0,0-2.35.307,7.848,7.848,0,0,0-3.126,5.1,1.975,1.975,0,0,0-3.126-1.494,6.708,6.708,0,0,0-2.2,2.159l-1.6-.924c.025-.039.049-.077.077-.115s.041-.063.065-.094c.054-.079.11-.158.167-.234a7.506,7.506,0,0,1,.521-.615c.045-.049.093-.1.139-.144s.068-.068.1-.1A5.928,5.928,0,0,1,312.827,41a2.448,2.448,0,0,1,1.217-.359,1.774,1.774,0,0,1,1,.3l1.109.636a7.687,7.687,0,0,1,2.93-4.187,2.4,2.4,0,0,1,2.4-.279h0Z" transform="translate(-113.449 -13.281)" opacity="0.15"/>
    <path id="Trazado_720916" data-name="Trazado 720916" d="M275.043,34.446a2.817,2.817,0,0,0,.976-1.968c0-1.074-.8-.836-.8-.836a2.952,2.952,0,0,0,.646-1.73.963.963,0,0,0-.416-.864h0L273.414,27.9a.75.75,0,0,0-.839.068L270.8,29a4.931,4.931,0,0,0-.4-1.383.842.842,0,0,0-.392-.429h0l-2.018-1.136c-.68-.444-1.861.4-1.861.734,0,.227.056.99.073,1.724,0,.163.006.324.006.478a4.033,4.033,0,0,1-.074.907c-.016.056-.048.143-.09.256l-.061.158c-.03.076-.062.158-.1.247-.084.208-.183.449-.291.707l-.082.2c-.308.733-.669,1.573-.944,2.208l-.14.324-.276.635-.011-.006,0,3.4,0,5.294.029-.016,2.072,1.2,6.637-3.84a3.055,3.055,0,0,0,1.471-2.3,2.367,2.367,0,0,0-.17-.956,3.155,3.155,0,0,0,1.125-2C275.307,34.647,275.043,34.446,275.043,34.446Z" transform="translate(-96.417 -9.258)" fill="#9f0f6a"/>
    <g id="Grupo_1068177" data-name="Grupo 1068177" transform="translate(169.709 16.67)" opacity="0.4">
      <path id="Trazado_720917" data-name="Trazado 720917" d="M271.155,27.191a1.565,1.565,0,0,0-1.779.779l-2.1-1.18c0-.336,1.18-1.18,1.861-.734Z" transform="translate(-267.276 -25.929)" fill="#fff"/>
      <path id="Trazado_720918" data-name="Trazado 720918" d="M279.22,30.132v0a.79.79,0,0,0-.779.1l-4.011,2.318a7.269,7.269,0,0,0,.136-2.469l1.781-1.032a.756.756,0,0,1,.838-.068Z" transform="translate(-269.897 -27.014)" fill="#fff"/>
    </g>
    <g id="Grupo_1068178" data-name="Grupo 1068178" transform="translate(167.72 25.364)" opacity="0.2">
      <path id="Trazado_720919" data-name="Trazado 720919" d="M266.243,49.524l-2.1-1.212-.007-8.663,2.1,1.212Z" transform="translate(-264.137 -39.649)"/>
    </g>
    <g id="Grupo_1068179" data-name="Grupo 1068179" transform="translate(167.721 17.531)" opacity="0.2">
      <path id="Trazado_720920" data-name="Trazado 720920" d="M268.227,31.574c-.168.6-1.991,4.76-1.991,4.76l-2.1-1.182s1.817-4.156,1.994-4.758a19.09,19.09,0,0,0-.006-3.106l2.1,1.18A18.114,18.114,0,0,1,268.227,31.574Z" transform="translate(-264.139 -27.288)" fill="#fff"/>
    </g>
    <path id="Trazado_720921" data-name="Trazado 720921" d="M263.059,41.853a.8.8,0,0,0-.112-.378.819.819,0,0,0-.271-.286l-1.333-.77a.848.848,0,0,0-.764,0h0l-2.127,1.23a.791.791,0,0,0-.271.286.807.807,0,0,0-.112.378v9.2a.843.843,0,0,0,.383.663l1.333.77a.774.774,0,0,0,.383.091.794.794,0,0,0,.38-.089,0,0,0,0,1,0,0l2.132-1.233a.838.838,0,0,0,.383-.661v0Z" transform="translate(-94.193 -14.534)" fill="#9f0f6a"/>
    <g id="Grupo_1068180" data-name="Grupo 1068180" transform="translate(163.872 27.402)" opacity="0.2">
      <path id="Trazado_720922" data-name="Trazado 720922" d="M260.165,44.012v9.954a.78.78,0,0,1-.383-.091l-1.333-.77a.843.843,0,0,1-.383-.663v-9.2a.807.807,0,0,1,.112-.378Z" transform="translate(-258.065 -42.864)" fill="#fff"/>
    </g>
    <g id="Grupo_1068181" data-name="Grupo 1068181" transform="translate(163.984 25.796)" opacity="0.4">
      <path id="Trazado_720923" data-name="Trazado 720923" d="M263.011,41.476l-2.781,1.608-1.988-1.148a.791.791,0,0,1,.271-.286l2.127-1.23h0a.848.848,0,0,1,.764,0l1.333.77A.8.8,0,0,1,263.011,41.476Z" transform="translate(-258.242 -40.33)" fill="#fff"/>
    </g>
    <path id="Trazado_720924" data-name="Trazado 720924" d="M276.209,345.7a1.075,1.075,0,0,1-1.019-1.412l8.306-25.125a11.681,11.681,0,0,1,4.5-5.39l34.478-19.906a3.217,3.217,0,0,1,5.018,2.277l4.237,12.2a1.075,1.075,0,0,1-2.03.7l-4.265-12.284a1.088,1.088,0,0,1-.044-.174,1.108,1.108,0,0,0-1.842-.869l-34.478,19.906a9.526,9.526,0,0,0-3.549,4.234l-8.3,25.1A1.073,1.073,0,0,1,276.209,345.7Z" transform="translate(-100.446 -107.208)" fill="#630d7c"/>
    <path id="Trazado_720925" data-name="Trazado 720925" d="M356.63,390.8a1.225,1.225,0,0,1-.126-.008,1.075,1.075,0,0,1-.942-1.192l3.45-28.764a8.377,8.377,0,0,1,3.746-5.787l34.478-19.906a3.954,3.954,0,0,1,5.718,1.907c.008.019.016.039.023.058l6.829,24.858a1.074,1.074,0,0,1-2.022.726l-6.817-24.826a1.808,1.808,0,0,0-2.657-.864l-34.478,19.906a6.294,6.294,0,0,0-2.685,4.158L357.7,389.854A1.075,1.075,0,0,1,356.63,390.8Z" transform="translate(-129.905 -122.32)" fill="#630d7c"/>
    <path id="Trazado_720926" data-name="Trazado 720926" d="M332.206,343.524a6.9,6.9,0,0,1-3.386-.823l-39.529-22.841a2.739,2.739,0,0,1,0-5.064l40.249-23.238a7.381,7.381,0,0,1,6.771,0L375.84,314.4a2.738,2.738,0,0,1,0,5.064L335.591,342.7A6.889,6.889,0,0,1,332.206,343.524Zm.719-50.793a4.9,4.9,0,0,0-2.386.56h0L290.29,316.529c-.429.248-.7.554-.7.8s.267.553.7.8l39.529,22.841a5.36,5.36,0,0,0,4.772,0l40.249-23.238c.428-.248.7-.554.7-.8s-.267-.553-.7-.8l-39.529-22.841A4.895,4.895,0,0,0,332.925,292.731Z" transform="translate(-105.011 -106.261)" fill="#4a0a5d"/>
    <path id="Trazado_720927" data-name="Trazado 720927" d="M304.939,310.045a1,1,0,0,1-.975-.786L299.9,290.672a1,1,0,0,1,1.953-.427l4.061,18.587a1,1,0,0,1-.763,1.19A.967.967,0,0,1,304.939,310.045Z" transform="translate(-109.51 -105.792)" fill="#4a0a5d"/>
    <path id="Trazado_720928" data-name="Trazado 720928" d="M334.844,292.778a1,1,0,0,1-.975-.786L329.808,273.4a1,1,0,1,1,1.953-.427l4.061,18.587a1,1,0,0,1-.978,1.213Z" transform="translate(-120.465 -99.467)" fill="#4a0a5d"/>
    <path id="Trazado_720929" data-name="Trazado 720929" d="M330.053,263.361a1.014,1.014,0,0,0-.6-.833L324.22,259.5a3.189,3.189,0,0,0-2.886,0l-37.72,21.778a1.014,1.014,0,0,0-.6.833v1.563a1.014,1.014,0,0,0,.6.833l5.236,3.023a3.189,3.189,0,0,0,2.886,0l37.72-21.778a1.014,1.014,0,0,0,.6-.833Z" transform="translate(-103.333 -94.694)" fill="#4a0a5d"/>
    <path id="Trazado_720930" data-name="Trazado 720930" d="M333.661,262.528l-5.236-3.023a3.19,3.19,0,0,0-2.886,0L294.5,277.428V287.88a2.951,2.951,0,0,0,1.443-.345l37.72-21.779a1.014,1.014,0,0,0,.6-.833v-1.563A1.014,1.014,0,0,0,333.661,262.528Z" transform="translate(-107.539 -94.694)" fill="#630d7c"/>
    <path id="Trazado_720931" data-name="Trazado 720931" d="M321.334,259.506l-37.72,21.778a.88.88,0,0,0,0,1.667l5.236,3.023a3.189,3.189,0,0,0,2.886,0l37.72-21.778a.88.88,0,0,0,0-1.667l-5.236-3.023A3.19,3.19,0,0,0,321.334,259.506Z" transform="translate(-103.333 -94.694)" fill="#4a0a5d"/>
    <path id="Trazado_720932" data-name="Trazado 720932" d="M374.967,305.443l-41.119-23.766a1.014,1.014,0,0,0-1.02.1L293.664,304.4a3.189,3.189,0,0,0-1.443,2.5v6.038a1.014,1.014,0,0,0,.423.934l41.119,23.766a1.012,1.012,0,0,0,1.02-.1l39.163-22.617a3.189,3.189,0,0,0,1.443-2.5v-6.038A1.013,1.013,0,0,0,374.967,305.443Z" transform="translate(-106.705 -102.907)" fill="#9f0f6a"/>
    <path id="Trazado_720933" data-name="Trazado 720933" d="M333.761,351.386l-41.116-23.764a1.02,1.02,0,0,1-.426-.933v-6.038a3.024,3.024,0,0,1,.487-1.52L333.821,342.9a3.014,3.014,0,0,0-.48,1.52v6.038A1.008,1.008,0,0,0,333.761,351.386Z" transform="translate(-106.704 -116.662)" opacity="0.15"/>
    <path id="Trazado_720934" data-name="Trazado 720934" d="M357.109,350.438V344.4a3.189,3.189,0,0,1,1.443-2.5l39.164-22.617a.879.879,0,0,1,1.443.833v6.038a3.19,3.19,0,0,1-1.443,2.5l-39.163,22.617a.88.88,0,0,1-1.444-.833Z" transform="translate(-130.474 -116.645)" opacity="0.25"/>
    <path id="Trazado_720935" data-name="Trazado 720935" d="M398.883,255.428l-35.706-20.634a.922.922,0,0,0-.9.131l-5.236,3.023a4.032,4.032,0,0,0-1.727,2.475L350.467,268.4c-.082.475.021.8.252.937l35.707,20.635a.922.922,0,0,0,.9-.13l5.236-3.023a4.035,4.035,0,0,0,1.727-2.475l4.845-27.975C399.22,255.889,399.116,255.563,398.883,255.428Z" transform="translate(-128.031 -85.743)" fill="#9f0f6a"/>
    <path id="Trazado_720936" data-name="Trazado 720936" d="M386.17,291.5c-.08.48.02.8.253.94l-35.7-20.639c-.233-.133-.333-.46-.253-.933l4.845-27.977a3.706,3.706,0,0,1,.646-1.433l35.7,20.632a3.645,3.645,0,0,0-.646,1.433Z" transform="translate(-128.031 -88.208)" opacity="0.15"/>
    <path id="Trazado_720937" data-name="Trazado 720937" d="M407.969,301.767l5.236-3.023a4.036,4.036,0,0,0,1.727-2.475l4.845-27.975c.082-.477-.022-.8-.255-.938a.923.923,0,0,0-.9.129l-5.236,3.023a4.036,4.036,0,0,0-1.727,2.475l-4.845,27.975c-.082.477.022.8.255.938A.921.921,0,0,0,407.969,301.767Z" transform="translate(-148.67 -97.671)" opacity="0.25"/>
    <path id="Trazado_720938" data-name="Trazado 720938" d="M316.144,363.274s3.346,8.217,3.516,11.458c.176,3.376.992,4.5.417,8.168-.126.8-.546,2.4-.651,3.052a.958.958,0,0,0,.867,1.2c1.465.3,3.9-2.447,5.06-5.441a88.728,88.728,0,0,0,2.907-10.559,4.624,4.624,0,0,0-.463-2.364,7.158,7.158,0,0,0-.672-1.224c-.484-1.47-.715-4.265-1.123-6.2Z" transform="translate(-115.468 -132.133)" fill="#ffa8a7"/>
    <path id="Trazado_720939" data-name="Trazado 720939" d="M329.446,381.668a3.5,3.5,0,0,1,.392,1.107c.035.674-1.488,2.892-2.085,3.7a5.408,5.408,0,0,0-1.1,3.838,9.336,9.336,0,0,1-2.26,6.009,14.819,14.819,0,0,1-7.368,4.816c-3.558,1.092-4.811-.691-4.811-.691s-1.1-1.717-.438-2.42S329.446,381.668,329.446,381.668Z" transform="translate(-113.79 -139.57)" fill="#4a0a5d"/>
    <path id="Trazado_720940" data-name="Trazado 720940" d="M325.359,371.145c.108,0,.3-.034.578.3.106.127.753,1.727,1.291,2.567.575.9,1.949,2.435,2.13,3.8-.825,2.636-3.3,4.47-3.673,6.959s-.416,5.379-4.244,8.424-7.762,3.357-9.175,2.549-1.283-2.322.689-5.206c2.094-3.061,3.507-9.695,3.507-9.7a22.124,22.124,0,0,0,.371-2.822,18.563,18.563,0,0,0-.262-2.793,2.07,2.07,0,0,1,.179-1.265,2.144,2.144,0,0,1,1.053-.727,9.275,9.275,0,0,1,1.966-.665,3.124,3.124,0,0,1,2.025.247,14.9,14.9,0,0,0,1.265.808,1.812,1.812,0,0,0,1.879-.335,1.555,1.555,0,0,0,.509-1.727A4.251,4.251,0,0,0,325.359,371.145Z" transform="translate(-113.702 -135.714)" fill="#9f0f6a"/>
    <path id="Trazado_720941" data-name="Trazado 720941" d="M325.359,371.145c.108,0,.3-.034.578.3.106.127.753,1.727,1.291,2.567.575.9,1.949,2.435,2.13,3.8-.825,2.636-3.3,4.47-3.673,6.959s-.416,5.379-4.244,8.424-7.762,3.357-9.175,2.549-1.283-2.322.689-5.206c2.094-3.061,3.507-9.695,3.507-9.7a22.124,22.124,0,0,0,.371-2.822,18.563,18.563,0,0,0-.262-2.793,2.07,2.07,0,0,1,.179-1.265,2.144,2.144,0,0,1,1.053-.727,9.275,9.275,0,0,1,1.966-.665,3.124,3.124,0,0,1,2.025.247,14.9,14.9,0,0,0,1.265.808,1.812,1.812,0,0,0,1.879-.335,1.555,1.555,0,0,0,.509-1.727A4.251,4.251,0,0,0,325.359,371.145Z" transform="translate(-113.702 -135.714)" opacity="0.4"/>
    <path id="Trazado_720942" data-name="Trazado 720942" d="M323.616,400.356a6.093,6.093,0,0,0-5.543-3c-4.063.013-5.469,2.079-6.089,3.295-.737,1.447-1.505,4.071.171,4.825,1.81.814,3.908.564,7.208-1.087A8.8,8.8,0,0,0,323.616,400.356Z" transform="translate(-113.639 -145.316)" fill="#fafafa"/>
    <path id="Trazado_720943" data-name="Trazado 720943" d="M325.958,382.085a.421.421,0,0,1-.371,0c-.627-.32-3.947-1.017-5.883.777-.25-.2-.2-.568.122-1.086a7.454,7.454,0,0,1,6.164-.406.386.386,0,0,1,.157.54A.418.418,0,0,1,325.958,382.085Z" transform="translate(-116.715 -139.283)" fill="#fafafa"/>
    <path id="Trazado_720944" data-name="Trazado 720944" d="M319.106,386.678a1.255,1.255,0,0,1,.235-1.116,7.6,7.6,0,0,1,5.879-.233.386.386,0,0,1,.157.54.427.427,0,0,1-.189.176.419.419,0,0,1-.371,0C324.207,385.733,321.059,385.076,319.106,386.678Z" transform="translate(-116.535 -140.734)" fill="#fafafa"/>
    <path id="Trazado_720945" data-name="Trazado 720945" d="M316.515,395.069a2.311,2.311,0,0,1,.52-1.47,7.512,7.512,0,0,1,6.073-.347.386.386,0,0,1,.157.54.431.431,0,0,1-.189.177.421.421,0,0,1-.371,0C322.042,393.628,318.382,392.873,316.515,395.069Z" transform="translate(-115.604 -143.636)" fill="#fafafa"/>
    <path id="Trazado_720946" data-name="Trazado 720946" d="M324.207,390.007a.419.419,0,0,1-.371,0c-.62-.317-3.872-1-5.815.721a1.425,1.425,0,0,1,.34-1.2,7.59,7.59,0,0,1,5.879-.232.386.386,0,0,1,.157.54A.424.424,0,0,1,324.207,390.007Z" transform="translate(-116.145 -142.184)" fill="#fafafa"/>
    <path id="Trazado_720947" data-name="Trazado 720947" d="M303.4,380.928s-2.134,9.931-4.163,13.726-3.066,5.627-5.747,8.444c-.584.613-1.9,1.743-2.378,2.239a1,1,0,0,0,.032,1.547c1.079,1.135,5.86,1.618,8.64-.268s5.43-6.059,7.108-7.6c.63-.58,1.227-1.176,1.8-1.811.549-.612.436-1.224.516-1.935.039-.344.034-1.288.034-1.288.447-1.668,1.567-4.265,2.172-5.883Z" transform="translate(-106.172 -139.299)" fill="#ffa8a7"/>
    <path id="Trazado_720948" data-name="Trazado 720948" d="M306.313,413.528a3.657,3.657,0,0,1-.181,1.215c-.3.64-2.793,1.944-3.741,2.4a5.66,5.66,0,0,0-2.9,3.008,9.766,9.766,0,0,1-5.037,4.446,15.5,15.5,0,0,1-9.173.838c-3.824-.735-4.108-3-4.108-3s-.176-2.128.781-2.452S306.313,413.528,306.313,413.528Z" transform="translate(-102.653 -151.241)" fill="#4a0a5d"/>
    <path id="Trazado_720949" data-name="Trazado 720949" d="M306.013,399.666c.1.049.293.115.386.562.035.169-.151,1.966-.065,3.006.091,1.113.608,3.207.106,4.556-2.056,2.032-5.243,2.514-6.808,4.632s-3.023,4.768-8.055,5.705-8.821-.7-9.732-2.143-.048-2.776,3.19-4.474c3.437-1.8,8-7.241,8-7.244a23.025,23.025,0,0,0,1.727-2.426,19.464,19.464,0,0,0,1.127-2.71,2.168,2.168,0,0,1,.786-1.081,2.242,2.242,0,0,1,1.329-.156,9.766,9.766,0,0,1,2.143.349,3.272,3.272,0,0,1,1.752,1.221,15.657,15.657,0,0,0,.773,1.367,1.9,1.9,0,0,0,1.9.612,1.625,1.625,0,0,0,1.317-1.346A4.22,4.22,0,0,0,306.013,399.666Z" transform="translate(-102.779 -145.503)" fill="#9f0f6a"/>
    <path id="Trazado_720950" data-name="Trazado 720950" d="M306.013,399.666c.1.049.293.115.386.562.035.169-.151,1.966-.065,3.006.091,1.113.608,3.207.106,4.556-2.056,2.032-5.243,2.514-6.808,4.632s-3.023,4.768-8.055,5.705-8.821-.7-9.732-2.143-.048-2.776,3.19-4.474c3.437-1.8,8-7.241,8-7.244a23.025,23.025,0,0,0,1.727-2.426,19.464,19.464,0,0,0,1.127-2.71,2.168,2.168,0,0,1,.786-1.081,2.242,2.242,0,0,1,1.329-.156,9.766,9.766,0,0,1,2.143.349,3.272,3.272,0,0,1,1.752,1.221,15.657,15.657,0,0,0,.773,1.367,1.9,1.9,0,0,0,1.9.612,1.625,1.625,0,0,0,1.317-1.346A4.22,4.22,0,0,0,306.013,399.666Z" transform="translate(-102.779 -145.503)" opacity="0.4"/>
    <path id="Trazado_720951" data-name="Trazado 720951" d="M294.77,424.217a6.377,6.377,0,0,0-3.651-5.493c-3.762-1.98-6.076-.76-7.244.06-1.391.977-3.388,3.025-2.208,4.544,1.274,1.641,3.336,2.438,7.2,2.53A9.2,9.2,0,0,0,294.77,424.217Z" transform="translate(-102.708 -152.751)" fill="#fafafa"/>
    <path id="Trazado_720952" data-name="Trazado 720952" d="M307.372,407.679a.436.436,0,0,1-.342-.184c-.423-.6-3.15-2.876-5.819-2.167-.132-.309.1-.623.645-.944a7.8,7.8,0,0,1,5.9,2.648.4.4,0,0,1-.12.577A.445.445,0,0,1,307.372,407.679Z" transform="translate(-109.985 -147.885)" fill="#fafafa"/>
    <path id="Trazado_720953" data-name="Trazado 720953" d="M298.789,408.481a1.314,1.314,0,0,1,.765-.916,7.95,7.95,0,0,1,5.549,2.668.4.4,0,0,1-.12.577.449.449,0,0,1-.6-.114C303.968,410.11,301.38,407.958,298.789,408.481Z" transform="translate(-109.111 -149.056)" fill="#fafafa"/>
    <path id="Trazado_720954" data-name="Trazado 720954" d="M292.12,415.091a2.421,2.421,0,0,1,1.2-1.1,7.859,7.859,0,0,1,5.783,2.658.4.4,0,0,1-.119.576.453.453,0,0,1-.262.07.437.437,0,0,1-.342-.184C297.935,416.469,294.922,413.977,292.12,415.091Z" transform="translate(-106.668 -151.406)" fill="#fafafa"/>
    <path id="Trazado_720955" data-name="Trazado 720955" d="M301.836,414.084a.437.437,0,0,1-.342-.184c-.418-.6-3.091-2.819-5.729-2.186a1.49,1.49,0,0,1,.9-.945,7.95,7.95,0,0,1,5.549,2.668.4.4,0,0,1-.12.576A.44.44,0,0,1,301.836,414.084Z" transform="translate(-108.003 -150.23)" fill="#fafafa"/>
    <path id="Trazado_720956" data-name="Trazado 720956" d="M331.874,290.181c-4.271,2.776-16.689,11.05-22.791,16.093-1.763,1.457-3.861,2.9-3.424,8.2.5,6.054,4.964,26.662,4.964,26.662l38.069-40.89Z" transform="translate(-111.606 -106.057)" fill="#4a0a5d"/>
    <path id="Trazado_720957" data-name="Trazado 720957" d="M315.643,339.175c5.484-4.082,23.9-29.823,23.9-29.823s-.7-.189-.7-.193c-3.68-2.138-4.436-6.983-4.436-6.983-.7,2.089.279,5.116,1.395,6.89-1.4,1.078-8.23,6.239-13.693,10.084a7.489,7.489,0,0,0-3.365,4.507C317.353,329.259,315.584,338.023,315.643,339.175Z" transform="translate(-115.284 -110.451)" fill="#630d7c"/>
    <path id="Trazado_720958" data-name="Trazado 720958" d="M334.71,292.635l29.886,7.187c-1.717,8.135-3.341,10.143-4.684,11.813-2,2.494-4.8,5.1-12.51,8.584-7.838,3.546-14.8,6.9-16.627,7.661-1.374.576-2.3,3.383-3.069,6.839-.81,3.625-1,5.961-4.977,13.461a87.277,87.277,0,0,1-5.168,9.033s-5.505.31-8.99-3.061c0,0,6.181-25.521,7.459-30.107.714-2.562.79-3.926,4.141-6.62,2.872-2.309,16.087-11.757,16.087-11.757S331.219,299.578,334.71,292.635Z" transform="translate(-112.695 -106.956)" fill="#4a0a5d"/>
    <path id="Trazado_720959" data-name="Trazado 720959" d="M356.766,231.306c-3.015-.23-5.483-.03-7.949,2.291-3.276,3.083-9.91,15.137-13.927,21.82l7.837,8.6,7.66-12.28Z" transform="translate(-122.335 -84.464)" fill="#f28f8f"/>
    <path id="Trazado_720960" data-name="Trazado 720960" d="M360.43,231.125c-2.319-.206-5.211-.56-7.586,1.794-2.078,2.06-7.409,10.583-7.409,10.583a15.441,15.441,0,0,0,4.115,5.334,14.423,14.423,0,0,0,5.377,2.332l6.142-19.99Z" transform="translate(-126.198 -84.369)" fill="#4a0a5d"/>
    <path id="Trazado_720961" data-name="Trazado 720961" d="M368.58,232.607c4.4,1.314,7.528,2.255,12.531,6.058,1.151,1.341,2.458,4.445,2.026,9.938a142.3,142.3,0,0,1-2.684,20.111c-1.27,6.793-3.341,13.794-3.341,13.794-10.95,2.488-29.174-6.069-31.874-13.371,2.129-2.636,3.346-5,5.987-22.638,1.319-8.811,5.293-13.719,9.133-15.286A39.13,39.13,0,0,1,368.58,232.607Z" transform="translate(-126.126 -84.456)" fill="#fafafa"/>
    <path id="Trazado_720962" data-name="Trazado 720962" d="M325.736,252.786c.046-.047.136-.058.26-.024l9.36,2.6a1.344,1.344,0,0,1,.716.568l8.976,16.4c.07.129.072.227.019.279l-.943.927a.267.267,0,0,1-.258.023l-9.36-2.6a1.347,1.347,0,0,1-.717-.568l-8.976-16.4c-.07-.129-.072-.227-.019-.279S325.684,252.838,325.736,252.786Z" transform="translate(-118.623 -92.343)" fill="#4a0a5d"/>
    <path id="Trazado_720963" data-name="Trazado 720963" d="M340.62,258.142a1.225,1.225,0,0,1,.32.355l8.976,16.4c.066.121.072.215.028.271l.934-.918c.053-.053.051-.151-.019-.279l-8.977-16.4a1.243,1.243,0,0,0-.32-.355Z" transform="translate(-124.434 -93.981)" fill="#4a0a5d"/>
    <path id="Trazado_720964" data-name="Trazado 720964" d="M343.866,274.1l-9.36-2.6a1.347,1.347,0,0,1-.717-.568l-8.976-16.4c-.132-.24-.024-.376.24-.3l9.36,2.6a1.347,1.347,0,0,1,.717.568l8.976,16.4C344.237,274.036,344.13,274.171,343.866,274.1Z" transform="translate(-118.623 -92.878)" fill="#630d7c"/>
    <path id="Trazado_720965" data-name="Trazado 720965" d="M340.234,262.293l-.915-1.67a1.55,1.55,0,0,0-.821-.651l-.364-.1c-.48-.134-.677.114-.437.551l.915,1.67a1.549,1.549,0,0,0,.821.651l.364.1C340.276,262.977,340.473,262.729,340.234,262.293Z" transform="translate(-123.326 -94.941)" fill="#4a0a5d"/>
    <path id="Trazado_720966" data-name="Trazado 720966" d="M340.5,263.1a1.438,1.438,0,0,0-.776-.591c-.295-.082-.425.049-.291.294a1.438,1.438,0,0,0,.776.591C340.5,263.472,340.633,263.341,340.5,263.1Z" transform="translate(-123.98 -95.91)" fill="#4a0a5d"/>
    <path id="Trazado_720967" data-name="Trazado 720967" d="M340.4,263.155a.737.737,0,0,0-.4-.3c-.151-.042-.217.025-.149.15a.736.736,0,0,0,.4.3C340.4,263.348,340.472,263.28,340.4,263.155Z" transform="translate(-124.145 -96.042)" fill="#fff" opacity="0.2"/>
    <path id="Trazado_720968" data-name="Trazado 720968" d="M339.412,261.145a1.438,1.438,0,0,0-.776-.591c-.295-.082-.425.049-.291.294a1.438,1.438,0,0,0,.776.591C339.416,261.521,339.546,261.39,339.412,261.145Z" transform="translate(-123.582 -95.195)" fill="#4a0a5d"/>
    <path id="Trazado_720969" data-name="Trazado 720969" d="M339.317,261.2a.736.736,0,0,0-.4-.3c-.151-.042-.217.025-.149.15a.736.736,0,0,0,.4.3C339.319,261.4,339.386,261.329,339.317,261.2Z" transform="translate(-123.747 -95.327)" fill="#fff" opacity="0.2"/>
    <path id="Trazado_720970" data-name="Trazado 720970" d="M342.932,260.854l.126-.122a.147.147,0,0,1,.142-.044l.182.05a.153.153,0,0,1,.092.078l.815,1.489a.278.278,0,0,1-.046.313l-.126.122a.147.147,0,0,1-.143.044l-.18-.05a.152.152,0,0,1-.092-.079l-.815-1.489A.277.277,0,0,1,342.932,260.854Z" transform="translate(-125.253 -95.252)" fill="#630d7c"/>
    <path id="Trazado_720971" data-name="Trazado 720971" d="M343.983,262.734l-.815-1.489a.278.278,0,0,1,.046-.313l.126-.122a.142.142,0,0,1,.237.035l.815,1.489a.278.278,0,0,1-.046.313l-.126.122A.142.142,0,0,1,343.983,262.734Z" transform="translate(-125.357 -95.28)" fill="#4a0a5d"/>
    <path id="Trazado_720972" data-name="Trazado 720972" d="M345.045,264.706l.125-.122a.147.147,0,0,1,.142-.044l.182.05a.153.153,0,0,1,.092.078l.815,1.489a.277.277,0,0,1-.046.313l-.126.122a.146.146,0,0,1-.143.044l-.18-.05a.152.152,0,0,1-.092-.079L345,265.019A.276.276,0,0,1,345.045,264.706Z" transform="translate(-126.027 -96.663)" fill="#630d7c"/>
    <path id="Trazado_720973" data-name="Trazado 720973" d="M346.1,266.587l-.815-1.489a.278.278,0,0,1,.046-.313l.126-.122a.142.142,0,0,1,.237.035l.815,1.489a.278.278,0,0,1-.046.313l-.126.122A.142.142,0,0,1,346.1,266.587Z" transform="translate(-126.131 -96.692)" fill="#4a0a5d"/>
    <path id="Trazado_720974" data-name="Trazado 720974" d="M328.888,263c-.959,1.444-1.151,2.4-.375,4.97a6.279,6.279,0,0,0,6.907,4.681c1.674-.146,1.2-7.507-.808-7.028-2.912.694-4.359-.129-4.359-.129Z" transform="translate(-119.823 -96.1)" fill="#f28f8f"/>
    <path id="Trazado_720975" data-name="Trazado 720975" d="M363.282,268.358l6.62-13.78s2.749-8.9,6.962-10.847c3.57,2.209,4.037,4.819,4.324,7.528.372,3.506-.714,7.422-4.085,14.088-3.216,6.357-5.4,10.42-7.109,12.6-2.117,2.7-4.885,2.169-9.495.555s-6.9-3.44-13.139-6.217c-3-1.335-4.941-1.971-7.289-3.533a10.291,10.291,0,0,1-2.417-2.079,6,6,0,0,1-1.342-2.568,1.775,1.775,0,0,0-.139-.516,3.581,3.581,0,0,0-.3-.44,3.463,3.463,0,0,1-.537-.848,5.349,5.349,0,0,1-.182-1.051,3.962,3.962,0,0,0-.072-.486,2.774,2.774,0,0,0-.193-.472,3.755,3.755,0,0,1-.487-1.234.692.692,0,0,1,.257-.623s-.334-.467-.439-.632a3.755,3.755,0,0,1-.362-.737.374.374,0,0,1-.013-.313.346.346,0,0,1,.145-.119c.9-.47,1.772.089,2.482.633,1.848,1.415,2.711,2.688,4.717,3.9,2.762,1.667,3.059.338,3.059.338l-1.752-3.2-.42-.768c-.245-1.309.651-2.021,1.492-.625.669,1.109,2.959,2.769,3.665,4.218s.863,2.933,2.853,4.324C352.206,266.932,363.282,268.358,363.282,268.358Z" transform="translate(-121.943 -89.042)" fill="#ffa8a7"/>
    <path id="Trazado_720976" data-name="Trazado 720976" d="M380.313,281.937a28.563,28.563,0,0,1,4.517,1.291,7.538,7.538,0,0,0-3.971-2.428Z" transform="translate(-138.974 -102.621)" fill="#f28f8f"/>
    <path id="Trazado_720977" data-name="Trazado 720977" d="M335.181,267.139c.319.486.683.942,1.048,1.392s.742.891,1.108,1.338c.186.219.36.452.56.67s.4.425.615.623c.422.4.859.785,1.317,1.142l-.6-.631c-.2-.207-.4-.416-.6-.629s-.394-.423-.579-.641-.36-.447-.546-.672q-.559-.67-1.15-1.309Z" transform="translate(-122.442 -97.617)" fill="#f28f8f"/>
    <path id="Trazado_720978" data-name="Trazado 720978" d="M335.784,270.505a6.988,6.988,0,0,0,.63,1.205c.245.375.511.734.785,1.088s.562.7.862,1.027a10.013,10.013,0,0,0,.954.943c-.281-.348-.549-.7-.824-1.052l-.821-1.051-.818-1.052C336.285,271.258,336.027,270.881,335.784,270.505Z" transform="translate(-122.662 -98.85)" fill="#f28f8f"/>
    <path id="Trazado_720979" data-name="Trazado 720979" d="M395.214,242.973c1.946,1.361,4.642,3.912,4.642,9.471s-5.837,15.6-5.837,15.6-7.129-1.539-10.281-5.454c0,0,2.753-6.31,4.492-10.5S392.684,243.7,395.214,242.973Z" transform="translate(-140.229 -88.764)" fill="#4a0a5d"/>
    <path id="Trazado_720980" data-name="Trazado 720980" d="M365.507,200.509c-2.372-11.157,7.794-10.794,10.212-10.8s9,1.428,9.328,6.019c3.163.824,3.1,6.047,1.983,8.15-2.061,3.872-3.923,6.388-5.042,9.211-.155-.133-10.354-7.35-12.662-9.326l-2.594-2.222C366.315,201.188,365.9,200.858,365.507,200.509Z" transform="translate(-133.42 -69.254)" fill="#630d7c"/>
    <path id="Trazado_720981" data-name="Trazado 720981" d="M385.047,213.508c-2.042,1.259-3.164-.224-3.164-.224l-.824,9.777c-4.423,4.8-14.957,3.042-9.909-1.76l.108-2.348a15.734,15.734,0,0,1-2.923-.387,4.955,4.955,0,0,1-1.649-.785,5.235,5.235,0,0,1-2.059-3.341,25.531,25.531,0,0,1-.284-7.081c.236-2.84.844-6.483,1.949-8.305,1.829-1.35,6.483-1.055,10.631.534a5.627,5.627,0,0,0,.959,3.229,4.509,4.509,0,0,0,1.515,1.42,9.081,9.081,0,0,0,.271,3.583c.167.543.52,1.366,1.6,1.077.511-.136.974-1.2,1.549-1.885a2.292,2.292,0,0,1,3.843,1.023A4.689,4.689,0,0,1,385.047,213.508Z" transform="translate(-133.082 -72.362)" fill="#ffa8a7"/>
    <path id="Trazado_720982" data-name="Trazado 720982" d="M375.289,227.543c2.167-.027,6.064-.506,7.285-1.722a15.255,15.255,0,0,0,2.345-4.168,18.238,18.238,0,0,1-1.69,4.769c-.968,1.4-2.877,1.838-4.267,2.134a23.3,23.3,0,0,1-3.736.293Z" transform="translate(-137.111 -80.955)" fill="#f28f8f"/>
    <path id="Trazado_720983" data-name="Trazado 720983" d="M379.6,207.923l1.977,1.072a1.18,1.18,0,0,0-.471-1.564A1.1,1.1,0,0,0,379.6,207.923Z" transform="translate(-138.713 -75.697)" fill="#630d7c"/>
    <path id="Trazado_720984" data-name="Trazado 720984" d="M368.98,206.867l-2.072.874a1.18,1.18,0,0,1,.62-1.511A1.1,1.1,0,0,1,368.98,206.867Z" transform="translate(-134.034 -75.274)" fill="#630d7c"/>
    <path id="Trazado_720985" data-name="Trazado 720985" d="M377.414,220.037l-3.85,1.1a2.1,2.1,0,0,0,2.548,1.4A1.955,1.955,0,0,0,377.414,220.037Z" transform="translate(-136.502 -80.363)" fill="#b16668"/>
    <path id="Trazado_720986" data-name="Trazado 720986" d="M378.129,221.246A1.955,1.955,0,0,0,376.016,223a1.99,1.99,0,0,0,.994-.017,1.928,1.928,0,0,0,1.39-1.684A1.993,1.993,0,0,0,378.129,221.246Z" transform="translate(-137.4 -80.803)" fill="#f28f8f"/>
    <path id="Trazado_720987" data-name="Trazado 720987" d="M373.144,208.307l-1.258,6.656-3.348-1.762Z" transform="translate(-134.661 -76.066)" fill="#f28f8f"/>
    <path id="Trazado_720988" data-name="Trazado 720988" d="M380.186,211.757a.921.921,0,1,1-.853-.983A.921.921,0,0,1,380.186,211.757Z" transform="translate(-138.254 -76.969)" fill="#630d7c"/>
    <path id="Trazado_720989" data-name="Trazado 720989" d="M369.484,210.518a.92.92,0,1,1-.853-.983A.921.921,0,0,1,369.484,210.518Z" transform="translate(-134.334 -76.515)" fill="#630d7c"/>
    <path id="Trazado_720990" data-name="Trazado 720990" d="M378.776,354.059a1.02,1.02,0,0,1-.281-.04,1,1,0,0,1-.679-1.24l4.061-13.9a1,1,0,0,1,1.919.561l-4.061,13.9A1,1,0,0,1,378.776,354.059Z" transform="translate(-138.044 -123.633)" fill="#4a0a5d"/>
    <path id="Trazado_720991" data-name="Trazado 720991" d="M408.684,336.792a1,1,0,0,1-.96-1.28l4.061-13.9a1,1,0,1,1,1.919.561l-4.061,13.9A1,1,0,0,1,408.684,336.792Z" transform="translate(-149 -117.308)" fill="#4a0a5d"/>
    <path id="Trazado_720992" data-name="Trazado 720992" d="M407.757,308.253a1.012,1.012,0,0,0-.6-.833l-5.236-3.023a3.19,3.19,0,0,0-2.886,0l-37.72,21.778a1.014,1.014,0,0,0-.6.833v1.563a1.014,1.014,0,0,0,.6.833l5.236,3.023a3.19,3.19,0,0,0,2.886,0l37.72-21.778a1.014,1.014,0,0,0,.6-.833Z" transform="translate(-131.797 -111.139)" fill="#4a0a5d"/>
    <path id="Trazado_720993" data-name="Trazado 720993" d="M411.365,307.42,406.13,304.4a3.19,3.19,0,0,0-2.886,0L372.2,322.32v10.453a2.957,2.957,0,0,0,1.443-.345l37.72-21.778a1.014,1.014,0,0,0,.6-.833v-1.563A1.014,1.014,0,0,0,411.365,307.42Z" transform="translate(-136.003 -111.139)" fill="#630d7c"/>
    <path id="Trazado_720994" data-name="Trazado 720994" d="M399.039,304.4l-37.72,21.778a.879.879,0,0,0,0,1.666l5.236,3.023a3.189,3.189,0,0,0,2.886,0l37.72-21.778a.879.879,0,0,0,0-1.666l-5.236-3.023A3.19,3.19,0,0,0,399.039,304.4Z" transform="translate(-131.797 -111.139)" fill="#4a0a5d"/>
    <path id="Trazado_720995" data-name="Trazado 720995" d="M379.995,162.892l2.246-4.224-1.808-5.218v-3.194l5.532,3.194v3.194l-2.378,4.12a.344.344,0,0,1-.162.144v0Z" transform="translate(-138.857 -54.801)" fill="#9f0f6a"/>
    <path id="Trazado_720996" data-name="Trazado 720996" d="M379.995,162.892l2.246-4.224-1.808-5.218v-3.194l5.532,3.194v3.194l-2.378,4.12a.344.344,0,0,1-.162.144v0Z" transform="translate(-138.857 -54.801)" opacity="0.3"/>
    <path id="Trazado_720997" data-name="Trazado 720997" d="M363.69,112.4a3.666,3.666,0,0,1,1.658-2.873l1.35-.779a3.665,3.665,0,0,1,3.317,0L389.4,119.9a3.667,3.667,0,0,1,1.658,2.873v21.591a3.666,3.666,0,0,1-1.658,2.873l-1.35.779a3.665,3.665,0,0,1-3.317,0l-8.215-4.717-2.373,4.113a.354.354,0,0,1-.641-.061L371,140.115l-5.648-3.252a3.666,3.666,0,0,1-1.658-2.873Z" transform="translate(-132.885 -39.45)" fill="#9f0f6a"/>
    <path id="Trazado_720998" data-name="Trazado 720998" d="M403.39,151.765a3.666,3.666,0,0,1-1.658,2.872l-1.35.779a3.707,3.707,0,0,1-3.033.134c.781.3,1.375-.145,1.375-1.091V132.868a3.4,3.4,0,0,0-.485-1.635l4.667-2.7a3.388,3.388,0,0,1,.486,1.635v21.592Z" transform="translate(-145.214 -46.846)" opacity="0.3"/>
    <path id="Trazado_720999" data-name="Trazado 720999" d="M363.776,111.928c.193-.7.836-.928,1.6-.487l19.39,11.162a3.285,3.285,0,0,1,1.169,1.238l4.666-2.693a3.344,3.344,0,0,0-1.168-1.238l-19.382-11.162a3.688,3.688,0,0,0-3.319,0l-1.354.781A3.658,3.658,0,0,0,363.776,111.928Z" transform="translate(-132.916 -39.452)" fill="#fff" opacity="0.3"/>
    <path id="Trazado_721000" data-name="Trazado 721000" d="M385.436,143.2a.719.719,0,0,1-1.037.653,4.128,4.128,0,0,1,.153,1.067c.007.676-.556,1.02-1.364.554s-6.142-3.538-6.142-3.538l-.007-8.028a23.554,23.554,0,0,0,1.843-2.275,17.271,17.271,0,0,0,0-2.879c0-.3,1.009.135,1.649,1.188a3.4,3.4,0,0,1,.362.814,10.263,10.263,0,0,1,.369,1.705,5.514,5.514,0,0,1-.125,2.137l3.715,2.147a2.007,2.007,0,0,1,.717.73,2.63,2.63,0,0,1,.39,1.25c0,.724-.4.892-.6.909a2.3,2.3,0,0,1,.738,1.624c0,.563-.341.97-.9.778A2.78,2.78,0,0,1,385.436,143.2Z" transform="translate(-137.775 -46.89)" fill="#fafafa"/>
    <path id="Trazado_721001" data-name="Trazado 721001" d="M371.42,133.758l.01,8.657a.668.668,0,0,0,.3.522l2.071,1.2c.166.1.3.018.3-.174v-8.64a.67.67,0,0,0-.3-.523l-2.081-1.211C371.555,133.489,371.42,133.566,371.42,133.758Z" transform="translate(-135.716 -48.679)" fill="#fafafa"/>
  </g>
</svg>
