<svg xmlns="http://www.w3.org/2000/svg" width="116.999" height="115" viewBox="0 0 116.999 115">
  <g id="Grupo_1067962" data-name="Grupo 1067962" transform="translate(-425.438 -7498.47)">
    <g id="Grupo_1015374" data-name="Grupo 1015374" transform="translate(425.927 7498.205)">
      <g id="Grupo_1015448" data-name="Grupo 1015448" transform="translate(0 0)">
        <g id="Grupo_1014855" data-name="Grupo 1014855" transform="translate(0 0)">
          <path id="Unión_12" data-name="Unión 12" d="M58.5,0C90.809,0,117,25.744,117,57.5S90.809,115,58.5,115,0,89.256,0,57.5,26.192,0,58.5,0Z" transform="translate(-0.49 0.265)" fill="#6fefc4"/>
          <ellipse id="Elipse_4842" data-name="Elipse 4842" cx="49" cy="49.5" rx="49" ry="49.5" transform="translate(9.51 7.265)" fill="#fff"/>
        </g>
      </g>
    </g>
    <g id="video" transform="translate(455.766 7524.471)">
      <g id="Grupo_1067984" data-name="Grupo 1067984">
        <g id="Grupo_1067965" data-name="Grupo 1067965">
          <path id="Trazado_718583" data-name="Trazado 718583" d="M2,10H56V40H2Z" fill="#69d6f4"/>
        </g>
        <g id="Grupo_1067966" data-name="Grupo 1067966">
          <path id="Trazado_718584" data-name="Trazado 718584" d="M38,48.9V44.42a6.108,6.108,0,0,0-.63-2.69L36.5,40H2V50a2.006,2.006,0,0,0,2,2H38.87A5.922,5.922,0,0,1,38,48.9Z" fill="#ccd1d9"/>
        </g>
        <g id="Grupo_1067967" data-name="Grupo 1067967">
          <path id="Trazado_718585" data-name="Trazado 718585" d="M54,2H4A2.006,2.006,0,0,0,2,4v6H34a2.006,2.006,0,0,1,2-2H56V4A2.006,2.006,0,0,0,54,2Z" fill="#b4dd7f"/>
        </g>
        <g id="Grupo_1067968" data-name="Grupo 1067968">
          <path id="Trazado_718586" data-name="Trazado 718586" d="M56,62H40a9.954,9.954,0,0,1,1.66-5.5L42,56H54l.34.5A9.954,9.954,0,0,1,56,62Z" fill="#fcd770"/>
        </g>
        <g id="Grupo_1067969" data-name="Grupo 1067969">
          <circle id="Elipse_5911" data-name="Elipse 5911" cx="2" cy="2" r="2" transform="translate(10 44)" fill="#ff826e"/>
        </g>
        <g id="Grupo_1067970" data-name="Grupo 1067970">
          <path id="Trazado_718587" data-name="Trazado 718587" d="M24.01,37l1.78-4.44v-.01c.42.08.88.18,1.34.27A7.294,7.294,0,0,1,33,39.99V40H7.01v-.02a7.3,7.3,0,0,1,5.87-7.16l1.35-.27v.01L16.01,37l4-2Z" fill="#ff826e"/>
        </g>
        <g id="Grupo_1067971" data-name="Grupo 1067971">
          <path id="Trazado_718588" data-name="Trazado 718588" d="M25.79,32.56,24.01,37l-4-2,3-3v-.01s1.21.24,2.78.56Z" fill="#fc6e51"/>
        </g>
        <g id="Grupo_1067972" data-name="Grupo 1067972">
          <path id="Trazado_718589" data-name="Trazado 718589" d="M20.01,35l-4,2-1.78-4.44v-.01l2.78-.56V32Z" fill="#fc6e51"/>
        </g>
        <g id="Grupo_1067973" data-name="Grupo 1067973">
          <path id="Trazado_718590" data-name="Trazado 718590" d="M13.01,22a1.993,1.993,0,0,0-1.56.75l-.25-1.01a5.9,5.9,0,0,1-.19-1.51A6.231,6.231,0,0,1,17.24,14h5.54a6.231,6.231,0,0,1,6.23,6.23,5.9,5.9,0,0,1-.19,1.51l-.25,1.01A1.993,1.993,0,0,0,27.01,22H23.84a11.875,11.875,0,0,1-5.36-1.27l-1.13-.56a1.618,1.618,0,0,0-2.34,1.45V22Z" fill="#656d78"/>
        </g>
        <g id="Grupo_1067974" data-name="Grupo 1067974">
          <path id="Trazado_718591" data-name="Trazado 718591" d="M60,8H36a2.006,2.006,0,0,0-2,2V26a2.006,2.006,0,0,0,2,2H60a2.006,2.006,0,0,0,2-2V10A2.006,2.006,0,0,0,60,8Z" fill="#ffeaa7"/>
        </g>
        <g id="Grupo_1067975" data-name="Grupo 1067975">
          <path id="Trazado_718592" data-name="Trazado 718592" d="M53.11,16.55a1.626,1.626,0,0,1,0,2.9l-8.77,4.38A1.618,1.618,0,0,1,42,22.38V13.62a1.618,1.618,0,0,1,2.34-1.45Z" fill="#ff826e"/>
        </g>
        <g id="Grupo_1067976" data-name="Grupo 1067976">
          <path id="Trazado_718593" data-name="Trazado 718593" d="M54,36l2,.5.49.12A1.992,1.992,0,0,1,58,38.56V48.9a5.976,5.976,0,0,1-1.31,3.74L54,56H42l-2.69-3.36a5.584,5.584,0,0,1-.44-.64A5.922,5.922,0,0,1,38,48.9V44.42a6.108,6.108,0,0,0-.63-2.69L36.5,40l-.33-.66A1.618,1.618,0,0,1,37.62,37,4.37,4.37,0,0,1,42,41.38V26a2.006,2.006,0,0,1,2-2,2.015,2.015,0,0,1,2,2v8l4,1Z" fill="#f0d0b4"/>
        </g>
        <g id="Grupo_1067977" data-name="Grupo 1067977">
          <path id="Trazado_718594" data-name="Trazado 718594" d="M28.42,25.41a1.955,1.955,0,0,1-1.41.59h-2V22h2a1.993,1.993,0,0,1,1.56.75A2.021,2.021,0,0,1,29.01,24,2,2,0,0,1,28.42,25.41Z" fill="#f0d0b4"/>
        </g>
        <g id="Grupo_1067978" data-name="Grupo 1067978">
          <path id="Trazado_718595" data-name="Trazado 718595" d="M23.01,31.99V32l-3,3-3-3v-.01l.57-2.26a3.949,3.949,0,0,0,1.43.26h2a3.949,3.949,0,0,0,1.43-.26Z" fill="#f0d0b4"/>
        </g>
        <g id="Grupo_1067979" data-name="Grupo 1067979">
          <path id="Trazado_718596" data-name="Trazado 718596" d="M25.01,22v4a4.006,4.006,0,0,1-2.57,3.73,3.949,3.949,0,0,1-1.43.26h-2a3.949,3.949,0,0,1-1.43-.26A4.006,4.006,0,0,1,15.01,26V21.62a1.618,1.618,0,0,1,2.34-1.45l1.13.56A11.875,11.875,0,0,0,23.84,22Z" fill="#f0d0b4"/>
        </g>
        <g id="Grupo_1067980" data-name="Grupo 1067980">
          <path id="Trazado_718597" data-name="Trazado 718597" d="M15.01,25.99V26h-2a1.955,1.955,0,0,1-1.41-.59A2,2,0,0,1,11.01,24a2.021,2.021,0,0,1,.44-1.25A1.993,1.993,0,0,1,13.01,22h2Z" fill="#f0d0b4"/>
        </g>
        <g id="Grupo_1067981" data-name="Grupo 1067981">
          <path id="Trazado_718598" data-name="Trazado 718598" d="M22,6h4v4H22Z" fill="#e6e9ed"/>
        </g>
        <g id="Grupo_1067982" data-name="Grupo 1067982">
          <path id="Trazado_718599" data-name="Trazado 718599" d="M14,6h4v4H14Z" fill="#e6e9ed"/>
        </g>
        <g id="Grupo_1067983" data-name="Grupo 1067983">
          <path id="Trazado_718600" data-name="Trazado 718600" d="M6,6h4v4H6Z" fill="#e6e9ed"/>
        </g>
      </g>
      <g id="Grupo_1067985" data-name="Grupo 1067985">
        <path id="Trazado_718601" data-name="Trazado 718601" d="M60,7H57V4a3,3,0,0,0-3-3H4A3,3,0,0,0,1,4V50a3,3,0,0,0,3,3H38.354c.063.087.112.184.18.269l2.231,2.789A10.868,10.868,0,0,0,39,62v1H57V62a10.868,10.868,0,0,0-1.765-5.942l2.231-2.789A7.029,7.029,0,0,0,59,48.9V38.562a2.987,2.987,0,0,0-2-2.817V29h3a3,3,0,0,0,3-3V10A3,3,0,0,0,60,7ZM4,3H54a1,1,0,0,1,1,1V7H36a3,3,0,0,0-2.816,2H27V5H21V9H19V5H13V9H11V5H5V9H3V4A1,1,0,0,1,4,3ZM43,22.382V13.618a.618.618,0,0,1,.894-.553l8.763,4.382a.618.618,0,0,1,0,1.106l-8.764,4.382A.635.635,0,0,1,43,22.382ZM41,37.23A5.326,5.326,0,0,0,37.618,36a2.517,2.517,0,0,0-2.573,3h-1.11a8.324,8.324,0,0,0-6.608-7.164l-3.5-.7-.223-.89A5,5,0,0,0,25.907,27h1.1a3,3,0,0,0,3-3,2.961,2.961,0,0,0-.368-1.409l.151-.6A7.229,7.229,0,0,0,22.777,13H17.242a7.232,7.232,0,0,0-7.016,8.986l.151.606A2.971,2.971,0,0,0,10.01,24a3,3,0,0,0,3,3h1.1a5,5,0,0,0,2.3,3.243l-.223.89-3.508.7A8.325,8.325,0,0,0,6.075,39H3V11H33V26a3,3,0,0,0,3,3h5ZM14.01,25h-1a1,1,0,1,1,0-2h1Zm.082-4H13.01a2.937,2.937,0,0,0-.908.156A5.182,5.182,0,0,1,17.242,15h5.535a5.182,5.182,0,0,1,5.141,6.155A2.937,2.937,0,0,0,27.01,21H23.843a11.049,11.049,0,0,1-4.919-1.161L17.8,19.276A2.645,2.645,0,0,0,16.628,19a2.617,2.617,0,0,0-2.536,2ZM26.01,23h1a1,1,0,0,1,0,2h-1Zm-10-1.382a.618.618,0,0,1,.894-.553l1.125.563A13.078,13.078,0,0,0,23.843,23h.167v2.99a3,3,0,0,1-3,3h-2a3,3,0,0,1-3-3Zm7.336,11.46,1.069.214-.931,2.327L21.7,34.726ZM19.01,30.99h2a4.911,4.911,0,0,0,.7-.071l.193.772L20.01,33.585l-1.894-1.894.193-.772a4.911,4.911,0,0,0,.7.071Zm-2.337,2.087,1.649,1.649-1.787.893L15.6,33.291Zm-3.064.613,1.876,4.691,4.525-2.263,4.525,2.263,1.875-4.689.524.1a6.315,6.315,0,0,1,4.98,5.2H8.1a6.316,6.316,0,0,1,4.981-5.2ZM9,9H7V7H9Zm8,0H15V7h2Zm8,0H23V7h2ZM4,51a1,1,0,0,1-1-1V41H35.882l.59,1.181A5.027,5.027,0,0,1,37,44.416V48.9a6.968,6.968,0,0,0,.341,2.1H4ZM41.056,61a8.885,8.885,0,0,1,1.44-3.941L42.535,57h10.93l.039.059A8.885,8.885,0,0,1,54.944,61ZM57,48.9a5.014,5.014,0,0,1-1.1,3.123L53.519,55H42.481L40.1,52.019A5.016,5.016,0,0,1,39,48.9V44.417a7.027,7.027,0,0,0-.739-3.13l-1.2-2.392a.619.619,0,0,1,.553-.9A3.386,3.386,0,0,1,41,41.382V46h2V26a1,1,0,0,1,2,0V46h2V35.281l2,.5V46h2V36.281l2,.5V46h2V37.28l1.242.311a1,1,0,0,1,.758.971ZM55,35.219l-4-1-2-.5-2-.5V29h8ZM61,26a1,1,0,0,1-1,1H47V26a2.979,2.979,0,0,0-.775-1.994l7.329-3.664a2.619,2.619,0,0,0,0-4.684l-8.764-4.382A2.619,2.619,0,0,0,41,13.618v8.764a2.6,2.6,0,0,0,.678,1.742A2.97,2.97,0,0,0,41,26v1H36a1,1,0,0,1-1-1V10a1,1,0,0,1,1-1H60a1,1,0,0,1,1,1Z"/>
        <path id="Trazado_718602" data-name="Trazado 718602" d="M12,43a3,3,0,0,0-2.816,2H5v2H9.184a2.982,2.982,0,0,0,5.632,0H35V45H14.816A3,3,0,0,0,12,43Zm0,4a1,1,0,1,1,1-1A1,1,0,0,1,12,47Z"/>
      </g>
    </g>
  </g>
</svg>
